<?xml version="1.0" encoding="UTF-8" standalone="no"?>
<svg
   xmlns:dc="http://purl.org/dc/elements/1.1/"
   xmlns:cc="http://creativecommons.org/ns#"
   xmlns:rdf="http://www.w3.org/1999/02/22-rdf-syntax-ns#"
   xmlns:svg="http://www.w3.org/2000/svg"
   xmlns="http://www.w3.org/2000/svg"
   xmlns:sodipodi="http://sodipodi.sourceforge.net/DTD/sodipodi-0.dtd"
   xmlns:inkscape="http://www.inkscape.org/namespaces/inkscape"
   version="1.1"
   id="Layer_1"
   x="0px"
   y="0px"
   viewBox="0 0 447.48997 472.07006"
   xml:space="preserve"
   sodipodi:docname="finance_icons_bank.svg"
   width="447.48999"
   height="472.07007"
   inkscape:version="1.0.2 (e86c8708, 2021-01-15)"><metadata
   id="metadata1536"><rdf:RDF><cc:Work
       rdf:about=""><dc:format>image/svg+xml</dc:format><dc:type
         rdf:resource="http://purl.org/dc/dcmitype/StillImage" /><dc:title></dc:title></cc:Work></rdf:RDF></metadata><defs
   id="defs1534" /><sodipodi:namedview
   pagecolor="#ffffff"
   bordercolor="#666666"
   borderopacity="1"
   objecttolerance="10"
   gridtolerance="10"
   guidetolerance="10"
   inkscape:pageopacity="0"
   inkscape:pageshadow="2"
   inkscape:window-width="1280"
   inkscape:window-height="747"
   id="namedview1532"
   showgrid="false"
   fit-margin-top="0"
   fit-margin-left="0"
   fit-margin-right="0"
   fit-margin-bottom="0"
   inkscape:zoom="1.366339"
   inkscape:cx="145.26118"
   inkscape:cy="246.78722"
   inkscape:window-x="0"
   inkscape:window-y="25"
   inkscape:window-maximized="1"
   inkscape:current-layer="Layer_1" />
<style
   type="text/css"
   id="style833">
	.st0{fill:#DBDBE4;}
	.st1{fill:#D7DCE0;}
	.st2{fill:#3A3B3A;}
</style>
<path
   class="st0"
   d="m 401.43,263.22008 c -0.8,0 -1.77,-0.01 -2.84,-0.02 -4.62,-0.04 -10.96,-0.1 -14.64,0.43 l 0.2,1.41 c 3.57,-0.52 9.84,-0.46 14.42,-0.42 1.08,0.01 2.05,0.02 2.85,0.02 v -1.42 z"
   id="path835" />
<path
   class="st0"
   d="m 399.29,269.16008 c -1.49,0.08 -6.62,0.04 -8.39,0 -0.5,-0.01 -0.97,0.02 -1.48,0.05 -0.66,0.04 -1.41,0.08 -2.43,0.05 l -0.05,1.42 c 0.29,0.01 0.56,0.02 0.82,0.02 0.69,0 1.24,-0.03 1.75,-0.06 0.48,-0.03 0.91,-0.06 1.37,-0.04 1.79,0.04 6.98,0.08 8.5,0 z"
   id="path837" />
<path
   class="st0"
   d="m 392.78,259.17008 c 1.91,-0.16 3.91,-0.3 5.83,-0.35 -0.85,-0.45 -1.7,-0.88 -2.56,-1.31 -1.14,0.07 -2.28,0.15 -3.39,0.24 -2.29,0.19 -4.66,0.39 -6.97,0.39 -2.41,0 -4.52,-0.22 -6.46,-0.66 l -0.32,1.39 c 2.04,0.47 4.26,0.7 6.78,0.7 2.37,-0.01 4.77,-0.21 7.09,-0.4 z"
   id="path839" />
<path
   class="st0"
   d="m 382.58,251.46008 h -8.91 v 1.42 h 12.37 c -1.15,-0.48 -2.3,-0.96 -3.46,-1.42 z"
   id="path841" />
<path
   class="st0"
   d="m 405.52,285.90008 1.3,-0.57 c -0.8,-1.83 -3.5,-4.89 -5.26,-5.95 l -0.74,1.22 c 1.51,0.91 4.01,3.73 4.7,5.3 z"
   id="path843" />
<path
   class="st0"
   d="m 353.23,249.63008 c 0.89,1.11 1.8,2.26 2.74,3.48 2.11,2.74 4.17,5.5 6.23,8.27 2.06,2.77 4.13,5.55 6.24,8.29 2.67,3.45 5.1,6.42 7.43,9.08 0.22,0.15 0.44,0.31 0.66,0.46 0.38,0.28 0.69,0.5 0.98,0.71 0.19,0.16 0.35,0.29 0.39,0.34 0.71,0.71 1.4,1.47 2.04,2.25 0.01,0.02 0.71,-0.65 0.71,-0.65 -3.48,-3.63 -7,-7.78 -11.09,-13.07 -2.11,-2.74 -4.17,-5.5 -6.23,-8.27 -2.06,-2.77 -4.13,-5.55 -6.24,-8.29 -0.98,-1.27 -1.93,-2.48 -2.86,-3.63 -0.35,0.33 -0.69,0.67 -1,1.03 z"
   id="path845" />
<path
   class="st0"
   d="m 364.11,274.24008 c -2.67,-3.46 -5.28,-7.09 -7.8,-10.6 -1.88,-2.62 -3.81,-5.3 -5.77,-7.93 -0.05,0.52 -0.07,1.04 -0.04,1.57 0.02,0.29 0.04,0.58 0.07,0.86 1.55,2.11 3.09,4.24 4.59,6.32 2.14,2.97 4.34,6.02 6.58,8.99 0.88,0.44 1.8,0.85 2.73,1.23 -0.12,-0.14 -0.24,-0.28 -0.36,-0.44 z"
   id="path847" />
<path
   class="st0"
   d="m 390.37,285.32008 1.15,-0.84 c -7.8,-10.74 -14.24,-19.38 -20.26,-27.17 -3.27,-4.23 -6.42,-8.22 -9.51,-12.04 -0.55,0.05 -1.09,0.13 -1.63,0.25 3.24,4 6.56,8.19 10.01,12.65 6.01,7.79 12.44,16.42 20.24,27.15 z"
   id="path849" />
<path
   class="st0"
   d="m 415.7,278.72008 c 1.72,1.88 3.49,3.82 5.06,5.85 0.64,0.83 1.2,1.61 1.72,2.4 l 1.19,-0.78 c -0.54,-0.82 -1.12,-1.64 -1.79,-2.49 -1.6,-2.08 -3.4,-4.04 -5.14,-5.94 -1.72,-1.88 -3.49,-3.82 -5.06,-5.85 -1.45,-1.89 -3.28,-4.02 -5,-5.87 l -1.04,0.97 c 1.69,1.81 3.48,3.92 4.91,5.77 1.61,2.08 3.41,4.04 5.15,5.94 z"
   id="path851" />
<path
   class="st0"
   d="m 415.66,285.60008 c -2.06,-2.66 -5.14,-6.17 -7.86,-9.26 -1.05,-1.2 -2.04,-2.32 -2.87,-3.28 l -1.08,0.93 c 0.84,0.97 1.83,2.1 2.88,3.3 2.71,3.08 5.77,6.56 7.8,9.19 z"
   id="path853" />
<path
   class="st0"
   d="m 397.83,277.90008 0.09,-1.42 c -0.9,-0.05 -1.72,-0.03 -2.59,0 -0.8,0.03 -1.66,0.04 -2.65,0.02 -0.94,-0.02 -1.91,-0.04 -2.77,0.06 l 0.15,1.41 c 0.77,-0.08 1.7,-0.07 2.59,-0.05 1.02,0.02 1.9,0 2.72,-0.02 0.85,-0.03 1.63,-0.05 2.46,0 z"
   id="path855" />
<path
   class="st0"
   d="m 395.94,284.41008 c 0.8,0.04 1.56,0.02 2.21,-0.17 l -0.39,-1.37 c -0.49,0.14 -1.11,0.14 -1.76,0.12 -0.53,-0.02 -1.07,-0.04 -1.64,0.04 l 0.2,1.41 c 0.49,-0.08 0.94,-0.05 1.38,-0.03 z"
   id="path857" />
<path
   class="st0"
   d="m 388.96,357.97008 c 3.12,0.06 6.25,0.11 9.38,0.11 1.89,0 3.35,0.09 4.77,0.17 2.43,0.14 4.53,0.26 7.88,-0.1 l -0.15,-1.41 c -3.23,0.35 -5.28,0.23 -7.65,0.09 -1.44,-0.08 -2.93,-0.17 -4.85,-0.17 -3.12,0 -6.24,-0.06 -9.35,-0.11 -3.12,-0.06 -6.25,-0.11 -9.38,-0.11 -3.8,0 -7.17,0.09 -10.27,0.28 -1.04,0.55 -2.07,1.1 -3.11,1.66 3.95,-0.35 8.26,-0.51 13.38,-0.51 3.12,-0.01 6.23,0.04 9.35,0.1 z"
   id="path859" />
<path
   class="st0"
   d="m 355.97,372.60008 c 2.11,2.74 4.17,5.5 6.23,8.27 2.06,2.77 4.13,5.55 6.24,8.29 3.97,5.14 7.42,9.22 10.82,12.79 0.45,-0.22 0.89,-0.43 1.34,-0.65 -3.46,-3.62 -6.97,-7.75 -11.03,-13.01 -2.11,-2.74 -4.17,-5.5 -6.23,-8.27 -2.06,-2.77 -4.13,-5.55 -6.24,-8.29 -1.59,-2.06 -3.1,-3.95 -4.55,-5.7 -0.42,0.24 -0.83,0.49 -1.25,0.73 1.49,1.79 3.03,3.72 4.67,5.84 z"
   id="path861" />
<path
   class="st0"
   d="m 412.27,368.26008 0.41,0.53 c 1.22,1.41 2.45,2.94 3.76,4.64 1.23,1.6 2.45,3.24 3.66,4.88 0.38,-0.29 0.75,-0.58 1.12,-0.87 -1.21,-1.65 -2.43,-3.28 -3.66,-4.88 -1.47,-1.91 -2.84,-3.61 -4.19,-5.19 z"
   id="path863" />
<path
   class="st0"
   d="m 414.95,358.54008 -1.03,0.98 c 3.48,3.63 7,7.78 11.09,13.07 0.26,0.34 0.51,0.68 0.77,1.02 0.35,-0.32 0.72,-0.62 1.07,-0.95 -0.24,-0.31 -0.47,-0.63 -0.71,-0.94 -4.12,-5.32 -7.67,-9.51 -11.19,-13.18 z"
   id="path865" />
<path
   class="st0"
   d="m 408.28,377.22008 4.72,6.1 c 0.4,-0.26 0.79,-0.53 1.19,-0.79 l -4.78,-6.18 z"
   id="path867" />
<path
   class="st0"
   d="m 336.84,386.72008 c 1.37,1.79 5.37,6.36 8.9,10.4 2.72,3.11 5.29,6.05 5.97,6.94 0.64,0.83 1.21,1.62 1.72,2.4 l 1.19,-0.78 c -0.54,-0.82 -1.12,-1.63 -1.79,-2.49 -0.71,-0.92 -3.17,-3.74 -6.03,-7.01 -3.51,-4.02 -7.5,-8.58 -8.84,-10.33 z"
   id="path869" />
<path
   class="st0"
   d="m 371.25,376.80008 c -4.06,-5.25 -7.95,-10.15 -11.74,-14.78 -0.42,0.23 -0.84,0.48 -1.26,0.71 3.83,4.67 7.76,9.62 11.87,14.94 4.82,6.24 9.92,13.04 15.77,21.02"
   id="path871" />
<path
   class="st0"
   d="m 334.37,378.37008 0.11,-1.42 c -0.19,-0.01 -0.4,-0.01 -0.6,-0.02 -0.78,0.46 -1.56,0.91 -2.34,1.37 0.99,-0.01 1.94,0 2.83,0.07 z"
   id="path873" />
<rect
   x="37.904274"
   y="505.88882"
   transform="rotate(-37.683524)"
   class="st0"
   width="1.4200011"
   height="34.540028"
   id="rect875" />
<rect
   x="373.67001"
   y="370.95007"
   class="st0"
   width="31.200001"
   height="1.42"
   id="rect877" />
<path
   class="st0"
   d="m 401.43,382.71008 c -0.8,0 -1.77,-0.01 -2.84,-0.02 -4.62,-0.04 -10.96,-0.1 -14.64,0.43 l 0.2,1.41"
   id="path879" />
<path
   class="st0"
   d="m 392.78,378.66008 c 3.23,-0.27 6.73,-0.51 9.64,-0.29 l 0.11,-1.42 c -3.01,-0.23 -6.58,0.02 -9.86,0.29 -2.29,0.19 -4.66,0.39 -6.97,0.39 -2.41,0 -4.52,-0.22 -6.46,-0.66 l -0.32,1.39 c 2.04,0.47 4.26,0.7 6.78,0.7 2.36,-0.01 4.76,-0.21 7.08,-0.4 z"
   id="path881" />
<path
   class="st0"
   d="m 355.15,383.96008 c 2.53,3.52 5.15,7.16 7.83,10.64 2.66,3.45 5.11,6.37 7.49,8.93 l 1.04,-0.97 c -2.35,-2.53 -4.77,-5.42 -7.41,-8.83 -2.67,-3.46 -5.28,-7.09 -7.8,-10.6 -2.52,-3.51 -5.12,-7.13 -7.78,-10.58 -0.78,-1.01 -1.53,-1.96 -2.26,-2.86 -0.41,0.24 -0.83,0.48 -1.24,0.73 0.77,0.95 1.56,1.94 2.38,3.01 2.64,3.42 5.24,7.04 7.75,10.53 z"
   id="path883" />
<path
   class="st0"
   d="m 335.65,395.34008 c 3.82,2.81 7.02,6.96 9.84,10.62 l 1.13,-0.87 c -2.88,-3.73 -6.15,-7.96 -10.13,-10.89 z"
   id="path885" />
<path
   class="st0"
   d="m 327.57,402.48008 c -0.43,-0.02 -0.87,-0.04 -1.3,0.04 l 0.28,1.39 c 0.31,-0.06 0.63,-0.04 0.94,-0.02 0.19,0.01 0.38,0.02 0.57,0.02 0.3,0 0.75,-0.02 1.23,-0.21 l -0.53,-1.32 c -0.3,0.12 -0.73,0.12 -1.19,0.1 z"
   id="path887" />
<path
   class="st0"
   d="m 330.54,384.12008 c 1.08,0.01 2.05,0.02 2.85,0.02 v -1.42 c -0.8,0 -1.77,-0.01 -2.84,-0.02 -1.98,-0.02 -4.26,-0.04 -6.52,-0.02 -0.84,0.49 -1.68,0.98 -2.52,1.47 2.99,-0.09 6.31,-0.06 9.03,-0.03 z"
   id="path889" />
<path
   class="st0"
   d="m 383.16,349.16008 c -0.85,0.49 -1.71,0.98 -2.57,1.46 3.38,-0.05 6.85,-0.09 10.46,-0.09 7,0 10.55,0.13 15.46,0.32 2.23,0.08 4.72,0.18 7.92,0.27 l 0.04,-1.42 c -3.19,-0.09 -5.67,-0.19 -7.9,-0.27 -4.93,-0.19 -8.49,-0.32 -15.51,-0.32 -2.71,0 -5.33,0.02 -7.9,0.05 z"
   id="path891" />
<path
   class="st0"
   d="m 324.62,397.42008 c 1.02,0.02 1.9,0 2.72,-0.02 0.83,-0.03 1.62,-0.06 2.45,0 l 0.09,-1.42 c -0.91,-0.05 -1.72,-0.03 -2.59,0 -0.8,0.03 -1.66,0.04 -2.65,0.02 -0.94,-0.02 -1.91,-0.04 -2.77,0.06 l 0.15,1.41 c 0.79,-0.09 1.71,-0.07 2.6,-0.05 z"
   id="path893" />
<path
   class="st0"
   d="m 417.37,350.95008 c 4.6,5.28 9.28,10.91 14.17,17.02 0.33,-0.35 0.66,-0.7 0.97,-1.06 -4.85,-6.06 -9.51,-11.64 -14.07,-16.89 z"
   id="path895" />
<path
   class="st0"
   d="m 409.61,363.15008 c -3.1,0.28 -6.5,0.42 -10.4,0.42 -3.94,0 -7.98,-0.14 -11.88,-0.27 -3.9,-0.13 -7.93,-0.27 -11.86,-0.27 -2.17,0 -4.15,0.04 -6.03,0.13 l 0.03,1.42 h 0.6 c 1.69,-0.09 3.46,-0.13 5.4,-0.13 3.91,0 7.93,0.14 11.81,0.27 3.92,0.13 7.97,0.28 11.93,0.28 3.94,0 7.38,-0.14 10.53,-0.43 z"
   id="path897" />
<path
   class="st0"
   d="m 332.64,398.96008 -0.98,1.03 c 1.3,1.22 1.89,2.09 2.7,3.28 0.47,0.69 1.01,1.47 1.78,2.47 l 1.13,-0.87 c -0.75,-0.97 -1.27,-1.74 -1.73,-2.41 -0.84,-1.21 -1.49,-2.17 -2.9,-3.5 z"
   id="path899" />
<path
   class="st0"
   d="m 321.46,390.12008 c 0.48,-0.03 0.91,-0.06 1.37,-0.04 1.79,0.04 6.98,0.08 8.5,0 l -0.08,-1.42 c -1.49,0.08 -6.62,0.04 -8.39,0 -0.5,-0.01 -0.97,0.02 -1.48,0.05 -0.66,0.04 -1.41,0.08 -2.43,0.05 l -0.05,1.42 c 0.29,0.01 0.56,0.02 0.82,0.02 0.68,-0.02 1.24,-0.05 1.74,-0.08 z"
   id="path901" />
<path
   class="st0"
   d="m 390.37,345.06008 1.15,-0.84 c -0.03,-0.04 -0.06,-0.08 -0.09,-0.13 -0.4,0.26 -0.79,0.53 -1.19,0.78 0.04,0.07 0.08,0.13 0.13,0.19 z"
   id="path903" />
<path
   class="st0"
   d="m 403.19,297.09008 c -1.44,-0.08 -2.93,-0.17 -4.85,-0.17 -3.06,0 -6.12,-0.06 -9.18,-0.11 0.35,0.49 0.71,0.97 1.08,1.44 2.7,0.05 5.4,0.09 8.1,0.09 1.89,0 3.35,0.09 4.77,0.17 2.43,0.14 4.53,0.26 7.88,-0.1 l -0.15,-1.41 c -3.24,0.34 -5.28,0.22 -7.65,0.09 z"
   id="path905" />
<path
   class="st0"
   d="m 425.02,312.85008 c 2.11,2.74 4.17,5.5 6.23,8.27 2.06,2.77 4.13,5.55 6.24,8.29 3.04,3.93 5.77,7.24 8.4,10.18 0.02,-0.18 0.05,-0.35 0.08,-0.52 0.03,-0.25 0.13,-0.72 0.24,-1.27 -2.38,-2.7 -4.86,-5.72 -7.59,-9.26 -2.11,-2.74 -4.17,-5.5 -6.23,-8.27 -2.06,-2.77 -4.13,-5.55 -6.24,-8.29 -4.12,-5.33 -7.67,-9.52 -11.19,-13.19 l -1.03,0.98 c 3.48,3.64 7,7.79 11.09,13.08 z"
   id="path907" />
<path
   class="st0"
   d="m 391.05,290.79008 c 7,0 10.55,0.13 15.46,0.32 2.23,0.08 4.72,0.18 7.92,0.27 l 0.04,-1.42 c -3.19,-0.09 -5.67,-0.19 -7.9,-0.27 -4.93,-0.19 -8.49,-0.32 -15.51,-0.32 -2.27,0 -4.48,0.01 -6.66,0.04 0.28,0.47 0.58,0.94 0.86,1.41 1.89,-0.02 3.82,-0.03 5.79,-0.03 z"
   id="path909" />
<path
   class="st0"
   d="m 404.67,334.68008 c 0.64,0.73 1.33,1.52 2.06,2.35 2.71,3.08 5.77,6.56 7.8,9.19 l 1.13,-0.87 c -2.06,-2.66 -5.14,-6.17 -7.86,-9.26 -0.72,-0.82 -1.41,-1.6 -2.04,-2.33 -0.04,0.03 -0.07,0.07 -0.11,0.1 -0.17,0.14 -0.55,0.47 -0.98,0.82 z"
   id="path911" />
<path
   class="st0"
   d="m 399.21,303.83008 c -1.36,0 -2.73,-0.03 -4.1,-0.06 0.5,0.49 1.02,0.97 1.54,1.44 0.85,0.01 1.71,0.04 2.56,0.04 3.94,0 7.38,-0.14 10.53,-0.43 l -0.13,-1.42 c -3.11,0.29 -6.51,0.43 -10.4,0.43 z"
   id="path913" />
<path
   class="st0"
   d="m 396.01,342.73008 c -0.53,-0.02 -1.07,-0.04 -1.64,0.04 l 0.2,1.41 c 0.48,-0.07 0.93,-0.05 1.37,-0.03 0.8,0.04 1.56,0.02 2.21,-0.17 l -0.39,-1.37 c -0.49,0.14 -1.1,0.15 -1.75,0.12 z"
   id="path915" />
<path
   class="st0"
   d="m 447.28,328.59008 c 0.09,-0.7 0.16,-1.39 0.21,-2.09 -2.49,-3.32 -4.87,-6.44 -7.19,-9.44 -7.75,-10.04 -14.9,-18.8 -21.86,-26.79 l -1.07,0.93 c 6.94,7.97 14.07,16.71 21.81,26.72 2.59,3.36 5.27,6.89 8.1,10.67 z"
   id="path917" />
<path
   class="st0"
   d="m 405.52,345.64008 1.3,-0.57 c -0.8,-1.83 -3.5,-4.89 -5.26,-5.95 l -0.74,1.22 c 1.51,0.91 4.01,3.74 4.7,5.3 z"
   id="path919" />
<path
   class="st0"
   d="m 412.27,308.51008 0.41,0.53 c 1.22,1.41 2.45,2.94 3.76,4.64 2.64,3.42 5.24,7.04 7.76,10.54 2.53,3.52 5.15,7.16 7.83,10.64 2.66,3.44 5.11,6.36 7.49,8.93 l 1.04,-0.97 c -2.35,-2.53 -4.78,-5.42 -7.41,-8.83 -2.67,-3.46 -5.28,-7.09 -7.8,-10.6 -2.52,-3.51 -5.13,-7.13 -7.79,-10.58 -1.47,-1.91 -2.84,-3.61 -4.19,-5.19 z"
   id="path921" />
<path
   class="st0"
   d="m 429.4,344.81008 1.13,-0.87 -15.05,-19.49 c -0.34,0.33 -0.68,0.66 -1.03,1 z"
   id="path923" />
<path
   class="st0"
   d="m 410.56,332.53008 c 1.6,2.08 3.4,4.04 5.14,5.94 1.72,1.88 3.49,3.82 5.06,5.85 0.64,0.83 1.2,1.61 1.72,2.4 l 1.19,-0.78 c -0.54,-0.82 -1.12,-1.64 -1.79,-2.49 -1.6,-2.08 -3.4,-4.04 -5.14,-5.94 -1.72,-1.88 -3.49,-3.82 -5.06,-5.85 -0.49,-0.64 -1.03,-1.3 -1.59,-1.97 -0.34,0.33 -0.68,0.66 -1.03,0.99 0.53,0.62 1.04,1.25 1.5,1.85 z"
   id="path925" />

<path
   class="st0"
   d="m 348.32,410.69008 c 1.22,1.41 2.46,2.85 3.7,4.3 0.44,-0.21 0.88,-0.42 1.33,-0.64 -1.32,-1.56 -2.64,-3.1 -3.95,-4.6 z"
   id="path929" />
<path
   class="st0"
   d="m 302.02,424.31008 c 1.69,-0.09 3.46,-0.13 5.4,-0.13 3.91,0 7.93,0.14 11.81,0.27 3.92,0.13 7.97,0.27 11.93,0.27 0.18,0 0.35,0 0.53,0 1.01,-0.49 2.02,-0.98 3.04,-1.47 -1.15,0.03 -2.33,0.05 -3.57,0.05 -3.94,0 -7.98,-0.14 -11.88,-0.27 -3.9,-0.13 -7.93,-0.27 -11.86,-0.27 -2.17,0 -4.15,0.04 -6.03,0.13 l 0.03,1.42 z"
   id="path931" />
<path
   class="st0"
   d="m 335.14,416.58008 c -1.44,-0.08 -2.93,-0.17 -4.85,-0.17 -3.12,0 -6.24,-0.06 -9.35,-0.11 -3.12,-0.06 -6.25,-0.11 -9.38,-0.11 -6.08,0 -11.05,0.23 -15.62,0.72 l 0.15,1.41 c 4.52,-0.48 9.43,-0.71 15.46,-0.71 3.12,0 6.24,0.06 9.35,0.11 3.12,0.06 6.25,0.11 9.38,0.11 1.89,0 3.35,0.09 4.77,0.17 2.43,0.14 4.53,0.26 7.88,-0.1 l -0.15,-1.41 c -3.22,0.34 -5.27,0.22 -7.64,0.09 z"
   id="path933" />
<path
   class="st0"
   d="m 305.62,430.69008 v 1.42 h 10.95 c 0.96,-0.47 1.91,-0.95 2.87,-1.42 z"
   id="path935" />
<path
   class="st0"
   d="m 359.91,411.11008 c 0.08,0 0.15,-0.01 0.23,-0.01 1.12,-0.54 2.23,-1.07 3.35,-1.61 -1.23,0.06 -2.45,0.13 -3.66,0.2 z"
   id="path937" />
<path
   class="st0"
   d="m 291.86,411.11008 c 9.52,-0.56 19.71,-0.83 31.14,-0.83 7,0 10.55,0.13 15.46,0.32 2.23,0.08 4.72,0.18 7.92,0.27 l 0.04,-1.42 c -3.19,-0.09 -5.67,-0.19 -7.9,-0.27 -4.93,-0.19 -8.49,-0.32 -15.51,-0.32 -11.46,0 -21.68,0.27 -31.23,0.83 z"
   id="path939" />
<path
   class="st0"
   d="m 313.15,401.36008 c -2.34,-2.44 -4.7,-5.12 -7.23,-8.22 -0.42,0.24 -0.83,0.48 -1.25,0.72 2.62,3.2 5.05,5.97 7.46,8.49 z"
   id="path941" />
<path
   class="st0"
   d="m 322.85,404.81008 1.15,-0.84 c -3.97,-5.47 -7.58,-10.38 -10.97,-14.92 -0.41,0.24 -0.83,0.48 -1.24,0.72 3.41,4.57 7.06,9.52 11.06,15.04 z"
   id="path943" />
<path
   class="st0"
   d="m 285.92,406.47008 1.19,-0.78 c -0.3,-0.46 -0.62,-0.92 -0.96,-1.38 -0.42,0.23 -0.84,0.46 -1.26,0.69 0.37,0.49 0.71,0.98 1.03,1.47 z"
   id="path945" />
<path
   class="st0"
   d="m 292.84,404.55008 1.13,-0.87 -2.02,-2.62 c -0.42,0.23 -0.83,0.47 -1.25,0.7 z"
   id="path947" />
<path
   class="st0"
   d="m 304,402.56008 c -1.56,-1.68 -3.16,-3.53 -4.82,-5.57 -0.42,0.24 -0.84,0.47 -1.26,0.71 1.74,2.14 3.4,4.08 5.03,5.83 z"
   id="path949" />
<path
   class="st0"
   d="m 58.21,390.08008 -0.08,-1.42 c -0.71,0.04 -2.23,0.05 -3.83,0.05 0.45,0.47 0.9,0.95 1.35,1.42 1.09,-0.01 2.04,-0.03 2.56,-0.05 z"
   id="path951" />
<rect
   x="-178.25375"
   y="338.94058"
   transform="rotate(-37.683524)"
   class="st0"
   width="1.4200011"
   height="34.540028"
   id="rect953" />
<path
   class="st0"
   d="m 51.5,377.24008 c -2.29,0.19 -4.66,0.39 -6.97,0.39 0.35,0.47 0.73,0.94 1.12,1.4 2.01,-0.05 4.02,-0.21 5.97,-0.37 3.23,-0.27 6.73,-0.51 9.64,-0.29 l 0.11,-1.42 c -3.02,-0.23 -6.59,0.02 -9.87,0.29 z"
   id="path955" />
<path
   class="st0"
   d="m 107.54,401.36008 c -1.17,-1.22 -2.34,-2.5 -3.54,-3.86 -1.13,-0.58 -2.26,-1.17 -3.39,-1.76 2.03,2.42 3.97,4.6 5.9,6.6 z"
   id="path957" />
<path
   class="st0"
   d="m 73.49,405.09008 c -2.88,-3.73 -6.15,-7.96 -10.13,-10.89 l -0.84,1.14 c 3.35,2.46 6.22,5.95 8.78,9.24 0.45,0.38 0.9,0.76 1.36,1.15 z"
   id="path959" />
<path
   class="st0"
   d="m 73.69,396.19008 c -3.51,-4.02 -7.5,-8.58 -8.84,-10.33 l -1.13,0.87 c 1.37,1.79 5.37,6.36 8.9,10.4 2.72,3.11 5.29,6.05 5.97,6.94 0.64,0.83 1.21,1.62 1.72,2.4 l 1.19,-0.78 c -0.54,-0.82 -1.12,-1.63 -1.79,-2.49 -0.7,-0.93 -3.16,-3.75 -6.02,-7.01 z"
   id="path961" />
<path
   class="st0"
   d="m 57.42,384.12008 c 1.08,0.01 2.05,0.02 2.85,0.02 v -1.42 c -0.8,0 -1.77,-0.01 -2.84,-0.02 -2.6,-0.02 -5.73,-0.05 -8.63,0.02 0.41,0.47 0.82,0.93 1.24,1.4 2.52,-0.05 5.15,-0.02 7.38,0 z"
   id="path963" />
<path
   class="st0"
   d="M 63.71,370.95008 H 39.59 c 0.29,0.48 0.59,0.95 0.9,1.42 h 23.22 z"
   id="path965" />
<path
   class="st0"
   d="m 39.23,350.62008 c -0.59,-0.46 -1.19,-0.93 -1.78,-1.39 -2.03,0.04 -4.01,0.09 -5.97,0.15 0.11,0.47 0.22,0.94 0.34,1.41 2.41,-0.07 4.88,-0.13 7.41,-0.17 z"
   id="path967" />
<path
   class="st0"
   d="m 35.66,363.04008 c 0.19,0.48 0.39,0.96 0.6,1.43 3.29,0.04 6.62,0.13 9.86,0.25 3.69,0.13 7.49,0.25 11.23,0.26 -0.55,-0.49 -1.1,-0.97 -1.65,-1.45 -3.19,-0.04 -6.4,-0.13 -9.53,-0.24 -3.46,-0.11 -7.01,-0.22 -10.51,-0.25 z"
   id="path969" />
<path
   class="st0"
   d="m 117.25,404.81008 0.76,-0.55 c -0.58,-0.26 -1.15,-0.52 -1.74,-0.79 0.33,0.44 0.64,0.88 0.98,1.34 z"
   id="path971" />
<path
   class="st0"
   d="m 33.37,356.50008 c 0.14,0.47 0.29,0.94 0.44,1.41 1.48,-0.03 3.01,-0.05 4.64,-0.05 3.12,0 6.24,0.06 9.35,0.11 0.33,0.01 0.66,0.01 0.98,0.02 -0.63,-0.49 -1.25,-0.97 -1.88,-1.45 -2.82,-0.05 -5.63,-0.1 -8.46,-0.1 -1.78,-0.01 -3.46,0.02 -5.07,0.06 z"
   id="path973" />
<path
   class="st0"
   d="m 97.35,403.53008 1.04,-0.97 c -2.35,-2.53 -4.77,-5.42 -7.41,-8.83 -1.51,-1.95 -3,-3.97 -4.46,-5.98 -1.07,-0.66 -2.14,-1.31 -3.2,-1.99 2.13,2.95 4.31,5.95 6.54,8.84 2.67,3.45 5.12,6.37 7.49,8.93 z"
   id="path975" />
<path
   class="st0"
   d="m 211.76,470.44008 c 0.47,0.54 0.94,1.09 1.41,1.63 0.61,-0.01 1.22,-0.03 1.83,-0.06 -0.72,-0.84 -1.44,-1.68 -2.16,-2.5 z"
   id="path977" />
<path
   class="st0"
   d="m 190.64,469.60008 c 0.65,0.17 1.3,0.32 1.95,0.47 3.43,0.05 6.07,0.15 9.31,0.27 2.23,0.08 4.72,0.18 7.92,0.27 l 0.04,-1.42 c -3.19,-0.09 -5.67,-0.19 -7.9,-0.27 -4.78,-0.18 -8.28,-0.31 -14.9,-0.32 1.19,0.36 2.38,0.69 3.58,1 z"
   id="path979" />
<path
   class="st0"
   d="m 223.35,470.86008 c 1.58,-0.09 3.19,-0.18 4.81,-0.25 0.57,-0.09 1.14,-0.19 1.71,-0.29 2.29,-0.41 4.55,-0.91 6.8,-1.46 -4.64,0.14 -9.09,0.33 -13.4,0.58 z"
   id="path981" />
<path
   class="st0"
   d="m 280.81,410.69008 c 6.94,7.97 14.07,16.71 21.81,26.72 0.31,0.41 0.64,0.83 0.95,1.24 0.43,-0.22 0.86,-0.44 1.29,-0.65 -0.37,-0.49 -0.75,-0.98 -1.12,-1.46 -7.75,-10.04 -14.9,-18.8 -21.86,-26.79 z"
   id="path983" />
<path
   class="st0"
   d="m 191.01,462.22008 c -0.43,-0.02 -0.87,-0.04 -1.3,0.04 l 0.28,1.39 c 0.31,-0.06 0.63,-0.04 0.94,-0.02 0.19,0.01 0.38,0.02 0.57,0.02 0.3,0 0.75,-0.02 1.23,-0.21 l -0.53,-1.32 c -0.3,0.13 -0.73,0.13 -1.19,0.1 z"
   id="path985" />
<path
   class="st0"
   d="m 188.06,457.16008 c 1.02,0.02 1.9,0 2.72,-0.03 0.83,-0.03 1.62,-0.06 2.45,0 l 0.09,-1.42 c -0.91,-0.05 -1.72,-0.03 -2.59,0 -0.8,0.03 -1.66,0.04 -2.65,0.02 -0.94,-0.02 -1.91,-0.04 -2.77,0.06 l 0.15,1.41 c 0.78,-0.07 1.71,-0.05 2.6,-0.04 z"
   id="path987" />
<path
   class="st0"
   d="m 196.08,458.71008 -0.98,1.03 c 1.3,1.22 1.89,2.09 2.7,3.28 0.47,0.69 1.01,1.47 1.78,2.47 l 1.13,-0.87 c -0.75,-0.97 -1.27,-1.74 -1.73,-2.41 -0.84,-1.21 -1.49,-2.17 -2.9,-3.5 z"
   id="path989" />
<path
   class="st0"
   d="m 184.9,449.86008 c 0.48,-0.03 0.91,-0.06 1.37,-0.04 1.79,0.04 6.98,0.08 8.5,0 l -0.08,-1.42 c -1.49,0.08 -6.62,0.04 -8.39,0 -0.5,-0.01 -0.97,0.02 -1.48,0.05 -0.66,0.04 -1.41,0.08 -2.43,0.05 l -0.05,1.42 c 0.29,0.01 0.56,0.02 0.82,0.02 0.68,-0.01 1.23,-0.05 1.74,-0.08 z"
   id="path991" />
<path
   class="st0"
   d="m 188.18,438.41008 c 3.23,-0.27 6.73,-0.51 9.64,-0.29 l 0.11,-1.42 c -3.01,-0.23 -6.58,0.02 -9.86,0.29 -2.29,0.19 -4.66,0.39 -6.97,0.39 -2.41,0 -4.52,-0.22 -6.46,-0.66 l -0.32,1.39 c 2.04,0.47 4.26,0.7 6.78,0.7 2.36,-0.01 4.76,-0.21 7.08,-0.4 z"
   id="path993" />
<path
   class="st0"
   d="m 193.98,443.86008 c 1.08,0.01 2.05,0.02 2.85,0.02 v -1.42 c -0.8,0 -1.77,-0.01 -2.84,-0.02 -4.62,-0.04 -10.96,-0.1 -14.64,0.43 l 0.2,1.41 c 3.58,-0.52 9.85,-0.46 14.43,-0.42 z"
   id="path995" />
<path
   class="st0"
   d="m 261.77,417.83008 c 1.89,0 3.35,0.09 4.77,0.17 2.43,0.14 4.53,0.26 7.88,-0.1 l -0.15,-1.41 c -3.23,0.35 -5.28,0.23 -7.65,0.09 -0.9,-0.05 -1.83,-0.1 -2.86,-0.14 -0.88,0.46 -1.77,0.92 -2.65,1.38 0.22,0 0.44,0.01 0.66,0.01 z"
   id="path997" />
<path
   class="st0"
   d="m 275.13,451.15008 c -1.46,-1.89 -3.28,-4.02 -5,-5.87 l -1.04,0.97 c 1.69,1.81 3.48,3.92 4.91,5.77 0.4,0.51 0.81,1.02 1.22,1.52 0.43,-0.22 0.87,-0.45 1.3,-0.67 -0.48,-0.57 -0.95,-1.14 -1.39,-1.72 z"
   id="path999" />
<path
   class="st0"
   d="m 208.93,465.71008 1.13,-0.87 c -2.88,-3.73 -6.15,-7.96 -10.13,-10.89 l -0.84,1.14 c 3.81,2.81 7.01,6.96 9.84,10.62 z"
   id="path1001" />
<path
   class="st0"
   d="m 210.25,455.93008 c -3.51,-4.02 -7.5,-8.58 -8.84,-10.33 l -1.13,0.87 c 1.37,1.79 5.37,6.36 8.9,10.4 2.72,3.11 5.29,6.05 5.97,6.94 0.64,0.83 1.21,1.62 1.72,2.4 l 1.19,-0.78 c -0.54,-0.82 -1.12,-1.63 -1.79,-2.49 -0.7,-0.92 -3.16,-3.74 -6.02,-7.01 z"
   id="path1003" />
<path
   class="st0"
   d="m 262.65,424.74008 c 3.94,0 7.38,-0.14 10.53,-0.42 l -0.13,-1.42 c -3.1,0.28 -6.5,0.42 -10.4,0.42 -3.94,0 -7.98,-0.14 -11.88,-0.27 -0.02,0 -0.04,0 -0.07,0 -0.93,0.45 -1.86,0.9 -2.79,1.33 0.94,0.03 1.88,0.06 2.81,0.09 3.91,0.13 7.96,0.27 11.93,0.27 z"
   id="path1005" />
<rect
   x="-106.70017"
   y="469.69241"
   transform="rotate(-37.683524)"
   class="st0"
   width="1.4200011"
   height="34.540028"
   id="rect1007" />
<path
   class="st0"
   d="m 281.01,432.30008 c -1.47,-1.91 -2.84,-3.61 -4.19,-5.19 l -1.11,0.89 0.41,0.53 c 1.22,1.41 2.45,2.94 3.76,4.64 2.65,3.42 5.24,7.04 7.76,10.54 0.57,0.8 1.15,1.6 1.73,2.4 0.42,-0.22 0.85,-0.45 1.27,-0.67 -0.62,-0.86 -1.23,-1.71 -1.84,-2.56 -2.53,-3.51 -5.13,-7.14 -7.79,-10.58 z"
   id="path1009" />
<path
   class="st0"
   d="m 277.86,410.87008 0.04,-1.42 c -0.36,-0.01 -0.7,-0.02 -1.04,-0.03 -0.83,0.45 -1.66,0.89 -2.48,1.34 1.07,0.03 2.22,0.07 3.48,0.11 z"
   id="path1011" />
<path
   class="st0"
   d="m 233.57,437.41008 c 5.83,7.55 12.07,15.9 19.55,26.19 0.46,-0.18 0.92,-0.35 1.37,-0.53 -7.59,-10.44 -13.89,-18.89 -19.79,-26.52 -1.45,-1.88 -2.88,-3.7 -4.29,-5.5 -0.49,0.14 -0.98,0.29 -1.47,0.43 1.52,1.93 3.06,3.9 4.63,5.93 z"
   id="path1013" />
<path
   class="st0"
   d="m 164.86,424.31008 h 0.6 c 1.69,-0.09 3.46,-0.13 5.4,-0.13 0.1,0 0.2,0 0.3,0 -1.33,-0.46 -2.65,-0.92 -3.98,-1.38 -0.8,0.02 -1.59,0.05 -2.35,0.08 z"
   id="path1015" />
<path
   class="st0"
   d="m 169.06,432.12008 h 26.15 c -1.65,-0.43 -3.29,-0.92 -4.92,-1.42 h -21.23 z"
   id="path1017" />
<path
   class="st0"
   d="m 252.94,449.86008 c 0.48,-0.03 0.91,-0.06 1.37,-0.04 1.79,0.04 6.98,0.08 8.5,0 l -0.08,-1.42 c -1.49,0.08 -6.62,0.04 -8.39,0 -0.5,-0.01 -0.97,0.02 -1.48,0.05 -0.66,0.04 -1.41,0.08 -2.43,0.05 l -0.05,1.42 c 0.29,0.01 0.56,0.02 0.82,0.02 0.68,-0.01 1.24,-0.05 1.74,-0.08 z"
   id="path1019" />
<path
   class="st0"
   d="m 262.02,443.86008 c 1.08,0.01 2.05,0.02 2.85,0.02 v -1.42 c -0.8,0 -1.77,-0.01 -2.84,-0.02 -4.62,-0.04 -10.96,-0.1 -14.64,0.43 l 0.2,1.41 c 3.58,-0.52 9.85,-0.46 14.43,-0.42 z"
   id="path1021" />
<path
   class="st0"
   d="m 256.22,438.41008 c 3.23,-0.27 6.73,-0.51 9.64,-0.29 l 0.11,-1.42 c -3.01,-0.23 -6.58,0.02 -9.87,0.29 -2.29,0.19 -4.66,0.39 -6.97,0.39 -2.41,0 -4.52,-0.22 -6.46,-0.66 l -0.32,1.39 c 2.04,0.47 4.26,0.7 6.78,0.7 2.37,-0.01 4.77,-0.21 7.09,-0.4 z"
   id="path1023" />
<path
   class="st0"
   d="m 289.58,431.47008 c -4.12,-5.33 -7.67,-9.52 -11.19,-13.19 l -1.03,0.99 c 3.48,3.63 7,7.78 11.09,13.07 2.11,2.74 4.17,5.5 6.23,8.27 0.48,0.64 0.96,1.28 1.43,1.92 0.42,-0.22 0.85,-0.44 1.28,-0.67 -0.52,-0.7 -1.05,-1.4 -1.57,-2.1 -2.06,-2.77 -4.12,-5.55 -6.24,-8.29 z"
   id="path1025" />
<rect
   x="237.10999"
   y="430.69006"
   class="st0"
   width="31.200001"
   height="1.42"
   id="rect1027" />
<path
   class="st0"
   d="m 271.72,436.96008 10.14,13.13 c 0.43,-0.22 0.85,-0.45 1.28,-0.67 l -10.29,-13.33 z"
   id="path1029" />
<path
   class="st0"
   d="m 226.42,454.35008 c 2.66,3.45 5.11,6.37 7.49,8.93 l 1.04,-0.97 c -2.35,-2.53 -4.77,-5.42 -7.41,-8.83 -2.67,-3.46 -5.28,-7.09 -7.8,-10.6 -2.07,-2.88 -4.2,-5.84 -6.37,-8.72 -0.59,0.01 -1.18,0.03 -1.76,0.03 2.38,3.12 4.72,6.36 6.98,9.52 2.53,3.52 5.15,7.16 7.83,10.64 z"
   id="path1031" />
<path
   class="st0"
   d="m 226.78,439.76008 c -1.63,-2.19 -3.27,-4.38 -4.93,-6.56 -0.52,0.11 -1.04,0.21 -1.56,0.3 1.8,2.36 3.58,4.73 5.35,7.11 2.06,2.77 4.13,5.55 6.24,8.29 4.12,5.33 7.67,9.52 11.19,13.19 l 1.03,-0.98 c -3.48,-3.63 -7,-7.78 -11.09,-13.07 -2.11,-2.74 -4.17,-5.51 -6.23,-8.28 z"
   id="path1033" />
<path
   class="st0"
   d="m 268.37,452.29008 -1.08,0.93 c 0.76,0.88 1.65,1.89 2.6,2.97 0.44,-0.22 0.89,-0.43 1.33,-0.65 -1.05,-1.18 -2.03,-2.29 -2.85,-3.25 z"
   id="path1035" />
<path
   class="st0"
   d="m 256.1,457.16008 c 1.02,0.02 1.9,0 2.72,-0.03 0.83,-0.03 1.61,-0.06 2.45,0 l 0.09,-1.42 c -0.9,-0.05 -1.72,-0.03 -2.59,0 -0.8,0.03 -1.66,0.04 -2.65,0.02 -0.94,-0.02 -1.91,-0.04 -2.77,0.06 l 0.15,1.41 c 0.79,-0.07 1.71,-0.05 2.6,-0.04 z"
   id="path1037" />
<path
   class="st0"
   d="m 107.48,430.84008 c 0.69,0.43 1.4,0.84 2.09,1.27 h 22.18 v -1.42 h -24.51 c 0.08,0.05 0.16,0.1 0.24,0.15 z"
   id="path1039" />
<path
   class="st0"
   d="m 86.79,411.11008 c 9.52,-0.56 19.71,-0.83 31.14,-0.83 6.9,0 10.45,0.13 15.26,0.31 -1.35,-0.52 -2.68,-1.04 -3.99,-1.57 -3.17,-0.1 -6.38,-0.17 -11.27,-0.17 -11.46,0 -21.68,0.27 -31.23,0.83 z"
   id="path1041" />
<path
   class="st0"
   d="m 159.27,439.76008 c -2.06,-2.77 -4.13,-5.55 -6.24,-8.29 -4.12,-5.33 -7.67,-9.52 -11.19,-13.19 l -1.03,0.99 c 3.48,3.63 7,7.78 11.09,13.07 2.11,2.74 4.17,5.5 6.23,8.27 2.06,2.77 4.13,5.55 6.24,8.29 4.12,5.33 7.67,9.52 11.19,13.19 l 1.03,-0.98 c -3.48,-3.63 -7,-7.78 -11.09,-13.07 -2.12,-2.74 -4.18,-5.51 -6.23,-8.28 z"
   id="path1043" />
<path
   class="st0"
   d="m 133.3,445.53008 c 0.32,0.16 0.63,0.33 0.95,0.49 -0.23,-0.25 -0.45,-0.5 -0.68,-0.74 z"
   id="path1045" />
<path
   class="st0"
   d="m 129.4,436.70008 c -3.01,-0.23 -6.58,0.02 -9.87,0.29 -0.52,0.04 -1.04,0.09 -1.57,0.13 0.72,0.42 1.43,0.84 2.16,1.25 3.1,-0.25 6.4,-0.47 9.17,-0.25 z"
   id="path1047" />
<path
   class="st0"
   d="m 139.15,428.00008 0.41,0.53 c 1.22,1.41 2.45,2.94 3.76,4.64 2.64,3.42 5.24,7.04 7.76,10.54 2.53,3.52 5.15,7.16 7.83,10.64 1.38,1.79 2.71,3.44 4,4.97 0.99,0.42 1.97,0.83 2.96,1.25 -1.86,-2.1 -3.79,-4.44 -5.84,-7.09 -2.67,-3.46 -5.28,-7.09 -7.8,-10.6 -2.52,-3.51 -5.13,-7.13 -7.79,-10.58 -1.47,-1.91 -2.84,-3.61 -4.19,-5.19 z"
   id="path1049" />
<path
   class="st0"
   d="m 127.49,442.45008 c 0.27,0.15 0.55,0.29 0.83,0.44 v -0.43 c -0.26,0 -0.54,0 -0.83,-0.01 z"
   id="path1051" />
<path
   class="st0"
   d="m 125.21,416.41008 c -3.12,0 -6.24,-0.06 -9.35,-0.11 -3.12,-0.06 -6.25,-0.11 -9.38,-0.11 -6.08,0 -11.05,0.23 -15.62,0.72 l 0.15,1.41 c 4.52,-0.48 9.43,-0.71 15.46,-0.71 3.12,0 6.24,0.06 9.35,0.11 3.12,0.06 6.25,0.11 9.38,0.11 1.89,0 3.35,0.09 4.77,0.17 2.43,0.14 4.53,0.26 7.88,-0.1 l -0.15,-1.41 c -3.23,0.35 -5.28,0.23 -7.65,0.09 -1.42,-0.09 -2.91,-0.17 -4.84,-0.17 z"
   id="path1053" />
<path
   class="st0"
   d="m 136.29,436.09008 -1.13,0.87 11.84,15.33 c 0.92,0.43 1.86,0.85 2.78,1.28 z"
   id="path1055" />
<path
   class="st0"
   d="m 102.34,424.19008 c 3.91,0 7.93,0.14 11.81,0.27 3.92,0.13 7.97,0.27 11.93,0.27 3.94,0 7.38,-0.14 10.53,-0.42 l -0.13,-1.42 c -3.1,0.28 -6.5,0.42 -10.4,0.42 -3.94,0 -7.98,-0.14 -11.88,-0.27 -3.9,-0.13 -7.93,-0.27 -11.86,-0.27 -2.17,0 -4.15,0.04 -6.03,0.13 l 0.02,0.69 c 0.34,0.23 0.69,0.46 1.04,0.69 1.56,-0.06 3.19,-0.09 4.97,-0.09 z"
   id="path1057" />
<path
   class="st0"
   d="m 166.05,437.41008 c 6.01,7.78 12.44,16.4 20.24,27.14 l 1.15,-0.84 c -7.81,-10.75 -14.25,-19.38 -20.26,-27.17 -5.37,-6.95 -10.44,-13.28 -15.37,-19.17 -0.88,-0.31 -1.76,-0.63 -2.64,-0.94 5.4,6.4 10.96,13.32 16.88,20.98 z"
   id="path1059" />





<path
   class="st0"
   d="m 432.66,358.56008 c 2.1,-0.23 4.3,-0.39 6.65,-0.51 0.32,-0.49 0.64,-0.97 0.96,-1.47 -2.77,0.12 -5.32,0.3 -7.75,0.56 z"
   id="path1071" />
<path
   class="st0"
   d="m 428.43,351.37008 c 4.75,-0.28 9.67,-0.49 14.82,-0.62 0.18,-0.48 0.36,-0.95 0.52,-1.44 -5.37,0.14 -10.49,0.35 -15.43,0.64 z"
   id="path1073" />
<path
   class="st0"
   d="m 438.58,304.83008 c 1.01,-0.07 2.06,-0.09 3.15,-0.11 -0.34,-0.48 -0.69,-0.94 -1.05,-1.4 -0.94,0.02 -1.85,0.05 -2.73,0.09 l 0.03,1.42 z"
   id="path1075" />
<path
   class="st0"
   d="m 435.7,298.54008 c -0.61,-0.45 -1.24,-0.87 -1.88,-1.27 -0.44,0.04 -0.88,0.08 -1.32,0.13 l 0.15,1.41 c 1,-0.1 2.01,-0.19 3.05,-0.27 z"
   id="path1077" />
<path
   class="st0"
   d="m 445.23,311.20008 h -3.04 v 1.42 h 3.56 c -0.17,-0.47 -0.34,-0.95 -0.52,-1.42 z"
   id="path1079" />
<path
   class="st1"
   d="m 417.76,313.27008 c -2.18,-3.17 -4.28,-5.85 -7.7,-7.75 -0.16,-0.09 -0.33,-0.17 -0.5,-0.25 -2.55,-6.25 -6.9,-12.19 -10.61,-17.17 -3.06,-4.1 -6.31,-8.06 -9.88,-11.73 -2.75,-2.83 -7.59,-5.68 -9.37,-9.19 -1.79,-3.52 -1.04,-9.23 -1.48,-13.07 -0.7,-6.11 -1.59,-12.21 -2.38,-18.31 -0.71,-5.46 -1.42,-10.92 -2.14,-16.38 -0.38,-2.89 -0.75,-5.78 -1.13,-8.67 -0.16,-1.21 -0.05,-3.3 -0.5,-4.51 1.6,-1.18 3.72,-3.08 4.5,-3.66 2.11,-1.57 4.23,-3.15 6.34,-4.72 5.09,-3.79 10.95,-7.32 15.39,-11.86 8.02,-8.2 7.26,-22.13 6.86,-32.81 -0.42,-11.44 -3.36,-22.1 -9.03,-32.05 -5.32,-9.32 -12.8,-17.51 -19.52,-25.829998 -8.14,-10.07 -16.81,-19.68 -25.39,-29.39 -4.49,-5.09 -8.92,-10.24 -13.59,-15.16 -4.22,-4.44 -8.18,-9.65 -13.42,-12.91 -0.65,-0.4 -1.45,0.26 -1.26,0.97 1.36,5.14 4.45,9.58 7.05,14.17 2.87,5.09 5.88,10.08 8.94,15.07 6.1,9.95 12.01,20.06 18.33,29.87 10.98,17.059998 26.95,33.899998 27.34,55.249998 0.09,4.95 0.44,11.21 -0.73,16.04 -0.9,3.7 -5.53,5.69 -8.56,7.85 -4.28,3.06 -8.58,6.09 -12.83,9.18 -4.94,3.58 -10.01,6.93 -11.64,13.19 -1.42,5.44 0.41,11.6 1.22,17.02 0.91,6.09 1.83,12.17 2.74,18.26 1.69,11.25 2.97,22.67 5.62,33.74 2.69,11.2 12.36,16.91 19.59,25.02 3.27,3.67 6.17,7.59 8.79,11.74 -1.72,3.25 -1.75,7.27 1.53,10.01 2.26,1.89 4.39,3.83 6.61,5.55 0.01,0.1 0.02,0.19 0.02,0.29 0,0.93 -0.09,1.76 -0.3,2.66 -0.98,4.16 -7.38,6.84 -10.88,8.57 -11.72,5.78 -23.26,11.73 -34.69,18.08 -24.62,13.69 -48.72,28.37 -73.01,42.65 -12.01,7.06 -23.93,14.25 -35.84,21.49 -9.85,5.98 -20.35,13.94 -31.99,15.81 -11.01,1.77 -22.48,-2.18 -32.35,-6.73 -11.89,-5.49 -23.21,-12.24 -34.66,-18.59 -13.83,-7.66 -27.66,-15.28 -41.65,-22.63 -7,-3.68 -13.99,-7.36 -20.99,-11.03 -7.03,-3.7 -14.43,-6.56 -21.58,-10.03 -1.01,-0.49 -1.74,0.82 -0.87,1.48 6.37,4.83 12.3,10.13 18.82,14.75 l 19.4,13.75 c 12.39,8.78 24.92,17.32 37.5,25.82 22.94,15.5 48.14,36.55 77.56,34.93 15.31,-0.84 28.67,-7.38 41.78,-14.8 13.28,-7.52 26.52,-15.08 39.69,-22.78 26.9,-15.75 53.93,-31.28 80.45,-47.67 12.52,-7.74 28.96,-16.35 34,-31.18 1.03,-3.04 1.86,-6.25 2.25,-9.49 6.24,-0.15 12.5,-6.53 8.15,-12.86 z"
   id="path1081" />
<path
   class="st1"
   d="m 233.03,311.08008 c -0.06,-12.09 -0.71,-24.18 -1.15,-36.27 -0.4,-11.02 -17.16,-11.11 -17.19,0 -0.05,19.3 0.14,38.54 0.69,57.83 0.13,4.53 0.36,9.02 0.63,13.54 0.17,2.9 0.39,6 -0.6,8.78 -2.76,7.71 -10.98,4.59 -17.01,6.81 -1.44,0.53 -2.05,2.26 -0.91,3.45 5.4,5.63 16.78,6.67 23.61,3.55 9.06,-4.14 11.14,-14.25 11.85,-23.27 0.89,-11.38 0.14,-23.02 0.08,-34.42 z"
   id="path1083" />
<path
   class="st1"
   d="m 179.5,254.26008 c -2.22,-5.52 -6.48,-9.76 -12.81,-9.76 -5.47,0 -11.79,4.08 -12.81,9.76 -1.59,8.79 0.28,18.11 0.54,27.02 0.26,8.83 -0.4,17.59 -0.59,26.41 -0.1,4.47 0.9,10.7 -3.77,13.06 -5.01,2.54 -10.84,1.26 -15.14,-1.93 -0.21,-0.15 -0.57,-0.14 -0.78,0 -6.68,4.38 2.7,11.78 7.03,13.87 -1.36,-0.21 -2.71,-0.48 -4.11,-0.75 -1.47,-0.29 -4.09,-0.85 -4.84,0.94 -1.81,4.33 3.42,8.22 6.64,10.01 4.94,2.75 11.31,3 16.8,2.35 13.16,-1.55 27.66,-13.47 20.86,-27.87 -0.02,-0.04 -0.04,-0.07 -0.06,-0.11 2.75,-7.32 3.5,-15.52 4.19,-23.23 0.56,-6.19 0.86,-12.4 0.89,-18.62 0.03,-6.6 0.43,-15.01 -2.04,-21.15 z"
   id="path1085" />
<path
   class="st1"
   d="m 115.27,221.96008 c -2.09,-3.79 -5.58,-5.3 -9.04,-5.09 -0.48,-2.01 -0.99,-4.01 -1.56,-5.97 -2.41,-8.2 -16.53,-7.09 -15.55,2.1 1.83,17.15 2.02,34.53 2.81,51.75 0.05,1.09 0.1,2.17 0.15,3.26 -0.09,9.34 -1.79,19.27 -11.18,21.78 -1.61,-0.04 -3.22,-0.08 -4.82,-0.16 -2.2,-0.11 -4.25,0.89 -5.72,2.45 -4.21,2.5 -5.7,8.55 -1.81,13.13 0.94,1.11 2.05,1.93 3.31,2.66 3.15,1.82 6.2,1.39 8.5,-0.19 0.99,-0.41 1.9,-1.05 2.69,-1.84 1.04,-0.01 2.08,-0.04 3.12,-0.07 1.32,0.36 2.65,0.61 3.96,0.74 9.65,0.95 19.07,-4.33 24.2,-12.38 6.09,-9.57 7.06,-23.69 7.19,-34.7 0.14,-12.08 -0.3,-26.67 -6.25,-37.47 z"
   id="path1087" />
<path
   class="st1"
   d="m 386.85,140.61008 c -30.31,17.21 -55.9,31.73 -77.47,43.98 -1.21,0.69 -2.41,1.37 -3.59,2.04 -1.25,0.7 -2.47,1.4 -3.68,2.09 -0.61,0.34 -1.21,0.68 -1.81,1.02 -12.59,7.14 -23.69,13.44 -33.46,19 -0.83,0.47 -1.65,0.93 -2.46,1.39 -4.09,2.32 -7.94,4.5 -11.56,6.56 -0.5,0.29 -1,0.57 -1.49,0.85 -2.38,1.34 -4.65,2.64 -6.84,3.88 -0.48,0.27 -0.95,0.54 -1.42,0.8 -1.96,1.12 -3.84,2.18 -5.64,3.21 -0.89,0.5 -1.75,0.99 -2.59,1.47 -5.82,3.3 -10.79,6.12 -15.01,8.51 -0.25,0.15 -0.5,0.29 -0.75,0.43 -0.37,0.21 -0.74,0.42 -1.1,0.63 -2.65,1.5 -4.98,2.82 -7.02,3.98 -0.31,0.18 -0.62,0.35 -0.93,0.53 -0.81,0.46 -1.57,0.89 -2.29,1.3 v 30.88 c 2.44,-1.38 4.82,-2.74 7.15,-4.06 0.29,-0.16 0.58,-0.33 0.87,-0.49 0.46,-0.27 0.92,-0.53 1.38,-0.79 0.62,-0.35 1.23,-0.69 1.84,-1.04 1.67,-0.95 3.31,-1.88 4.93,-2.8 0.29,-0.17 0.59,-0.33 0.88,-0.5 0.79,-0.45 1.58,-0.89 2.36,-1.34 2.01,-1.14 3.98,-2.26 5.92,-3.36 0.36,-0.21 0.74,-0.42 1.13,-0.64 1.63,-0.93 3.23,-1.84 4.82,-2.74 0.54,-0.3 1.1,-0.62 1.68,-0.95 2.46,-1.4 4.87,-2.77 7.24,-4.11 0.71,-0.4 1.45,-0.82 2.22,-1.26 0.54,-0.31 1.08,-0.62 1.62,-0.92 7.45,-4.23 14.54,-8.25 21.56,-12.24 0.34,-0.19 0.67,-0.38 0.98,-0.55 1.11,-0.63 2.22,-1.26 3.32,-1.89 -1.81,7.66 -0.89,16.28 -0.8,23.87 0.11,9.12 0.5,18.23 0.68,27.35 0.08,4.55 -0.05,9.13 0.18,13.67 0.22,4.33 1,8.68 0.97,13.02 -0.06,7.57 -10.03,9.62 -14.15,14.4 -1.3,1.51 -1.29,4.02 0.65,5.07 7.04,3.79 19.15,-0.17 25.27,-4.46 9.86,-6.92 11.22,-19.82 11.91,-30.96 0.68,-11 1.28,-22.19 0.92,-33.21 -0.18,-5.53 -0.27,-11.1 -0.82,-16.6 -0.64,-6.39 -0.97,-13.39 -4.8,-18.78 -0.85,-1.2 -1.91,-2.19 -3.1,-2.97 5.09,-2.89 10.29,-5.84 15.72,-8.92 7.58,-4.3 15.6,-8.85 24.31,-13.8 -0.45,4.85 0.54,9.42 1.15,14.33 0.64,5.1 1.14,10.23 1.54,15.36 0.74,9.6 1.29,19.26 1.61,28.89 0.26,7.95 0.82,16.55 -1.46,24.29 -2.14,7.27 -10.35,8.45 -16.66,10.21 -1.93,0.54 -2.11,3.05 -0.53,4.08 7.15,4.73 17.6,4.43 24.96,0.22 10.22,-5.85 12.47,-16.44 13.58,-27.25 1.22,-11.84 2.03,-23.73 1.59,-35.63 -0.23,-6.09 -0.62,-12.18 -1.18,-18.25 -0.64,-6.94 -0.73,-14.67 -3.93,-20.92 -1.05,-2.06 -2.74,-3.51 -4.69,-4.39 10.85,-6.17 22.81,-12.95 36.3,-20.61 v -30.88 z"
   id="path1089" />
<path
   class="st1"
   d="m 40.94,317.71008 c -0.54,0.59 -1.15,1.08 -1.81,1.49 l 8.28,4.78 c -2.27,-1.98 -4.43,-4.07 -6.47,-6.27 z"
   id="path1091" />
<path
   class="st1"
   d="m 174.17,395.23008 c -5.16,-5.56 -10.71,-9.33 -17.18,-13.33 -10.93,-6.75 -22.1,-13.4 -33.78,-18.77 -9.99,-4.58 -20.09,-8.54 -30.46,-12.97 l 84.33,48.69 c -0.86,-1.25 -1.82,-2.46 -2.91,-3.62 z"
   id="path1093" />
<path
   class="st1"
   d="m 207.49,394.06008 c -0.27,-0.16 -0.54,-0.31 -0.82,-0.47 1.19,5.14 1.58,10.53 1.4,15.96 -0.08,2.34 -0.81,4.39 -1.98,6.05 l 1.41,0.81 179.12,-103.41 v -22.35 c -39.67,22.9 -130.46,75.31 -179.13,103.41 z"
   id="path1095" />
<path
   class="st1"
   d="m 183.96,235.33008 -139.23,-80.38 c 12.88,-5 69.54,-26.95 69.61,-26.97 38.34,59.13 57.2,88.2 69.62,107.35 z m -61.57,-66.12 c 0,-5.13 -3.6,-11.37 -8.05,-13.93 -4.44,-2.57 -8.04,-0.49 -8.04,4.64 0,5.13 3.6,11.37 8.04,13.93 4.45,2.57 8.05,0.49 8.05,-4.64 z"
   id="path1097"
   style="opacity:0.508;fill:#484dff;fill-opacity:1" />
<path
   class="st2"
   d="m 114.34,155.28008 c 4.45,2.56 8.05,8.8 8.05,13.93 0,5.13 -3.6,7.21 -8.05,4.64 -4.44,-2.56 -8.04,-8.8 -8.04,-13.93 0,-5.13 3.6,-7.21 8.04,-4.64 z"
   id="path1099" />
<path
   class="st1"
   d="m 29.92,297.57008 c -0.6,-3.04 -4.76,-2.5 -5.64,0 -1.22,3.49 -2.18,7.07 -3.57,10.5 -2.12,5.2 7.2,8.04 8.56,2.36 1.05,-4.4 1.52,-8.41 0.65,-12.86 z"
   id="path1101" />
<g
   id="g1105"
   transform="translate(-81.01,-175.10992)">
	<path
   class="st2"
   d="m 288.5,618.54 c -0.43,0 -0.86,-0.11 -1.25,-0.33 L 82.26,499.85 c -0.77,-0.45 -1.25,-1.27 -1.25,-2.17 0,-0.89 0.48,-1.72 1.25,-2.17 l 25.88,-14.94 c 1.19,-0.69 2.72,-0.28 3.42,0.92 0.69,1.2 0.28,2.72 -0.92,3.42 L 88.51,497.68 288.5,613.15 488.49,497.69 466.37,484.92 c -1.2,-0.69 -1.61,-2.22 -0.92,-3.41 0.69,-1.2 2.22,-1.6 3.42,-0.92 l 25.87,14.93 c 0.77,0.45 1.25,1.27 1.25,2.17 0,0.89 -0.48,1.72 -1.25,2.17 L 289.75,618.2 c -0.39,0.22 -0.82,0.34 -1.25,0.34 z"
   id="path1103" />
</g>
<g
   id="g1109"
   transform="translate(-81.01,-175.10992)">
	<path
   class="st2"
   d="m 467.62,468.26 c -0.42,0 -0.85,-0.11 -1.25,-0.34 l -38.35,-22.14 c -1.2,-0.69 -1.61,-2.22 -0.91,-3.42 0.69,-1.2 2.22,-1.61 3.41,-0.92 l 38.35,22.14 c 1.2,0.69 1.61,2.22 0.92,3.42 -0.47,0.81 -1.31,1.26 -2.17,1.26 z"
   id="path1107" />
</g>
<g
   id="g1113"
   transform="translate(-81.01,-175.10992)">
	<path
   class="st2"
   d="m 426.31,472.59 c -0.67,0 -1.33,-0.27 -1.83,-0.79 -0.94,-1.01 -0.89,-2.59 0.12,-3.53 0.14,-0.13 0.29,-0.27 0.42,-0.41 0.98,-0.98 2.56,-0.97 3.54,0.01 0.97,0.98 0.97,2.56 -0.01,3.54 -0.17,0.17 -0.36,0.35 -0.54,0.51 -0.47,0.44 -1.09,0.67 -1.7,0.67 z"
   id="path1111" />
</g>
<g
   id="g1117"
   transform="translate(-81.01,-175.10992)">
	<path
   class="st2"
   d="m 424.01,474.25 c -0.85,0 -1.68,-0.44 -2.15,-1.22 -0.71,-1.19 -0.32,-2.72 0.87,-3.43 0.7,-0.41 1.34,-0.88 1.93,-1.39 1.04,-0.91 2.62,-0.79 3.53,0.25 0.91,1.04 0.79,2.62 -0.25,3.53 -0.81,0.7 -1.7,1.35 -2.65,1.91 -0.4,0.23 -0.84,0.35 -1.28,0.35 z"
   id="path1115" />
</g>
<g
   id="g1121"
   transform="translate(-81.01,-175.10992)">
	<path
   class="st2"
   d="m 422.67,474.97 c -0.93,0 -1.83,-0.52 -2.26,-1.42 -0.59,-1.25 -0.07,-2.74 1.18,-3.33 0.4,-0.19 0.78,-0.4 1.15,-0.61 1.19,-0.69 2.72,-0.29 3.42,0.9 0.69,1.19 0.29,2.72 -0.9,3.42 -0.54,0.31 -1.03,0.58 -1.51,0.81 -0.35,0.15 -0.72,0.23 -1.08,0.23 z"
   id="path1119" />
</g>
<g
   id="g1125"
   transform="translate(-81.01,-175.10992)">
	<path
   class="st2"
   d="m 417.21,476.86 c -1.14,0 -2.17,-0.78 -2.43,-1.94 -0.31,-1.35 0.53,-2.69 1.87,-3 0.68,-0.16 1.37,-0.34 2.1,-0.57 1.32,-0.41 2.72,0.33 3.13,1.65 0.41,1.32 -0.33,2.72 -1.65,3.13 -0.85,0.26 -1.65,0.48 -2.46,0.67 -0.19,0.03 -0.38,0.06 -0.56,0.06 z"
   id="path1123" />
</g>
<g
   id="g1129"
   transform="translate(-81.01,-175.10992)">
	<path
   class="st2"
   d="m 391.28,424.19 c -0.42,0 -0.85,-0.11 -1.25,-0.34 l -20.5,-11.84 c -1.2,-0.69 -1.61,-2.22 -0.91,-3.42 0.69,-1.2 2.22,-1.6 3.41,-0.91 l 20.5,11.84 c 1.2,0.69 1.61,2.22 0.92,3.42 -0.47,0.8 -1.31,1.25 -2.17,1.25 z"
   id="path1127" />
</g>
<g
   id="g1133"
   transform="translate(-81.01,-175.10992)">
	<path
   class="st2"
   d="m 344.84,509.75 c -0.18,0 -0.37,-0.02 -0.56,-0.06 -0.62,-0.14 -1.22,-0.3 -1.81,-0.47 -1.32,-0.39 -2.08,-1.78 -1.69,-3.11 0.39,-1.32 1.78,-2.08 3.11,-1.69 0.49,0.15 0.99,0.27 1.51,0.39 1.35,0.31 2.19,1.65 1.88,2.99 -0.27,1.16 -1.3,1.95 -2.44,1.95 z"
   id="path1131" />
</g>
<g
   id="g1137"
   transform="translate(-81.01,-175.10992)">
	<path
   class="st2"
   d="m 339.39,507.87 c -0.37,0 -0.74,-0.08 -1.09,-0.25 -0.78,-0.38 -1.53,-0.8 -2.24,-1.27 -0.99,-0.64 -1.86,-1.35 -2.58,-2.09 -0.96,-0.99 -0.94,-2.57 0.06,-3.54 0.99,-0.96 2.57,-0.94 3.53,0.06 0.46,0.47 1.04,0.94 1.72,1.38 0.55,0.36 1.1,0.67 1.69,0.96 1.24,0.6 1.76,2.1 1.16,3.34 -0.43,0.89 -1.32,1.41 -2.25,1.41 z"
   id="path1135" />
</g>
<g
   id="g1141"
   transform="translate(-81.01,-175.10992)">
	<path
   class="st2"
   d="m 328.95,427.95 c -0.87,0 -1.72,-0.46 -2.18,-1.27 -0.68,-1.2 -0.25,-2.73 0.95,-3.41 0.7,-0.4 1.44,-0.82 2.21,-1.25 1.2,-0.69 2.72,-0.27 3.41,0.93 0.68,1.2 0.27,2.73 -0.93,3.41 -0.77,0.44 -1.52,0.86 -2.23,1.27 -0.39,0.21 -0.81,0.32 -1.23,0.32 z"
   id="path1139" />
</g>
<g
   id="g1145"
   transform="translate(-81.01,-175.10992)">
	<path
   class="st2"
   d="m 320.03,433.01 c -0.88,0 -1.73,-0.46 -2.19,-1.29 -0.67,-1.21 -0.24,-2.73 0.97,-3.4 0.44,-0.25 0.9,-0.5 1.36,-0.77 l 0.29,-0.17 c 1.2,-0.68 2.73,-0.26 3.41,0.94 0.68,1.2 0.26,2.73 -0.94,3.41 l -0.29,0.17 c -0.48,0.28 -0.95,0.54 -1.41,0.8 -0.37,0.2 -0.79,0.31 -1.2,0.31 z"
   id="path1143" />
</g>
<g
   id="g1149"
   transform="translate(-81.01,-175.10992)">
	<path
   class="st2"
   d="m 314.08,436.39 c -0.86,0 -1.7,-0.44 -2.16,-1.24 -0.7,-1.19 -0.29,-2.72 0.9,-3.42 0.27,-0.16 0.55,-0.31 0.84,-0.48 l 0.33,-0.18 c 1.2,-0.68 2.73,-0.25 3.41,0.95 0.68,1.2 0.25,2.73 -0.95,3.41 l -0.34,0.19 c -0.26,0.15 -0.51,0.29 -0.76,0.43 -0.41,0.23 -0.84,0.34 -1.27,0.34 z"
   id="path1147" />
</g>
<g
   id="g1153"
   transform="translate(-81.01,-175.10992)">
	<path
   class="st2"
   d="m 298.75,445.1 c -0.86,0 -1.7,-0.45 -2.16,-1.24 -0.69,-1.19 -0.29,-2.72 0.9,-3.42 l 1.25,-0.72 c 1.2,-0.69 2.73,-0.27 3.41,0.92 0.69,1.2 0.27,2.73 -0.92,3.41 l -1.23,0.7 c -0.39,0.24 -0.82,0.35 -1.25,0.35 z"
   id="path1151" />
</g>
<g
   id="g1157"
   transform="translate(-81.01,-175.10992)">
	<path
   class="st2"
   d="m 295.9,446.71 c -0.87,0 -1.72,-0.46 -2.18,-1.27 -0.68,-1.2 -0.25,-2.73 0.95,-3.41 l 0.86,-0.48 c 1.2,-0.69 2.72,-0.27 3.41,0.93 0.69,1.2 0.27,2.73 -0.93,3.41 l -0.88,0.5 c -0.39,0.21 -0.81,0.32 -1.23,0.32 z"
   id="path1155" />
</g>
<g
   id="g1161"
   transform="translate(-81.01,-175.10992)">
	<path
   class="st2"
   d="m 275.88,443.33 c -0.4,0 -0.81,-0.1 -1.18,-0.3 -0.3,-0.16 -0.6,-0.34 -0.91,-0.52 -1.18,-0.72 -1.54,-2.26 -0.82,-3.44 0.72,-1.18 2.26,-1.54 3.44,-0.82 0.22,0.13 0.44,0.26 0.66,0.38 1.22,0.65 1.67,2.17 1.02,3.39 -0.46,0.83 -1.32,1.31 -2.21,1.31 z"
   id="path1159" />
</g>
<g
   id="g1165"
   transform="translate(-81.01,-175.10992)">
	<path
   class="st2"
   d="m 266.32,437.82 c -0.42,0 -0.85,-0.11 -1.24,-0.33 l -1.77,-1.02 c -1.2,-0.69 -1.61,-2.22 -0.92,-3.41 0.69,-1.2 2.22,-1.61 3.41,-0.92 l 1.77,1.02 c 1.2,0.69 1.61,2.22 0.92,3.41 -0.46,0.8 -1.31,1.25 -2.17,1.25 z"
   id="path1163" />
</g>
<g
   id="g1169"
   transform="translate(-81.01,-175.10992)">
	<path
   class="st2"
   d="m 259.2,433.71 c -0.43,0 -0.87,-0.11 -1.27,-0.35 -0.28,-0.17 -0.56,-0.33 -0.84,-0.49 l -0.45,-0.26 c -1.19,-0.69 -1.6,-2.22 -0.91,-3.42 0.69,-1.2 2.23,-1.6 3.42,-0.91 l 0.44,0.25 c 0.29,0.17 0.59,0.34 0.89,0.52 1.19,0.7 1.58,2.24 0.88,3.42 -0.47,0.8 -1.31,1.24 -2.16,1.24 z"
   id="path1167" />
</g>
<g
   id="g1173"
   transform="translate(-81.01,-175.10992)">
	<path
   class="st2"
   d="m 250.21,428.52 c -0.44,0 -0.88,-0.12 -1.28,-0.36 l -0.23,-0.14 c -0.13,-0.07 -0.25,-0.15 -0.37,-0.22 -1.18,-0.72 -1.54,-2.26 -0.82,-3.44 0.72,-1.18 2.26,-1.54 3.44,-0.82 l 0.56,0.33 c 1.18,0.71 1.57,2.25 0.86,3.43 -0.48,0.78 -1.31,1.22 -2.16,1.22 z"
   id="path1171" />
</g>
<g
   id="g1177"
   transform="translate(-81.01,-175.10992)">
	<path
   class="st2"
   d="m 249.28,427.98 c -0.42,0 -0.84,-0.1 -1.22,-0.32 -0.34,-0.19 -0.65,-0.37 -0.94,-0.54 -1.19,-0.7 -1.58,-2.24 -0.88,-3.42 0.7,-1.19 2.24,-1.58 3.42,-0.88 0.26,0.15 0.54,0.31 0.84,0.48 1.2,0.68 1.63,2.2 0.95,3.4 -0.45,0.82 -1.3,1.28 -2.17,1.28 z"
   id="path1175" />
</g>
<g
   id="g1181"
   transform="translate(-81.01,-175.10992)">
	<path
   class="st2"
   d="m 187.35,423.25 c -0.86,0 -1.7,-0.45 -2.17,-1.25 -0.69,-1.2 -0.28,-2.72 0.91,-3.42 l 21.13,-12.2 c 1.19,-0.69 2.72,-0.28 3.42,0.92 0.69,1.2 0.28,2.72 -0.92,3.42 l -21.13,12.2 c -0.38,0.22 -0.81,0.33 -1.24,0.33 z"
   id="path1179" />
</g>
<g
   id="g1185"
   transform="translate(-81.01,-175.10992)">
	<path
   class="st2"
   d="m 184.39,472.59 c -0.67,0 -1.33,-0.27 -1.83,-0.79 -0.94,-1.01 -0.89,-2.59 0.12,-3.53 0.14,-0.13 0.29,-0.27 0.42,-0.41 0.98,-0.98 2.56,-0.97 3.54,0.01 0.97,0.98 0.97,2.56 -0.01,3.54 -0.17,0.17 -0.36,0.35 -0.54,0.51 -0.47,0.44 -1.09,0.67 -1.7,0.67 z"
   id="path1183" />
</g>
<g
   id="g1189"
   transform="translate(-81.01,-175.10992)">
	<path
   class="st2"
   d="m 182.09,474.25 c -0.85,0 -1.68,-0.44 -2.15,-1.22 -0.71,-1.19 -0.32,-2.72 0.87,-3.43 0.7,-0.41 1.34,-0.88 1.93,-1.39 1.04,-0.91 2.62,-0.79 3.53,0.25 0.91,1.04 0.79,2.62 -0.25,3.53 -0.81,0.7 -1.7,1.35 -2.65,1.91 -0.4,0.23 -0.84,0.35 -1.28,0.35 z"
   id="path1187" />
</g>
<g
   id="g1193"
   transform="translate(-81.01,-175.10992)">
	<path
   class="st2"
   d="m 180.75,474.97 c -0.93,0 -1.83,-0.52 -2.26,-1.42 -0.59,-1.25 -0.07,-2.74 1.18,-3.33 0.4,-0.19 0.78,-0.4 1.15,-0.62 1.19,-0.69 2.72,-0.29 3.42,0.91 0.69,1.19 0.29,2.72 -0.91,3.42 -0.55,0.32 -1.03,0.58 -1.51,0.8 -0.34,0.16 -0.71,0.24 -1.07,0.24 z"
   id="path1191" />
</g>
<g
   id="g1197"
   transform="translate(-81.01,-175.10992)">
	<path
   class="st2"
   d="m 175.29,476.86 c -1.14,0 -2.17,-0.78 -2.43,-1.94 -0.31,-1.35 0.53,-2.69 1.87,-3 0.68,-0.16 1.37,-0.34 2.1,-0.57 1.32,-0.41 2.72,0.33 3.13,1.65 0.41,1.32 -0.33,2.72 -1.65,3.13 -0.85,0.26 -1.65,0.48 -2.46,0.67 -0.19,0.03 -0.38,0.06 -0.56,0.06 z"
   id="path1195" />
</g>
<g
   id="g1201"
   transform="translate(-81.01,-175.10992)">
	<path
   class="st2"
   d="m 109.39,468.26 c -0.86,0 -1.7,-0.45 -2.17,-1.25 -0.69,-1.2 -0.28,-2.72 0.92,-3.42 l 39.97,-23.08 c 1.19,-0.69 2.72,-0.28 3.41,0.92 0.69,1.2 0.28,2.72 -0.91,3.42 l -39.97,23.08 c -0.39,0.22 -0.82,0.33 -1.25,0.33 z"
   id="path1199" />
</g>
<g
   id="g1205"
   transform="translate(-81.01,-175.10992)">
	<path
   class="st2"
   d="m 114.18,471.03 c -0.43,0 -0.86,-0.11 -1.26,-0.34 -0.33,-0.19 -0.68,-0.39 -1.04,-0.6 l -0.48,-0.27 c -1.2,-0.69 -1.61,-2.22 -0.92,-3.41 0.69,-1.2 2.22,-1.61 3.41,-0.92 l 0.47,0.27 c 0.37,0.21 0.73,0.42 1.07,0.62 1.19,0.7 1.6,2.23 0.9,3.42 -0.46,0.78 -1.29,1.23 -2.15,1.23 z"
   id="path1203" />
</g>
<g
   id="g1209"
   transform="translate(-81.01,-175.10992)">
	<path
   class="st2"
   d="m 115.47,471.78 c -0.43,0 -0.87,-0.11 -1.27,-0.35 -0.33,-0.19 -0.68,-0.4 -1.04,-0.6 -1.2,-0.68 -1.62,-2.21 -0.94,-3.41 0.68,-1.2 2.21,-1.62 3.41,-0.94 0.38,0.22 0.75,0.43 1.11,0.64 1.19,0.7 1.59,2.23 0.89,3.42 -0.47,0.8 -1.31,1.24 -2.16,1.24 z"
   id="path1207" />
</g>
<g
   id="g1213"
   transform="translate(-81.01,-175.10992)">
	<path
   class="st2"
   d="m 116.57,472.41 c -0.43,0 -0.86,-0.11 -1.26,-0.34 l -1.07,-0.61 c -1.2,-0.69 -1.6,-2.22 -0.91,-3.42 0.69,-1.19 2.22,-1.6 3.42,-0.91 l 1.09,0.63 c 1.19,0.7 1.59,2.23 0.89,3.42 -0.47,0.78 -1.3,1.23 -2.16,1.23 z"
   id="path1211" />
</g>
<g
   id="g1217"
   transform="translate(-81.01,-175.10992)">
	<path
   class="st2"
   d="m 117.26,472.81 c -0.4,0 -0.81,-0.1 -1.19,-0.3 -0.25,-0.14 -0.5,-0.29 -0.77,-0.45 -1.18,-0.72 -1.56,-2.25 -0.84,-3.43 0.72,-1.18 2.25,-1.56 3.43,-0.84 0.2,0.12 0.38,0.23 0.57,0.33 1.21,0.66 1.66,2.18 1,3.39 -0.46,0.82 -1.32,1.3 -2.2,1.3 z"
   id="path1215" />
</g>
<g
   id="g1221"
   transform="translate(-81.01,-175.10992)">
	<path
   class="st2"
   d="m 118.58,473.57 c -0.42,0 -0.85,-0.11 -1.24,-0.33 l -0.63,-0.36 c -1.2,-0.68 -1.62,-2.21 -0.93,-3.41 0.68,-1.2 2.21,-1.62 3.41,-0.93 l 0.63,0.36 c 1.2,0.69 1.61,2.21 0.93,3.41 -0.46,0.8 -1.3,1.26 -2.17,1.26 z"
   id="path1219" />
</g>
<g
   id="g1225"
   transform="translate(-81.01,-175.10992)">
	<path
   class="st2"
   d="m 119.21,473.94 c -0.44,0 -0.88,-0.12 -1.28,-0.36 l -0.61,-0.36 c -1.18,-0.71 -1.57,-2.25 -0.86,-3.43 0.71,-1.19 2.25,-1.57 3.43,-0.86 l 0.61,0.36 c 1.18,0.71 1.57,2.25 0.86,3.43 -0.47,0.78 -1.3,1.22 -2.15,1.22 z"
   id="path1223" />
</g>
<g
   id="g1229"
   transform="translate(-81.01,-175.10992)">
	<path
   class="st2"
   d="m 121.1,475.03 c -0.42,0 -0.85,-0.11 -1.24,-0.33 -0.23,-0.13 -0.44,-0.26 -0.66,-0.39 -1.18,-0.71 -1.56,-2.25 -0.85,-3.43 0.71,-1.18 2.25,-1.56 3.43,-0.85 0.18,0.11 0.37,0.22 0.56,0.33 1.2,0.69 1.61,2.21 0.93,3.41 -0.46,0.8 -1.3,1.26 -2.17,1.26 z"
   id="path1227" />
</g>
<g
   id="g1233"
   transform="translate(-81.01,-175.10992)">
	<path
   class="st2"
   d="m 121.74,475.4 c -0.42,0 -0.85,-0.11 -1.24,-0.33 -0.22,-0.13 -0.45,-0.26 -0.66,-0.38 -1.19,-0.71 -1.57,-2.24 -0.86,-3.43 0.71,-1.19 2.25,-1.57 3.43,-0.86 0.19,0.11 0.38,0.22 0.58,0.34 1.2,0.69 1.61,2.21 0.93,3.41 -0.47,0.79 -1.31,1.25 -2.18,1.25 z"
   id="path1231" />
</g>
<g
   id="g1237"
   transform="translate(-81.01,-175.10992)">
	<path
   class="st2"
   d="m 124.19,476.81 c -0.41,0 -0.83,-0.1 -1.22,-0.32 -0.25,-0.14 -0.48,-0.27 -0.71,-0.41 -1.19,-0.7 -1.62,-2.24 -0.93,-3.44 0.7,-1.19 2.2,-1.61 3.39,-0.92 0.26,0.15 0.47,0.28 0.69,0.4 1.21,0.67 1.64,2.2 0.96,3.4 -0.46,0.82 -1.31,1.29 -2.18,1.29 z"
   id="path1235" />
</g>
<g
   id="g1241"
   transform="translate(-81.01,-175.10992)">
	<path
   class="st2"
   d="m 126.22,477.98 c -0.42,0 -0.84,-0.11 -1.23,-0.33 l -0.23,-0.13 c -0.37,-0.21 -0.72,-0.41 -1.07,-0.62 -1.18,-0.71 -1.57,-2.25 -0.86,-3.43 0.71,-1.18 2.25,-1.57 3.43,-0.86 0.31,0.19 0.63,0.37 0.97,0.56 l 0.23,0.13 c 1.2,0.68 1.62,2.21 0.94,3.41 -0.47,0.81 -1.31,1.27 -2.18,1.27 z"
   id="path1239" />
</g>
<g
   id="g1245"
   transform="translate(-81.01,-175.10992)">
	<path
   class="st2"
   d="m 129.11,479.65 c -0.41,0 -0.83,-0.1 -1.21,-0.32 -0.29,-0.16 -0.56,-0.32 -0.83,-0.47 l -1.66,-0.96 c -1.2,-0.69 -1.6,-2.22 -0.91,-3.42 0.69,-1.2 2.22,-1.6 3.42,-0.91 l 1.66,0.96 c 0.24,0.14 0.49,0.28 0.75,0.43 1.21,0.67 1.64,2.19 0.97,3.4 -0.46,0.82 -1.31,1.29 -2.19,1.29 z"
   id="path1243" />
</g>
<g
   id="g1249"
   transform="translate(-81.01,-175.10992)">
	<path
   class="st2"
   d="m 130.8,480.62 c -0.41,0 -0.82,-0.1 -1.2,-0.31 -0.27,-0.15 -0.53,-0.3 -0.78,-0.44 l -0.39,-0.23 c -1.2,-0.68 -1.62,-2.21 -0.94,-3.41 0.68,-1.2 2.21,-1.62 3.41,-0.94 l 0.43,0.25 c 0.22,0.13 0.45,0.26 0.68,0.39 1.21,0.66 1.65,2.18 0.99,3.39 -0.46,0.83 -1.32,1.3 -2.2,1.3 z"
   id="path1247" />
</g>
<g
   id="g1253"
   transform="translate(-81.01,-175.10992)">
	<path
   class="st2"
   d="m 134.65,482.85 c -0.42,0 -0.84,-0.1 -1.23,-0.32 -0.42,-0.24 -0.83,-0.47 -1.23,-0.7 l -0.75,-0.43 c -1.2,-0.68 -1.62,-2.21 -0.93,-3.41 0.69,-1.2 2.21,-1.61 3.41,-0.93 l 0.77,0.44 c 0.39,0.22 0.78,0.45 1.19,0.68 1.2,0.68 1.62,2.2 0.95,3.41 -0.46,0.8 -1.31,1.26 -2.18,1.26 z"
   id="path1251" />
</g>
<g
   id="g1257"
   transform="translate(-81.01,-175.10992)">
	<path
   class="st2"
   d="m 138.74,485.21 c -0.43,0 -0.86,-0.11 -1.25,-0.34 l -1.66,-0.96 c -1.19,-0.7 -1.59,-2.23 -0.9,-3.42 0.7,-1.19 2.23,-1.59 3.42,-0.9 l 1.64,0.94 c 1.2,0.69 1.6,2.22 0.91,3.42 -0.46,0.81 -1.3,1.26 -2.16,1.26 z"
   id="path1255" />
</g>
<g
   id="g1261"
   transform="translate(-81.01,-175.10992)">
	<path
   class="st2"
   d="m 155.12,494.67 c -0.42,0 -0.85,-0.11 -1.25,-0.34 l -2.29,-1.32 c -1.19,-0.69 -1.6,-2.22 -0.91,-3.42 0.69,-1.19 2.23,-1.6 3.42,-0.91 l 2.27,1.32 c 1.2,0.69 1.61,2.22 0.92,3.42 -0.46,0.8 -1.3,1.25 -2.16,1.25 z"
   id="path1259" />
</g>
<g
   id="g1265"
   transform="translate(-81.01,-175.10992)">
	<path
   class="st2"
   d="m 225.47,535.28 c -0.42,0 -0.85,-0.11 -1.24,-0.33 -2.06,-1.18 -4.08,-2.35 -6.04,-3.49 -1.19,-0.69 -1.6,-2.22 -0.9,-3.42 0.69,-1.19 2.22,-1.6 3.42,-0.9 1.96,1.14 3.96,2.29 6.02,3.47 1.2,0.69 1.61,2.21 0.93,3.41 -0.48,0.8 -1.33,1.26 -2.19,1.26 z"
   id="path1263" />
</g>
<g
   id="g1269"
   transform="translate(-81.01,-175.10992)">
	<path
   class="st2"
   d="m 252.52,550.9 c -0.42,0 -0.85,-0.11 -1.25,-0.33 l -7.14,-4.12 c -1.2,-0.69 -1.61,-2.22 -0.92,-3.41 0.69,-1.2 2.22,-1.61 3.41,-0.92 l 7.14,4.12 c 1.2,0.69 1.61,2.22 0.92,3.41 -0.46,0.8 -1.3,1.25 -2.16,1.25 z"
   id="path1267" />
</g>
<g
   id="g1273"
   transform="translate(-81.01,-175.10992)">
	<path
   class="st2"
   d="m 271.14,561.65 c -0.42,0 -0.85,-0.11 -1.25,-0.34 l -11.12,-6.42 c -1.2,-0.69 -1.61,-2.22 -0.91,-3.42 0.69,-1.2 2.22,-1.6 3.41,-0.91 l 11.12,6.42 c 1.2,0.69 1.61,2.22 0.92,3.42 -0.47,0.8 -1.31,1.25 -2.17,1.25 z"
   id="path1271" />
</g>
<g
   id="g1277"
   transform="translate(-81.01,-175.10992)">
	<path
   class="st2"
   d="m 288.5,571.67 c -0.42,0 -0.85,-0.11 -1.25,-0.33 l -6.98,-4.03 c -1.2,-0.69 -1.61,-2.22 -0.92,-3.41 0.69,-1.2 2.22,-1.61 3.42,-0.92 l 6.98,4.03 c 1.2,0.69 1.61,2.22 0.92,3.41 -0.47,0.8 -1.31,1.25 -2.17,1.25 z"
   id="path1275" />
</g>
<g
   id="g1281"
   transform="translate(-81.01,-175.10992)">
	<path
   class="st2"
   d="m 288.5,594.02 c -0.43,0 -0.86,-0.11 -1.25,-0.33 L 108.14,490.27 c -0.77,-0.45 -1.25,-1.27 -1.25,-2.17 v -22.35 c 0,-0.89 0.48,-1.72 1.25,-2.17 0.77,-0.45 1.73,-0.45 2.5,0 l 0.98,0.57 c 0.83,0.48 1.59,0.92 2.29,1.33 l 0.45,0.26 c 0.36,0.2 0.7,0.4 1.03,0.59 0.09,0.05 0.17,0.1 0.25,0.15 0.35,0.2 0.7,0.4 1.04,0.6 0.4,0.22 0.76,0.43 1.11,0.63 0.27,0.15 0.5,0.29 0.74,0.43 0.14,0.07 0.35,0.2 0.56,0.32 l 0.68,0.39 c 0.02,0.01 0.05,0.03 0.07,0.04 0.23,0.13 0.44,0.26 0.66,0.39 0.16,0.09 0.38,0.21 0.6,0.34 l 0.61,0.35 c 0.24,0.14 0.41,0.25 0.59,0.35 0.25,0.13 0.48,0.27 0.71,0.41 0.55,0.31 1.11,0.64 1.71,0.98 0.27,0.15 0.47,0.28 0.69,0.4 0.3,0.18 0.53,0.31 0.78,0.45 l 4.44,2.56 c 0.11,0.06 0.22,0.13 0.33,0.19 l 2.99,1.73 c 0.59,0.33 1.25,0.71 1.95,1.12 0.76,0.44 1.58,0.91 2.44,1.41 0.41,0.23 0.86,0.49 1.33,0.76 l 0.32,0.18 c 3.77,2.18 8.38,4.84 14.1,8.14 l 2.28,1.32 c 6.7,3.87 14.84,8.56 24.8,14.32 10.84,6.26 23.84,13.76 39.52,22.81 1.97,1.13 3.98,2.29 6.04,3.48 l 7.2,4.16 c 4.08,2.35 8.31,4.79 12.7,7.34 l 7.14,4.12 c 1.4,0.81 2.82,1.63 4.26,2.46 l 3.24,1.87 c 2.65,1.53 5.35,3.09 8.1,4.68 l 6.04,3.48 c 2.42,1.39 4.87,2.81 7.37,4.25 l 5.73,3.31 177.87,-102.69 c 0.77,-0.45 1.73,-0.45 2.5,0 0.77,0.45 1.25,1.27 1.25,2.17 v 22.35 c 0,0.89 -0.48,1.72 -1.25,2.17 L 289.75,593.68 c -0.39,0.22 -0.82,0.34 -1.25,0.34 z M 111.89,486.66 288.5,588.63 465.12,486.66 V 470.08 L 289.75,571.33 c -0.77,0.45 -1.73,0.45 -2.5,0 l -6.98,-4.03 c -2.5,-1.45 -4.95,-2.86 -7.36,-4.25 l -6.04,-3.48 c -2.75,-1.59 -5.45,-3.15 -8.1,-4.67 l -3.25,-1.88 c -1.43,-0.83 -2.85,-1.65 -4.25,-2.45 l -7.14,-4.12 c -4.4,-2.55 -8.63,-4.99 -12.71,-7.34 l -7.21,-4.16 c -2.05,-1.19 -4.06,-2.35 -6.02,-3.48 -15.69,-9.05 -28.69,-16.56 -39.52,-22.82 -9.96,-5.75 -18.1,-10.45 -24.8,-14.32 l -2.29,-1.32 c -5.71,-3.3 -10.33,-5.96 -14.09,-8.14 l -0.32,-0.19 c -0.45,-0.26 -0.89,-0.51 -1.31,-0.75 -0.88,-0.51 -1.68,-0.98 -2.45,-1.42 -0.69,-0.4 -1.35,-0.78 -1.96,-1.12 l -3.29,-1.91 c -0.12,-0.07 -0.23,-0.13 -0.35,-0.2 l -4.08,-2.36 c -0.26,-0.15 -0.55,-0.31 -0.82,-0.48 -0.17,-0.1 -0.41,-0.23 -0.64,-0.37 -0.64,-0.38 -1.2,-0.7 -1.74,-1 -0.03,-0.02 -0.06,-0.03 -0.09,-0.05 -0.16,-0.1 -0.32,-0.19 -0.47,-0.27 -0.03,-0.02 -0.06,-0.03 -0.09,-0.05 -0.23,-0.13 -0.44,-0.26 -0.66,-0.39 -0.15,-0.08 -0.38,-0.21 -0.6,-0.34 l -0.61,-0.35 c -0.23,-0.14 -0.41,-0.24 -0.59,-0.35 -0.02,-0.01 -0.04,-0.02 -0.07,-0.04 l -0.8,-0.46 c -0.15,-0.09 -0.31,-0.18 -0.47,-0.27 -0.27,-0.16 -0.47,-0.28 -0.68,-0.39 -0.03,-0.02 -0.06,-0.03 -0.08,-0.05 -0.31,-0.18 -0.64,-0.38 -0.99,-0.57 -0.04,-0.02 -0.08,-0.04 -0.12,-0.07 -0.33,-0.19 -0.68,-0.4 -1.04,-0.6 -0.03,-0.02 -0.14,-0.08 -0.17,-0.1 -0.4,-0.23 -0.75,-0.43 -1.11,-0.64 z"
   id="path1279" />
</g>
<g
   id="g1285"
   transform="translate(-81.01,-175.10992)">
	<path
   class="st2"
   d="m 304.92,441.59 c -0.87,0 -1.71,-0.46 -2.18,-1.27 -0.68,-1.2 -0.26,-2.73 0.94,-3.41 l 0.88,-0.5 c 1.2,-0.68 2.73,-0.26 3.41,0.94 0.68,1.2 0.26,2.73 -0.94,3.41 l -0.88,0.5 c -0.38,0.22 -0.81,0.33 -1.23,0.33 z"
   id="path1283" />
</g>
<g
   id="g1289"
   transform="translate(-81.01,-175.10992)">
	<path
   class="st2"
   d="m 298.15,445.43 c -0.88,0 -1.74,-0.47 -2.19,-1.3 -0.66,-1.21 -0.22,-2.73 0.99,-3.39 l 1.8,-1.02 c 1.2,-0.69 2.72,-0.27 3.41,0.93 0.69,1.2 0.27,2.73 -0.93,3.41 l -1.88,1.06 c -0.38,0.21 -0.79,0.31 -1.2,0.31 z"
   id="path1287" />
</g>
<g
   id="g1293"
   transform="translate(-81.01,-175.10992)">
	<path
   class="st2"
   d="m 287.11,449.83 c -0.43,0 -0.87,-0.11 -1.27,-0.35 l -0.31,-0.19 c -1.18,-0.71 -1.56,-2.25 -0.85,-3.43 0.71,-1.18 2.25,-1.56 3.43,-0.85 l 0.27,0.17 c 1.19,0.7 1.58,2.24 0.88,3.42 -0.46,0.79 -1.3,1.23 -2.15,1.23 z"
   id="path1291" />
</g>
<g
   id="g1297"
   transform="translate(-81.01,-175.10992)">
	<path
   class="st2"
   d="m 277.58,444.32 c -0.42,0 -0.85,-0.11 -1.25,-0.34 l -0.52,-0.3 c -1.21,-0.67 -1.65,-2.19 -0.98,-3.4 0.67,-1.21 2.19,-1.65 3.4,-0.98 0.17,0.09 0.34,0.19 0.51,0.29 l 0.09,0.05 c 1.2,0.69 1.61,2.22 0.92,3.42 -0.47,0.81 -1.31,1.26 -2.17,1.26 z"
   id="path1295" />
</g>
<g
   id="g1301"
   transform="translate(-81.01,-175.10992)">
	<path
   class="st2"
   d="m 276.96,443.96 c -0.42,0 -0.84,-0.11 -1.24,-0.33 -0.14,-0.08 -0.23,-0.13 -0.33,-0.2 -1.15,-0.76 -1.47,-2.31 -0.71,-3.46 0.75,-1.14 2.27,-1.46 3.42,-0.74 0.03,0.02 0.09,0.05 0.09,0.05 1.2,0.68 1.62,2.21 0.94,3.41 -0.46,0.81 -1.3,1.27 -2.17,1.27 z"
   id="path1299" />
</g>
<g
   id="g1305"
   transform="translate(-81.01,-175.10992)">
	<path
   class="st2"
   d="m 275.15,442.92 c -0.5,0 -1,-0.15 -1.42,-0.44 l -0.3,-0.17 c -1.2,-0.69 -1.61,-2.21 -0.93,-3.41 0.69,-1.2 2.22,-1.61 3.41,-0.93 l 0.43,0.24 c 0.12,0.07 0.23,0.14 0.34,0.23 0.09,0.07 0.18,0.15 0.26,0.23 0.96,0.99 0.95,2.57 -0.04,3.54 -0.49,0.47 -1.12,0.71 -1.75,0.71 z"
   id="path1303" />
</g>
<g
   id="g1309"
   transform="translate(-81.01,-175.10992)">
	<path
   class="st2"
   d="m 272.41,441.33 c -0.41,0 -0.83,-0.1 -1.21,-0.31 l -0.28,-0.15 c -1.21,-0.67 -1.63,-2.2 -0.96,-3.4 0.67,-1.21 2.2,-1.63 3.4,-0.96 l 0.26,0.15 c 1.21,0.67 1.64,2.19 0.97,3.4 -0.45,0.8 -1.3,1.27 -2.18,1.27 z"
   id="path1307" />
</g>
<g
   id="g1313"
   transform="translate(-81.01,-175.10992)">
	<path
   class="st2"
   d="m 270.76,440.38 c -0.41,0 -0.83,-0.1 -1.22,-0.32 -0.2,-0.11 -0.39,-0.22 -0.59,-0.34 -1.17,-0.73 -1.52,-2.28 -0.79,-3.45 0.74,-1.17 2.28,-1.52 3.45,-0.79 0.12,0.08 0.25,0.15 0.37,0.22 1.21,0.68 1.63,2.2 0.96,3.4 -0.46,0.82 -1.31,1.28 -2.18,1.28 z"
   id="path1311" />
</g>
<g
   id="g1317"
   transform="translate(-81.01,-175.10992)">
	<path
   class="st2"
   d="m 288.91,544.9 c -5,0 -10.13,-1.06 -14.43,-3.55 -4.39,-2.54 -6.81,-6.06 -6.81,-9.92 v -93.9 c 0,-1.38 1.12,-2.5 2.5,-2.5 1.38,0 2.5,1.12 2.5,2.5 v 93.9 c 0,1.96 1.57,4 4.31,5.59 7.53,4.35 18.58,3.34 24.49,-0.07 1.91,-1.1 4.19,-2.95 4.19,-5.51 v -94.19 c 0,-1.38 1.12,-2.5 2.5,-2.5 1.38,0 2.5,1.12 2.5,2.5 v 94.19 c 0,3.86 -2.37,7.36 -6.68,9.84 -3.88,2.24 -9.38,3.62 -15.07,3.62 z"
   id="path1315" />
</g>
<g
   id="g1321"
   transform="translate(-81.01,-175.10992)">
	<path
   class="st2"
   d="m 240.07,422.67 c -0.42,0 -0.85,-0.11 -1.25,-0.34 -0.64,-0.37 -1.32,-0.76 -2.02,-1.18 -1.19,-0.7 -1.59,-2.23 -0.9,-3.42 0.7,-1.19 2.23,-1.59 3.42,-0.89 0.7,0.41 1.36,0.79 2,1.16 1.2,0.69 1.6,2.22 0.91,3.42 -0.46,0.8 -1.3,1.25 -2.16,1.25 z"
   id="path1319" />
</g>
<g
   id="g1325"
   transform="translate(-81.01,-175.10992)">
	<path
   class="st2"
   d="m 219.21,410.63 c -0.43,0 -0.87,-0.11 -1.27,-0.35 -0.31,-0.18 -0.63,-0.36 -0.94,-0.54 l -0.57,-0.33 c -1.19,-0.69 -1.6,-2.22 -0.91,-3.42 0.69,-1.19 2.22,-1.6 3.42,-0.91 l 0.55,0.32 c 0.33,0.19 0.65,0.38 0.98,0.57 1.19,0.7 1.59,2.23 0.89,3.42 -0.46,0.8 -1.3,1.24 -2.15,1.24 z"
   id="path1323" />
</g>
<g
   id="g1329"
   transform="translate(-81.01,-175.10992)">
	<path
   class="st2"
   d="m 216.25,408.92 c -0.42,0 -0.85,-0.11 -1.24,-0.33 l -1.36,-0.78 c -1.2,-0.68 -1.62,-2.21 -0.94,-3.41 0.68,-1.2 2.21,-1.62 3.41,-0.94 l 1.38,0.8 c 1.2,0.69 1.61,2.22 0.92,3.41 -0.46,0.8 -1.31,1.25 -2.17,1.25 z"
   id="path1327" />
</g>
<g
   id="g1333"
   transform="translate(-81.01,-175.10992)">
	<path
   class="st2"
   d="m 213.62,407.4 c -0.41,0 -0.83,-0.1 -1.22,-0.32 -0.24,-0.13 -0.47,-0.27 -0.7,-0.4 l -0.48,-0.28 c -1.2,-0.68 -1.62,-2.21 -0.94,-3.41 0.68,-1.2 2.21,-1.62 3.41,-0.94 l 0.53,0.31 c 0.2,0.12 0.4,0.24 0.62,0.36 1.2,0.68 1.63,2.2 0.96,3.4 -0.46,0.82 -1.31,1.28 -2.18,1.28 z"
   id="path1331" />
</g>
<g
   id="g1337"
   transform="translate(-81.01,-175.10992)">
	<path
   class="st2"
   d="m 227.48,510.54 c -5.28,0 -10.57,-1.19 -14.68,-3.56 -4.39,-2.54 -6.81,-6.06 -6.81,-9.92 v -95.14 c 0,-1.38 1.12,-2.5 2.5,-2.5 1.38,0 2.5,1.12 2.5,2.5 v 95.14 c 0,1.96 1.57,4 4.31,5.59 6.6,3.81 17.76,3.81 24.36,0 2.75,-1.58 4.32,-3.62 4.32,-5.59 v -73.21 c 0,-1.38 1.12,-2.5 2.5,-2.5 1.38,0 2.5,1.12 2.5,2.5 v 73.21 c 0,3.86 -2.42,7.38 -6.82,9.92 -4.12,2.38 -9.4,3.56 -14.68,3.56 z"
   id="path1335" />
</g>
<g
   id="g1341"
   transform="translate(-81.01,-175.10992)">
	<path
   class="st2"
   d="m 179.6,387.77 c -0.43,0 -0.86,-0.11 -1.26,-0.34 -0.88,-0.52 -1.76,-1.02 -2.62,-1.52 -1.2,-0.69 -1.61,-2.22 -0.92,-3.41 0.69,-1.2 2.22,-1.61 3.41,-0.92 0.88,0.5 1.76,1.02 2.66,1.54 1.19,0.7 1.59,2.23 0.9,3.42 -0.48,0.78 -1.31,1.23 -2.17,1.23 z"
   id="path1339" />
</g>
<g
   id="g1345"
   transform="translate(-81.01,-175.10992)">
	<path
   class="st2"
   d="m 175.31,385.29 c -0.43,0 -0.86,-0.11 -1.25,-0.34 l -2.23,-1.29 c -1.2,-0.69 -1.61,-2.22 -0.92,-3.41 0.69,-1.2 2.22,-1.61 3.41,-0.92 l 2.25,1.29 c 1.19,0.69 1.6,2.22 0.91,3.42 -0.47,0.8 -1.31,1.25 -2.17,1.25 z"
   id="path1343" />
</g>
<g
   id="g1349"
   transform="translate(-81.01,-175.10992)">
	<path
   class="st2"
   d="m 163.05,378.21 c -0.42,0 -0.85,-0.11 -1.25,-0.33 l -0.97,-0.57 c -0.39,-0.23 -0.78,-0.45 -1.16,-0.67 -1.2,-0.68 -1.62,-2.21 -0.93,-3.41 0.68,-1.2 2.21,-1.62 3.41,-0.93 0.39,0.23 0.79,0.46 1.2,0.69 l 0.95,0.55 c 1.2,0.69 1.61,2.22 0.92,3.41 -0.47,0.81 -1.31,1.26 -2.17,1.26 z"
   id="path1347" />
</g>
<g
   id="g1353"
   transform="translate(-81.01,-175.10992)">
	<path
   class="st2"
   d="m 153.49,372.69 c -0.42,0 -0.84,-0.11 -1.23,-0.33 -0.52,-0.3 -1.05,-0.59 -1.55,-0.89 -1.19,-0.7 -1.58,-2.24 -0.88,-3.42 0.7,-1.19 2.24,-1.58 3.42,-0.88 0.48,0.28 0.97,0.57 1.47,0.85 1.2,0.68 1.62,2.21 0.94,3.41 -0.46,0.8 -1.3,1.26 -2.17,1.26 z"
   id="path1351" />
</g>
<g
   id="g1357"
   transform="translate(-81.01,-175.10992)">
	<path
   class="st2"
   d="m 168.23,477.64 c -5.34,0 -10.53,-1.23 -14.56,-3.55 -4.39,-2.54 -6.81,-6.06 -6.81,-9.92 V 367.8 c 0,-0.89 0.47,-1.71 1.24,-2.16 0.77,-0.45 1.72,-0.45 2.5,-0.01 l 2.44,1.4 c 1.2,0.69 1.62,2.21 0.93,3.41 -0.45,0.79 -1.26,1.24 -2.11,1.26 v 92.47 c 0,1.97 1.57,4 4.31,5.59 4.9,2.83 12.01,3.66 18.56,2.16 0.68,-0.16 1.37,-0.34 2.1,-0.57 1.03,-0.33 1.98,-0.71 2.8,-1.12 0.38,-0.18 0.72,-0.36 1.08,-0.57 0.04,-0.02 0.08,-0.05 0.12,-0.07 0.68,-0.4 1.31,-0.85 1.87,-1.34 0.01,-0.01 0.03,-0.03 0.04,-0.04 0.11,-0.1 0.22,-0.2 0.31,-0.3 1.22,-1.21 1.8,-2.45 1.8,-3.74 v -74.44 c 0,-1.38 1.12,-2.5 2.5,-2.5 1.38,0 2.5,1.12 2.5,2.5 v 74.44 c 0,2.63 -1.11,5.13 -3.22,7.22 -0.12,0.13 -0.33,0.34 -0.55,0.53 -0.02,0.02 -0.03,0.03 -0.05,0.04 -0.78,0.69 -1.64,1.31 -2.58,1.87 -0.03,0.02 -0.06,0.04 -0.1,0.06 -0.53,0.32 -1.04,0.59 -1.55,0.83 -1,0.5 -2.19,0.98 -3.48,1.39 -0.87,0.27 -1.67,0.49 -2.48,0.67 -2.48,0.58 -5.06,0.86 -7.61,0.86 z"
   id="path1355" />
</g>
<g
   id="g1361"
   transform="translate(-81.01,-175.10992)">
	<path
   class="st2"
   d="m 354.35,413.53 c -0.88,0 -1.73,-0.46 -2.18,-1.28 -0.67,-1.21 -0.24,-2.73 0.96,-3.4 l 1,-0.56 c 1.21,-0.66 2.73,-0.22 3.39,0.99 0.66,1.21 0.22,2.73 -0.99,3.39 l -0.96,0.54 c -0.39,0.21 -0.8,0.32 -1.22,0.32 z"
   id="path1359" />
</g>
<g
   id="g1365"
   transform="translate(-81.01,-175.10992)">
	<path
   class="st2"
   d="m 352,510.56 c -2.56,0 -5.16,-0.29 -7.72,-0.87 -0.62,-0.14 -1.23,-0.3 -1.81,-0.47 -1.48,-0.44 -2.88,-0.98 -4.17,-1.6 -0.79,-0.39 -1.52,-0.81 -2.22,-1.25 -1.01,-0.66 -1.87,-1.36 -2.59,-2.09 -2.09,-2.09 -3.2,-4.58 -3.2,-7.2 v -73.8 c 0,-1.38 1.12,-2.5 2.5,-2.5 1.38,0 2.5,1.12 2.5,2.5 v 73.8 c 0,1.28 0.59,2.52 1.75,3.68 0.49,0.5 1.08,0.97 1.76,1.42 0.53,0.34 1.1,0.66 1.71,0.96 1.01,0.49 2.16,0.93 3.38,1.29 0.49,0.15 1.01,0.27 1.52,0.39 6.53,1.49 13.64,0.67 18.55,-2.16 2.74,-1.58 4.32,-3.62 4.32,-5.58 v -95.36 c 0,-1.38 1.12,-2.5 2.5,-2.5 1.38,0 2.5,1.12 2.5,2.5 v 95.36 c 0,3.86 -2.42,7.38 -6.82,9.92 -4.08,2.33 -9.17,3.56 -14.46,3.56 z"
   id="path1363" />
</g>
<g
   id="g1369"
   transform="translate(-81.01,-175.10992)">
	<path
   class="st2"
   d="m 410.15,477.64 c -5.34,0 -10.53,-1.23 -14.56,-3.55 -4.39,-2.54 -6.81,-6.06 -6.81,-9.92 v -74.11 c 0,-1.38 1.12,-2.5 2.5,-2.5 1.38,0 2.5,1.12 2.5,2.5 v 74.11 c 0,1.97 1.57,4 4.31,5.59 4.9,2.83 12.01,3.66 18.56,2.16 0.68,-0.16 1.37,-0.34 2.1,-0.57 1.03,-0.33 1.98,-0.71 2.8,-1.12 0.38,-0.18 0.72,-0.36 1.08,-0.57 0.04,-0.03 0.08,-0.05 0.12,-0.07 0.68,-0.4 1.31,-0.85 1.87,-1.34 0.01,-0.01 0.03,-0.03 0.04,-0.04 0.11,-0.1 0.22,-0.2 0.31,-0.3 1.22,-1.21 1.8,-2.45 1.8,-3.74 V 368.5 c 0,-1.38 1.12,-2.5 2.5,-2.5 1.38,0 2.5,1.12 2.5,2.5 v 95.67 c 0,2.63 -1.11,5.13 -3.22,7.22 -0.12,0.13 -0.33,0.34 -0.55,0.53 -0.02,0.02 -0.03,0.03 -0.05,0.04 -0.78,0.69 -1.65,1.32 -2.58,1.87 -0.03,0.02 -0.06,0.04 -0.1,0.06 -0.53,0.32 -1.04,0.59 -1.55,0.83 -1,0.5 -2.19,0.98 -3.48,1.39 -0.87,0.27 -1.67,0.49 -2.48,0.67 -2.48,0.58 -5.06,0.86 -7.61,0.86 z"
   id="path1367" />
</g>
<g
   id="g1373"
   transform="translate(-81.01,-175.10992)">
	<path
   class="st2"
   d="m 268.62,388.86 c -0.83,0 -1.63,-0.41 -2.11,-1.16 -0.42,-0.66 -0.86,-1.33 -1.3,-2.01 L 265,385.37 c -0.75,-1.16 -0.42,-2.71 0.73,-3.46 1.16,-0.75 2.71,-0.43 3.46,0.73 l 0.21,0.32 c 0.45,0.7 0.9,1.38 1.33,2.05 0.74,1.17 0.4,2.71 -0.77,3.45 -0.41,0.27 -0.88,0.4 -1.34,0.4 z"
   id="path1371" />
</g>
<g
   id="g1377"
   transform="translate(-81.01,-175.10992)">
	<path
   class="st2"
   d="m 263.87,381.54 c -0.84,0 -1.66,-0.42 -2.13,-1.19 -0.19,-0.31 -0.39,-0.62 -0.6,-0.93 -0.77,-1.14 -0.47,-2.7 0.67,-3.47 1.15,-0.77 2.7,-0.47 3.47,0.67 0.25,0.37 0.49,0.74 0.72,1.11 0.72,1.17 0.36,2.72 -0.82,3.44 -0.41,0.25 -0.86,0.37 -1.31,0.37 z"
   id="path1375" />
</g>
<g
   id="g1381"
   transform="translate(-81.01,-175.10992)">
	<path
   class="st2"
   d="m 261.71,378.2 c -0.82,0 -1.63,-0.41 -2.11,-1.15 -0.32,-0.51 -0.66,-1.01 -0.99,-1.53 l -0.32,-0.49 c -0.75,-1.16 -0.43,-2.71 0.73,-3.46 1.16,-0.75 2.7,-0.43 3.46,0.73 l 0.32,0.48 c 0.34,0.53 0.68,1.04 1.01,1.56 0.75,1.16 0.41,2.71 -0.75,3.45 -0.42,0.28 -0.88,0.41 -1.35,0.41 z"
   id="path1379" />
</g>
<g
   id="g1385"
   transform="translate(-81.01,-175.10992)">
	<path
   class="st2"
   d="m 256.47,370.12 c -0.82,0 -1.63,-0.41 -2.11,-1.15 -0.45,-0.7 -0.91,-1.41 -1.38,-2.13 l -0.31,-0.47 c -0.75,-1.16 -0.43,-2.71 0.73,-3.46 1.15,-0.75 2.71,-0.43 3.46,0.73 l 0.31,0.47 c 0.48,0.73 0.95,1.45 1.41,2.17 0.74,1.16 0.4,2.71 -0.76,3.45 -0.42,0.26 -0.89,0.39 -1.35,0.39 z"
   id="path1383" />
</g>
<g
   id="g1389"
   transform="translate(-81.01,-175.10992)">
	<path
   class="st2"
   d="m 253.89,366.14 c -0.82,0 -1.63,-0.41 -2.1,-1.15 l -1.66,-2.56 c -0.75,-1.16 -0.41,-2.71 0.75,-3.46 1.16,-0.75 2.71,-0.41 3.46,0.75 l 1.66,2.56 c 0.75,1.16 0.41,2.71 -0.75,3.46 -0.43,0.27 -0.9,0.4 -1.36,0.4 z"
   id="path1387" />
</g>
<g
   id="g1393"
   transform="translate(-81.01,-175.10992)">
	<path
   class="st2"
   d="m 251.08,361.79 c -0.81,0 -1.6,-0.39 -2.09,-1.12 -0.39,-0.59 -0.78,-1.19 -1.17,-1.8 l -0.73,-1.12 c -0.75,-1.16 -0.43,-2.71 0.72,-3.46 1.16,-0.75 2.71,-0.43 3.46,0.72 l 0.74,1.13 c 0.38,0.59 0.76,1.18 1.15,1.75 0.76,1.15 0.45,2.7 -0.7,3.47 -0.42,0.29 -0.9,0.43 -1.38,0.43 z"
   id="path1391" />
</g>
<g
   id="g1397"
   transform="translate(-81.01,-175.10992)">
	<path
   class="st2"
   d="m 231.72,331.95 c -0.82,0 -1.62,-0.4 -2.1,-1.14 l -0.56,-0.87 c -0.72,-1.11 -1.44,-2.23 -2.18,-3.36 -0.75,-1.16 -0.42,-2.71 0.73,-3.46 1.16,-0.75 2.71,-0.43 3.46,0.73 0.74,1.14 1.47,2.26 2.18,3.37 l 0.56,0.86 c 0.75,1.16 0.42,2.71 -0.74,3.46 -0.41,0.28 -0.88,0.41 -1.35,0.41 z"
   id="path1395" />
</g>
<g
   id="g1401"
   transform="translate(-81.01,-175.10992)">
	<path
   class="st2"
   d="m 174.69,291.27 c -1,0 -1.94,-0.6 -2.33,-1.58 -0.51,-1.28 0.12,-2.74 1.4,-3.25 0.47,-0.19 0.95,-0.37 1.42,-0.55 l 0.48,-0.19 c 1.29,-0.5 2.73,0.14 3.23,1.43 0.5,1.29 -0.14,2.74 -1.43,3.23 l -0.49,0.19 c -0.46,0.18 -0.92,0.35 -1.38,0.54 -0.28,0.12 -0.59,0.18 -0.9,0.18 z"
   id="path1399" />
</g>
<g
   id="g1405"
   transform="translate(-81.01,-175.10992)">
	<path
   class="st2"
   d="m 170.15,293.03 c -1.01,0 -1.96,-0.61 -2.34,-1.61 -0.49,-1.29 0.15,-2.73 1.44,-3.23 0.84,-0.32 1.65,-0.64 2.47,-0.96 l 0.14,-0.06 c 1.29,-0.5 2.74,0.13 3.24,1.42 0.5,1.29 -0.13,2.74 -1.42,3.24 l -0.14,0.06 c -0.83,0.32 -1.66,0.65 -2.51,0.97 -0.28,0.11 -0.58,0.17 -0.88,0.17 z"
   id="path1403" />
</g>
<g
   id="g1409"
   transform="translate(-81.01,-175.10992)">
	<path
   class="st2"
   d="m 111.87,315.61 c -1,0 -1.94,-0.6 -2.33,-1.59 -0.5,-1.29 0.13,-2.74 1.42,-3.24 l 0.74,-0.29 c 1.29,-0.5 2.73,0.15 3.23,1.43 0.5,1.29 -0.15,2.74 -1.43,3.23 l -0.72,0.28 c -0.3,0.12 -0.61,0.18 -0.91,0.18 z"
   id="path1407" />
</g>
<g
   id="g1413"
   transform="translate(-81.01,-175.10992)">
	<path
   class="st2"
   d="m 109.81,316.41 c -0.98,0 -1.91,-0.57 -2.31,-1.52 -0.54,-1.27 0.04,-2.72 1.3,-3.27 0.11,-0.05 0.23,-0.09 0.4,-0.15 1.3,-0.47 2.73,0.2 3.2,1.5 0.47,1.3 -0.2,2.73 -1.5,3.2 l -0.12,0.05 c -0.32,0.12 -0.65,0.19 -0.97,0.19 z"
   id="path1411" />
</g>
<g
   id="g1417"
   transform="translate(-81.01,-175.10992)">
	<path
   class="st2"
   d="m 288.75,450.77 c -0.43,0 -0.86,-0.11 -1.25,-0.34 -0.42,-0.24 -0.96,-0.56 -1.61,-0.92 l -0.36,-0.22 c -2.08,-1.2 -5.22,-3.01 -9.2,-5.31 l -0.18,-0.1 c -0.1,-0.06 -0.19,-0.11 -0.29,-0.17 -0.08,-0.04 -0.15,-0.09 -0.23,-0.13 -0.05,-0.03 -0.11,-0.06 -0.16,-0.09 l -0.27,-0.16 c -0.19,-0.11 -0.38,-0.22 -0.56,-0.33 -0.15,-0.08 -0.3,-0.17 -0.45,-0.25 l -0.26,-0.15 c -0.04,-0.02 -0.08,-0.04 -0.11,-0.07 -0.12,-0.07 -0.24,-0.14 -0.36,-0.21 -0.77,-0.44 -1.54,-0.89 -2.32,-1.34 l -0.23,-0.13 c -0.5,-0.29 -0.94,-0.55 -1.41,-0.81 -0.15,-0.08 -0.32,-0.18 -0.49,-0.29 -0.03,-0.02 -1.88,-1.08 -1.88,-1.08 -0.67,-0.39 -1.36,-0.79 -2.06,-1.19 -0.59,-0.35 -1.17,-0.68 -1.76,-1.02 -1.71,-0.99 -3.47,-2 -5.29,-3.06 l -0.52,-0.3 c -0.29,-0.17 -0.59,-0.34 -0.89,-0.52 l -1.73,-1 c -1.92,-1.11 -3.89,-2.25 -5.93,-3.42 l -0.15,-0.08 c -0.14,-0.08 -0.29,-0.16 -0.43,-0.25 -0.1,-0.05 -0.2,-0.11 -0.3,-0.17 l -1.55,-0.89 c -0.43,-0.25 -0.86,-0.5 -1.3,-0.75 l -6.41,-3.7 c -0.31,-0.19 -0.61,-0.36 -0.91,-0.53 -0.38,-0.22 -0.75,-0.43 -1.13,-0.66 -3.99,-2.29 -8.15,-4.69 -12.41,-7.16 l -6.41,-3.7 c -0.52,-0.31 -1.01,-0.59 -1.51,-0.87 -0.48,-0.27 -0.97,-0.56 -1.46,-0.84 l -0.38,-0.22 c -0.32,-0.18 -0.64,-0.37 -0.96,-0.55 l -1.27,-0.74 c -0.2,-0.11 -0.4,-0.23 -0.6,-0.35 l -0.55,-0.31 c -1.34,-0.77 -2.67,-1.54 -4.01,-2.31 l -9.37,-5.41 c -3.9,-2.25 -7.82,-4.52 -11.75,-6.78 l -1.88,-1.09 c -1.95,-1.13 -3.91,-2.26 -5.86,-3.38 l -10.31,-5.96 c -2.09,-1.21 -4.17,-2.41 -6.24,-3.61 l -0.57,-0.33 c -0.53,-0.31 -1.07,-0.61 -1.59,-0.93 -2.47,-1.42 -4.95,-2.85 -7.4,-4.27 l -1.51,-0.87 c -0.05,-0.03 -0.09,-0.06 -0.14,-0.09 -0.01,-0.01 -0.04,-0.02 -0.07,-0.04 l -2.39,-1.37 c -1.2,-0.68 -1.62,-2.21 -0.94,-3.41 0.68,-1.2 2.21,-1.62 3.41,-0.94 l 2.45,1.4 c 0.05,0.03 0.09,0.05 0.14,0.08 0.02,0.01 0.06,0.03 0.1,0.06 l 1.47,0.85 c 2.45,1.42 4.92,2.85 7.41,4.27 0.54,0.32 1.06,0.62 1.57,0.91 l 0.58,0.33 c 2.07,1.19 4.16,2.4 6.25,3.61 l 10.3,5.95 c 1.95,1.12 3.91,2.25 5.87,3.38 l 1.88,1.09 c 3.93,2.26 7.85,4.53 11.75,6.78 l 9.37,5.41 c 1.33,0.77 2.66,1.54 3.98,2.3 0.19,0.1 0.39,0.22 0.59,0.34 l 1.82,1.05 c 0.33,0.18 0.66,0.38 1,0.57 l 0.38,0.22 c 0.48,0.28 0.95,0.55 1.42,0.82 0.54,0.3 1.06,0.6 1.58,0.91 l 6.37,3.67 c 4.26,2.46 8.42,4.86 12.44,7.17 0.39,0.23 0.74,0.43 1.1,0.64 0.32,0.18 0.63,0.36 0.94,0.55 l 6.38,3.68 c 0.44,0.25 0.89,0.51 1.33,0.77 l 1.71,0.98 c 0.05,0.03 0.16,0.09 0.21,0.12 0.11,0.07 0.22,0.13 0.33,0.2 l 0.17,0.1 c 2.03,1.17 4.01,2.31 5.93,3.42 l 1.75,1.01 c 0.3,0.18 0.58,0.34 0.86,0.5 l 0.45,0.26 c 1.9,1.1 3.65,2.11 5.34,3.09 0.6,0.34 1.2,0.68 1.79,1.03 0.69,0.39 1.38,0.79 2.07,1.19 l 1.74,1 c 0.03,0.02 0.05,0.03 0.07,0.04 0.07,0.04 0.08,0.04 0.15,0.09 0.12,0.08 0.25,0.15 0.37,0.22 0.5,0.29 0.96,0.55 1.42,0.82 l 0.22,0.12 c 0.81,0.48 1.57,0.91 2.29,1.33 0.17,0.1 0.34,0.19 0.51,0.3 l 0.64,0.36 c 0.03,0.02 0.07,0.04 0.1,0.06 0.18,0.11 0.36,0.21 0.54,0.32 l 0.32,0.19 c 0.12,0.07 0.2,0.11 0.27,0.16 0.13,0.07 0.25,0.14 0.38,0.22 l 0.14,0.08 c 3.98,2.3 7.12,4.11 9.24,5.33 l 0.32,0.2 c 0.62,0.35 1.18,0.68 1.62,0.93 1.19,0.69 1.6,2.22 0.9,3.42 -0.47,0.82 -1.31,1.27 -2.17,1.27 z m -13.16,-7.22 c 0,0 0,0 0,0 0,0 0,0 0,0 z m 0,-0.01 c 0,0 0,0 0,0 0,0 0,0 0,0 z m -0.01,0 c 0,0 0,0 0,0 0,0 0,0 0,0 z"
   id="path1415" />
</g>
<g
   id="g1421"
   transform="translate(-81.01,-175.10992)">
	<path
   class="st2"
   d="m 149.36,370.31 c -0.42,0 -0.86,-0.11 -1.25,-0.34 -14.81,-8.56 -28.52,-16.48 -39.72,-22.95 -0.77,-0.45 -1.25,-1.27 -1.25,-2.16 v -30.88 c 0,-0.95 0.54,-1.81 1.38,-2.24 0.02,-0.01 0.04,-0.02 0.06,-0.03 2.95,-1.68 56.11,-31.86 103.12,-58.54 38.79,-22.02 75.43,-42.82 75.84,-43.06 0.11,-0.06 0.23,-0.12 0.34,-0.16 l 89.5,-34.67 c 1.29,-0.5 2.74,0.14 3.23,1.43 0.49,1.29 -0.14,2.74 -1.43,3.23 l -89.33,34.61 c -1.38,0.79 -10.69,6.07 -75.69,42.97 -44.16,25.07 -93.76,53.22 -102.04,57.93 v 27.97 c 10.96,6.33 24.21,13.98 38.47,22.23 1.2,0.69 1.6,2.22 0.91,3.42 -0.44,0.79 -1.28,1.24 -2.14,1.24 z"
   id="path1419" />
</g>
<g
   id="g1425"
   transform="translate(-81.01,-175.10992)">
	<path
   class="st2"
   d="m 109.71,316.45 c -1.01,0 -1.97,-0.62 -2.34,-1.63 -0.48,-1.29 0.18,-2.73 1.47,-3.21 l 2.86,-1.11 86.58,-33.55 c 1.29,-0.5 2.74,0.14 3.23,1.43 0.5,1.29 -0.14,2.74 -1.43,3.23 l -89.4,34.64 c -0.01,0 -0.1,0.04 -0.11,0.04 -0.28,0.11 -0.57,0.16 -0.86,0.16 z"
   id="path1423" />
</g>
<g
   id="g1429"
   transform="translate(-81.01,-175.10992)">
	<path
   class="st2"
   d="m 202.27,280.03 c -0.87,0 -1.71,-0.45 -2.17,-1.25 -0.69,-1.2 -0.28,-2.73 0.92,-3.41 l 0.78,-0.44 c 1.2,-0.69 2.73,-0.28 3.42,0.92 0.69,1.2 0.28,2.72 -0.92,3.42 l -0.78,0.44 c -0.4,0.21 -0.83,0.32 -1.25,0.32 z"
   id="path1427" />
</g>
<g
   id="g1433"
   transform="translate(-81.01,-175.10992)">
	<path
   class="st2"
   d="m 203.47,279.35 c -0.87,0 -1.72,-0.46 -2.18,-1.27 -0.68,-1.2 -0.25,-2.73 0.95,-3.41 l 2.39,-1.35 c 1.2,-0.67 2.73,-0.24 3.4,0.96 0.67,1.2 0.24,2.73 -0.96,3.4 l -2.37,1.34 c -0.39,0.22 -0.81,0.33 -1.23,0.33 z"
   id="path1431" />
</g>
<g
   id="g1437"
   transform="translate(-81.01,-175.10992)">
	<path
   class="st2"
   d="m 223.28,268.1 c -0.87,0 -1.72,-0.46 -2.18,-1.27 -0.68,-1.2 -0.25,-2.73 0.95,-3.41 1.38,-0.78 2.75,-1.55 4.1,-2.33 1.19,-0.69 2.72,-0.27 3.41,0.92 0.69,1.2 0.27,2.73 -0.92,3.41 -1.36,0.78 -2.75,1.57 -4.13,2.35 -0.39,0.22 -0.81,0.33 -1.23,0.33 z"
   id="path1435" />
</g>
<g
   id="g1441"
   transform="translate(-81.01,-175.10992)">
	<path
   class="st2"
   d="m 235.39,261.23 c -0.88,0 -1.72,-0.46 -2.18,-1.28 -0.67,-1.2 -0.25,-2.73 0.96,-3.4 0.65,-0.36 1.28,-0.73 1.92,-1.1 1.19,-0.7 2.72,-0.3 3.42,0.9 0.7,1.19 0.3,2.72 -0.9,3.42 -0.66,0.39 -1.33,0.77 -2,1.14 -0.38,0.21 -0.8,0.32 -1.22,0.32 z"
   id="path1439" />
</g>
<g
   id="g1445"
   transform="translate(-81.01,-175.10992)">
	<path
   class="st2"
   d="m 239.12,259.11 c -0.87,0 -1.72,-0.46 -2.18,-1.28 -0.68,-1.2 -0.25,-2.73 0.96,-3.4 0.74,-0.42 1.48,-0.84 2.22,-1.26 l 0.91,-0.52 c 1.2,-0.68 2.73,-0.26 3.41,0.94 0.68,1.2 0.26,2.73 -0.94,3.41 l -0.91,0.52 c -0.74,0.42 -1.49,0.85 -2.24,1.27 -0.39,0.21 -0.81,0.32 -1.23,0.32 z"
   id="path1443" />
</g>
<g
   id="g1449"
   transform="translate(-81.01,-175.10992)">
	<path
   class="st2"
   d="m 247.12,254.57 c -0.87,0 -1.72,-0.46 -2.18,-1.27 -0.68,-1.2 -0.25,-2.73 0.95,-3.41 0.71,-0.4 1.41,-0.79 2.11,-1.19 1.2,-0.68 2.73,-0.27 3.41,0.93 0.69,1.2 0.27,2.73 -0.93,3.41 -0.71,0.4 -1.42,0.81 -2.13,1.21 -0.39,0.21 -0.81,0.32 -1.23,0.32 z"
   id="path1447" />
</g>
<g
   id="g1453"
   transform="translate(-81.01,-175.10992)">
	<path
   class="st2"
   d="m 254.35,250.47 c -0.88,0 -1.72,-0.46 -2.18,-1.28 -0.67,-1.2 -0.25,-2.73 0.96,-3.4 0.49,-0.27 0.97,-0.55 1.44,-0.82 l 0.23,-0.13 c 1.2,-0.68 2.73,-0.27 3.41,0.93 0.68,1.2 0.27,2.73 -0.93,3.41 l -0.23,0.13 c -0.49,0.28 -0.98,0.56 -1.48,0.84 -0.38,0.21 -0.8,0.32 -1.22,0.32 z"
   id="path1451" />
</g>
<g
   id="g1457"
   transform="translate(-81.01,-175.10992)">
	<path
   class="st2"
   d="m 263.73,245.15 c -0.87,0 -1.71,-0.45 -2.17,-1.26 -0.69,-1.2 -0.27,-2.73 0.92,-3.41 l 3.03,-1.72 c 1.2,-0.68 2.73,-0.27 3.41,0.93 0.68,1.2 0.27,2.73 -0.93,3.41 l -3.01,1.72 c -0.4,0.22 -0.83,0.33 -1.25,0.33 z"
   id="path1455" />
</g>
<g
   id="g1461"
   transform="translate(-81.01,-175.10992)">
	<path
   class="st2"
   d="m 274.11,239.26 c -0.87,0 -1.71,-0.45 -2.17,-1.26 -0.68,-1.2 -0.27,-2.73 0.93,-3.41 l 0.47,-0.27 c 0.84,-0.48 1.67,-0.95 2.5,-1.42 1.2,-0.68 2.73,-0.25 3.4,0.96 0.68,1.2 0.25,2.73 -0.96,3.4 -0.82,0.46 -1.64,0.93 -2.47,1.4 l -0.47,0.27 c -0.38,0.22 -0.81,0.33 -1.23,0.33 z"
   id="path1459" />
</g>
<g
   id="g1465"
   transform="translate(-81.01,-175.10992)">
	<path
   class="st2"
   d="m 292.2,228.99 c -0.87,0 -1.71,-0.45 -2.17,-1.26 -0.68,-1.2 -0.27,-2.73 0.93,-3.41 l 2.56,-1.46 c 1.19,-0.68 2.72,-0.27 3.41,0.93 0.68,1.2 0.27,2.73 -0.93,3.41 l -2.56,1.46 c -0.39,0.22 -0.82,0.33 -1.24,0.33 z"
   id="path1463" />
</g>
<g
   id="g1469"
   transform="translate(-81.01,-175.10992)">
	<path
   class="st2"
   d="m 312.69,217.36 c -0.87,0 -1.71,-0.45 -2.17,-1.25 -0.69,-1.2 -0.28,-2.73 0.92,-3.41 0.74,-0.42 1.46,-0.84 2.18,-1.24 1.2,-0.68 2.73,-0.25 3.4,0.95 0.68,1.2 0.25,2.73 -0.95,3.41 -0.7,0.4 -1.42,0.8 -2.14,1.22 -0.39,0.21 -0.82,0.32 -1.24,0.32 z"
   id="path1467" />
</g>
<g
   id="g1473"
   transform="translate(-81.01,-175.10992)">
	<path
   class="st2"
   d="m 327.54,208.93 c -0.87,0 -1.71,-0.45 -2.17,-1.26 -0.69,-1.2 -0.27,-2.73 0.93,-3.41 l 2.84,-1.61 c 1.2,-0.68 2.73,-0.27 3.41,0.94 0.68,1.2 0.26,2.73 -0.94,3.41 l -2.82,1.61 c -0.4,0.21 -0.83,0.32 -1.25,0.32 z"
   id="path1471" />
</g>
<g
   id="g1477"
   transform="translate(-81.01,-175.10992)">
	<path
   class="st2"
   d="m 350.09,196.13 c -0.86,0 -1.7,-0.45 -2.17,-1.25 -0.69,-1.2 -0.28,-2.72 0.91,-3.42 0.72,-0.42 1.43,-0.82 2.12,-1.21 1.2,-0.67 2.73,-0.24 3.4,0.96 0.67,1.21 0.24,2.73 -0.96,3.4 -0.67,0.37 -1.36,0.77 -2.06,1.17 -0.38,0.24 -0.81,0.35 -1.24,0.35 z"
   id="path1475" />
</g>
<g
   id="g1481"
   transform="translate(-81.01,-175.10992)">
	<path
   class="st2"
   d="m 372.65,183.32 c -0.85,0 -1.69,-0.44 -2.15,-1.23 -0.7,-1.19 -0.31,-2.72 0.88,-3.43 0.24,-0.15 0.48,-0.28 0.72,-0.41 l 0.26,-0.14 c 1.2,-0.68 2.73,-0.26 3.41,0.94 0.68,1.2 0.26,2.73 -0.94,3.41 l -0.28,0.16 c -0.2,0.11 -0.4,0.23 -0.61,0.35 -0.42,0.23 -0.85,0.35 -1.29,0.35 z"
   id="path1479" />
</g>
<g
   id="g1485"
   transform="translate(-81.01,-175.10992)">
	<path
   class="st2"
   d="m 288.75,419.89 c -0.82,0 -1.62,-0.4 -2.1,-1.14 l -4.59,-7.07 c -3.59,-5.53 -6.89,-10.62 -15.54,-23.96 -0.49,-0.75 -1,-1.54 -1.53,-2.36 -1,-1.54 -2.07,-3.2 -3.22,-4.95 -0.16,-0.26 -0.3,-0.46 -0.43,-0.67 l -0.24,-0.36 c -0.49,-0.77 -0.98,-1.53 -1.49,-2.3 l -1.33,-2.04 c -1.04,-1.61 -2.12,-3.29 -3.27,-5.06 l -0.65,-1 c -0.55,-0.85 -1.12,-1.73 -1.7,-2.62 -0.23,-0.36 -0.44,-0.68 -0.65,-1 l -0.9,-1.39 c -0.32,-0.5 -0.65,-1.01 -0.99,-1.52 l -1.17,-1.81 c -0.6,-0.92 -1.24,-1.89 -1.88,-2.89 l -4.1,-6.32 C 239,345.3 234.57,338.47 229.6,330.81 l -2.74,-4.23 c -8.4,-12.96 -18.23,-28.12 -29.79,-45.94 -0.37,-0.58 -0.49,-1.28 -0.33,-1.95 0.16,-0.67 0.59,-1.24 1.19,-1.58 l 3.84,-2.18 c 0.16,-0.1 0.33,-0.19 0.51,-0.29 l 2.32,-1.32 c 1.98,-1.13 4.39,-2.49 7.21,-4.1 l 14.34,-8.14 c 2.51,-1.42 5.17,-2.92 7.99,-4.53 l 1.95,-1.11 c 0.43,-0.24 0.83,-0.46 1.23,-0.69 l 0.55,-0.31 c 1.03,-0.58 2.07,-1.17 3.13,-1.78 1.58,-0.89 3.19,-1.81 4.86,-2.76 0.64,-0.37 1.3,-0.74 1.96,-1.11 l 5.5,-3.12 c 0.49,-0.28 0.98,-0.56 1.48,-0.84 2.47,-1.4 5.03,-2.85 7.68,-4.35 0.72,-0.41 1.46,-0.83 2.21,-1.26 l 2.48,-1.41 c 1.86,-1.05 3.76,-2.13 5.7,-3.23 0.97,-0.56 1.96,-1.12 2.97,-1.68 l 2.71,-1.54 c 3.99,-2.27 8.13,-4.62 12.42,-7.05 0.54,-0.3 1.07,-0.61 1.61,-0.91 l 5.94,-3.37 c 4.18,-2.37 8.5,-4.82 12.94,-7.34 0.7,-0.4 1.43,-0.82 2.17,-1.23 l 2.62,-1.49 c 3.29,-1.87 6.64,-3.77 10.07,-5.71 l 2.83,-1.61 c 6.34,-3.6 12.91,-7.33 19.72,-11.19 0.41,-0.24 0.85,-0.49 1.28,-0.73 l 9.4,-5.34 c 3.89,-2.21 7.85,-4.46 11.88,-6.74 l 5.65,-3.21 c 1.15,-0.66 2.61,-0.3 3.34,0.81 l 89.56,138.11 c 0.75,1.16 0.42,2.71 -0.74,3.46 -1.16,0.75 -2.71,0.42 -3.46,-0.74 l -88.28,-136.13 -3.58,2.04 c -4.05,2.3 -8.01,4.54 -11.9,6.75 l -9.4,5.34 c -0.42,0.24 -0.84,0.48 -1.26,0.72 -6.83,3.87 -13.4,7.6 -19.74,11.2 l -2.83,1.61 c -3.44,1.94 -6.79,3.85 -10.07,5.71 l -2.63,1.49 c -0.73,0.41 -1.44,0.82 -2.14,1.22 -4.47,2.53 -8.78,4.98 -12.96,7.35 l -5.92,3.37 c -0.54,0.31 -1.09,0.62 -1.63,0.93 -4.28,2.42 -8.42,4.77 -12.4,7.04 l -2.72,1.55 c -1.01,0.56 -1.98,1.12 -2.95,1.68 -1.95,1.1 -3.84,2.17 -5.7,3.23 l -2.48,1.41 c -0.74,0.42 -1.48,0.84 -2.2,1.25 -2.66,1.51 -5.22,2.96 -7.7,4.37 -0.5,0.28 -0.98,0.55 -1.46,0.83 l -5.52,3.14 c -0.65,0.37 -1.3,0.73 -1.93,1.1 -1.67,0.95 -3.3,1.87 -4.87,2.76 -1.07,0.61 -2.11,1.2 -3.14,1.78 l -0.54,0.31 c -0.42,0.24 -0.84,0.48 -1.25,0.71 l -1.92,1.1 c -2.85,1.62 -5.51,3.13 -8.01,4.54 l -14.34,8.14 c -2.83,1.6 -5.23,2.97 -7.21,4.09 l -2.38,1.35 c -0.16,0.09 -0.26,0.14 -0.35,0.2 -0.03,0.02 -0.06,0.04 -0.1,0.06 l -1.54,0.87 c 10.94,16.86 20.3,31.3 28.35,43.72 l 2.74,4.24 c 4.96,7.65 9.4,14.49 13.37,20.61 l 4.1,6.32 c 0.64,0.99 1.26,1.95 1.88,2.88 l 1.16,1.81 c 0.33,0.5 0.67,1.02 1,1.53 l 0.88,1.36 c 0.23,0.36 0.46,0.71 0.68,1.06 0.55,0.84 1.12,1.73 1.67,2.58 l 0.65,0.99 c 1.15,1.77 2.25,3.46 3.28,5.06 l 1.31,2.02 c 0.52,0.79 1.03,1.58 1.52,2.35 l 0.2,0.31 c 0.16,0.24 0.32,0.49 0.47,0.73 1.12,1.71 2.2,3.37 3.2,4.93 0.52,0.81 1.03,1.59 1.51,2.34 8.65,13.34 11.95,18.43 15.54,23.96 l 4.59,7.08 c 0.75,1.16 0.42,2.71 -0.74,3.46 -0.4,0.23 -0.87,0.36 -1.34,0.36 z"
   id="path1483" />
</g>
<g
   id="g1489"
   transform="translate(-81.01,-175.10992)">
	<path
   class="st2"
   d="m 291.04,418.59 c -0.86,0 -1.7,-0.45 -2.16,-1.24 -0.69,-1.19 -0.29,-2.72 0.9,-3.42 l 0.93,-0.53 c 1.19,-0.69 2.72,-0.29 3.42,0.9 0.69,1.19 0.29,2.72 -0.9,3.42 l -0.93,0.53 c -0.4,0.23 -0.83,0.34 -1.26,0.34 z"
   id="path1487" />
</g>
<g
   id="g1493"
   transform="translate(-81.01,-175.10992)">
	<path
   class="st2"
   d="m 298.99,414.08 c -0.86,0 -1.7,-0.44 -2.16,-1.24 -0.7,-1.19 -0.29,-2.72 0.9,-3.42 0.37,-0.22 0.75,-0.43 1.13,-0.65 0.26,-0.15 0.48,-0.27 0.7,-0.4 1.18,-0.71 2.72,-0.33 3.43,0.86 0.71,1.18 0.33,2.72 -0.86,3.43 -0.26,0.16 -0.52,0.3 -0.78,0.45 -0.38,0.22 -0.75,0.42 -1.1,0.63 -0.4,0.23 -0.83,0.34 -1.26,0.34 z"
   id="path1491" />
</g>
<g
   id="g1497"
   transform="translate(-81.01,-175.10992)">
	<path
   class="st2"
   d="m 315.85,404.51 c -0.87,0 -1.71,-0.45 -2.17,-1.26 -0.68,-1.2 -0.27,-2.73 0.93,-3.41 0.84,-0.48 1.71,-0.98 2.61,-1.48 1.2,-0.68 2.73,-0.25 3.4,0.95 0.68,1.2 0.25,2.73 -0.96,3.4 -0.88,0.5 -1.74,0.98 -2.57,1.46 -0.39,0.23 -0.82,0.34 -1.24,0.34 z"
   id="path1495" />
</g>
<g
   id="g1501"
   transform="translate(-81.01,-175.10992)">
	<path
   class="st2"
   d="m 324.08,399.83 c -0.88,0 -1.73,-0.47 -2.19,-1.29 -0.67,-1.21 -0.23,-2.73 0.98,-3.4 0.29,-0.16 0.57,-0.32 0.86,-0.49 l 0.54,-0.31 c 1.2,-0.68 2.73,-0.25 3.4,0.95 0.68,1.2 0.25,2.73 -0.96,3.4 l -0.53,0.3 c -0.3,0.17 -0.61,0.34 -0.91,0.51 -0.36,0.23 -0.78,0.33 -1.19,0.33 z"
   id="path1499" />
</g>
<g
   id="g1505"
   transform="translate(-81.01,-175.10992)">
	<path
   class="st2"
   d="m 332.34,395.15 c -0.87,0 -1.71,-0.45 -2.17,-1.26 -0.69,-1.2 -0.27,-2.73 0.93,-3.41 l 0.56,-0.32 c 0.31,-0.17 0.61,-0.35 0.92,-0.53 1.2,-0.69 2.72,-0.29 3.42,0.91 0.69,1.19 0.29,2.72 -0.91,3.42 -0.32,0.19 -0.64,0.37 -0.96,0.55 l -0.54,0.31 c -0.4,0.22 -0.83,0.33 -1.25,0.33 z"
   id="path1503" />
</g>
<g
   id="g1509"
   transform="translate(-81.01,-175.10992)">
	<path
   class="st2"
   d="m 345.39,387.74 c -0.87,0 -1.72,-0.46 -2.18,-1.27 -0.68,-1.2 -0.26,-2.73 0.94,-3.41 l 0.18,-0.1 c 0.75,-0.43 1.51,-0.86 2.29,-1.29 1.2,-0.67 2.73,-0.25 3.4,0.96 0.67,1.2 0.24,2.73 -0.96,3.4 -0.77,0.43 -1.52,0.86 -2.27,1.28 l -0.18,0.1 c -0.38,0.22 -0.8,0.33 -1.22,0.33 z"
   id="path1507" />
</g>
<g
   id="g1513"
   transform="translate(-81.01,-175.10992)">
	<path
   class="st2"
   d="m 381.31,367.35 c -0.87,0 -1.72,-0.46 -2.18,-1.27 -0.68,-1.2 -0.26,-2.73 0.94,-3.41 l 0.16,-0.09 c 0.55,-0.31 1.1,-0.62 1.66,-0.94 1.21,-0.67 2.73,-0.24 3.4,0.97 0.67,1.21 0.24,2.73 -0.97,3.4 -0.55,0.31 -1.09,0.61 -1.63,0.92 l -0.16,0.09 c -0.38,0.22 -0.8,0.33 -1.22,0.33 z"
   id="path1511" />
</g>
<g
   id="g1517"
   transform="translate(-81.01,-175.10992)">
	<path
   class="st2"
   d="m 386.8,364.24 c -0.87,0 -1.72,-0.46 -2.18,-1.27 -0.68,-1.2 -0.26,-2.73 0.94,-3.41 l 3.59,-2.04 c 1.2,-0.68 2.73,-0.26 3.41,0.94 0.68,1.2 0.26,2.73 -0.95,3.41 l -3.59,2.04 c -0.38,0.22 -0.8,0.33 -1.22,0.33 z"
   id="path1515" />
</g>
<g
   id="g1521"
   transform="translate(-81.01,-175.10992)">
	<path
   class="st2"
   d="m 288.75,450.77 c -0.44,0 -0.87,-0.11 -1.26,-0.34 -0.77,-0.45 -1.24,-1.27 -1.24,-2.16 v -30.88 c 0,-0.9 0.48,-1.73 1.26,-2.17 l 3.23,-1.84 c 2.03,-1.15 4.36,-2.48 7.01,-3.98 0.35,-0.2 0.72,-0.42 1.12,-0.64 0.24,-0.13 0.46,-0.26 0.67,-0.39 l 15.06,-8.54 c 0.85,-0.49 1.72,-0.98 2.61,-1.48 0.89,-0.51 1.83,-1.05 2.79,-1.59 l 2.82,-1.61 c 0.32,-0.18 0.6,-0.34 0.89,-0.5 l 3.12,-1.77 c 1.38,-0.79 2.8,-1.59 4.25,-2.41 l 0.54,-0.31 c 0.31,-0.17 0.61,-0.35 0.92,-0.53 2.71,-1.54 5.54,-3.15 8.49,-4.82 l 5.55,-3.14 c 9.77,-5.56 20.87,-11.86 33.46,-19 l 0.16,-0.09 c 0.55,-0.31 1.1,-0.62 1.66,-0.94 l 0.7,-0.4 c 0.98,-0.56 1.96,-1.12 2.97,-1.69 l 81.05,-46.01 c 0.77,-0.44 1.72,-0.43 2.49,0.01 0.77,0.45 1.24,1.27 1.24,2.16 v 30.88 c 0,0.9 -0.48,1.73 -1.27,2.17 l -16.31,9.26 c -7.96,4.51 -15.34,8.71 -22.28,12.65 l -58.49,33.2 c -5.2,2.95 -10.31,5.85 -15.45,8.77 l -0.5,0.28 c -0.17,0.1 -0.35,0.2 -0.52,0.29 -4.52,2.57 -9.11,5.18 -13.81,7.84 l -7.71,4.38 c -0.55,0.31 -1.08,0.61 -1.61,0.91 -0.74,0.42 -1.49,0.85 -2.24,1.27 -2.36,1.33 -4.77,2.7 -7.23,4.1 l -1.69,0.96 c -1.58,0.89 -3.18,1.8 -4.81,2.73 l -0.34,0.19 c -0.27,0.16 -0.55,0.31 -0.82,0.46 l -5.9,3.35 c -0.46,0.26 -0.94,0.53 -1.41,0.8 l -0.94,0.53 c -0.13,0.08 -0.29,0.17 -0.46,0.26 l -5.35,3.04 c -0.42,0.24 -0.84,0.48 -1.26,0.72 l -0.58,0.33 c -0.49,0.28 -0.92,0.52 -1.34,0.77 l -8.05,4.57 c -0.34,0.24 -0.76,0.35 -1.19,0.35 z m 2.5,-31.93 v 25.13 l 4.31,-2.44 c 0.39,-0.23 0.84,-0.49 1.29,-0.74 l 0.66,-0.37 c 0.41,-0.23 0.82,-0.46 1.23,-0.7 l 4.94,-2.81 c 0.13,-0.08 0.29,-0.17 0.45,-0.26 l 1.38,-0.78 c 0.47,-0.26 0.93,-0.52 1.39,-0.79 l 5.93,-3.37 c 0.28,-0.15 0.54,-0.3 0.79,-0.44 l 0.34,-0.19 c 1.63,-0.93 3.23,-1.84 4.82,-2.74 l 1.68,-0.95 c 2.45,-1.4 4.87,-2.77 7.24,-4.11 0.75,-0.42 1.48,-0.84 2.2,-1.25 0.55,-0.32 1.1,-0.63 1.65,-0.94 l 7.69,-4.37 c 4.7,-2.67 9.29,-5.27 13.85,-7.86 l 0.48,-0.27 c 0.18,-0.1 0.36,-0.2 0.54,-0.3 5.1,-2.9 10.21,-5.8 15.41,-8.75 l 58.49,-33.2 c 6.93,-3.94 14.32,-8.13 22.28,-12.65 l 15.05,-8.54 v -25.13 l -77.33,43.9 c -1.01,0.56 -1.98,1.12 -2.95,1.67 l -0.73,0.42 c -0.57,0.32 -1.11,0.63 -1.66,0.93 l -0.16,0.09 c -12.59,7.14 -23.69,13.44 -33.46,19 l -5.55,3.14 c -2.95,1.67 -5.77,3.27 -8.47,4.81 -0.3,0.18 -0.63,0.36 -0.95,0.54 l -0.54,0.31 c -1.46,0.82 -2.88,1.63 -4.25,2.41 L 326.2,399 c -0.3,0.17 -0.61,0.34 -0.91,0.51 l -2.8,1.6 c -0.96,0.54 -1.89,1.07 -2.81,1.6 -0.89,0.5 -1.74,0.98 -2.58,1.47 l -15.02,8.52 c -0.21,0.12 -0.47,0.27 -0.73,0.42 -0.41,0.23 -0.75,0.43 -1.1,0.63 -2.68,1.52 -5.01,2.84 -7.05,3.99 z"
   id="path1519" />
</g>
<g
   id="g1525"
   transform="translate(-81.01,-175.10992)">
	<path
   class="st2"
   d="m 264.97,412.94 c -0.43,0 -0.86,-0.11 -1.25,-0.33 L 124.49,332.23 c -0.83,-0.48 -1.32,-1.4 -1.24,-2.36 0.07,-0.96 0.69,-1.79 1.59,-2.14 0.69,-0.27 69.52,-26.95 69.82,-27.04 1.06,-0.3 2.19,0.12 2.79,1.04 29.18,45 47.07,72.59 59.43,91.64 l 10.19,15.71 c 0.63,0.97 0.51,2.24 -0.29,3.08 -0.48,0.51 -1.14,0.78 -1.81,0.78 z m -133.46,-82.44 125.7,72.57 -4.53,-6.98 c -12.2,-18.82 -29.8,-45.95 -58.33,-89.94 -8.86,3.43 -46.74,18.1 -62.84,24.35 z"
   id="path1523" />
</g>
<g
   id="g1529"
   transform="translate(-81.01,-175.10992)">
	<path
   class="st2"
   d="m 198.97,352.55 c -1.55,0 -3.22,-0.48 -4.87,-1.43 -5.21,-3 -9.29,-10.07 -9.29,-16.1 0,-3.36 1.32,-6.05 3.61,-7.37 2.29,-1.32 5.27,-1.12 8.18,0.57 5.21,3 9.3,10.07 9.3,16.09 0,3.36 -1.31,6.05 -3.61,7.37 -0.99,0.58 -2.13,0.87 -3.32,0.87 z m -7.21,-20.76 c -0.33,0 -0.61,0.07 -0.84,0.2 -0.69,0.4 -1.11,1.54 -1.11,3.04 0,4.25 3.11,9.64 6.79,11.76 1.31,0.76 2.5,0.97 3.2,0.57 0.69,-0.4 1.1,-1.54 1.1,-3.04 0,-4.26 -3.11,-9.64 -6.8,-11.76 -0.87,-0.51 -1.69,-0.77 -2.34,-0.77 z"
   id="path1527" />
</g>
</svg>
