<?xml version="1.0" encoding="UTF-8" standalone="no"?>
<svg
   xmlns:dc="http://purl.org/dc/elements/1.1/"
   xmlns:cc="http://creativecommons.org/ns#"
   xmlns:rdf="http://www.w3.org/1999/02/22-rdf-syntax-ns#"
   xmlns:svg="http://www.w3.org/2000/svg"
   xmlns="http://www.w3.org/2000/svg"
   xmlns:sodipodi="http://sodipodi.sourceforge.net/DTD/sodipodi-0.dtd"
   xmlns:inkscape="http://www.inkscape.org/namespaces/inkscape"
   version="1.1"
   id="Layer_1"
   x="0px"
   y="0px"
   viewBox="0 0 418.31999 483.66692"
   xml:space="preserve"
   sodipodi:docname="finance_icons_pushpie.svg"
   width="418.32001"
   height="483.66693"
   inkscape:version="1.0.2 (e86c8708, 2021-01-15)"><metadata
   id="metadata1524"><rdf:RDF><cc:Work
       rdf:about=""><dc:format>image/svg+xml</dc:format><dc:type
         rdf:resource="http://purl.org/dc/dcmitype/StillImage" /><dc:title /></cc:Work></rdf:RDF></metadata><defs
   id="defs1522" /><sodipodi:namedview
   pagecolor="#ffffff"
   bordercolor="#666666"
   borderopacity="1"
   objecttolerance="10"
   gridtolerance="10"
   guidetolerance="10"
   inkscape:pageopacity="0"
   inkscape:pageshadow="2"
   inkscape:window-width="1280"
   inkscape:window-height="747"
   id="namedview1520"
   showgrid="false"
   fit-margin-top="0"
   fit-margin-left="0"
   fit-margin-right="0"
   fit-margin-bottom="0"
   inkscape:zoom="0.67348466"
   inkscape:cx="210.27"
   inkscape:cy="241.54193"
   inkscape:window-x="0"
   inkscape:window-y="25"
   inkscape:window-maximized="1"
   inkscape:current-layer="Layer_1"
   inkscape:document-rotation="0" />
<style
   type="text/css"
   id="style833">
	.st0{fill:#DBDBE4;}
	.st1{fill:#D7DCE0;}
	.st2{fill:#3A3B3A;}
	.st3{fill:#F6D84B;}
</style>
<path
   class="st0"
   d="m 267.33,236.06693 -0.32,1.39 c 2.04,0.47 4.26,0.7 6.78,0.7 1.96,0 3.93,-0.14 5.87,-0.29 -0.13,-0.47 -0.28,-0.93 -0.42,-1.39 -1.81,0.14 -3.64,0.26 -5.45,0.26 -2.41,0 -4.52,-0.22 -6.46,-0.67 z"
   id="path835" />
<path
   class="st0"
   d="m 247.43,220.88693 c -0.09,0.63 -0.19,1.26 -0.29,1.89 3.59,4.4 7.27,9.04 11.1,14 6.01,7.78 12.44,16.41 20.24,27.14 l 0.1,-0.07 c 0.18,-0.5 0.34,-1.01 0.5,-1.51 -7.55,-10.39 -13.84,-18.81 -19.72,-26.42 -4.13,-5.36 -8.09,-10.33 -11.93,-15.03 z"
   id="path837" />
<path
   class="st0"
   d="m 239.82,263.16693 c 0.64,0.83 1.21,1.62 1.72,2.4 l 1.19,-0.78 c -0.54,-0.82 -1.12,-1.63 -1.79,-2.49 -0.71,-0.92 -3.18,-3.74 -6.03,-7.01 -1.58,-1.8 -3.24,-3.71 -4.73,-5.43 -0.39,0.27 -0.79,0.54 -1.18,0.81 1.51,1.75 3.22,3.71 4.84,5.56 2.72,3.11 5.29,6.05 5.98,6.94 z"
   id="path839" />
<path
   class="st0"
   d="m 269.82,216.97693 c -0.2,-0.47 -0.39,-0.95 -0.57,-1.43 -0.51,0 -1.03,-0.01 -1.54,-0.01 -6.08,0 -11.05,0.23 -15.62,0.72 l 0.15,1.41 c 4.52,-0.48 9.43,-0.71 15.46,-0.71 0.71,0 1.41,0.01 2.12,0.02 z"
   id="path841" />
<path
   class="st0"
   d="m 261.77,231.47693 h 15.53 c -0.22,-0.47 -0.42,-0.95 -0.65,-1.42 h -14.88 z"
   id="path843" />
<path
   class="st0"
   d="m 215.59,262.99693 c 0.19,0.01 0.38,0.02 0.57,0.02 0.3,0 0.75,-0.02 1.23,-0.21 l -0.53,-1.32 c -0.3,0.12 -0.74,0.12 -1.19,0.09 -0.43,-0.02 -0.87,-0.04 -1.3,0.04 l 0.28,1.39 c 0.32,-0.05 0.63,-0.03 0.94,-0.01 z"
   id="path845" />
<path
   class="st0"
   d="m 249.58,262.78693 -14.06,-18.19 c -0.31,0.37 -0.63,0.73 -0.96,1.08 l 13.89,17.98 z"
   id="path847" />
<path
   class="st0"
   d="m 233.59,265.06693 1.13,-0.87 c -2.83,-3.66 -6.03,-7.79 -9.9,-10.71 -0.22,0.15 -0.45,0.28 -0.67,0.43 l -0.4,0.54 c 3.81,2.8 7.02,6.95 9.84,10.61 z"
   id="path849" />
<path
   class="st0"
   d="m 267.94,209.73693 c -0.03,-0.47 -0.04,-0.94 -0.04,-1.42 -7.06,0.12 -13.66,0.37 -19.97,0.74 l 0.08,1.42 c 6.29,-0.38 12.88,-0.62 19.93,-0.74 z"
   id="path851" />
<path
   class="st0"
   d="m 263.56,222.12693 c -2.17,0 -4.15,0.04 -6.03,0.13 l 0.03,1.42 h 0.6 c 1.69,-0.09 3.46,-0.13 5.4,-0.13 3.23,0 6.52,0.1 9.76,0.21 -0.27,-0.48 -0.53,-0.97 -0.8,-1.45 -2.98,-0.1 -5.99,-0.18 -8.96,-0.18 z"
   id="path853" />
<path
   class="st0"
   d="m 222.47,262.37693 c 0.47,0.69 1.01,1.47 1.78,2.47 l 1.13,-0.87 c -0.75,-0.97 -1.27,-1.74 -1.73,-2.41 -0.83,-1.22 -1.49,-2.18 -2.9,-3.51 l -0.98,1.03 c 1.29,1.24 1.88,2.1 2.7,3.29 z"
   id="path855" />
<path
   class="st0"
   d="m 251.09,253.70693 c 2.66,3.45 5.11,6.37 7.49,8.93 l 1.04,-0.97 c -2.35,-2.53 -4.77,-5.42 -7.41,-8.83 -2.67,-3.46 -5.28,-7.09 -7.8,-10.6 -1.08,-1.51 -2.18,-3.04 -3.3,-4.56 -0.22,0.28 -0.45,0.58 -0.69,0.89 -0.07,0.1 -0.13,0.2 -0.2,0.31 1.02,1.41 2.03,2.81 3.03,4.2 2.54,3.51 5.15,7.15 7.84,10.63 z"
   id="path857" />
<path
   class="st0"
   d="m 272.26,243.63693 c 2.16,-0.31 5.31,-0.41 8.47,-0.44 -0.06,-0.47 -0.13,-0.95 -0.21,-1.42 -3.15,0.03 -6.27,0.13 -8.46,0.45 z"
   id="path859" />
<path
   class="st0"
   d="m 268.76,260.46693 c -3.48,-3.63 -7,-7.78 -11.09,-13.07 -2.11,-2.74 -4.17,-5.5 -6.23,-8.27 -2.05,-2.76 -4.11,-5.52 -6.22,-8.25 -0.01,0.02 -0.02,0.05 -0.02,0.07 -0.21,0.46 -0.43,0.92 -0.66,1.38 1.95,2.54 3.86,5.09 5.76,7.65 2.06,2.77 4.13,5.55 6.24,8.29 4.12,5.33 7.67,9.52 11.19,13.19 z"
   id="path861" />
<path
   class="st0"
   d="m 277.6,249.21693 c 0.48,-0.03 0.91,-0.06 1.37,-0.04 0.5,0.01 1.27,0.02 2.15,0.03 0,-0.47 0,-0.95 -0.02,-1.42 -0.86,-0.01 -1.61,-0.02 -2.1,-0.03 -0.5,-0.01 -0.97,0.02 -1.48,0.05 -0.66,0.04 -1.41,0.08 -2.43,0.05 l -0.05,1.42 c 0.29,0.01 0.56,0.02 0.82,0.02 0.68,-0.01 1.24,-0.05 1.74,-0.08 z"
   id="path863" />
<path
   class="st0"
   d="m 278.02,255.15693 0.15,1.41 c 0.69,-0.07 1.5,-0.07 2.3,-0.05 0.08,-0.47 0.16,-0.95 0.22,-1.42 -0.9,-0.02 -1.83,-0.03 -2.67,0.06 z"
   id="path865" />
<path
   class="st0"
   d="m 242.57,215.03693 c 0.13,2.44 2.04,4.95 4.51,5.43 -1.51,-1.85 -3.02,-3.66 -4.51,-5.43 z"
   id="path867" />
<path
   class="st0"
   d="m 210.67,261.09693 c -0.04,-0.05 -0.07,-0.1 -0.11,-0.15 -0.4,0.18 -0.86,0.38 -1.33,0.59 0.57,0.78 1.14,1.56 1.72,2.36 l 1.15,-0.84 c -0.48,-0.66 -0.94,-1.29 -1.41,-1.94 -0.41,0.19 -0.81,0.39 -1.21,0.59 0.49,-0.23 0.87,-0.43 1.19,-0.61 z"
   id="path869" />
<path
   class="st0"
   d="m 54.5,262.63693 1.04,-0.97 c -2.35,-2.53 -4.78,-5.42 -7.41,-8.83 -2.67,-3.46 -5.28,-7.09 -7.8,-10.6 -1.14,-1.59 -2.31,-3.21 -3.48,-4.82 0.14,1.02 0.3,2.03 0.46,3.05 0.63,0.87 1.25,1.74 1.87,2.6 2.53,3.52 5.15,7.16 7.83,10.64 2.66,3.44 5.11,6.36 7.49,8.93 z"
   id="path871" />
<path
   class="st0"
   d="m 46.23,239.96693 c 2.06,2.77 4.13,5.55 6.24,8.29 4.12,5.33 7.67,9.52 11.19,13.19 l 1.03,-0.99 c -3.48,-3.63 -7,-7.78 -11.09,-13.07 -2.11,-2.74 -4.17,-5.5 -6.23,-8.27 -2.06,-2.77 -4.13,-5.55 -6.25,-8.29 -1.74,-2.25 -3.38,-4.29 -4.96,-6.19 -0.12,0.59 -0.23,1.19 -0.32,1.82 1.33,1.63 2.7,3.36 4.15,5.24 2.12,2.74 4.18,5.51 6.24,8.27 z"
   id="path873" />
<path
   class="st0"
   d="m 75.54,263.07693 c -0.47,-0.65 -0.92,-1.26 -1.38,-1.9 -0.75,-0.5 -1.48,-1.02 -2.22,-1.53 2.38,1.66 0.26,0.09 -1.54,-1.21 1.3,1.77 2.62,3.58 3.99,5.47 z"
   id="path875" />
<path
   class="st0"
   d="m 45.5,262.78693 -5.08,-6.58 c 0.25,1.11 0.52,2.23 0.79,3.35 l 3.16,4.1 z"
   id="path877" />
<path
   class="st0"
   d="m 46.59,225.05693 c -1.58,-2.37 -3.61,-3.75 -4.93,-6.24 -0.75,-0.91 -1.5,-1.8 -2.24,-2.69 -0.56,-0.12 -1.13,-0.01 -1.62,0.28 3.72,4.42 7.52,9.1 11.47,14.1 -0.86,-1.83 -1.6,-3.83 -2.68,-5.45 z"
   id="path879" />
<path
   class="st0"
   d="m 5.85,10.196926 c 1,0.02 3.08,0.04 4.98,0.05"
   id="path881" />
<path
   class="st0"
   d="m 386.14,382.27693 -5.19,-6.72 c -0.24,-0.07 -0.48,-0.14 -0.72,-0.2 -0.48,-0.12 -0.98,-0.23 -1.49,-0.32 l 6.27,8.12 z"
   id="path883" />
<path
   class="st0"
   d="m 352.15,382.48693 c 0.19,0.01 0.38,0.02 0.57,0.02 0.3,0 0.75,-0.02 1.23,-0.21 l -0.53,-1.32 c -0.3,0.12 -0.74,0.12 -1.19,0.09 -0.38,-0.02 -0.76,-0.03 -1.14,0.03 -0.04,0.08 -0.07,0.17 -0.12,0.25 l 0.23,1.16 c 0.33,-0.06 0.64,-0.04 0.95,-0.02 z"
   id="path885" />
<path
   class="st0"
   d="m 370.15,384.55693 1.12,-0.87 c -2.23,-2.89 -4.69,-6.07 -7.54,-8.72 -0.65,0.04 -1.3,0.09 -1.93,0.17 3.17,2.72 5.9,6.25 8.35,9.42 z"
   id="path887" />
<path
   class="st0"
   d="m 359.03,381.86693 c 0.47,0.69 1.01,1.47 1.78,2.47 l 1.13,-0.87 c -0.75,-0.97 -1.27,-1.74 -1.73,-2.41 -0.83,-1.22 -1.49,-2.18 -2.9,-3.51 l -0.98,1.03 c 1.29,1.24 1.88,2.1 2.7,3.29 z"
   id="path889" />
<path
   class="st0"
   d="m 378.1,385.05693 1.19,-0.78 c -0.54,-0.82 -1.12,-1.63 -1.79,-2.49 -0.71,-0.92 -3.17,-3.74 -6.03,-7.01 -0.05,-0.06 -0.1,-0.11 -0.15,-0.17 -0.55,0.07 -1.1,0.16 -1.64,0.28 0.24,0.28 0.48,0.55 0.72,0.82 2.72,3.11 5.29,6.05 5.97,6.94 0.65,0.84 1.21,1.63 1.73,2.41 z"
   id="path891" />
<path
   class="st0"
   d="m 374.06,448.09693 -1.07,0.93 c 5.26,6.04 10.63,12.52 16.28,19.66 0.39,-0.28 0.77,-0.56 1.14,-0.85 -5.68,-7.17 -11.07,-13.68 -16.35,-19.74 z"
   id="path893" />
<path
   class="st0"
   d="m 394.1,461.22693 0.03,1.42 h 0.6 c 0.55,-0.05 1.12,-0.06 1.69,-0.08 0.47,-0.47 0.93,-0.96 1.38,-1.45 -1.29,0.03 -2.52,0.06 -3.7,0.11 z"
   id="path895" />
<path
   class="st0"
   d="m 349.4,476.74693 c 3.23,-0.27 6.73,-0.51 9.64,-0.29 l 0.11,-1.42 c -3.01,-0.23 -6.58,0.02 -9.87,0.29 -2.29,0.19 -4.66,0.39 -6.97,0.39 -2.41,0 -4.52,-0.22 -6.46,-0.66 l -0.32,1.39 c 2.04,0.47 4.26,0.7 6.78,0.7 2.37,-0.01 4.77,-0.21 7.09,-0.4 z"
   id="path897" />
<path
   class="st0"
   d="m 370.57,456.61693 -1.03,0.98 c 3.48,3.63 7.01,7.79 11.09,13.07 0.6,0.77 1.18,1.55 1.77,2.32 0.42,-0.23 0.84,-0.46 1.26,-0.69 -0.63,-0.83 -1.26,-1.67 -1.9,-2.5 -4.12,-5.32 -7.67,-9.51 -11.19,-13.18 z"
   id="path899" />
<path
   class="st0"
   d="m 373.18,470.63693 c -1.47,-1.91 -2.84,-3.61 -4.19,-5.19 l -1.11,0.89 0.41,0.53 c 1.22,1.41 2.45,2.94 3.76,4.64 1.2,1.55 2.39,3.15 3.56,4.75 0.45,-0.19 0.9,-0.38 1.35,-0.57 -1.24,-1.7 -2.5,-3.4 -3.78,-5.05 z"
   id="path901" />
<path
   class="st0"
   d="m 367.45,454.82693 c -3.23,0.35 -5.28,0.23 -7.65,0.09 -1.44,-0.08 -2.93,-0.17 -4.85,-0.17 -3.12,0 -6.24,-0.06 -9.35,-0.11 -3.12,-0.06 -6.25,-0.11 -9.38,-0.11 -6.08,0 -11.05,0.23 -15.62,0.72 l 0.15,1.41 c 4.52,-0.48 9.43,-0.71 15.46,-0.71 3.12,0 6.24,0.06 9.35,0.11 3.12,0.06 6.25,0.11 9.38,0.11 1.89,0 3.35,0.09 4.77,0.17 2.43,0.14 4.53,0.26 7.88,-0.1 z"
   id="path903" />
<rect
   x="330.29001"
   y="469.02692"
   class="st0"
   width="31.200001"
   height="1.42"
   id="rect905" />
<path
   class="st0"
   d="m 388.8,456.64693 c 3.93,-0.42 8.15,-0.65 13.15,-0.7 0.33,-0.47 0.64,-0.95 0.95,-1.43 -5.46,0.03 -10.03,0.26 -14.25,0.71 z"
   id="path907" />
<path
   class="st0"
   d="m 355.21,480.77693 c -4.62,-0.04 -10.96,-0.1 -14.64,0.43 l 0.2,1.41 c 3.39,-0.49 9.19,-0.46 13.69,-0.42 1.2,-0.2 2.4,-0.41 3.59,-0.64 v -0.75 c -0.8,-0.01 -1.77,-0.02 -2.84,-0.03 z"
   id="path909" />
<path
   class="st0"
   d="m 366.23,461.23693 c -3.1,0.28 -6.5,0.42 -10.4,0.42 -3.94,0 -7.98,-0.14 -11.88,-0.27 -3.9,-0.13 -7.93,-0.27 -11.86,-0.27 -2.17,0 -4.15,0.04 -6.03,0.13 l 0.03,1.42 h 0.6 c 1.69,-0.09 3.46,-0.13 5.4,-0.13 3.91,0 7.93,0.14 11.81,0.27 3.92,0.13 7.97,0.28 11.93,0.28 3.94,0 7.38,-0.14 10.53,-0.43 z"
   id="path911" />
<path
   class="st0"
   d="m 371.09,447.78693 c -3.19,-0.09 -5.67,-0.19 -7.9,-0.27 -4.93,-0.19 -8.49,-0.32 -15.51,-0.32 -11.46,0 -21.68,0.27 -31.23,0.83 l 0.08,1.42 c 9.52,-0.56 19.71,-0.83 31.14,-0.83 7,0 10.55,0.13 15.46,0.32 2.23,0.08 4.72,0.18 7.92,0.27 z"
   id="path913" />
<path
   class="st0"
   d="m 365.02,474.42693 -1.13,0.87 3.11,4.03 c 0.49,-0.15 0.97,-0.29 1.45,-0.45 z"
   id="path915" />
<path
   class="st0"
   d="m 384.49,448.02693 0.08,1.42 c 6.76,-0.4 13.87,-0.65 21.5,-0.76 0.21,-0.47 0.41,-0.95 0.61,-1.43 -7.9,0.11 -15.23,0.36 -22.19,0.77 z"
   id="path917" />
<path
   class="st0"
   d="m 371.09,388.03693 c -3.19,-0.09 -5.67,-0.19 -7.9,-0.27 -4.36,-0.16 -7.65,-0.29 -13.22,-0.31 0.09,0.45 0.22,0.92 0.37,1.42 5.32,0.03 8.55,0.15 12.8,0.31 2.23,0.08 4.72,0.18 7.92,0.27 z"
   id="path919" />
<path
   class="st0"
   d="m 405.32,439.69693 c -3.48,-3.63 -7,-7.78 -11.09,-13.07 -2.11,-2.74 -4.17,-5.5 -6.23,-8.27 -2.06,-2.77 -4.13,-5.55 -6.24,-8.29 -4.12,-5.33 -7.67,-9.52 -11.19,-13.19 l -1.03,0.98 c 3.48,3.63 7.01,7.79 11.09,13.07 2.11,2.74 4.17,5.5 6.23,8.27 2.06,2.77 4.13,5.55 6.25,8.29 4.12,5.33 7.67,9.52 11.19,13.19 z"
   id="path921" />
<path
   class="st0"
   d="m 368.32,407.10693 c 1.2,1.43 2.43,2.96 3.74,4.66 2.64,3.42 5.24,7.04 7.76,10.54 2.53,3.52 5.15,7.16 7.83,10.64 2.66,3.45 5.11,6.37 7.49,8.93 l 1.04,-0.97 c -2.35,-2.53 -4.77,-5.42 -7.41,-8.83 -2.67,-3.46 -5.28,-7.09 -7.8,-10.6 -2.52,-3.51 -5.12,-7.13 -7.78,-10.58 -1.47,-1.91 -2.84,-3.61 -4.19,-5.19 l -1.11,0.89 c 0,0 0.41,0.52 0.43,0.51 z"
   id="path923" />
<path
   class="st0"
   d="m 367.45,395.07693 c -3.23,0.35 -5.28,0.23 -7.65,0.09 -1.26,-0.07 -2.59,-0.15 -4.19,-0.16 1,0.46 1.97,0.83 2.68,1.22 0.03,0.01 0.04,0.03 0.07,0.04 0.02,0.09 0.04,0.17 0.06,0.25 0.44,0.02 0.87,0.05 1.29,0.07 2.43,0.14 4.53,0.26 7.88,-0.1 z"
   id="path925" />
<path
   class="st0"
   d="m 409.93,433.75693 c -5.12,-6.95 -9.68,-13.01 -14.01,-18.62 -7.75,-10.03 -14.9,-18.79 -21.86,-26.79 l -1.07,0.93 c 6.94,7.97 14.07,16.71 21.81,26.72 4.58,5.93 9.4,12.35 14.89,19.81 0.08,-0.67 0.17,-1.36 0.24,-2.05 z"
   id="path927" />
<path
   class="st0"
   d="m 402.92,396.19693 c -0.24,-0.48 -0.49,-0.95 -0.74,-1.42 -5.15,0.05 -9.49,0.28 -13.53,0.71 l 0.15,1.41 c 4.18,-0.44 8.7,-0.67 14.12,-0.7 z"
   id="path929" />
<path
   class="st0"
   d="m 366.23,401.48693 c -1.86,0.17 -3.84,0.28 -5.96,0.35 0.18,0.46 0.37,0.93 0.57,1.41 1.95,-0.07 3.78,-0.18 5.52,-0.34 z"
   id="path931" />
<path
   class="st0"
   d="m 370.15,444.29693 1.12,-0.87 c -2.79,-3.61 -5.94,-7.67 -9.74,-10.59 -0.39,0.27 -0.78,0.52 -1.16,0.75 l -0.06,0.09 c 3.81,2.81 7.02,6.96 9.84,10.62 z"
   id="path933" />
<path
   class="st0"
   d="m 352.24,440.81693 c -0.43,-0.02 -0.87,-0.04 -1.3,0.04 l 0.28,1.39 c 0.31,-0.06 0.63,-0.04 0.94,-0.02 0.19,0.01 0.38,0.02 0.57,0.02 0.3,0 0.75,-0.02 1.23,-0.21 l -0.53,-1.32 c -0.31,0.12 -0.74,0.12 -1.19,0.1 z"
   id="path935" />
<path
   class="st0"
   d="m 394.73,402.90693 c 1.69,-0.09 3.46,-0.13 5.4,-0.13 1.85,0 3.73,0.03 5.61,0.08 -0.17,-0.48 -0.33,-0.96 -0.52,-1.43 -1.7,-0.04 -3.41,-0.07 -5.09,-0.07 -2.17,0 -4.15,0.04 -6.03,0.13 l 0.03,1.42 z"
   id="path937" />
<path
   class="st0"
   d="m 376.38,442.39693 c 0.64,0.83 1.21,1.62 1.72,2.4 l 1.19,-0.78 c -0.54,-0.82 -1.12,-1.63 -1.79,-2.49 -0.71,-0.92 -3.17,-3.74 -6.03,-7.01 -2.33,-2.66 -4.86,-5.56 -6.69,-7.72 0,0.34 0.01,0.68 0.01,1.02 -0.12,-0.31 -0.2,-0.14 -0.08,1.09 1.7,1.98 3.76,4.34 5.69,6.55 2.72,3.12 5.29,6.06 5.98,6.94 z"
   id="path939" />
<path
   class="st0"
   d="m 359.03,441.60693 c 0.47,0.69 1.01,1.47 1.78,2.47 l 1.13,-0.87 c -0.75,-0.97 -1.27,-1.74 -1.73,-2.41 -0.83,-1.22 -1.49,-2.18 -2.9,-3.51 l -0.98,1.03 c 1.29,1.24 1.88,2.1 2.7,3.29 z"
   id="path941" />
<path
   class="st0"
   d="m 386.14,442.01693 -21.11,-27.34 -0.93,0.72 c 0.05,0.19 0.09,0.39 0.14,0.59 l 20.78,26.9 z"
   id="path943" />
<path
   class="st0"
   d="m 398.66,389.09693 c -0.33,-0.47 -0.65,-0.94 -1,-1.39 -4.55,0.14 -8.93,0.33 -13.17,0.58 l 0.08,1.42 c 4.52,-0.27 9.2,-0.47 14.09,-0.61 z"
   id="path945" />
<path
   class="st0"
   d="m 350.13,388.72693 c 0.01,0.05 0.04,0.1 0.05,0.15 -0.01,-0.05 -0.03,-0.1 -0.05,-0.15 z"
   id="path947" />
<path
   class="st0"
   d="m 398.33,410.70693 h 9.77 c -0.12,-0.48 -0.24,-0.95 -0.36,-1.42 h -9.41 z"
   id="path949" />
<path
   class="st0"
   d="m 403.57,416.68693 c 1.78,0.41 3.71,0.63 5.85,0.68 -0.07,-0.48 -0.15,-0.95 -0.23,-1.43 -1.93,-0.06 -3.68,-0.26 -5.3,-0.64 z"
   id="path951" />
<path
   class="st0"
   d="m 410.03,422.72693 c -0.04,-0.47 -0.08,-0.95 -0.12,-1.42 -0.46,0.04 -0.89,0.09 -1.29,0.15 l 0.2,1.41 c 0.37,-0.05 0.78,-0.1 1.21,-0.14 z"
   id="path953" />
<path
   class="st0"
   d="m 219.35,367.24693 c -0.8,0.04 -2.64,0.05 -4.44,0.04 -0.41,0.45 -0.81,0.92 -1.18,1.42 2.15,0.02 4.71,0.02 5.7,-0.04 z"
   id="path955" />
<path
   class="st0"
   d="m 221.49,362.38693 c -0.23,0.11 -0.47,0.22 -0.7,0.34 0.24,0 0.48,0 0.7,0 z"
   id="path957" />
<path
   class="st0"
   d="m 289.54,361.30693 c -0.8,0 -1.77,-0.01 -2.84,-0.02 -4.62,-0.04 -10.96,-0.1 -14.64,0.43 l 0.2,1.41 c 3.57,-0.52 9.84,-0.46 14.42,-0.42 1.08,0.01 2.05,0.02 2.85,0.02 v -1.42 z"
   id="path959" />
<path
   class="st0"
   d="m 280.88,357.25693 c 3.23,-0.27 6.73,-0.51 9.64,-0.29 l 0.11,-1.42 c -3.01,-0.23 -6.58,0.02 -9.87,0.29 -2.29,0.19 -4.66,0.39 -6.97,0.39 -1.09,0 -2.11,-0.05 -3.09,-0.14 0,0.16 0,0.32 0.01,0.49 0.01,0.32 0.05,0.63 0.08,0.94 0.96,0.08 1.95,0.13 3,0.13 2.37,0 4.77,-0.2 7.09,-0.39 z"
   id="path961" />
<path
   class="st0"
   d="m 293.62,383.97693 1.3,-0.57 c -0.8,-1.83 -3.5,-4.89 -5.26,-5.95 l -0.74,1.22 c 1.51,0.91 4.01,3.74 4.7,5.3 z"
   id="path963" />
<path
   class="st0"
   d="m 222.47,381.86693 c 0.47,0.69 1.01,1.47 1.78,2.47 l 1.13,-0.87 c -0.75,-0.97 -1.27,-1.74 -1.73,-2.41 -0.83,-1.22 -1.49,-2.18 -2.9,-3.51 l -0.98,1.03 c 1.29,1.24 1.88,2.1 2.7,3.29 z"
   id="path965" />
<path
   class="st0"
   d="m 297.51,354.93693 -1.13,0.87 16.55,21.43 c 0.15,-0.61 0.27,-1.23 0.35,-1.87 z"
   id="path967" />
<path
   class="st0"
   d="m 303.76,383.68693 c -2.06,-2.66 -5.14,-6.17 -7.86,-9.26 -1.05,-1.2 -2.04,-2.32 -2.87,-3.28 l -1.08,0.93 c 0.84,0.97 1.83,2.1 2.88,3.3 2.71,3.08 5.77,6.56 7.8,9.19 z"
   id="path969" />
<path
   class="st0"
   d="m 285.87,380.94693 c -0.49,0.14 -1.11,0.14 -1.76,0.12 -0.53,-0.02 -1.07,-0.04 -1.64,0.04 l 0.2,1.41 c 0.48,-0.07 0.93,-0.05 1.37,-0.03 0.8,0.04 1.56,0.02 2.21,-0.17 z"
   id="path971" />
<path
   class="st0"
   d="m 293.45,342.02693 c -1.92,0.09 -3.94,0.14 -6.13,0.14 -3.08,0 -6.2,-0.09 -9.28,-0.19 -0.63,0.41 -1.22,0.87 -1.78,1.37 3.65,0.12 7.38,0.25 11.06,0.25 2.53,0 4.83,-0.06 7.01,-0.18 -0.25,-0.51 -0.55,-0.97 -0.88,-1.39 z"
   id="path973" />
<path
   class="st0"
   d="M 292.97,349.53693 H 271.9 c -0.19,0.46 -0.36,0.94 -0.5,1.42 h 21.57 z"
   id="path975" />
<path
   class="st0"
   d="m 229.09,368.07693 c -1.34,-1.56 -2.43,-2.87 -3.02,-3.63 l -1.13,0.87 c 0.74,0.97 2.26,2.75 4.05,4.83 -0.08,-0.67 -0.06,-1.37 0.1,-2.07 z"
   id="path977" />
<path
   class="st0"
   d="m 287.4,367.24693 c -1.49,0.08 -6.62,0.04 -8.39,0 -0.5,-0.01 -0.97,0.02 -1.48,0.05 -0.66,0.04 -1.41,0.08 -2.43,0.05 l -0.05,1.42 c 0.29,0.01 0.56,0.02 0.82,0.02 0.69,0 1.24,-0.03 1.75,-0.06 0.48,-0.03 0.91,-0.06 1.37,-0.04 1.79,0.04 6.98,0.08 8.5,0 z"
   id="path979" />
<path
   class="st0"
   d="m 233.59,384.55693 1.13,-0.87 c -2.88,-3.73 -6.15,-7.96 -10.13,-10.89 l -0.84,1.14 c 3.81,2.81 7.02,6.96 9.84,10.62 z"
   id="path981" />
<path
   class="st0"
   d="m 217.98,374.55693 c -0.91,-0.05 -1.72,-0.03 -2.59,0 -0.8,0.03 -1.66,0.04 -2.65,0.02 -0.78,-0.01 -1.56,-0.02 -2.3,0.03 -0.13,0.33 -0.25,0.66 -0.36,1 l 0.05,0.44 c 0.77,-0.08 1.7,-0.07 2.59,-0.05 1.02,0.02 1.9,0 2.72,-0.02 0.83,-0.03 1.62,-0.06 2.45,0 z"
   id="path983" />
<path
   class="st0"
   d="m 280.76,376.00693 c 1.02,0.02 1.9,0 2.72,-0.02 0.83,-0.03 1.61,-0.06 2.45,0 l 0.09,-1.42 c -0.9,-0.05 -1.72,-0.03 -2.59,0 -0.8,0.03 -1.66,0.04 -2.65,0.02 -0.94,-0.02 -1.91,-0.04 -2.77,0.06 l 0.15,1.41 c 0.79,-0.08 1.71,-0.06 2.6,-0.05 z"
   id="path985" />
<path
   class="st0"
   d="m 304.85,375.84693 c -1.72,-1.88 -3.49,-3.82 -5.06,-5.85 -1.46,-1.89 -3.28,-4.02 -5,-5.87 l -1.04,0.97 c 1.69,1.81 3.48,3.92 4.91,5.77 1.6,2.08 3.4,4.04 5.14,5.94 1.72,1.88 3.49,3.82 5.06,5.85 0.29,0.38 0.57,0.75 0.83,1.11 0.31,-0.39 0.61,-0.78 0.88,-1.19 -0.19,-0.26 -0.38,-0.52 -0.59,-0.79 -1.59,-2.08 -3.39,-4.04 -5.13,-5.94 z"
   id="path987" />
<path
   class="st0"
   d="m 215.68,381.06693 c -0.43,-0.02 -0.87,-0.04 -1.3,0.04 l 0.28,1.39 c 0.31,-0.06 0.63,-0.04 0.94,-0.02 0.19,0.01 0.38,0.02 0.57,0.02 0.3,0 0.75,-0.02 1.23,-0.21 l -0.53,-1.32 c -0.31,0.13 -0.74,0.13 -1.19,0.1 z"
   id="path989" />
<path
   class="st0"
   d="m 236.59,378.85693 c 1.55,1.78 2.79,3.22 3.23,3.8 0.64,0.83 1.21,1.62 1.72,2.4 l 1.19,-0.78 c -0.54,-0.82 -1.12,-1.63 -1.79,-2.49 -0.05,-0.07 -0.13,-0.16 -0.2,-0.25 -1.32,-0.81 -2.64,-1.64 -3.94,-2.53 -0.03,-0.03 -0.11,-0.08 -0.21,-0.15 z"
   id="path991" />
<path
   class="st0"
   d="m 212.1,382.56693 c -0.97,-1.33 -1.92,-2.64 -2.85,-3.91 -0.13,0.66 -0.24,1.32 -0.32,1.98 0.67,0.91 1.33,1.82 2.02,2.77 z"
   id="path993" />
<path
   class="st0"
   d="m 212.84,297.50693 c 3.23,-0.27 6.73,-0.51 9.64,-0.29 l 0.11,-1.42 c -3.01,-0.23 -6.58,0.02 -9.87,0.29 -2.29,0.19 -4.66,0.39 -6.97,0.39 -2.41,0 -4.52,-0.22 -6.46,-0.66 l -0.32,1.39 c 2.04,0.47 4.26,0.7 6.78,0.7 2.37,-0.01 4.77,-0.21 7.09,-0.4 z"
   id="path995" />
<path
   class="st0"
   d="m 218.64,302.96693 c 1.08,0.01 2.05,0.02 2.85,0.02 v -1.42 c -0.8,0 -1.77,-0.01 -2.84,-0.02 -4.62,-0.04 -10.96,-0.1 -14.64,0.43 l 0.2,1.41 c 3.58,-0.52 9.85,-0.47 14.43,-0.42 z"
   id="path997" />
<rect
   x="193.73001"
   y="289.79694"
   class="st0"
   width="31.200001"
   height="1.42"
   id="rect999" />
<path
   class="st0"
   d="m 228.46,295.19693 -1.13,0.87 7.31,9.47 c 0.45,-0.2 0.9,-0.38 1.35,-0.58 z"
   id="path1001" />
<path
   class="st0"
   d="m 257.54,281.99693 0.03,1.42 h 0.6 c 1.69,-0.09 3.46,-0.13 5.4,-0.13 1.03,0 2.08,0.03 3.12,0.05 0.42,-0.46 0.83,-0.93 1.23,-1.4 -1.45,-0.03 -2.91,-0.06 -4.35,-0.06 -2.18,-0.01 -4.15,0.03 -6.03,0.12 z"
   id="path1003" />
<path
   class="st0"
   d="m 276.25,269.38693 c 0.23,-0.47 0.46,-0.95 0.67,-1.42 -10.56,0.03 -20.07,0.3 -28.99,0.83 l 0.08,1.42 c 8.7,-0.51 17.98,-0.78 28.24,-0.83 z"
   id="path1005" />
<path
   class="st0"
   d="m 256.89,292.47693 c -6.81,-8.72 -13.18,-16.48 -19.39,-23.62 l -1.07,0.93 c 6.19,7.11 12.54,14.84 19.32,23.53 0.38,-0.28 0.77,-0.55 1.14,-0.84 z"
   id="path1007" />
<path
   class="st0"
   d="m 209.56,308.96693 c 0.48,-0.03 0.91,-0.06 1.37,-0.04 1.79,0.04 6.98,0.08 8.5,0 l -0.08,-1.42 c -1.49,0.08 -6.62,0.04 -8.39,0 -0.5,-0.01 -0.97,0.02 -1.48,0.05 -0.66,0.04 -1.41,0.08 -2.43,0.05 l -0.05,1.42 c 0.29,0.01 0.56,0.02 0.82,0.02 0.68,-0.02 1.24,-0.05 1.74,-0.08 z"
   id="path1009" />
<path
   class="st0"
   d="m 267.71,275.27693 c -6.08,0 -11.05,0.23 -15.62,0.72 l 0.15,1.41 c 4.52,-0.48 9.43,-0.71 15.46,-0.71 1.4,0 2.81,0.01 4.21,0.03 0.32,-0.47 0.64,-0.94 0.95,-1.41 -1.71,-0.02 -3.43,-0.04 -5.15,-0.04 z"
   id="path1011" />
<path
   class="st0"
   d="m 245.2,290.57693 c -4.12,-5.33 -7.67,-9.52 -11.19,-13.19 l -1.03,0.98 c 3.48,3.63 7.01,7.79 11.09,13.07 1.68,2.17 3.32,4.36 4.95,6.56 0.4,-0.25 0.79,-0.52 1.19,-0.78 -1.65,-2.22 -3.31,-4.44 -5.01,-6.64 z"
   id="path1013" />
<path
   class="st0"
   d="m 226.07,304.70693 -1.13,0.87 c 0.5,0.65 1.36,1.69 2.42,2.93 0.47,-0.17 0.93,-0.37 1.4,-0.55 -1.18,-1.39 -2.15,-2.55 -2.69,-3.25 z"
   id="path1015" />
<path
   class="st0"
   d="m 234.53,268.54693 c -3.19,-0.09 -5.67,-0.19 -7.9,-0.27 -4.93,-0.19 -8.49,-0.32 -15.51,-0.32 -9.06,0 -17.33,0.17 -25.11,0.52 -2.02,0.42 -4.04,0.8 -6.06,1.17 l 0.03,0.57 c 9.52,-0.56 19.71,-0.83 31.14,-0.83 7,0 10.55,0.13 15.46,0.32 2.23,0.08 4.72,0.18 7.92,0.27 z"
   id="path1017" />
<path
   class="st0"
   d="m 231.76,287.61693 c 1.2,1.43 2.43,2.96 3.74,4.66 2.38,3.08 4.72,6.31 6.99,9.47 0.42,-0.22 0.85,-0.45 1.26,-0.68 -2.32,-3.22 -4.7,-6.52 -7.13,-9.66 -1.47,-1.91 -2.84,-3.61 -4.19,-5.19 l -1.11,0.89 c 0.01,0 0.41,0.52 0.44,0.51 z"
   id="path1019" />
<path
   class="st0"
   d="m 230.89,275.58693 c -3.23,0.35 -5.28,0.23 -7.65,0.09 -1.44,-0.08 -2.93,-0.17 -4.85,-0.17 -3.12,0 -6.24,-0.06 -9.35,-0.11 -3.12,-0.06 -6.25,-0.11 -9.38,-0.11 -6.08,0 -11.05,0.23 -15.62,0.72 l 0.15,1.41 c 4.52,-0.48 9.43,-0.71 15.46,-0.71 3.12,0 6.24,0.06 9.35,0.11 3.12,0.06 6.25,0.11 9.38,0.11 1.89,0 3.35,0.09 4.77,0.17 2.43,0.14 4.53,0.26 7.88,-0.1 z"
   id="path1021" />
<path
   class="st0"
   d="m 229.67,281.99693 c -3.1,0.28 -6.5,0.42 -10.4,0.42 -3.94,0 -7.98,-0.14 -11.88,-0.27 -3.9,-0.13 -7.93,-0.27 -11.86,-0.27 -2.17,0 -4.15,0.04 -6.03,0.13 l 0.03,1.42 h 0.6 c 1.69,-0.09 3.46,-0.13 5.4,-0.13 3.91,0 7.93,0.14 11.81,0.27 3.92,0.13 7.97,0.27 11.93,0.27 3.94,0 7.38,-0.14 10.53,-0.42 z"
   id="path1023" />
<path
   class="st0"
   d="m 86.03,295.79693 c -3.01,-0.23 -6.58,0.02 -9.87,0.29 -2.29,0.19 -4.66,0.39 -6.97,0.39 -2.41,0 -4.52,-0.22 -6.46,-0.66 l -0.2,0.87 c 0.3,0.24 0.6,0.48 0.9,0.71 1.76,0.33 3.65,0.5 5.76,0.5 2.37,0 4.77,-0.2 7.09,-0.39 3.23,-0.27 6.73,-0.51 9.64,-0.29 z"
   id="path1025" />
<path
   class="st0"
   d="m 82.14,307.52693 c 0.22,0.08 0.44,0.16 0.67,0.25 l -0.01,-0.27 c -0.18,0 -0.4,0.01 -0.66,0.02 z"
   id="path1027" />
<rect
   x="57.169994"
   y="289.79694"
   class="st0"
   width="31.200001"
   height="1.42"
   id="rect1029" />
<path
   class="st0"
   d="m 89.51,304.70693 -1.13,0.87 c 0.82,1.06 2.56,3.11 4.58,5.44 0.81,0.22 1.63,0.44 2.44,0.64 -2.55,-2.94 -4.91,-5.69 -5.89,-6.95 z"
   id="path1031" />
<path
   class="st0"
   d="m 94.33,275.58693 c -3.23,0.35 -5.28,0.23 -7.65,0.09 -1.44,-0.08 -2.93,-0.17 -4.85,-0.17 -3.12,0 -6.24,-0.06 -9.35,-0.11 -3.12,-0.06 -6.25,-0.11 -9.38,-0.11 -6.08,0 -11.05,0.23 -15.62,0.72 l 0.15,1.41 c 4.52,-0.48 9.43,-0.71 15.46,-0.71 3.12,0 6.24,0.06 9.35,0.11 3.12,0.06 6.25,0.11 9.38,0.11 1.89,0 3.35,0.09 4.77,0.17 2.43,0.14 4.53,0.26 7.88,-0.1 z"
   id="path1033" />
<path
   class="st0"
   d="m 93.11,281.99693 c -3.1,0.28 -6.5,0.42 -10.4,0.42 -3.94,0 -7.98,-0.14 -11.88,-0.27 -3.9,-0.13 -7.93,-0.27 -11.86,-0.27 -2.17,0 -4.15,0.04 -6.03,0.13 l 0.03,1.42 h 0.6 c 1.69,-0.09 3.46,-0.13 5.4,-0.13 3.91,0 7.93,0.14 11.81,0.27 3.92,0.13 7.97,0.27 11.93,0.27 3.94,0 7.38,-0.14 10.53,-0.42 z"
   id="path1035" />
<path
   class="st0"
   d="m 84.93,301.55693 c -0.8,0 -1.77,-0.01 -2.84,-0.02 -3.72,-0.04 -8.54,-0.08 -12.21,0.18 0.76,0.45 1.54,0.88 2.32,1.3 3.2,-0.12 6.89,-0.09 9.87,-0.06 1.08,0.01 2.05,0.02 2.85,0.02 v -1.42 z"
   id="path1037" />
<path
   class="st0"
   d="m 163.23,310.24693 c -1.46,-1.88 -3.28,-4.02 -5,-5.87 l -1.04,0.97 c 1.69,1.81 3.48,3.92 4.91,5.77 1.6,2.08 3.4,4.04 5.14,5.94 0.83,0.91 1.68,1.84 2.51,2.79 0.59,-0.04 1.18,-0.08 1.77,-0.12 -1.06,-1.24 -2.16,-2.45 -3.24,-3.63 -1.71,-1.88 -3.48,-3.82 -5.05,-5.85 z"
   id="path1039" />
<path
   class="st0"
   d="m 97.93,269.86693 c -2.92,-0.48 -6.59,-0.83 -9.88,-1.66 -3.98,-0.15 -7.46,-0.24 -13.49,-0.24 -11.28,0 -21.34,0.27 -30.76,0.81 0.15,0.47 0.31,0.93 0.47,1.4 9.28,-0.53 19.19,-0.79 30.29,-0.79 7,0 10.55,0.13 15.46,0.32 2.23,0.08 4.72,0.18 7.92,0.27 z"
   id="path1041" />
<path
   class="st0"
   d="m 184.7,312.57693 c -2.67,-3.46 -5.28,-7.09 -7.8,-10.6 -2.52,-3.51 -5.13,-7.13 -7.79,-10.58 -1.47,-1.91 -2.84,-3.61 -4.19,-5.19 l -1.11,0.89 0.41,0.53 c 1.22,1.41 2.45,2.94 3.76,4.64 2.64,3.42 5.24,7.04 7.76,10.54 2.53,3.52 5.15,7.16 7.83,10.64 1.27,1.64 2.49,3.16 3.68,4.59 0.56,-0.08 1.11,-0.15 1.67,-0.23 -1.36,-1.61 -2.76,-3.33 -4.22,-5.23 z"
   id="path1043" />
<path
   class="st0"
   d="m 114.88,298.86693 c -2.06,-2.77 -4.13,-5.55 -6.25,-8.29 -4.12,-5.33 -7.67,-9.52 -11.19,-13.19 l -1.03,0.98 c 3.48,3.63 7.01,7.79 11.09,13.07 2.11,2.74 4.17,5.5 6.23,8.27 2.06,2.77 4.13,5.55 6.25,8.29 2.85,3.69 5.42,6.82 7.91,9.62 0.72,0.1 1.44,0.19 2.16,0.28 -2.8,-3.08 -5.7,-6.56 -8.95,-10.77 -2.1,-2.73 -4.16,-5.49 -6.22,-8.26 z"
   id="path1045" />
<path
   class="st0"
   d="m 107.85,301.97693 c -2.52,-3.51 -5.12,-7.13 -7.78,-10.58 -1.47,-1.91 -2.84,-3.61 -4.19,-5.19 l -1.11,0.89 0.41,0.53 c 1.22,1.41 2.45,2.94 3.76,4.64 2.64,3.42 5.24,7.04 7.75,10.54 2.53,3.52 5.15,7.16 7.83,10.64 0.66,0.85 1.3,1.67 1.93,2.46 0.7,0.12 1.41,0.23 2.12,0.34 -0.95,-1.16 -1.92,-2.36 -2.93,-3.67 -2.66,-3.45 -5.27,-7.08 -7.79,-10.6 z"
   id="path1047" />
<path
   class="st0"
   d="m 161.15,281.99693 c -3.1,0.28 -6.5,0.42 -10.4,0.42 -3.94,0 -7.98,-0.14 -11.88,-0.27 -3.9,-0.13 -7.93,-0.27 -11.86,-0.27 -2.17,0 -4.15,0.04 -6.03,0.13 l 0.03,1.42 h 0.6 c 1.69,-0.09 3.46,-0.13 5.4,-0.13 3.91,0 7.93,0.14 11.81,0.27 3.92,0.13 7.97,0.27 11.93,0.27 3.94,0 7.38,-0.14 10.53,-0.42 z"
   id="path1049" />
<rect
   x="125.21"
   y="289.79694"
   class="st0"
   width="31.200001"
   height="1.42"
   id="rect1051" />
<path
   class="st0"
   d="m 162.38,275.58693 c -3.23,0.35 -5.28,0.23 -7.65,0.09 -1.44,-0.08 -2.93,-0.17 -4.85,-0.17 -3.12,0 -6.24,-0.06 -9.35,-0.11 -3.12,-0.06 -6.25,-0.11 -9.38,-0.11 -6.08,0 -11.05,0.23 -15.62,0.72 l 0.15,1.41 c 4.52,-0.48 9.43,-0.71 15.46,-0.71 3.12,0 6.24,0.06 9.35,0.11 3.12,0.06 6.25,0.11 9.38,0.11 1.89,0 3.35,0.09 4.77,0.17 2.43,0.14 4.53,0.26 7.88,-0.1 z"
   id="path1053" />
<path
   class="st0"
   d="m 156.47,311.39693 -1.08,0.93 c 0.84,0.97 1.83,2.1 2.88,3.3 1.28,1.46 2.64,3 3.94,4.51 0.62,-0.01 1.23,-0.01 1.85,-0.03 -1.52,-1.79 -3.17,-3.67 -4.71,-5.42 -1.06,-1.2 -2.05,-2.33 -2.88,-3.29 z"
   id="path1055" />
<path
   class="st0"
   d="m 204.64,315.01693 c 0.5,-0.11 1.01,-0.23 1.52,-0.34 -5.25,-7.13 -9.9,-13.31 -14.31,-19.03 -7.12,-9.22 -13.73,-17.35 -20.15,-24.81 -0.31,0.03 -0.62,0.07 -0.93,0.1 -0.27,0.03 -0.54,0.04 -0.81,0.06 6.61,7.64 13.41,16 20.76,25.51 4.3,5.58 8.83,11.61 13.92,18.51 z"
   id="path1057" />
<path
   class="st0"
   d="m 183.93,298.86693 c -2.06,-2.77 -4.13,-5.55 -6.24,-8.29 -4.12,-5.33 -7.67,-9.52 -11.19,-13.19 l -1.03,0.98 c 3.48,3.63 7,7.78 11.09,13.07 2.11,2.74 4.17,5.5 6.23,8.27 2.06,2.77 4.13,5.55 6.24,8.29 2.53,3.27 4.84,6.11 7.06,8.66 0.55,-0.09 1.09,-0.19 1.64,-0.29 -2.38,-2.7 -4.85,-5.71 -7.58,-9.24 -2.11,-2.73 -4.16,-5.49 -6.22,-8.26 z"
   id="path1059" />
<path
   class="st0"
   d="m 160.95,295.19693 -1.13,0.87 17.87,23.14 c 0.56,-0.06 1.11,-0.1 1.67,-0.16 z"
   id="path1061" />
<path
   class="st0"
   d="m 142.44,307.49693 c -0.5,-0.01 -0.97,0.02 -1.48,0.05 -0.66,0.04 -1.41,0.08 -2.43,0.05 l -0.05,1.42 c 0.29,0.01 0.57,0.02 0.82,0.02 0.69,0 1.24,-0.03 1.75,-0.06 0.48,-0.03 0.91,-0.06 1.37,-0.04 1.79,0.04 6.98,0.08 8.5,0 l -0.08,-1.42 c -1.49,0.07 -6.63,0.02 -8.4,-0.02 z"
   id="path1063" />
<path
   class="st0"
   d="m 152.98,301.55693 c -0.8,0 -1.77,-0.01 -2.84,-0.02 -4.62,-0.04 -10.96,-0.1 -14.64,0.43 l 0.2,1.41 c 3.57,-0.52 9.84,-0.46 14.42,-0.42 1.08,0.01 2.05,0.02 2.85,0.02 v -1.42 z"
   id="path1065" />
<path
   class="st0"
   d="m 153.1,317.71693 -0.74,1.22 c 0.4,0.24 0.87,0.63 1.36,1.08 0.69,0.03 1.37,0.04 2.06,0.06 -0.91,-0.99 -1.89,-1.88 -2.68,-2.36 z"
   id="path1067" />
<path
   class="st0"
   d="m 144.2,316.26693 c 1.02,0.02 1.9,0 2.72,-0.02 0.83,-0.03 1.61,-0.06 2.45,0 l 0.09,-1.42 c -0.9,-0.05 -1.72,-0.03 -2.59,0 -0.8,0.03 -1.66,0.04 -2.65,0.02 -0.94,-0.02 -1.91,-0.04 -2.77,0.06 l 0.15,1.41 c 0.79,-0.08 1.71,-0.07 2.6,-0.05 z"
   id="path1069" />
<path
   class="st0"
   d="m 91.9,295.19693 -1.13,0.87 13.62,17.64 c 0.71,0.14 1.42,0.28 2.12,0.42 z"
   id="path1071" />
<path
   class="st0"
   d="m 154.07,295.79693 c -3.01,-0.23 -6.58,0.02 -9.87,0.29 -2.29,0.19 -4.66,0.39 -6.97,0.39 -2.41,0 -4.52,-0.22 -6.46,-0.66 l -0.32,1.39 c 2.04,0.47 4.26,0.7 6.78,0.7 2.37,0 4.77,-0.2 7.09,-0.39 3.23,-0.27 6.73,-0.51 9.64,-0.29 z"
   id="path1073" />
<path
   class="st0"
   d="m 102.4,270.55693 c -0.51,-0.05 -1.02,-0.1 -1.52,-0.17 -0.17,-0.03 -0.38,-0.07 -0.6,-0.11 6.81,7.84 13.81,16.43 21.39,26.24 5.09,6.59 10.49,13.8 16.75,22.36 0.63,0.06 1.26,0.12 1.9,0.18 -6.59,-9.03 -12.22,-16.55 -17.52,-23.41 -7.21,-9.33 -13.9,-17.55 -20.4,-25.09 z"
   id="path1075" />
<path
   class="st0"
   d="m 279.15,448.61693 c 7,0 10.55,0.13 15.46,0.32 2.23,0.08 4.72,0.18 7.92,0.27 l 0.04,-1.42 c -3.19,-0.09 -5.67,-0.19 -7.9,-0.27 -4.93,-0.19 -8.49,-0.32 -15.51,-0.32 -11.46,0 -21.68,0.27 -31.23,0.83 l 0.08,1.42 c 9.52,-0.56 19.71,-0.83 31.14,-0.83 z"
   id="path1077" />
<path
   class="st0"
   d="m 328.4,474.88693 c -7.75,-10.04 -14.9,-18.8 -21.86,-26.79 l -1.07,0.93 c 6.94,7.97 14.07,16.71 21.81,26.72 1.95,2.52 3.95,5.15 6.02,7.89 0.07,0 0.14,0.01 0.21,0.01 0.53,0.01 1.06,0.01 1.59,0.02 -2.32,-3.07 -4.54,-5.99 -6.7,-8.78 z"
   id="path1079" />
<path
   class="st0"
   d="m 319.35,478.94693 c 0.93,1.25 1.86,2.5 2.79,3.74 0.66,0.1 1.32,0.18 1.98,0.27 -1.22,-1.62 -2.43,-3.24 -3.64,-4.86 -2.06,-2.77 -4.13,-5.55 -6.24,-8.29 -4.12,-5.33 -7.67,-9.52 -11.19,-13.19 l -1.03,0.98 c 3.48,3.63 7,7.78 11.09,13.07 2.12,2.75 4.18,5.51 6.24,8.28 z"
   id="path1081" />
<path
   class="st0"
   d="m 305.67,470.63693 c -1.47,-1.91 -2.84,-3.61 -4.19,-5.19 l -1.11,0.89 0.41,0.53 c 1.22,1.41 2.45,2.94 3.76,4.64 2.22,2.88 4.41,5.89 6.54,8.85 0.72,0.2 1.44,0.4 2.17,0.58 -2.45,-3.42 -4.99,-6.94 -7.58,-10.3 z"
   id="path1083" />
<path
   class="st0"
   d="m 277.06,456.04693 c 3.12,0.06 6.25,0.11 9.38,0.11 1.89,0 3.35,0.09 4.77,0.17 2.43,0.14 4.53,0.26 7.88,-0.1 l -0.15,-1.41 c -3.23,0.35 -5.28,0.23 -7.65,0.09 -1.44,-0.08 -2.93,-0.17 -4.85,-0.17 -3.12,0 -6.24,-0.06 -9.35,-0.11 -3.12,-0.06 -6.25,-0.11 -9.38,-0.11 -2.98,0 -5.69,0.06 -8.21,0.17 0.67,0.28 1.33,0.56 2.01,0.83 0.41,0.16 0.81,0.32 1.22,0.48 1.58,-0.04 3.24,-0.06 4.99,-0.06 3.11,0 6.22,0.06 9.34,0.11 z"
   id="path1085" />
<path
   class="st0"
   d="m 297.84,462.64693 -0.13,-1.42 c -3.1,0.28 -6.5,0.42 -10.4,0.42 -3.1,0 -6.24,-0.09 -9.34,-0.19 0.49,0.5 1,0.99 1.51,1.47 2.61,0.08 5.23,0.15 7.83,0.15 3.94,0 7.38,-0.14 10.53,-0.43 z"
   id="path1087" />
<path
   class="st0"
   d="m 292.97,469.02693 h -6.1 c 0.69,0.49 1.39,0.96 2.09,1.42 h 4 v -1.42 z"
   id="path1089" />
<path
   class="st0"
   d="m 304.85,435.58693 c -1.72,-1.88 -3.49,-3.82 -5.06,-5.85 -1.46,-1.89 -3.28,-4.02 -5,-5.87 l -1.04,0.97 c 1.69,1.81 3.48,3.92 4.91,5.77 1.6,2.08 3.4,4.04 5.14,5.94 1.72,1.88 3.49,3.82 5.06,5.85 0.64,0.83 1.2,1.62 1.72,2.4 l 1.19,-0.78 c -0.54,-0.82 -1.12,-1.64 -1.78,-2.49 -1.6,-2.07 -3.4,-4.04 -5.14,-5.94 z"
   id="path1091" />
<path
   class="st0"
   d="m 302.57,388.03693 c -3.19,-0.09 -5.67,-0.19 -7.9,-0.27 -3.2,-0.12 -5.84,-0.22 -9.21,-0.27 0.5,0.34 1.03,0.67 1.59,0.99 0.32,0.18 0.64,0.33 0.96,0.49 2.24,0.06 4.27,0.13 6.61,0.22 2.09,0.08 4.42,0.17 7.33,0.25 0.2,-0.08 0.39,-0.16 0.59,-0.25 z"
   id="path1093" />
<path
   class="st0"
   d="m 284.05,442.23693 c 0.8,0.04 1.56,0.02 2.21,-0.17 l -0.39,-1.37 c -0.49,0.14 -1.11,0.14 -1.76,0.12 -0.53,-0.02 -1.07,-0.04 -1.64,0.04 l 0.2,1.41 c 0.48,-0.08 0.93,-0.05 1.38,-0.03 z"
   id="path1095" />
<path
   class="st0"
   d="m 303.76,443.42693 c -2.06,-2.66 -5.14,-6.17 -7.86,-9.26 -1.05,-1.2 -2.04,-2.32 -2.87,-3.28 l -1.08,0.93 c 0.84,0.97 1.83,2.1 2.88,3.3 2.71,3.08 5.77,6.56 7.8,9.19 z"
   id="path1097" />
<path
   class="st0"
   d="m 289.54,421.04693 c -0.8,0 -1.77,-0.01 -2.84,-0.02 -4.62,-0.04 -10.96,-0.1 -14.64,0.43 l 0.2,1.41 c 3.57,-0.52 9.84,-0.46 14.42,-0.42 1.08,0.01 2.05,0.02 2.85,0.02 v -1.42 z"
   id="path1099" />
<path
   class="st0"
   d="m 287.31,401.90693 c -3.94,0 -7.98,-0.14 -11.88,-0.27 -3.9,-0.13 -7.93,-0.27 -11.86,-0.27 -2.17,0 -4.15,0.04 -6.03,0.13 l 0.03,1.42 h 0.6 c 1.69,-0.09 3.46,-0.13 5.4,-0.13 3.91,0 7.93,0.14 11.81,0.27 3.92,0.13 7.97,0.28 11.93,0.28 1.77,0 3.42,-0.03 5.01,-0.09 -0.53,-0.47 -1.08,-0.93 -1.66,-1.37 -1.08,0.01 -2.18,0.03 -3.35,0.03 z"
   id="path1101" />
<path
   class="st0"
   d="m 293.62,443.72693 1.3,-0.57 c -0.8,-1.83 -3.5,-4.89 -5.26,-5.95 l -0.74,1.22 c 1.51,0.91 4.01,3.73 4.7,5.3 z"
   id="path1103" />
<path
   class="st0"
   d="m 287.4,426.98693 c -1.49,0.08 -6.62,0.04 -8.39,0 -0.5,-0.01 -0.97,0.02 -1.48,0.05 -0.66,0.04 -1.41,0.08 -2.43,0.05 l -0.05,1.42 c 0.29,0.01 0.56,0.02 0.82,0.02 0.69,0 1.24,-0.03 1.75,-0.06 0.48,-0.03 0.91,-0.06 1.37,-0.04 1.79,0.04 6.98,0.08 8.5,0 z"
   id="path1105" />
<path
   class="st0"
   d="m 218.76,410.70693 c -1.11,-0.47 -2.21,-0.95 -3.32,-1.42"
   id="path1107" />
<path
   class="st0"
   d="m 268.76,439.69693 c -3.48,-3.63 -7,-7.78 -11.09,-13.07 -2.11,-2.74 -4.17,-5.5 -6.23,-8.27 -2.06,-2.77 -4.13,-5.55 -6.24,-8.29 -4.12,-5.33 -7.67,-9.52 -11.19,-13.19 l -1.03,0.98 c 3.48,3.63 7.01,7.79 11.09,13.07 2.11,2.74 4.17,5.5 6.23,8.27 2.06,2.77 4.13,5.55 6.24,8.29 4.12,5.33 7.67,9.52 11.19,13.19 z"
   id="path1109" />
<path
   class="st0"
   d="m 223.16,396.58693 c 2.43,0.14 4.53,0.26 7.88,-0.1 l -0.15,-1.41 c -3.23,0.35 -5.28,0.23 -7.65,0.09 -1.44,-0.08 -2.93,-0.17 -4.85,-0.17 -2.39,0 -4.78,-0.04 -7.17,-0.08 0.2,0.48 0.41,0.96 0.62,1.43 2.18,0.04 4.36,0.07 6.55,0.07 1.89,0 3.36,0.09 4.77,0.17 z"
   id="path1111" />
<path
   class="st0"
   d="m 231.76,407.10693 c 1.2,1.43 2.43,2.96 3.74,4.66 2.64,3.42 5.24,7.04 7.75,10.54 2.53,3.52 5.15,7.16 7.83,10.64 2.66,3.45 5.11,6.37 7.49,8.93 l 1.04,-0.97 c -2.35,-2.53 -4.77,-5.42 -7.41,-8.83 -2.67,-3.46 -5.28,-7.09 -7.8,-10.6 -2.52,-3.51 -5.12,-7.13 -7.78,-10.58 -1.47,-1.91 -2.84,-3.61 -4.19,-5.19 l -1.1,0.89 c 0,0 0.4,0.52 0.43,0.51 z"
   id="path1113" />
<path
   class="st0"
   d="m 283.48,435.72693 c 0.83,-0.03 1.61,-0.06 2.45,0 l 0.09,-1.42 c -0.9,-0.05 -1.72,-0.03 -2.59,0 -0.8,0.03 -1.66,0.04 -2.65,0.02 -0.94,-0.02 -1.91,-0.04 -2.77,0.06 l 0.15,1.41 c 0.77,-0.08 1.7,-0.07 2.59,-0.05 1.03,0.03 1.91,0.01 2.73,-0.02 z"
   id="path1115" />
<path
   class="st0"
   d="m 279.62,442.30693 c -7.8,-10.74 -14.24,-19.38 -20.26,-27.17 -7.75,-10.03 -14.9,-18.79 -21.86,-26.79 l -1.07,0.93 c 6.94,7.97 14.07,16.71 21.81,26.72 6.01,7.78 12.44,16.41 20.24,27.14 z"
   id="path1117" />
<path
   class="st0"
   d="m 273.79,415.96693 c -2.41,0 -4.52,-0.22 -6.46,-0.66 l -0.32,1.39 c 2.04,0.47 4.26,0.7 6.78,0.7 2.37,0 4.77,-0.2 7.09,-0.39 3.23,-0.27 6.73,-0.51 9.64,-0.29 l 0.11,-1.42 c -3.01,-0.23 -6.58,0.02 -9.87,0.29 -2.29,0.18 -4.66,0.38 -6.97,0.38 z"
   id="path1119" />
<rect
   x="261.77002"
   y="409.28693"
   class="st0"
   width="31.200001"
   height="1.42"
   id="rect1121" />
<path
   class="st0"
   d="m 234.53,388.03693 c -3.19,-0.09 -5.67,-0.19 -7.9,-0.27 -4.93,-0.19 -8.49,-0.32 -15.51,-0.32 -0.68,0 -1.35,0 -2.02,0.01 0.07,0.48 0.16,0.95 0.25,1.42 0.59,0 1.17,-0.01 1.77,-0.01 7,0 10.55,0.13 15.46,0.32 2.23,0.08 4.72,0.18 7.92,0.27 z"
   id="path1123" />
<path
   class="st0"
   d="M 233.84,435.45693"
   id="path1125" />
<path
   class="st0"
   d="M 226.07,424.19693"
   id="path1127" />
<path
   class="st0"
   d="m 241.54,444.80693 1.19,-0.78 c -0.54,-0.82 -1.12,-1.63 -1.79,-2.49 -0.71,-0.92 -3.18,-3.74 -6.03,-7.01"
   id="path1129" />
<rect
   x="-19.460358"
   y="510.04071"
   transform="rotate(-37.683524)"
   class="st0"
   width="1.4200011"
   height="34.540028"
   id="rect1131" />
<rect
   x="-74.084946"
   y="467.82785"
   transform="rotate(-37.683524)"
   class="st0"
   width="1.4200011"
   height="34.540028"
   id="rect1133" />
<path
   class="st0"
   d="m 328.66,440.89693 c -1.38,-1.49 -2.8,-3.12 -4.25,-4.89 -0.84,-0.26 -1.67,-0.53 -2.5,-0.81 1.99,2.48 3.87,4.68 5.71,6.66 z"
   id="path1135" />
<path
   class="st0"
   d="m 348.67,442.30693 c -1.16,-1.6 -2.29,-3.14 -3.39,-4.65 -0.43,0.01 -0.8,0.02 -0.97,0.04 -0.24,0.02 -0.49,0.03 -0.73,0.04 1.28,1.75 2.59,3.54 3.95,5.41 z"
   id="path1137" />
<path
   class="st0"
   d="m 337.81,439.69693 c -0.57,-0.59 -1.14,-1.2 -1.71,-1.82 -0.27,-0.01 -0.53,-0.01 -0.8,-0.02 -0.2,-0.01 -0.66,-0.04 -1.21,-0.07 0.9,1.01 1.8,1.97 2.69,2.9 z"
   id="path1139" />
<path
   class="st0"
   d="m 229.67,401.48693 c -3.1,0.28 -6.5,0.42 -10.4,0.42 -1.47,0 -2.96,-0.03 -4.45,-0.06 0.3,0.48 0.61,0.96 0.93,1.44 1.18,0.02 2.35,0.05 3.52,0.05 3.94,0 7.38,-0.14 10.53,-0.43 z"
   id="path1141" />
<path
   class="st0"
   d="m 224.93,409.28693 h -4.67 c 0.4,0.48 0.8,0.96 1.21,1.42 h 3.47 v -1.42 z"
   id="path1143" />
<path
   class="st0"
   d="m 267.71,396.19693 c 3.12,0 6.24,0.06 9.35,0.11 0.86,0.02 1.72,0.03 2.58,0.04 -1.75,-0.57 -3.52,-1.06 -5.3,-1.51 -2.21,-0.04 -4.41,-0.07 -6.62,-0.07 -6.08,0 -11.05,0.23 -15.62,0.72 l 0.15,1.41 c 4.51,-0.48 9.42,-0.7 15.46,-0.7 z"
   id="path1145" />
<path
   class="st0"
   d="m 256.08,389.30693 c -0.97,-0.47 -1.86,-0.89 -2.77,-1.3 -1.82,0.08 -3.61,0.17 -5.38,0.28 l 0.08,1.42 c 2.63,-0.16 5.32,-0.29 8.07,-0.4 z"
   id="path1147" />
<path
   class="st0"
   d="m 259.62,201.91693 c -1.81,-1.95 -3.67,-4.12 -5.63,-6.57 -0.19,0.19 -0.38,0.4 -0.56,0.62 -0.13,0.16 -0.26,0.31 -0.39,0.46 1.93,2.4 3.75,4.53 5.54,6.45 z"
   id="path1149" />
<path
   class="st0"
   d="m 262.74,193.95693 c -0.8,-0.39 -1.64,-0.66 -2.49,-0.78 2.63,3.22 5.07,6 7.49,8.53 l 0.61,-0.59 c -0.08,-0.4 -0.19,-0.79 -0.32,-1.18 -1.73,-1.83 -3.47,-3.8 -5.29,-5.98 z"
   id="path1151" />
<path
   class="st0"
   d="m 249.58,203.04693 -1.1,-1.42 c -0.32,0.37 -0.63,0.74 -0.93,1.12 l 0.91,1.18 z"
   id="path1153" />
<path
   class="st0"
   d="m 368.13,74.386926 c 0.58,-0.05 1.15,-0.11 1.73,-0.18"
   id="path1155" />
<path
   class="st0"
   d="m 360.79,74.556926 c 0.34,0.01 0.68,0.03 1.02,0.04 -0.22,-0.17 -0.43,-0.36 -0.66,-0.52 z"
   id="path1157" />
<path
   class="st1"
   d="m 361.21,416.79693 c -0.07,-4.27 -0.86,-8.62 -1.52,-12.7 -3.09,-19.13 -8.76,-37.69 -13.79,-56.37 -4.66,-17.32 -10.92,-36.14 -8.04,-54.28 2.25,-14.13 16.47,-31.24 6.55,-44.98 -0.3,-0.41 -0.84,-0.59 -1.32,-0.52 3.13,-6.08 3.73,-13.4 2.48,-21.27 -2.14,-13.55 -6.17,-26.6 -10.67,-39.52 -2.24,-6.41 -4.91,-12.67 -7.63,-18.88 -2.61,-5.93 -5.26,-12.3 -9.99,-16.88 -0.53,-0.51 -1.24,-0.09 -1.32,0.55 -0.68,5.46 0.43,11.12 1.39,16.5 1.01,5.63 1.85,11.28 2.67,16.93 1.72,11.84 3.04,23.72 4.64,35.57 0.64,4.71 1.59,9.75 1.2,14.53 -0.31,3.79 -2.48,4.69 -5.82,6.29 -9.08,4.35 -19.06,6.48 -28.15,10.66 -1.36,0.41 -2.67,1.17 -3.84,2.27 -3.8,3.56 -1.99,10.58 3.11,11.78 12.65,2.98 27.86,-1.25 39.36,-6.77 5.34,-2.56 9.14,-6.03 11.67,-10.15 0.39,8.49 -4.83,15.71 -9.56,22.3 -4.88,6.8 -9.11,14.24 -10.38,22.64 -2.81,18.64 1.84,38.02 6.21,56.09 4.55,18.81 9.92,37.51 12.66,56.7 0.47,3.32 1.24,6.93 0.9,10.3 -0.01,0.05 -0.03,0.17 -0.06,0.3 -3.8,-0.41 -9.14,2.76 -10.87,5.62 -0.19,0.32 -0.35,0.63 -0.51,0.94 -1.57,-1.51 -2.02,-3.31 0.18,-5.33 0.64,-0.59 0.54,-1.59 0,-2.19 -1.34,-1.49 -3.04,-1.94 -4.75,-1.74 -0.04,-0.03 -0.07,-0.06 -0.11,-0.09 0.08,-0.23 0.16,-0.47 0.23,-0.72 1.92,-7.06 1.13,-14.33 -1.96,-20.93 -2.92,-6.22 -8.09,-13.7 -15.7,-13.36 -2.07,-3.13 -4.41,-6.08 -7.15,-8.74 -2.65,-2.58 -5.53,-4.74 -8.59,-6.53 -2.35,-4.73 -6.71,-8.26 -12.33,-9.18 -2.21,-0.36 -4.42,-0.37 -6.64,-0.18 1.56,-3.2 2.92,-6.41 4.18,-9.3 1.95,-4.46 3.95,-8.9 6.36,-13.14 2.48,-4.37 6.12,-7.91 8.61,-12.2 2.8,-4.82 2.86,-10.07 2.75,-15.48 -0.13,-6.18 -0.22,-12.25 -3.71,-17.61 -1.69,-2.59 -6.24,-4.01 -8.5,-1.1 -2.82,3.63 -4.47,7.4 -5.1,11.97 -0.51,3.73 -0.01,8.84 -1.37,12.32 -1.14,2.93 -3.91,5.33 -5.65,7.97 -2.08,3.14 -3.84,6.49 -5.45,9.89 -3.35,7.1 -6.04,14.45 -8.94,21.73 -0.8,1.99 -1.69,3.95 -2.49,5.94 -0.45,1.14 -0.74,3.2 -1.63,4.13 -1.64,1.69 -3.86,0.67 -6.07,-0.36 -0.45,-0.7 -1.22,-1.19 -2.28,-1.16 -0.22,0.01 -0.43,0.01 -0.65,0.02 -0.09,-0.02 -0.18,-0.05 -0.27,-0.06 -0.65,-0.11 -1.3,-0.03 -1.88,0.2 -4.43,0.39 -8.66,1.58 -11.99,4.87 -4.48,4.42 -5.98,10.8 -4.01,16.74 4.27,12.87 24.03,15.94 35.64,15.9 4.15,-0.01 8.75,-0.62 13.19,-1.89 0.11,0.03 0.22,0.07 0.34,0.1 11.79,2.95 22.13,9.31 29.65,18.88 -6.11,3.25 -9.73,10.01 -7.15,17.41 2.78,7.98 12.52,14.28 19.78,17.71 8.41,3.97 20.47,6.33 28.13,0.39 0.66,0.07 1.32,0.12 1.99,0.13 9.43,0.17 18.35,-5.87 20.47,-15.31 1.42,-6.42 -1.26,-13.68 -6.5,-17.35 z"
   id="path1159" />
<path
   class="st1"
   d="m 301.42,163.83693 c -1.56,-2.06 -3.66,-2.48 -5.84,-3.63 -0.84,-0.44 -1.6,-1.04 -2.44,-1.47 -0.98,-0.51 -2.1,-0.78 -3.1,-1.23 -0.5,-0.23 -0.96,0.14 -0.88,0.68 0.15,1.02 0.29,2.13 0.67,3.1 0.46,1.15 1.37,2.18 2.14,3.14 1.74,2.15 3.63,4.29 6.56,4.46 2.36,0.13 4.42,-3.03 2.89,-5.05 z"
   id="path1161" />
<path
   class="st1"
   d="m 282.46,251.59693 c -4.02,-9.08 -7.19,-18.31 -8.84,-28.14 -1.57,-9.37 -1.21,-18.98 -2.82,-28.29 -0.21,-1.19 -2.16,-1.47 -2.67,-0.35 -7.29,16.1 -3.38,37.97 1.96,54.12 2.62,7.93 7.88,17.13 5.71,25.72 -1.03,4.08 -8.81,12.07 -1.6,14.83 7.48,2.87 12.11,-7.38 13.18,-13.04 1.65,-8.81 -1.4,-16.89 -4.92,-24.85 z"
   id="path1163" />
<path
   class="st1"
   d="M 418.32,421.49693"
   id="path1165" />
<path
   class="st1"
   d="m 303.06,477.96693 c -0.17,-1.38 -0.87,-2.7 -2.33,-3.07"
   id="path1167" />
<path
   class="st1"
   d="m 252.63,223.36693 c -2.92,-5.43 -7.84,-9.11 -13.46,-10.85 5.95,-7.25 10.22,-16.85 12.34,-28.58 -24.27,-12.85 -54.85,-37.23 -54.85,-56.92 0,-14.34 26.17,25.91 56.37,39.82 v -0.88 c 0,-7.96 -0.79,-16.17 -2.3,-24.48 -0.89,-0.34 -1.78,-0.68 -2.68,-1.04 -5.42,-2.13 -28.88,-15.59 -28.88,-19.52 0,-1.59 0.95,-2.85 3.08,-2.85 0.01,0 12.34,3.51 24.56,6.83 -10.74,-37.230004 -34.42,-74.330004 -63.34,-97.970004 -5.78,-4.72 -11.77,-8.91 -17.9,-12.45 -5.32,-3.07 -10.51,-5.5299999 -15.56,-7.3899999 -17.15,-6.35000002 -32.56,-5.92 -44.67,0.38 -0.18,0.09 -0.35,0.18 -0.5,0.26 l -0.52,0.27 c -0.08,0.04 -0.15,0.08 -0.22,0.12 l -1.08,0.56 c -0.07,0.03 -72.6,37.7499999 -72.6,37.7499999 4.11,-2.04 8.6,-3.42 13.39,-4.09 0.43,-0.07 0.86,-0.13 1.3,-0.17 0.05,0 0.1,-0.01 0.14,-0.01 7.02,-0.79 14.67,-0.1 22.78,2.17 0.2,0.05 0.4,0.11 0.61,0.17 0.62,0.17 1.25,0.36 1.88,0.57 0.23,0.07 0.47,0.14 0.7,0.22 0.28,0.09 0.56,0.18 0.84,0.28 0.41,0.14 0.82,0.28 1.24,0.43 0.42,0.14 0.83,0.29 1.24,0.44 1.26,0.47 2.52,0.97 3.78,1.51 0.86,0.36 1.71,0.74 2.56,1.13 2.99,1.37 6.02,2.94 9.09,4.71 3.06,1.77 6.1,3.7 9.08,5.78 0.75,0.52 1.49,1.05 2.23,1.59 0.74,0.53 1.48,1.08 2.21,1.64 0.74,0.55 1.47,1.12 2.2,1.7 0.73,0.56 1.45,1.14 2.17,1.74 1.87,1.52 3.71,3.1 5.53,4.74 0.61,0.54 1.21,1.09 1.81,1.65 0.6,0.55 1.2,1.11 1.79,1.68 1.19,1.13 2.37,2.28 3.53,3.46 0.59,0.59 1.17,1.18 1.74,1.78 1.73,1.79 3.44,3.63 5.11,5.52 0.57,0.63 1.13,1.26 1.67,1.9 0.56,0.64 1.11,1.28 1.64,1.92 0.49,0.57 0.97,1.15 1.45,1.73 0.17,0.21 0.34,0.42 0.51,0.63 0.43,0.52 0.86,1.04 1.27,1.57 0.54,0.67 1.07,1.34 1.59,2.01 1.57,2.01 3.11,4.06 4.61,6.150004 0.4,0.54 0.79,1.09 1.17,1.64 1.59,2.25 3.15,4.55 4.66,6.87 0.96,1.48 1.91,2.98 2.83,4.49 0.52,0.84 1.03,1.69 1.54,2.54 0.51,0.85 1.01,1.7 1.5,2.56 0.5,0.86 0.99,1.72 1.47,2.58 0.49,0.86 0.96,1.73 1.43,2.6 0.47,0.87 0.94,1.74 1.39,2.62 0.47,0.87 0.92,1.75 1.36,2.63 0.03,0.06 0.06,0.11 0.09,0.17 0.86,1.7 1.7,3.42 2.5,5.14 0.43,0.89 0.84,1.78 1.24,2.68 0.41,0.89 0.81,1.79 1.2,2.69 0.4,0.89 0.78,1.8 1.16,2.7 0.31,0.72 0.61,1.44 0.9,2.17 0.14,0.34 0.27,0.68 0.41,1.02 0.95,2.37 1.85,4.75 2.7,7.13 0.07,0.19 0.14,0.38 0.2,0.57 0.65,1.83 1.26,3.65 1.84,5.48 0.19,0.59 0.38,1.18 0.55,1.76 0.17,0.52 0.32,1.03 0.48,1.55 0.22,0.73 0.43,1.46 0.63,2.18 0.27,0.91 0.52,1.83 0.76,2.74 0.25,0.91 0.49,1.83 0.71,2.74 0.22,0.88 0.44,1.75 0.64,2.63 0.35,1.5 0.68,3 0.98,4.49 0.12,0.54 0.22,1.09 0.33,1.63 0.12,0.63 0.24,1.26 0.35,1.89 0.03,0.16 0.06,0.32 0.09,0.47 0.15,0.86 0.3,1.71 0.43,2.56 0.15,0.9 0.29,1.8 0.41,2.71 0.01,0.01 0.01,0.03 0.01,0.05 0.13,0.88 0.24,1.77 0.35,2.66 0.1,0.76 0.18,1.52 0.26,2.27 0.07,0.62 0.13,1.23 0.18,1.84 0.02,0.16 0.04,0.31 0.05,0.46 0.04,0.42 0.07,0.83 0.1,1.24 0.06,0.75 0.12,1.49 0.16,2.23 0.05,0.67 0.08,1.33 0.11,1.99 0.03,0.45 0.05,0.89 0.06,1.34 0.03,0.66 0.05,1.32 0.06,1.97 0.02,0.88 0.03,1.75 0.03,2.62 0,0.84 -0.01,1.67 -0.03,2.49 -0.03,1.65 -0.1,3.27 -0.21,4.86 -0.03,0.51 -0.07,1.01 -0.11,1.51 -0.05,0.61 -0.1,1.22 -0.16,1.82 -0.07,0.72 -0.15,1.44 -0.24,2.15 0,0.03 0,0.05 -0.01,0.07 -0.07,0.58 -0.14,1.16 -0.23,1.73 -0.04,0.35 -0.09,0.7 -0.15,1.05 0,0.04 -0.01,0.08 -0.02,0.12 -0.09,0.61 -0.19,1.22 -0.3,1.82 -0.1,0.57 -0.2,1.13 -0.31,1.68 -0.08,0.39 -0.15,0.77 -0.24,1.15 -0.22,1.05 -0.46,2.07 -0.72,3.08 -0.11,0.46 -0.23,0.91 -0.35,1.36 -0.31,1.12 -0.64,2.21 -0.99,3.29 -0.09,0.31 -0.19,0.61 -0.3,0.91 -0.18,0.53 -0.37,1.05 -0.56,1.57 -0.2,0.53 -0.4,1.06 -0.61,1.58 -0.14,0.37 -0.29,0.74 -0.45,1.1 -0.18,0.43 -0.36,0.86 -0.56,1.29 -0.19,0.43 -0.38,0.85 -0.59,1.27 -0.17,0.37 -0.35,0.74 -0.55,1.11 -0.04,0.1 -0.09,0.2 -0.15,0.3 -0.17,0.35 -0.35,0.7 -0.54,1.04 -0.21,0.4 -0.43,0.8 -0.66,1.19 -0.17,0.32 -0.35,0.62 -0.54,0.93 -0.53,0.89 -1.08,1.76 -1.66,2.6 -0.14,0.2 -0.28,0.4 -0.43,0.61 -2.5,1.77 -5.03,3.48 -7.64,5.09 -1.02,0.63 -2.04,1.23 -3.02,1.91 0.68,-0.47 -6.29,4.93 -4.51,3.54 -3.39,2.65 -5.41,3.57 -7.92,6.2 -1.44,1.5 -1.69,2.81 -2.84,4.25 -0.56,0.7 -0.95,0.83 -1.86,1.16 -3.77,-0.19 -7.54,-0.47 -11.3,-0.74 -3.56,-0.25 -7.11,-0.64 -10.64,-1.13 0.82,-2.73 -0.6,-6.3 -3.62,-7.27 -6.29,-2.01 -12.83,-2.38 -19.21,-3.99 -3.98,-1.01 -15.06,-2.83 -16.84,-7.18 -0.91,-2.22 -4.62,-2.94 -5.28,-0.08 -1.44,-2.05 -2.59,-4.31 -3.66,-6.75 -0.11,-0.26 -0.46,-0.18 -0.59,0 -6,8.23 2.13,19.14 8.59,24.39 10.08,8.2 22.71,13.93 34.64,18.87 24.95,10.35 53.43,11.99 79.67,5.63 23.59,-5.71 49.1,-21.62 61.26,-43.24 4.49,-8.02 6.16,-17.83 1.64,-26.25 z"
   id="path1169" />
<path
   class="st2"
   d="m 289.21,134.58693 c 0,1.35 -0.1,2.68 -0.25,4.03 -0.25,2.31 -0.63,4.63 -0.81,7.03 -4.25,-2.12 -8.98,-6.93 -12.84,-6.93 -2.59,0 -4.84,2.34 -7.28,2.34 -0.43,0 -0.93,-0.12 -1.46,-0.34 -2.12,-0.89 -4.69,-3.36 -4.69,-5.97 0,-0.64 1.28,-2.5 3.99,-4.46 3.51,-2.52 9.41,-5.2 18,-5.6 0.04,0 0.09,0 0.13,0 3.55,0 5.21,5.6 5.21,9.9 z"
   id="path1171" />
<path
   class="st3"
   d="M 74.39,46.396926 89.96,154.77693 15.69,58.556926 c 0.25,-0.32 0.5,-0.63 0.75,-0.94 0.25,-0.3 0.51,-0.61 0.76,-0.9 0.26,-0.3 0.52,-0.59 0.79,-0.88 0.26,-0.29 0.53,-0.57 0.8,-0.85 0.27,-0.28 0.54,-0.56 0.82,-0.83 0.55,-0.54 1.12,-1.07 1.69,-1.58 0.86,-0.75 1.74,-1.47 2.64,-2.16 1.24,-0.92 2.5,-1.76 3.8,-2.53 0.66,-0.38 1.32,-0.75 1.99,-1.1 4.3,-2.23 9.01,-3.73 14.07,-4.45 0.43,-0.06 0.87,-0.12 1.3,-0.17 0.05,0 0.1,-0.01 0.14,-0.01 7.02,-0.78 14.67,-0.1 22.78,2.17 0.2,0.05 0.4,0.11 0.61,0.17 0.63,0.18 1.25,0.37 1.88,0.57 0.23,0.07 0.47,0.14 0.7,0.22 0.28,0.09 0.56,0.19 0.84,0.28 0.41,0.14 0.82,0.28 1.24,0.43 0.37,0.13 0.73,0.26 1.1,0.4 z"
   id="path1173"
   style="fill:#484dff;fill-opacity:1;opacity:0.508" />
<g
   id="g1177"
   transform="translate(-87.37,-179.40307)">
	<path
   class="st2"
   d="m 264.76,389.67 c -0.02,0 -0.04,0 -0.06,0 -1.38,-0.03 -2.47,-1.18 -2.44,-2.56 0.02,-0.8 0.03,-1.61 0.03,-2.43 0,-0.85 -0.01,-1.71 -0.03,-2.56 -0.03,-1.38 1.06,-2.52 2.44,-2.55 0.02,0 0.04,0 0.06,0 1.35,0 2.47,1.08 2.5,2.44 0.02,0.89 0.03,1.79 0.03,2.68 0,0.86 -0.01,1.71 -0.03,2.55 -0.03,1.35 -1.15,2.43 -2.5,2.43 z"
   id="path1175" />
</g>
<g
   id="g1181"
   transform="translate(-87.37,-179.40307)">
	<path
   class="st2"
   d="m 264.7,382.59 c -1.36,0 -2.47,-1.08 -2.5,-2.45 -0.01,-0.41 -0.03,-0.81 -0.05,-1.23 -0.03,-0.69 -0.06,-1.33 -0.11,-1.97 -0.04,-0.77 -0.1,-1.49 -0.16,-2.21 -0.03,-0.41 -0.06,-0.8 -0.1,-1.2 -0.13,-1.37 0.88,-2.59 2.25,-2.73 1.39,-0.13 2.6,0.88 2.73,2.25 0.04,0.44 0.07,0.87 0.1,1.3 0.06,0.75 0.12,1.51 0.16,2.27 0.05,0.64 0.08,1.33 0.11,2.01 0.03,0.43 0.05,0.91 0.06,1.4 0.03,1.38 -1.06,2.52 -2.44,2.55 -0.01,0.01 -0.03,0.01 -0.05,0.01 z"
   id="path1179" />
</g>
<g
   id="g1185"
   transform="translate(-87.37,-179.40307)">
	<path
   class="st2"
   d="m 264.22,375.33 c -1.29,0 -2.38,-0.99 -2.49,-2.3 -0.05,-0.58 -0.11,-1.17 -0.17,-1.76 -0.16,-1.37 0.83,-2.61 2.2,-2.77 1.38,-0.15 2.61,0.83 2.77,2.2 0.07,0.65 0.14,1.28 0.19,1.92 0.11,1.38 -0.91,2.58 -2.29,2.7 -0.08,0.01 -0.14,0.01 -0.21,0.01 z"
   id="path1183" />
</g>
<g
   id="g1189"
   transform="translate(-87.37,-179.40307)">
	<path
   class="st2"
   d="m 263.78,371.22 c -1.25,0 -2.32,-0.93 -2.48,-2.2 -0.11,-0.87 -0.21,-1.73 -0.34,-2.6 -0.2,-1.37 0.75,-2.64 2.11,-2.83 1.37,-0.2 2.63,0.75 2.83,2.11 0.13,0.91 0.25,1.81 0.36,2.72 0.17,1.37 -0.81,2.62 -2.18,2.79 -0.1,0.01 -0.2,0.01 -0.3,0.01 z"
   id="path1187" />
</g>
<g
   id="g1193"
   transform="translate(-87.37,-179.40307)">
	<path
   class="st2"
   d="m 263.42,368.51 c -1.23,0 -2.31,-0.91 -2.47,-2.17 -0.12,-0.88 -0.25,-1.75 -0.4,-2.64 -0.13,-0.86 -0.28,-1.7 -0.43,-2.53 -0.24,-1.36 0.67,-2.66 2.03,-2.9 1.36,-0.24 2.66,0.67 2.9,2.03 0.15,0.87 0.31,1.75 0.44,2.62 0.15,0.91 0.29,1.83 0.42,2.76 0.18,1.37 -0.78,2.63 -2.15,2.81 -0.12,0.02 -0.23,0.02 -0.34,0.02 z"
   id="path1191" />
</g>
<g
   id="g1197"
   transform="translate(-87.37,-179.40307)">
	<path
   class="st2"
   d="m 262.49,362.77 c -1.19,0 -2.25,-0.86 -2.46,-2.07 -0.11,-0.62 -0.22,-1.23 -0.34,-1.85 l -0.11,-0.58 c -0.06,-0.33 -0.13,-0.66 -0.2,-0.98 -0.3,-1.35 0.55,-2.68 1.9,-2.98 1.35,-0.3 2.68,0.55 2.98,1.9 0.08,0.37 0.15,0.74 0.23,1.1 l 0.11,0.57 c 0.13,0.68 0.25,1.32 0.36,1.96 0.24,1.36 -0.67,2.65 -2.04,2.89 -0.15,0.03 -0.29,0.04 -0.43,0.04 z"
   id="path1195" />
</g>
<g
   id="g1201"
   transform="translate(-87.37,-179.40307)">
	<path
   class="st2"
   d="m 260.83,354.76 c -1.14,0 -2.17,-0.79 -2.44,-1.95 -0.17,-0.75 -0.36,-1.5 -0.54,-2.25 l -0.08,-0.33 c -0.22,-0.89 -0.45,-1.78 -0.7,-2.69 -0.24,-0.91 -0.5,-1.82 -0.75,-2.71 -0.38,-1.33 0.39,-2.71 1.72,-3.09 1.33,-0.38 2.71,0.39 3.09,1.72 0.26,0.93 0.53,1.86 0.77,2.79 0.25,0.92 0.48,1.84 0.72,2.76 l 0.08,0.34 c 0.2,0.79 0.39,1.57 0.57,2.36 0.3,1.35 -0.54,2.69 -1.89,2.99 -0.18,0.04 -0.37,0.06 -0.55,0.06 z"
   id="path1199" />
</g>
<g
   id="g1205"
   transform="translate(-87.37,-179.40307)">
	<path
   class="st2"
   d="m 258.09,344.47 c -1.07,0 -2.06,-0.69 -2.39,-1.77 l -0.14,-0.45 c -0.11,-0.35 -0.21,-0.7 -0.33,-1.06 -0.43,-1.31 0.29,-2.72 1.6,-3.15 1.31,-0.43 2.72,0.29 3.15,1.6 0.13,0.39 0.24,0.77 0.36,1.16 l 0.13,0.44 c 0.41,1.32 -0.33,2.72 -1.65,3.12 -0.24,0.08 -0.49,0.11 -0.73,0.11 z"
   id="path1203" />
</g>
<g
   id="g1209"
   transform="translate(-87.37,-179.40307)">
	<path
   class="st2"
   d="m 257.06,341.16 c -1.06,0 -2.04,-0.68 -2.38,-1.75 -0.53,-1.66 -1.12,-3.43 -1.82,-5.41 -0.46,-1.3 0.23,-2.73 1.53,-3.19 1.3,-0.46 2.73,0.23 3.19,1.53 0.71,2.03 1.32,3.84 1.86,5.55 0.42,1.32 -0.31,2.72 -1.63,3.14 -0.25,0.1 -0.5,0.13 -0.75,0.13 z"
   id="path1207" />
</g>
<g
   id="g1213"
   transform="translate(-87.37,-179.40307)">
	<path
   class="st2"
   d="m 255.02,335.11 c -1.03,0 -1.99,-0.64 -2.36,-1.66 -0.81,-2.28 -1.71,-4.65 -2.67,-7.04 -0.51,-1.28 0.11,-2.74 1.39,-3.25 1.29,-0.51 2.74,0.11 3.25,1.39 0.98,2.45 1.9,4.88 2.74,7.22 0.46,1.3 -0.22,2.73 -1.52,3.19 -0.27,0.11 -0.55,0.15 -0.83,0.15 z"
   id="path1211" />
</g>
<g
   id="g1217"
   transform="translate(-87.37,-179.40307)">
	<path
   class="st2"
   d="m 251.91,326.96 c -0.98,0 -1.91,-0.58 -2.31,-1.54 l -0.9,-2.17 c -0.34,-0.8 -0.69,-1.62 -1.05,-2.43 l -0.1,-0.23 c -0.38,-0.88 -0.78,-1.76 -1.18,-2.65 -0.4,-0.89 -0.81,-1.77 -1.23,-2.65 -0.76,-1.61 -1.56,-3.27 -2.47,-5.09 -0.62,-1.23 -0.12,-2.74 1.12,-3.35 1.23,-0.62 2.74,-0.12 3.35,1.12 0.93,1.86 1.76,3.55 2.53,5.19 0.43,0.9 0.85,1.81 1.26,2.72 0.41,0.9 0.82,1.81 1.21,2.72 l 0.1,0.23 c 0.36,0.83 0.72,1.66 1.07,2.49 l 0.9,2.18 c 0.53,1.27 -0.07,2.74 -1.35,3.27 -0.3,0.13 -0.63,0.19 -0.95,0.19 z"
   id="path1215" />
</g>
<g
   id="g1221"
   transform="translate(-87.37,-179.40307)">
	<path
   class="st2"
   d="m 244.82,311.41 c -0.91,0 -1.79,-0.5 -2.23,-1.36 l -0.08,-0.15 c -0.42,-0.82 -0.84,-1.64 -1.26,-2.45 -0.46,-0.88 -0.92,-1.74 -1.38,-2.6 -0.46,-0.86 -0.94,-1.72 -1.41,-2.57 L 237,299.72 c -0.48,-0.84 -0.97,-1.68 -1.47,-2.51 -0.71,-1.18 -0.33,-2.72 0.86,-3.43 1.18,-0.71 2.72,-0.33 3.43,0.86 0.52,0.87 1.03,1.73 1.53,2.61 l 1.47,2.58 c 0.5,0.89 0.98,1.77 1.46,2.65 0.47,0.88 0.94,1.76 1.41,2.65 0.43,0.82 0.86,1.66 1.29,2.5 l 0.08,0.15 c 0.63,1.23 0.14,2.74 -1.09,3.36 -0.38,0.18 -0.77,0.27 -1.15,0.27 z"
   id="path1219" />
</g>
<g
   id="g1225"
   transform="translate(-87.37,-179.40307)">
	<path
   class="st2"
   d="m 236.13,295.88 c -0.84,0 -1.67,-0.43 -2.14,-1.2 -0.85,-1.39 -1.76,-2.84 -2.79,-4.43 -0.75,-1.16 -0.42,-2.71 0.74,-3.46 1.16,-0.75 2.71,-0.42 3.46,0.74 1.06,1.63 2,3.12 2.87,4.55 0.72,1.18 0.34,2.72 -0.83,3.44 -0.42,0.24 -0.86,0.36 -1.31,0.36 z"
   id="path1223" />
</g>
<g
   id="g1229"
   transform="translate(-87.37,-179.40307)">
	<path
   class="st2"
   d="m 228.64,284.52 c -0.79,0 -1.57,-0.38 -2.06,-1.08 -0.37,-0.53 -0.74,-1.06 -1.12,-1.58 -0.82,-1.11 -0.59,-2.68 0.52,-3.5 1.11,-0.82 2.68,-0.59 3.5,0.52 0.42,0.56 0.82,1.13 1.22,1.71 0.79,1.14 0.5,2.69 -0.64,3.48 -0.43,0.31 -0.93,0.45 -1.42,0.45 z"
   id="path1227" />
</g>
<g
   id="g1233"
   transform="translate(-87.37,-179.40307)">
	<path
   class="st2"
   d="m 222.86,276.73 c -0.75,0 -1.48,-0.33 -1.98,-0.97 -0.51,-0.66 -1.03,-1.32 -1.56,-1.97 -0.42,-0.55 -0.84,-1.05 -1.25,-1.54 -0.88,-1.06 -0.73,-2.64 0.33,-3.52 1.06,-0.88 2.64,-0.74 3.52,0.33 0.45,0.54 0.9,1.08 1.32,1.64 0.52,0.64 1.06,1.33 1.59,2.01 0.85,1.09 0.65,2.66 -0.44,3.51 -0.45,0.34 -0.99,0.51 -1.53,0.51 z"
   id="path1231" />
</g>
<g
   id="g1237"
   transform="translate(-87.37,-179.40307)">
	<path
   class="st2"
   d="m 219.49,272.52 c -0.72,0 -1.43,-0.31 -1.93,-0.91 -0.47,-0.57 -0.94,-1.14 -1.42,-1.69 -0.54,-0.66 -1.08,-1.28 -1.62,-1.9 -0.55,-0.65 -1.09,-1.26 -1.64,-1.87 -0.93,-1.02 -0.85,-2.6 0.18,-3.53 1.03,-0.92 2.6,-0.85 3.53,0.18 0.59,0.65 1.17,1.3 1.73,1.96 0.55,0.62 1.11,1.28 1.66,1.94 0.47,0.55 0.96,1.14 1.45,1.73 0.88,1.06 0.73,2.64 -0.33,3.52 -0.48,0.39 -1.05,0.57 -1.61,0.57 z"
   id="path1235" />
</g>
<g
   id="g1241"
   transform="translate(-87.37,-179.40307)">
	<path
   class="st2"
   d="m 209.62,261.45 c -0.66,0 -1.32,-0.26 -1.81,-0.78 -0.55,-0.58 -1.12,-1.16 -1.69,-1.73 -1.07,-1.08 -2.2,-2.2 -3.48,-3.42 -0.59,-0.57 -1.17,-1.11 -1.76,-1.65 -0.6,-0.56 -1.18,-1.1 -1.78,-1.62 -1.84,-1.65 -3.66,-3.22 -5.44,-4.66 -1.07,-0.87 -1.24,-2.44 -0.37,-3.52 0.87,-1.07 2.45,-1.24 3.52,-0.37 1.85,1.5 3.74,3.12 5.62,4.81 0.61,0.54 1.23,1.11 1.84,1.68 0.6,0.55 1.21,1.12 1.82,1.71 1.31,1.25 2.49,2.4 3.58,3.51 0.59,0.59 1.19,1.2 1.77,1.81 0.95,1 0.91,2.58 -0.09,3.53 -0.49,0.47 -1.11,0.7 -1.73,0.7 z"
   id="path1239" />
</g>
<g
   id="g1245"
   transform="translate(-87.37,-179.40307)">
	<path
   class="st2"
   d="m 195.22,248.14 c -0.56,0 -1.13,-0.19 -1.6,-0.58 -0.69,-0.58 -1.39,-1.14 -2.09,-1.68 -0.74,-0.59 -1.45,-1.14 -2.17,-1.68 -0.74,-0.57 -1.46,-1.1 -2.17,-1.61 -0.74,-0.54 -1.47,-1.06 -2.2,-1.57 -1.13,-0.79 -1.42,-2.34 -0.63,-3.48 0.79,-1.13 2.34,-1.42 3.48,-0.63 0.77,0.53 1.52,1.07 2.28,1.62 0.74,0.53 1.5,1.1 2.26,1.67 0.73,0.54 1.48,1.13 2.23,1.73 0.72,0.55 1.47,1.16 2.22,1.78 1.06,0.88 1.2,2.46 0.32,3.52 -0.5,0.61 -1.22,0.91 -1.93,0.91 z"
   id="path1243" />
</g>
<g
   id="g1249"
   transform="translate(-87.37,-179.40307)">
	<path
   class="st2"
   d="m 168.24,230.98 c -0.35,0 -0.7,-0.07 -1.04,-0.23 -0.82,-0.38 -1.64,-0.74 -2.46,-1.08 -1.28,-0.53 -1.89,-1.99 -1.36,-3.26 0.52,-1.28 1.99,-1.89 3.26,-1.36 0.88,0.36 1.76,0.75 2.64,1.16 1.25,0.58 1.8,2.06 1.23,3.32 -0.42,0.91 -1.33,1.45 -2.27,1.45 z"
   id="path1247" />
</g>
<g
   id="g1253"
   transform="translate(-87.37,-179.40307)">
	<path
   class="st2"
   d="m 165.68,229.85 c -0.33,0 -0.66,-0.07 -0.98,-0.2 -1.19,-0.51 -2.42,-1 -3.65,-1.45 -1.3,-0.48 -1.96,-1.91 -1.48,-3.21 0.48,-1.3 1.91,-1.96 3.21,-1.48 1.31,0.48 2.62,1 3.89,1.55 1.27,0.54 1.86,2.01 1.31,3.28 -0.41,0.95 -1.33,1.51 -2.3,1.51 z"
   id="path1251" />
</g>
<g
   id="g1257"
   transform="translate(-87.37,-179.40307)">
	<path
   class="st2"
   d="m 161.89,228.34 c -0.28,0 -0.56,-0.05 -0.84,-0.15 -0.44,-0.16 -0.8,-0.29 -1.17,-0.42 -1.31,-0.44 -2.02,-1.85 -1.58,-3.16 0.44,-1.31 1.85,-2.02 3.16,-1.58 0.42,0.14 0.82,0.29 1.23,0.43 1.3,0.47 2,1.92 1.53,3.22 -0.38,1.02 -1.32,1.66 -2.33,1.66 z"
   id="path1255" />
</g>
<g
   id="g1261"
   transform="translate(-87.37,-179.40307)">
	<path
   class="st2"
   d="m 159.42,227.47 c -0.28,0 -0.57,-0.05 -0.84,-0.15 -0.25,-0.09 -0.51,-0.17 -0.76,-0.25 -1.32,-0.42 -2.04,-1.83 -1.62,-3.14 0.42,-1.32 1.83,-2.04 3.14,-1.62 0.31,0.1 0.62,0.2 0.92,0.31 1.3,0.47 1.97,1.9 1.51,3.2 -0.36,1.02 -1.32,1.65 -2.35,1.65 z"
   id="path1259" />
</g>
<g
   id="g1265"
   transform="translate(-87.37,-179.40307)">
	<path
   class="st2"
   d="m 157.88,226.97 c -0.26,0 -0.53,-0.04 -0.79,-0.13 -0.59,-0.2 -1.17,-0.37 -1.75,-0.53 -1.33,-0.37 -2.12,-1.74 -1.75,-3.07 0.37,-1.33 1.73,-2.11 3.07,-1.75 0.66,0.18 1.34,0.38 2.01,0.61 1.31,0.44 2.02,1.85 1.58,3.16 -0.35,1.05 -1.32,1.71 -2.37,1.71 z"
   id="path1263" />
</g>
<g
   id="g1269"
   transform="translate(-87.37,-179.40307)">
	<path
   class="st2"
   d="m 155.39,226.23 c -0.22,0 -0.45,-0.03 -0.67,-0.09 -7.69,-2.15 -15.03,-2.86 -21.83,-2.09 -1.38,0.15 -2.61,-0.83 -2.76,-2.21 -0.15,-1.38 0.83,-2.61 2.21,-2.76 7.43,-0.84 15.42,-0.08 23.73,2.25 1.33,0.37 2.11,1.75 1.73,3.08 -0.31,1.1 -1.32,1.82 -2.41,1.82 z"
   id="path1267" />
</g>
<g
   id="g1273"
   transform="translate(-87.37,-179.40307)">
	<path
   class="st2"
   d="m 117.78,228.33 c -0.92,0 -1.8,-0.51 -2.24,-1.39 -0.61,-1.24 -0.11,-2.74 1.13,-3.35 4.37,-2.17 9.13,-3.62 14.16,-4.33 0.43,-0.07 0.92,-0.14 1.42,-0.18 1.37,-0.13 2.59,0.89 2.72,2.26 0.12,1.38 -0.89,2.59 -2.26,2.72 -0.38,0.04 -0.75,0.09 -1.12,0.15 -4.55,0.64 -8.8,1.93 -12.68,3.86 -0.38,0.18 -0.76,0.26 -1.13,0.26 z"
   id="path1271" />
</g>
<g
   id="g1277"
   transform="translate(-87.37,-179.40307)">
	<path
   class="st2"
   d="m 111.33,232.31 c -0.76,0 -1.51,-0.34 -2,-1 -0.83,-1.1 -0.61,-2.67 0.49,-3.5 1.3,-0.98 2.65,-1.88 4.02,-2.68 0.59,-0.36 1.28,-0.74 2.12,-1.17 1.23,-0.62 2.74,-0.13 3.36,1.1 0.62,1.23 0.13,2.74 -1.1,3.36 -0.72,0.37 -1.3,0.68 -1.81,1 -1.25,0.73 -2.44,1.53 -3.58,2.39 -0.45,0.34 -0.98,0.5 -1.5,0.5 z"
   id="path1275" />
</g>
<g
   id="g1281"
   transform="translate(-87.37,-179.40307)">
	<path
   class="st2"
   d="m 103.81,239.52 c -0.55,0 -1.1,-0.18 -1.56,-0.55 -1.08,-0.86 -1.25,-2.44 -0.39,-3.51 0.26,-0.33 0.54,-0.67 0.83,-0.99 0.26,-0.31 0.53,-0.61 0.82,-0.92 0.26,-0.3 0.54,-0.59 0.83,-0.88 0.3,-0.33 0.62,-0.65 0.93,-0.94 0.57,-0.57 1.16,-1.13 1.76,-1.64 0.81,-0.73 1.76,-1.5 2.77,-2.26 1.1,-0.83 2.67,-0.61 3.5,0.49 0.83,1.1 0.61,2.67 -0.49,3.5 -0.9,0.68 -1.73,1.36 -2.48,2.03 -0.53,0.46 -1.04,0.93 -1.59,1.48 -0.3,0.28 -0.52,0.5 -0.73,0.73 -0.03,0.03 -0.06,0.07 -0.09,0.1 -0.23,0.24 -0.46,0.47 -0.67,0.71 -0.03,0.04 -0.06,0.07 -0.1,0.11 -0.24,0.25 -0.46,0.49 -0.67,0.74 -0.03,0.03 -0.06,0.07 -0.09,0.1 -0.23,0.25 -0.44,0.51 -0.64,0.76 -0.48,0.62 -1.21,0.94 -1.94,0.94 z"
   id="path1279" />
</g>
<g
   id="g1285"
   transform="translate(-87.37,-179.40307)">
	<path
   class="st2"
   d="m 100.13,244.61 c -0.44,0 -0.88,-0.11 -1.28,-0.36 -1.18,-0.71 -1.57,-2.24 -0.86,-3.43 0.23,-0.39 0.47,-0.76 0.74,-1.14 0.24,-0.37 0.49,-0.75 0.76,-1.11 0.25,-0.38 0.52,-0.75 0.8,-1.11 0.25,-0.36 0.53,-0.7 0.8,-1.05 0.85,-1.08 2.43,-1.27 3.51,-0.41 1.08,0.86 1.27,2.43 0.41,3.51 -0.23,0.29 -0.47,0.59 -0.68,0.89 -0.03,0.04 -0.05,0.07 -0.08,0.11 -0.23,0.29 -0.44,0.58 -0.64,0.89 -0.02,0.03 -0.04,0.07 -0.07,0.1 -0.22,0.3 -0.43,0.62 -0.63,0.93 -0.02,0.03 -0.04,0.07 -0.07,0.1 -0.2,0.29 -0.39,0.58 -0.57,0.87 -0.46,0.78 -1.29,1.21 -2.14,1.21 z"
   id="path1283" />
</g>
<g
   id="g1289"
   transform="translate(-87.37,-179.40307)">
	<path
   class="st2"
   d="m 98.74,246.95 c -0.4,0 -0.8,-0.09 -1.17,-0.29 -1.22,-0.65 -1.68,-2.16 -1.04,-3.38 0.2,-0.38 0.42,-0.76 0.65,-1.13 0.75,-1.16 2.29,-1.5 3.45,-0.75 1.16,0.75 1.5,2.29 0.75,3.45 -0.16,0.25 -0.31,0.51 -0.45,0.77 -0.43,0.85 -1.3,1.33 -2.19,1.33 z"
   id="path1287" />
</g>
<g
   id="g1293"
   transform="translate(-87.37,-179.40307)">
	<path
   class="st2"
   d="m 96.3,251.84 c -0.32,0 -0.64,-0.06 -0.96,-0.19 -1.28,-0.53 -1.88,-1.99 -1.35,-3.27 0.19,-0.46 0.4,-0.92 0.62,-1.37 0.62,-1.24 2.12,-1.74 3.35,-1.12 1.23,0.62 1.74,2.12 1.12,3.35 -0.17,0.35 -0.33,0.7 -0.48,1.05 -0.39,0.97 -1.32,1.55 -2.3,1.55 z"
   id="path1291" />
</g>
<g
   id="g1297"
   transform="translate(-87.37,-179.40307)">
	<path
   class="st2"
   d="m 94.71,255.78 c -0.28,0 -0.56,-0.05 -0.83,-0.14 -1.3,-0.46 -1.98,-1.89 -1.52,-3.19 0.17,-0.47 0.35,-0.95 0.53,-1.41 0.18,-0.47 0.37,-0.94 0.57,-1.4 0.56,-1.26 2.03,-1.84 3.3,-1.28 1.26,0.56 1.84,2.03 1.28,3.3 -0.17,0.39 -0.33,0.79 -0.48,1.19 -0.16,0.42 -0.32,0.85 -0.47,1.27 -0.39,1.02 -1.35,1.66 -2.38,1.66 z"
   id="path1295" />
</g>
<g
   id="g1301"
   transform="translate(-87.37,-179.40307)">
	<path
   class="st2"
   d="m 92.18,264.39 c -0.17,0 -0.35,-0.02 -0.53,-0.06 -1.35,-0.29 -2.21,-1.62 -1.92,-2.97 0.12,-0.55 0.25,-1.09 0.39,-1.62 0.35,-1.33 1.73,-2.13 3.06,-1.77 1.33,0.35 2.13,1.72 1.77,3.06 -0.12,0.45 -0.23,0.91 -0.33,1.38 -0.25,1.18 -1.28,1.98 -2.44,1.98 z"
   id="path1299" />
</g>
<g
   id="g1305"
   transform="translate(-87.37,-179.40307)">
	<path
   class="st2"
   d="m 91.25,269.04 c -0.12,0 -0.25,-0.01 -0.38,-0.03 -1.37,-0.21 -2.3,-1.48 -2.1,-2.84 0.08,-0.54 0.18,-1.07 0.28,-1.6 0.09,-0.52 0.19,-1.02 0.3,-1.5 0.31,-1.35 1.65,-2.19 2.99,-1.88 1.35,0.31 2.19,1.65 1.88,2.99 -0.09,0.4 -0.17,0.82 -0.25,1.23 -0.11,0.56 -0.2,1.03 -0.27,1.5 -0.17,1.24 -1.23,2.13 -2.45,2.13 z"
   id="path1303" />
</g>
<g
   id="g1309"
   transform="translate(-87.37,-179.40307)">
	<path
   class="st2"
   d="m 90.56,273.81 c -0.1,0 -0.2,-0.01 -0.3,-0.02 -1.37,-0.17 -2.35,-1.41 -2.18,-2.78 0.13,-1.1 0.28,-2.19 0.44,-3.24 0.21,-1.37 1.49,-2.29 2.85,-2.09 1.36,0.21 2.3,1.49 2.09,2.85 -0.16,1 -0.29,2.04 -0.42,3.08 -0.15,1.27 -1.23,2.2 -2.48,2.2 z"
   id="path1307" />
</g>
<g
   id="g1313"
   transform="translate(-87.37,-179.40307)">
	<path
   class="st2"
   d="m 90.03,280.22 c -0.04,0 -0.08,0 -0.12,0 -1.38,-0.07 -2.44,-1.24 -2.38,-2.62 0.02,-0.45 0.04,-0.88 0.07,-1.32 0.1,-1.38 1.28,-2.42 2.67,-2.31 1.38,0.1 2.41,1.3 2.31,2.67 -0.03,0.4 -0.05,0.79 -0.07,1.2 -0.05,1.34 -1.15,2.38 -2.48,2.38 z"
   id="path1311" />
</g>
<g
   id="g1317"
   transform="translate(-87.37,-179.40307)">
	<path
   class="st2"
   d="m 219.75,449.51 c -1.31,0 -2.41,-1.02 -2.49,-2.34 -0.09,-1.38 0.96,-2.57 2.33,-2.66 l 0.88,-0.06 c 1.39,-0.1 2.57,0.95 2.66,2.32 0.09,1.38 -0.95,2.57 -2.32,2.67 l -0.9,0.06 c -0.05,0.01 -0.11,0.01 -0.16,0.01 z"
   id="path1315" />
</g>
<g
   id="g1321"
   transform="translate(-87.37,-179.40307)">
	<path
   class="st2"
   d="m 221.66,449.35 c -1.28,0 -2.37,-0.97 -2.49,-2.27 -0.13,-1.38 0.88,-2.59 2.26,-2.72 0.39,-0.04 0.79,-0.08 1.18,-0.14 0.34,-0.04 0.6,-0.07 0.86,-0.12 1.36,-0.25 2.66,0.64 2.92,2 0.25,1.36 -0.64,2.66 -2,2.92 -0.35,0.07 -0.71,0.11 -1.06,0.16 -0.49,0.07 -0.95,0.12 -1.42,0.17 -0.1,0 -0.18,0 -0.25,0 z"
   id="path1319" />
</g>
<g
   id="g1325"
   transform="translate(-87.37,-179.40307)">
	<path
   class="st2"
   d="m 224.87,448.91 c -1.22,0 -2.29,-0.89 -2.47,-2.13 -0.2,-1.37 0.74,-2.64 2.1,-2.84 0.35,-0.05 0.69,-0.12 1.04,-0.19 l 1,4.9 c -0.43,0.09 -0.86,0.18 -1.3,0.24 -0.13,0.01 -0.25,0.02 -0.37,0.02 z"
   id="path1323" />
</g>
<g
   id="g1329"
   transform="translate(-87.37,-179.40307)">
	<path
   class="st2"
   d="m 234.96,445.92 c -0.98,0 -1.91,-0.58 -2.31,-1.54 -0.53,-1.27 0.07,-2.74 1.35,-3.27 0.21,-0.09 0.44,-0.19 0.65,-0.29 1.26,-0.57 2.74,-0.02 3.31,1.24 0.57,1.26 0.02,2.74 -1.24,3.31 -0.27,0.12 -0.54,0.24 -0.8,0.35 -0.31,0.14 -0.64,0.2 -0.96,0.2 z"
   id="path1327" />
</g>
<g
   id="g1333"
   transform="translate(-87.37,-179.40307)">
	<path
   class="st2"
   d="m 237.15,444.89 c -0.93,0 -1.83,-0.52 -2.26,-1.42 -0.6,-1.25 -0.07,-2.74 1.17,-3.33 0.19,-0.09 0.38,-0.19 0.56,-0.29 1.21,-0.66 2.73,-0.22 3.39,0.99 0.66,1.21 0.22,2.73 -0.99,3.39 -0.26,0.14 -0.53,0.28 -0.8,0.41 -0.34,0.17 -0.71,0.25 -1.07,0.25 z"
   id="path1331" />
</g>
<g
   id="g1337"
   transform="translate(-87.37,-179.40307)">
	<path
   class="st2"
   d="m 238.23,444.33 c -0.87,0 -1.72,-0.46 -2.18,-1.27 -0.68,-1.2 -0.25,-2.73 0.95,-3.41 l 0.29,-0.16 c 0.12,-0.06 0.23,-0.13 0.35,-0.2 1.19,-0.7 2.72,-0.31 3.42,0.88 0.7,1.19 0.31,2.72 -0.88,3.42 -0.16,0.09 -0.32,0.18 -0.49,0.28 l -0.24,0.13 c -0.38,0.23 -0.8,0.33 -1.22,0.33 z"
   id="path1335" />
</g>
<g
   id="g1341"
   transform="translate(-87.37,-179.40307)">
	<path
   class="st2"
   d="m 239.29,443.73 c -0.87,0 -1.72,-0.46 -2.18,-1.27 -0.68,-1.2 -0.25,-2.73 0.95,-3.41 0.42,-0.24 0.83,-0.5 1.24,-0.75 0.48,-0.3 0.93,-0.6 1.37,-0.91 0.44,-0.29 0.81,-0.56 1.18,-0.84 1.1,-0.83 2.67,-0.62 3.5,0.48 0.83,1.1 0.62,2.67 -0.48,3.5 -0.45,0.34 -0.9,0.67 -1.36,0.98 -0.46,0.33 -1,0.69 -1.54,1.03 -0.45,0.29 -0.94,0.59 -1.44,0.87 -0.4,0.22 -0.82,0.32 -1.24,0.32 z"
   id="path1339" />
</g>
<g
   id="g1345"
   transform="translate(-87.37,-179.40307)">
	<path
   class="st2"
   d="m 243.79,440.7 c -0.77,0 -1.53,-0.35 -2.02,-1.02 -0.82,-1.11 -0.58,-2.68 0.53,-3.5 0.34,-0.25 0.67,-0.52 1,-0.79 1.06,-0.88 2.63,-0.75 3.52,0.31 0.89,1.06 0.75,2.64 -0.31,3.52 -0.41,0.34 -0.82,0.67 -1.24,0.99 -0.45,0.33 -0.96,0.49 -1.48,0.49 z"
   id="path1343" />
</g>
<g
   id="g1349"
   transform="translate(-87.37,-179.40307)">
	<path
   class="st2"
   d="m 244.96,439.77 c -0.72,0 -1.43,-0.31 -1.92,-0.9 -0.88,-1.06 -0.74,-2.64 0.32,-3.52 0.34,-0.28 0.68,-0.58 1.01,-0.87 1.03,-0.92 2.61,-0.82 3.53,0.21 0.91,1.03 0.82,2.61 -0.21,3.53 -0.37,0.33 -0.75,0.65 -1.12,0.97 -0.48,0.39 -1.04,0.58 -1.61,0.58 z"
   id="path1347" />
</g>
<g
   id="g1353"
   transform="translate(-87.37,-179.40307)">
	<path
   class="st2"
   d="m 246.19,438.71 c -0.69,0 -1.37,-0.28 -1.86,-0.83 -0.92,-1.03 -0.84,-2.6 0.19,-3.53 0.19,-0.17 0.36,-0.32 0.53,-0.49 1,-0.95 2.59,-0.9 3.53,0.1 0.95,1 0.9,2.59 -0.1,3.53 -0.2,0.19 -0.4,0.37 -0.62,0.56 -0.47,0.44 -1.07,0.66 -1.67,0.66 z"
   id="path1351" />
</g>
<g
   id="g1357"
   transform="translate(-87.37,-179.40307)">
	<path
   class="st2"
   d="m 248.3,436.68 c -0.65,0 -1.3,-0.25 -1.79,-0.75 -0.96,-0.99 -0.95,-2.57 0.04,-3.54 0.37,-0.36 0.72,-0.75 1.06,-1.13 0.92,-1.03 2.51,-1.11 3.53,-0.18 1.02,0.93 1.1,2.51 0.18,3.53 -0.41,0.46 -0.83,0.92 -1.28,1.35 -0.48,0.49 -1.11,0.72 -1.74,0.72 z"
   id="path1355" />
</g>
<g
   id="g1361"
   transform="translate(-87.37,-179.40307)">
	<path
   class="st2"
   d="m 249.82,435.05 c -0.61,0 -1.21,-0.22 -1.69,-0.66 -1.02,-0.94 -1.08,-2.52 -0.14,-3.53 0.2,-0.22 0.39,-0.44 0.57,-0.66 0.89,-1.06 2.47,-1.19 3.52,-0.31 1.06,0.89 1.2,2.46 0.31,3.52 -0.23,0.28 -0.47,0.56 -0.73,0.84 -0.49,0.53 -1.17,0.8 -1.84,0.8 z"
   id="path1359" />
</g>
<g
   id="g1365"
   transform="translate(-87.37,-179.40307)">
	<path
   class="st2"
   d="m 252.24,432.09 c -0.53,0 -1.06,-0.17 -1.52,-0.51 -1.1,-0.84 -1.31,-2.41 -0.47,-3.5 0.1,-0.13 0.21,-0.27 0.31,-0.42 0.34,-0.47 0.64,-0.89 0.92,-1.32 0.78,-1.14 2.33,-1.43 3.47,-0.65 1.14,0.78 1.43,2.33 0.65,3.47 -0.31,0.46 -0.63,0.91 -0.95,1.36 -0.18,0.25 -0.31,0.42 -0.43,0.59 -0.49,0.64 -1.23,0.98 -1.98,0.98 z"
   id="path1363" />
</g>
<g
   id="g1369"
   transform="translate(-87.37,-179.40307)">
	<path
   class="st2"
   d="m 255.21,427.65 c -0.43,0 -0.86,-0.11 -1.25,-0.34 -1.2,-0.69 -1.6,-2.22 -0.91,-3.42 l 0.2,-0.34 c 0.11,-0.18 0.21,-0.36 0.31,-0.54 0.67,-1.21 2.19,-1.65 3.39,-0.99 1.21,0.66 1.65,2.18 0.99,3.39 -0.12,0.22 -0.26,0.45 -0.39,0.67 l -0.18,0.3 c -0.46,0.83 -1.3,1.27 -2.16,1.27 z"
   id="path1367" />
</g>
<g
   id="g1373"
   transform="translate(-87.37,-179.40307)">
	<path
   class="st2"
   d="m 256.41,425.53 c -0.4,0 -0.8,-0.09 -1.17,-0.29 -1.22,-0.65 -1.68,-2.16 -1.03,-3.38 l 0.08,-0.14 c 0.14,-0.27 0.29,-0.54 0.42,-0.82 0.6,-1.24 2.1,-1.76 3.34,-1.16 1.24,0.6 1.76,2.1 1.16,3.34 -0.16,0.33 -0.33,0.66 -0.51,0.98 l -0.08,0.14 c -0.45,0.85 -1.32,1.33 -2.21,1.33 z"
   id="path1371" />
</g>
<g
   id="g1377"
   transform="translate(-87.37,-179.40307)">
	<path
   class="st2"
   d="m 257.1,424.19 c -0.39,0 -0.79,-0.09 -1.16,-0.29 -1.22,-0.64 -1.69,-2.15 -1.05,-3.38 0.17,-0.32 0.34,-0.66 0.49,-0.99 0.58,-1.25 2.06,-1.8 3.32,-1.23 1.25,0.58 1.8,2.06 1.23,3.32 -0.19,0.41 -0.4,0.83 -0.61,1.23 -0.45,0.86 -1.32,1.34 -2.22,1.34 z"
   id="path1375" />
</g>
<g
   id="g1381"
   transform="translate(-87.37,-179.40307)">
	<path
   class="st2"
   d="m 258.24,421.81 c -0.34,0 -0.68,-0.07 -1.01,-0.21 -1.26,-0.56 -1.83,-2.03 -1.28,-3.3 0.18,-0.42 0.37,-0.83 0.54,-1.25 0.15,-0.36 0.29,-0.68 0.42,-1.01 0.21,-0.53 0.39,-1.01 0.58,-1.49 l 2.37,0.79 2.3,0.98 c -0.2,0.52 -0.39,1.04 -0.6,1.54 -0.13,0.35 -0.29,0.75 -0.47,1.15 -0.18,0.42 -0.37,0.86 -0.57,1.31 -0.41,0.94 -1.32,1.49 -2.28,1.49 z"
   id="path1379" />
</g>
<g
   id="g1385"
   transform="translate(-87.37,-179.40307)">
	<path
   class="st2"
   d="m 260.42,416.27 c -0.26,0 -0.53,-0.04 -0.79,-0.13 -1.31,-0.43 -2.02,-1.85 -1.58,-3.16 l 0.29,-0.89 c 0.43,-1.31 1.84,-2.03 3.15,-1.61 1.31,0.43 2.03,1.84 1.61,3.15 l -0.31,0.93 c -0.35,1.05 -1.32,1.71 -2.37,1.71 z"
   id="path1383" />
</g>
<g
   id="g1389"
   transform="translate(-87.37,-179.40307)">
	<path
   class="st2"
   d="m 261.71,412.07 c -0.21,0 -0.43,-0.03 -0.64,-0.08 -1.33,-0.35 -2.13,-1.72 -1.78,-3.06 l 0.03,-0.1 c 0.11,-0.4 0.21,-0.8 0.31,-1.2 0.32,-1.34 1.67,-2.17 3.01,-1.85 1.34,0.32 2.17,1.67 1.85,3.01 -0.11,0.45 -0.22,0.88 -0.34,1.32 l -0.03,0.1 c -0.29,1.12 -1.3,1.86 -2.41,1.86 z"
   id="path1387" />
</g>
<g
   id="g1393"
   transform="translate(-87.37,-179.40307)">
	<path
   class="st2"
   d="m 262.78,407.63 c -0.17,0 -0.34,-0.02 -0.52,-0.05 -1.35,-0.29 -2.22,-1.61 -1.93,-2.96 l 0.24,-1.14 c 0.1,-0.52 0.2,-1.06 0.3,-1.61 0.11,-0.59 0.2,-1.18 0.29,-1.76 0.2,-1.37 1.46,-2.31 2.84,-2.1 1.37,0.2 2.31,1.48 2.1,2.84 -0.09,0.64 -0.2,1.28 -0.31,1.9 -0.1,0.57 -0.2,1.15 -0.32,1.72 l -0.25,1.17 c -0.24,1.18 -1.28,1.99 -2.44,1.99 z"
   id="path1391" />
</g>
<g
   id="g1397"
   transform="translate(-87.37,-179.40307)">
	<path
   class="st2"
   d="m 263.65,402.86 c -0.12,0 -0.24,-0.01 -0.35,-0.02 -1.37,-0.19 -2.32,-1.46 -2.12,-2.83 l 0.06,-0.39 c 0.03,-0.19 0.06,-0.39 0.08,-0.59 0,-0.04 0.01,-0.08 0.01,-0.11 0.08,-0.54 0.15,-1.09 0.22,-1.64 0.16,-1.37 1.41,-2.35 2.78,-2.19 1.37,0.16 2.35,1.41 2.19,2.78 -0.07,0.59 -0.14,1.19 -0.23,1.77 -0.03,0.25 -0.07,0.49 -0.1,0.74 l -0.05,0.33 c -0.19,1.25 -1.26,2.15 -2.49,2.15 z"
   id="path1395" />
</g>
<g
   id="g1401"
   transform="translate(-87.37,-179.40307)">
	<path
   class="st2"
   d="m 264.04,400.01 c -0.11,0 -0.21,-0.01 -0.32,-0.02 -1.37,-0.17 -2.34,-1.43 -2.16,-2.8 0.09,-0.68 0.16,-1.38 0.23,-2.07 0.13,-1.37 1.35,-2.38 2.73,-2.25 1.38,0.13 2.38,1.35 2.25,2.73 -0.07,0.75 -0.15,1.49 -0.25,2.23 -0.16,1.26 -1.24,2.18 -2.48,2.18 z"
   id="path1399" />
</g>
<g
   id="g1405"
   transform="translate(-87.37,-179.40307)">
	<path
   class="st2"
   d="m 264.44,396.04 c -0.07,0 -0.13,0 -0.2,-0.01 -1.38,-0.11 -2.4,-1.32 -2.29,-2.69 0.04,-0.48 0.08,-0.97 0.11,-1.46 0.08,-1.38 1.25,-2.44 2.64,-2.35 1.38,0.08 2.43,1.27 2.35,2.64 -0.03,0.53 -0.07,1.04 -0.11,1.56 -0.11,1.32 -1.21,2.31 -2.5,2.31 z"
   id="path1403" />
</g>
<g
   id="g1409"
   transform="translate(-87.37,-179.40307)">
	<path
   class="st2"
   d="m 103.05,240.46 c -1.38,0 -2.5,-1.11 -2.5,-2.5 0,-1.39 1.12,-2.51 2.5,-2.51 1.38,0 2.5,1.12 2.5,2.5 0,1.38 -1.12,2.51 -2.5,2.51 z"
   id="path1407" />
</g>
<g
   id="g1413"
   transform="translate(-87.37,-179.40307)">
	<path
   class="st2"
   d="m 177.33,336.68 c -0.76,0 -1.5,-0.35 -1.98,-0.97 l -74.27,-96.22 c -0.84,-1.09 -0.64,-2.66 0.45,-3.51 1.09,-0.84 2.66,-0.64 3.51,0.45 l 70.92,91.89 16.82,-83.17 c 0.27,-1.35 1.6,-2.23 2.95,-1.96 1.35,0.27 2.23,1.59 1.96,2.95 l -17.9,88.53 c -0.19,0.96 -0.93,1.72 -1.88,1.94 -0.2,0.05 -0.39,0.07 -0.58,0.07 z"
   id="path1411" />
</g>
<g
   id="g1417"
   transform="translate(-87.37,-179.40307)">
	<path
   class="st2"
   d="m 177.33,336.68 c -1.22,0 -2.29,-0.9 -2.47,-2.14 L 159.29,226.16 c -0.2,-1.37 0.75,-2.63 2.12,-2.83 1.36,-0.2 2.63,0.75 2.83,2.12 l 15.57,108.38 c 0.2,1.37 -0.75,2.63 -2.12,2.83 -0.13,0.01 -0.25,0.02 -0.36,0.02 z"
   id="path1415" />
</g>
<g
   id="g1421"
   transform="translate(-87.37,-179.40307)">
	<path
   class="st2"
   d="m 237.83,444.54 c -0.91,0 -1.79,-0.5 -2.23,-1.36 -0.63,-1.23 -0.14,-2.74 1.09,-3.36 0.33,-0.17 0.66,-0.35 0.98,-0.53 l 0.36,-0.21 c 0.38,-0.22 0.73,-0.43 1.07,-0.65 l 0.21,-0.13 c 0.46,-0.29 0.91,-0.59 1.35,-0.9 0.41,-0.29 0.8,-0.56 1.18,-0.84 0.13,-0.09 0.23,-0.16 0.32,-0.24 0.04,-0.03 0.08,-0.06 0.12,-0.09 0.35,-0.26 0.68,-0.54 1.02,-0.81 0.02,-0.02 0.04,-0.03 0.06,-0.05 0.34,-0.29 0.69,-0.58 1.02,-0.88 0.03,-0.03 0.06,-0.05 0.09,-0.08 0.05,-0.05 0.06,-0.05 0.11,-0.1 0.16,-0.13 0.31,-0.28 0.46,-0.42 0.54,-0.5 1.01,-0.96 1.47,-1.44 0.42,-0.41 0.77,-0.79 1.1,-1.16 0.04,-0.04 0.07,-0.08 0.11,-0.11 0.07,-0.08 0.14,-0.15 0.2,-0.23 0.02,-0.03 0.05,-0.06 0.08,-0.09 0.18,-0.2 0.37,-0.41 0.54,-0.63 0.61,-0.72 1.17,-1.41 1.71,-2.14 0.12,-0.15 0.22,-0.3 0.32,-0.44 l 2.1,1.37 -2.03,-1.46 c 0.28,-0.39 0.57,-0.79 0.84,-1.2 0.53,-0.77 1.05,-1.58 1.59,-2.49 0.18,-0.29 0.33,-0.55 0.48,-0.82 0.02,-0.03 0.04,-0.06 0.05,-0.1 0.21,-0.35 0.41,-0.72 0.6,-1.08 0.2,-0.36 0.36,-0.67 0.51,-0.97 0.03,-0.07 0.07,-0.14 0.11,-0.21 0.04,-0.09 0.04,-0.11 0.09,-0.19 0.17,-0.32 0.33,-0.64 0.48,-0.96 0.23,-0.46 0.4,-0.84 0.58,-1.24 0.2,-0.43 0.36,-0.81 0.52,-1.19 0.01,-0.02 0.04,-0.09 0.05,-0.11 0.14,-0.32 0.27,-0.64 0.39,-0.97 0.01,-0.03 0.02,-0.06 0.04,-0.09 0.2,-0.47 0.38,-0.96 0.56,-1.44 0.19,-0.52 0.37,-1.02 0.55,-1.54 0.11,-0.3 0.19,-0.54 0.26,-0.8 0.38,-1.17 0.69,-2.21 0.98,-3.26 l 0.02,-0.07 c 0.11,-0.4 0.21,-0.8 0.31,-1.2 0.27,-1.06 0.5,-2.03 0.7,-3.01 0.07,-0.31 0.12,-0.55 0.17,-0.8 l 0.07,-0.34 c 0.1,-0.52 0.2,-1.06 0.3,-1.61 0.11,-0.59 0.2,-1.18 0.29,-1.76 0,-0.03 0.01,-0.06 0.02,-0.09 0,-0.03 0.01,-0.06 0.01,-0.08 0.05,-0.3 0.1,-0.61 0.13,-0.91 0,-0.04 0.01,-0.07 0.01,-0.1 0.08,-0.54 0.15,-1.09 0.22,-1.64 0,-0.03 0.01,-0.05 0.01,-0.08 0.09,-0.69 0.17,-1.38 0.23,-2.08 0.06,-0.6 0.11,-1.19 0.16,-1.79 0.04,-0.48 0.08,-0.96 0.11,-1.46 0.11,-1.57 0.18,-3.16 0.21,-4.76 0.02,-0.81 0.03,-1.62 0.03,-2.44 0,-0.85 -0.01,-1.7 -0.03,-2.56 -0.01,-0.64 -0.03,-1.28 -0.06,-1.91 -0.01,-0.47 -0.03,-0.87 -0.06,-1.29 -0.03,-0.69 -0.06,-1.33 -0.11,-1.97 -0.04,-0.77 -0.1,-1.49 -0.16,-2.21 -0.03,-0.41 -0.06,-0.8 -0.1,-1.2 -0.01,-0.15 -0.02,-0.23 -0.03,-0.31 0,-0.04 -0.02,-0.15 -0.02,-0.19 -0.05,-0.58 -0.11,-1.17 -0.17,-1.76 -0.08,-0.75 -0.16,-1.49 -0.25,-2.22 -0.11,-0.88 -0.21,-1.73 -0.34,-2.57 -0.01,-0.05 -0.02,-0.09 -0.02,-0.14 -0.12,-0.88 -0.25,-1.75 -0.4,-2.63 -0.12,-0.79 -0.25,-1.55 -0.39,-2.32 l -0.12,-0.65 c -0.11,-0.65 -0.23,-1.27 -0.35,-1.89 -0.1,-0.52 -0.2,-1.04 -0.31,-1.56 -0.29,-1.45 -0.61,-2.89 -0.97,-4.46 -0.17,-0.77 -0.36,-1.51 -0.55,-2.26 l -0.08,-0.33 c -0.22,-0.9 -0.45,-1.8 -0.69,-2.68 -0.24,-0.91 -0.48,-1.81 -0.75,-2.69 -0.21,-0.74 -0.41,-1.46 -0.63,-2.17 -0.15,-0.5 -0.3,-1 -0.46,-1.5 -0.18,-0.6 -0.35,-1.14 -0.52,-1.68 0,0 -0.03,-0.1 -0.03,-0.1 -0.58,-1.81 -1.18,-3.63 -1.81,-5.4 -0.08,-0.23 -0.13,-0.38 -0.19,-0.54 -0.85,-2.39 -1.75,-4.76 -2.68,-7.07 l -0.4,-1 c -0.29,-0.74 -0.59,-1.44 -0.89,-2.14 l -0.14,-0.33 c -0.33,-0.78 -0.66,-1.56 -1,-2.33 -0.39,-0.91 -0.79,-1.79 -1.19,-2.67 -0.4,-0.91 -0.8,-1.77 -1.22,-2.64 -0.76,-1.64 -1.59,-3.35 -2.48,-5.1 l -0.1,-0.18 c -0.43,-0.86 -0.87,-1.71 -1.32,-2.56 -0.45,-0.88 -0.89,-1.7 -1.34,-2.52 l -0.05,-0.1 c -0.46,-0.85 -0.92,-1.71 -1.4,-2.55 -0.48,-0.87 -0.97,-1.71 -1.46,-2.56 -0.49,-0.86 -0.98,-1.7 -1.48,-2.53 l -0.09,-0.15 c -0.47,-0.79 -0.95,-1.58 -1.43,-2.36 -0.85,-1.4 -1.77,-2.85 -2.8,-4.44 -1.49,-2.29 -3.04,-4.58 -4.6,-6.79 l -0.21,-0.29 c -0.32,-0.45 -0.63,-0.89 -0.95,-1.33 -1.44,-2.01 -2.97,-4.05 -4.55,-6.07 -0.36,-0.46 -0.71,-0.91 -1.07,-1.35 L 219,273.35 c -0.29,-0.36 -0.58,-0.73 -0.88,-1.09 l -0.53,-0.65 c -0.46,-0.55 -0.93,-1.12 -1.42,-1.69 -0.53,-0.63 -1.07,-1.27 -1.61,-1.89 -0.53,-0.61 -1.05,-1.2 -1.57,-1.79 l -0.08,-0.09 c -1.57,-1.78 -3.26,-3.61 -5.04,-5.44 -0.57,-0.6 -1.13,-1.18 -1.71,-1.75 -1.2,-1.21 -2.37,-2.35 -3.48,-3.42 l -0.12,-0.11 c -0.55,-0.52 -1.09,-1.04 -1.64,-1.54 -0.6,-0.56 -1.2,-1.1 -1.79,-1.63 -1.82,-1.63 -3.65,-3.2 -5.43,-4.65 -0.02,-0.02 -0.04,-0.04 -0.07,-0.06 -0.69,-0.57 -1.39,-1.12 -2.08,-1.67 -0.72,-0.57 -1.43,-1.12 -2.16,-1.67 -0.72,-0.54 -1.45,-1.08 -2.18,-1.61 -0.72,-0.53 -1.45,-1.05 -2.18,-1.55 -2.88,-2.01 -5.88,-3.92 -8.91,-5.67 -2.98,-1.72 -5.97,-3.27 -8.88,-4.6 -0.83,-0.38 -1.66,-0.74 -2.49,-1.09 -0.05,-0.02 -0.09,-0.04 -0.14,-0.06 -1.15,-0.48 -2.34,-0.96 -3.54,-1.41 -0.05,-0.02 -0.1,-0.03 -0.15,-0.05 -0.35,-0.13 -0.69,-0.26 -1.05,-0.38 -0.4,-0.15 -0.79,-0.28 -1.17,-0.41 l -0.85,-0.28 c -0.22,-0.08 -0.39,-0.13 -0.55,-0.18 l -0.11,-0.03 c -0.64,-0.2 -1.24,-0.39 -1.84,-0.56 l -0.12,-0.04 c -0.14,-0.04 -0.27,-0.08 -0.41,-0.11 -7.74,-2.17 -15.08,-2.87 -21.9,-2.11 -0.04,0 -0.08,0.01 -0.12,0.01 -0.03,0 -0.05,0 -0.08,0.01 -0.39,0.05 -0.78,0.1 -1.17,0.15 -4.73,0.67 -9.2,2.08 -13.26,4.19 -0.63,0.33 -1.26,0.68 -1.89,1.05 -1.19,0.71 -2.39,1.5 -3.53,2.36 -0.02,0.01 -0.04,0.03 -0.06,0.04 -0.83,0.63 -1.65,1.31 -2.45,2.01 -0.52,0.46 -1.06,0.97 -1.58,1.48 -0.26,0.25 -0.5,0.5 -0.74,0.75 -0.29,0.29 -0.53,0.55 -0.77,0.82 -0.28,0.3 -0.52,0.57 -0.76,0.85 -0.24,0.28 -0.49,0.58 -0.73,0.87 l -0.72,0.9 c -0.87,1.07 -2.44,1.24 -3.52,0.38 -1.07,-0.87 -1.24,-2.44 -0.38,-3.52 l 0.75,-0.93 c 0.28,-0.34 0.55,-0.66 0.81,-0.96 0.28,-0.33 0.56,-0.64 0.85,-0.95 0.25,-0.28 0.54,-0.58 0.83,-0.88 0.32,-0.33 0.6,-0.62 0.89,-0.9 0.56,-0.55 1.16,-1.11 1.76,-1.64 0.92,-0.81 1.85,-1.57 2.79,-2.28 0.05,-0.04 0.09,-0.07 0.14,-0.1 1.26,-0.93 2.57,-1.8 3.9,-2.59 0.72,-0.41 1.41,-0.8 2.11,-1.17 4.57,-2.37 9.58,-3.96 14.87,-4.71 0.46,-0.06 0.92,-0.13 1.36,-0.18 0.05,-0.01 0.1,-0.01 0.15,-0.01 0.02,0 0.04,0 0.06,0 7.44,-0.82 15.4,-0.06 23.67,2.25 0.12,0.03 0.32,0.09 0.52,0.14 l 0.11,0.03 c 0.65,0.18 1.29,0.38 1.94,0.59 l 0.07,0.02 c 0.23,0.07 0.47,0.14 0.7,0.22 l 0.79,0.26 c 0.49,0.17 0.9,0.31 1.31,0.45 0.34,0.12 0.69,0.25 1.05,0.38 0.14,0.04 0.27,0.09 0.4,0.14 1.26,0.47 2.5,0.97 3.7,1.48 0.05,0.02 0.1,0.04 0.15,0.07 0.83,0.35 1.65,0.71 2.48,1.09 3.05,1.4 6.18,3.02 9.29,4.82 3.15,1.82 6.27,3.81 9.26,5.9 0.76,0.53 1.52,1.07 2.27,1.62 0.75,0.55 1.5,1.1 2.24,1.66 0.76,0.57 1.5,1.15 2.25,1.74 0.7,0.56 1.41,1.12 2.12,1.7 0.07,0.05 0.13,0.1 0.2,0.16 1.8,1.47 3.65,3.06 5.5,4.72 0.62,0.55 1.24,1.12 1.85,1.68 0.55,0.51 1.12,1.04 1.69,1.58 l 0.12,0.11 c 1.15,1.1 2.36,2.28 3.59,3.51 0.6,0.6 1.19,1.2 1.78,1.82 1.81,1.87 3.56,3.76 5.17,5.59 l 0.08,0.08 c 0.54,0.61 1.08,1.22 1.62,1.84 0.55,0.63 1.11,1.29 1.65,1.94 0.5,0.59 0.98,1.16 1.47,1.75 l 0.53,0.65 c 0.3,0.36 0.61,0.74 0.91,1.13 l 0.88,1.1 c 0.37,0.46 0.73,0.92 1.1,1.39 1.62,2.08 3.19,4.17 4.67,6.23 0.32,0.44 0.64,0.9 0.97,1.36 l 0.21,0.29 c 1.6,2.27 3.19,4.61 4.72,6.95 1.06,1.64 2,3.12 2.87,4.55 0.49,0.79 0.97,1.59 1.46,2.4 l 0.09,0.16 c 0.52,0.87 1.03,1.73 1.53,2.61 0.5,0.85 0.99,1.73 1.48,2.6 0.49,0.86 0.97,1.74 1.45,2.63 l 0.05,0.09 c 0.46,0.85 0.92,1.71 1.37,2.57 0.46,0.84 0.92,1.75 1.37,2.65 l 0.1,0.18 c 0.9,1.78 1.75,3.53 2.52,5.19 0.43,0.88 0.85,1.79 1.26,2.72 0.4,0.88 0.81,1.79 1.21,2.71 0.35,0.77 0.69,1.59 1.04,2.41 l 0.13,0.32 c 0.31,0.73 0.62,1.47 0.92,2.22 l 0.4,0.99 c 0.96,2.39 1.88,4.82 2.74,7.24 0.07,0.2 0.16,0.43 0.23,0.65 0.62,1.74 1.25,3.61 1.84,5.48 0.21,0.66 0.4,1.24 0.57,1.81 0.15,0.47 0.32,1.01 0.48,1.55 0.22,0.73 0.44,1.48 0.64,2.22 0.27,0.89 0.52,1.84 0.77,2.77 0.25,0.91 0.5,1.86 0.72,2.79 l 0.08,0.31 c 0.2,0.79 0.39,1.57 0.57,2.36 0.38,1.6 0.7,3.1 0.99,4.55 0.12,0.52 0.23,1.1 0.34,1.66 0.12,0.63 0.24,1.28 0.35,1.92 l 0.13,0.68 c 0.14,0.8 0.28,1.6 0.4,2.4 0.14,0.87 0.29,1.78 0.41,2.69 0.01,0.03 0.01,0.06 0.01,0.08 0.13,0.9 0.25,1.81 0.36,2.72 0.1,0.76 0.18,1.54 0.26,2.31 0.07,0.63 0.13,1.27 0.19,1.9 0.02,0.16 0.04,0.33 0.05,0.5 0.04,0.37 0.07,0.8 0.1,1.23 0.06,0.75 0.12,1.51 0.16,2.27 0.05,0.64 0.08,1.33 0.11,2.01 0.03,0.43 0.05,0.91 0.06,1.4 0.03,0.62 0.05,1.31 0.06,1.98 0.02,0.88 0.03,1.77 0.03,2.66 0,0.86 -0.01,1.71 -0.03,2.55 -0.03,1.66 -0.1,3.34 -0.21,4.97 -0.03,0.5 -0.07,1.02 -0.11,1.54 -0.05,0.63 -0.1,1.26 -0.17,1.87 -0.07,0.74 -0.15,1.48 -0.25,2.22 0,0.02 -0.01,0.04 -0.01,0.07 -0.07,0.59 -0.14,1.17 -0.23,1.75 -0.04,0.34 -0.09,0.69 -0.15,1.03 -0.01,0.1 -0.03,0.18 -0.04,0.26 -0.09,0.61 -0.19,1.22 -0.3,1.81 -0.1,0.57 -0.2,1.15 -0.32,1.72 l -0.07,0.33 c -0.06,0.3 -0.12,0.6 -0.19,0.9 -0.21,0.99 -0.45,2.03 -0.73,3.13 -0.1,0.41 -0.21,0.84 -0.33,1.28 l -0.03,0.1 c -0.32,1.15 -0.65,2.25 -1.03,3.42 -0.08,0.29 -0.2,0.64 -0.33,1 -0.17,0.5 -0.37,1.04 -0.56,1.57 -0.19,0.54 -0.41,1.1 -0.64,1.65 -0.15,0.4 -0.31,0.8 -0.49,1.19 -0.19,0.45 -0.37,0.89 -0.58,1.33 -0.18,0.42 -0.39,0.88 -0.62,1.33 -0.14,0.32 -0.33,0.69 -0.53,1.08 -0.06,0.13 -0.12,0.26 -0.2,0.39 -0.18,0.36 -0.37,0.73 -0.57,1.08 -0.19,0.36 -0.42,0.78 -0.66,1.19 -0.19,0.34 -0.38,0.67 -0.59,1.01 -0.59,0.99 -1.16,1.89 -1.74,2.72 -0.29,0.43 -0.6,0.87 -0.92,1.31 0,0 -0.08,0.11 -0.08,0.11 -0.13,0.17 -0.25,0.35 -0.38,0.51 -0.59,0.79 -1.22,1.58 -1.86,2.32 -0.18,0.23 -0.42,0.5 -0.67,0.77 -0.13,0.15 -0.25,0.3 -0.4,0.45 -0.44,0.5 -0.85,0.93 -1.25,1.32 -0.47,0.49 -1.02,1.03 -1.58,1.55 -0.2,0.19 -0.4,0.37 -0.6,0.55 -0.07,0.07 -0.15,0.13 -0.22,0.19 -0.36,0.32 -0.72,0.63 -1.09,0.94 -0.03,0.02 -0.05,0.04 -0.08,0.07 -0.4,0.32 -0.76,0.61 -1.12,0.89 -0.17,0.14 -0.35,0.28 -0.53,0.41 -0.41,0.31 -0.85,0.62 -1.3,0.93 -0.5,0.35 -1.03,0.71 -1.57,1.05 l -0.2,0.13 c -0.41,0.26 -0.81,0.51 -1.23,0.75 l -0.06,0.04 c -0.12,0.07 -0.24,0.14 -0.35,0.2 -0.33,0.19 -0.73,0.41 -1.13,0.62 -0.43,0.15 -0.81,0.24 -1.2,0.24 z m 5.43,-9.1 z m 0.49,-0.34 c -0.14,0.08 -0.26,0.16 -0.36,0.23 0.12,-0.09 0.25,-0.17 0.36,-0.23 z m 17.4,-34.74 c 0,0 0,0 0,0 0,0 0,0 0,0 z"
   id="path1419" />
</g>
<g
   id="g1425"
   transform="translate(-87.37,-179.40307)">
	<path
   class="st2"
   d="m 216.44,449.62 c -12.51,0 -26.38,-4.21 -40.36,-12.28 -48.92,-28.25 -88.71,-97.17 -88.71,-153.65 0,-2.12 0.06,-4.17 0.16,-6.1 v -0.08 c 0.02,-0.41 0.04,-0.81 0.07,-1.22 0.11,-1.68 0.26,-3.4 0.47,-5.25 0.14,-1.12 0.28,-2.19 0.44,-3.26 0.08,-0.56 0.17,-1.13 0.27,-1.69 0.09,-0.51 0.18,-1.04 0.28,-1.58 l 0.27,-1.37 c 0.14,-0.67 0.26,-1.26 0.4,-1.84 0.1,-0.47 0.23,-1 0.37,-1.53 0.64,-2.56 1.4,-5.04 2.24,-7.34 0.13,-0.36 0.27,-0.75 0.42,-1.13 l 0.09,-0.23 c 0.18,-0.47 0.37,-0.93 0.56,-1.38 0.19,-0.45 0.39,-0.92 0.59,-1.37 0.18,-0.41 0.37,-0.83 0.57,-1.25 0.62,-1.33 1.28,-2.62 1.97,-3.84 0.2,-0.36 0.39,-0.69 0.59,-1.02 0.25,-0.44 0.55,-0.93 0.86,-1.42 0.15,-0.24 0.31,-0.48 0.47,-0.72 l 0.22,-0.34 c 0.18,-0.28 0.37,-0.55 0.56,-0.82 l 0.21,-0.3 c 0.27,-0.39 0.54,-0.75 0.81,-1.12 0.24,-0.32 0.48,-0.64 0.73,-0.96 0.45,-0.64 1.2,-1.06 2.04,-1.06 1.39,0 2.51,1.12 2.51,2.5 0,0.64 -0.24,1.22 -0.63,1.66 -0.21,0.27 -0.42,0.55 -0.63,0.83 -0.25,0.34 -0.49,0.66 -0.72,1 l -0.21,0.31 c -0.16,0.23 -0.32,0.45 -0.47,0.69 l -0.24,0.37 c -0.14,0.21 -0.28,0.42 -0.41,0.63 -0.28,0.44 -0.54,0.87 -0.79,1.31 -0.2,0.33 -0.36,0.62 -0.52,0.9 -0.64,1.13 -1.25,2.31 -1.81,3.53 -0.19,0.4 -0.36,0.78 -0.53,1.16 -0.19,0.42 -0.37,0.83 -0.54,1.25 -0.18,0.42 -0.35,0.83 -0.51,1.25 l -0.08,0.22 c -0.13,0.35 -0.27,0.7 -0.39,1.05 -0.8,2.17 -1.5,4.48 -2.1,6.88 -0.13,0.49 -0.24,0.96 -0.34,1.43 -0.14,0.58 -0.25,1.11 -0.36,1.63 l -0.28,1.39 c -0.1,0.5 -0.18,1 -0.27,1.51 -0.1,0.54 -0.18,1.05 -0.25,1.56 -0.16,1.03 -0.29,2.05 -0.42,3.09 -0.2,1.75 -0.34,3.39 -0.45,5.01 -0.03,0.39 -0.05,0.76 -0.06,1.12 v 0.1 c -0.1,1.86 -0.16,3.81 -0.16,5.84 0,54.89 38.67,121.88 86.21,149.32 14.43,8.33 28.6,12.31 41.01,11.51 l 0.88,-0.06 c 0.33,-0.03 0.62,-0.05 0.9,-0.09 0.46,-0.04 0.85,-0.09 1.24,-0.14 0.32,-0.04 0.59,-0.07 0.86,-0.12 0.05,-0.01 0.1,-0.02 0.15,-0.02 0.26,-0.03 0.53,-0.07 0.78,-0.12 0.04,-0.01 0.07,-0.01 0.11,-0.02 0.35,-0.05 0.69,-0.12 1.04,-0.19 2.93,-0.57 5.76,-1.45 8.42,-2.61 0.25,-0.11 0.48,-0.21 0.69,-0.3 0.47,-0.22 0.91,-0.43 1.34,-0.65 l 0.46,-0.23 c 1.24,-0.62 2.74,-0.11 3.35,1.13 0.61,1.24 0.11,2.74 -1.13,3.35 l -0.41,0.2 c -0.46,0.24 -0.96,0.48 -1.47,0.71 -0.35,0.16 -0.62,0.28 -0.89,0.39 -2.96,1.29 -6.13,2.28 -9.39,2.92 -0.4,0.08 -0.81,0.17 -1.24,0.23 -0.33,0.06 -0.66,0.12 -0.99,0.16 -0.35,0.06 -0.69,0.11 -1.05,0.15 -0.42,0.06 -0.89,0.11 -1.36,0.16 -0.27,0.03 -0.61,0.06 -0.94,0.09 -0.02,0 -0.12,0.01 -0.13,0.01 l -0.91,0.06 c -1.13,0.05 -2.29,0.09 -3.46,0.09 z"
   id="path1423" />
</g>
<g
   id="g1429"
   transform="translate(-87.37,-179.40307)">
	<path
   class="st2"
   d="m 190.33,190.6 c -0.8,0 -1.59,-0.38 -2.07,-1.09 -0.77,-1.14 -0.49,-2.69 0.65,-3.46 1.17,-0.79 2.73,-0.5 3.5,0.65 0.77,1.14 0.48,2.7 -0.67,3.47 -0.43,0.28 -0.92,0.43 -1.41,0.43 z"
   id="path1427" />
</g>
<g
   id="g1433"
   transform="translate(-87.37,-179.40307)">
	<path
   class="st2"
   d="m 334.17,306.79 c -1.09,0 -2.09,-0.71 -2.4,-1.81 -10.79,-37.38 -34.16,-73.53 -62.52,-96.72 -5.76,-4.7 -11.67,-8.81 -17.57,-12.22 -5.15,-2.97 -10.26,-5.4 -15.17,-7.21 -16.12,-5.97 -30.86,-5.88 -42.65,0.25 -0.19,0.1 -0.34,0.18 -0.48,0.25 l -0.66,0.35 c -0.03,0.02 -0.07,0.04 -0.1,0.05 l -1.08,0.56 c -0.05,0.03 -0.1,0.05 -0.15,0.07 l -73.11,38.03 c -1.22,0.64 -2.73,0.18 -3.38,-1.04 -0.65,-1.22 -0.18,-2.73 1.04,-3.38 l 0.68,-0.36 72.49,-37.7 c 0.09,-0.05 0.18,-0.1 0.28,-0.14 l 0.89,-0.46 c 0.09,-0.05 0.19,-0.11 0.3,-0.16 l 0.48,-0.25 c 0.15,-0.08 0.34,-0.18 0.54,-0.28 13.04,-6.78 29.18,-6.96 46.66,-0.49 5.18,1.91 10.54,4.46 15.94,7.57 6.13,3.54 12.26,7.81 18.23,12.68 29.12,23.8 53.11,60.89 64.16,99.2 0.38,1.33 -0.38,2.71 -1.71,3.1 -0.25,0.08 -0.48,0.11 -0.71,0.11 z"
   id="path1431" />
</g>
<g
   id="g1437"
   transform="translate(-87.37,-179.40307)">
	<path
   class="st2"
   d="m 340.39,348.75 c -1.38,0 -2.5,-1.11 -2.5,-2.5 v -0.89 c 0,-7.69 -0.76,-15.78 -2.26,-24.03 -0.25,-1.36 0.65,-2.66 2.01,-2.91 1.36,-0.25 2.66,0.65 2.91,2.01 1.55,8.55 2.34,16.93 2.34,24.93 v 0.88 c 0,1.38 -1.12,2.51 -2.5,2.51 z"
   id="path1435" />
</g>
<g
   id="g1441"
   transform="translate(-87.37,-179.40307)">
	<path
   class="st2"
   d="m 237.57,444.68 c -0.89,0 -1.75,-0.47 -2.2,-1.31 -0.66,-1.21 -0.21,-2.73 1.01,-3.39 l 0.69,-0.37 c 1.22,-0.64 2.73,-0.17 3.38,1.05 0.64,1.22 0.17,2.73 -1.05,3.38 l -0.63,0.34 c -0.39,0.21 -0.8,0.3 -1.2,0.3 z"
   id="path1439" />
</g>
<g
   id="g1445"
   transform="translate(-87.37,-179.40307)">
	<path
   class="st2"
   d="m 310.37,406.83 c -0.93,0 -1.82,-0.52 -2.25,-1.41 -0.61,-1.24 -0.09,-2.74 1.15,-3.34 1.24,-0.6 2.76,-0.1 3.36,1.14 0.61,1.24 0.11,2.73 -1.13,3.33 -0.39,0.2 -0.76,0.28 -1.13,0.28 z"
   id="path1443" />
</g>
<g
   id="g1449"
   transform="translate(-87.37,-179.40307)">
	<path
   class="st2"
   d="m 310.72,406.65 c -0.9,0 -1.77,-0.49 -2.22,-1.34 -0.64,-1.22 -0.17,-2.73 1.06,-3.37 l 0.23,-0.12 c 1.22,-0.64 2.73,-0.17 3.37,1.06 0.64,1.22 0.17,2.73 -1.06,3.37 l -0.23,0.12 c -0.36,0.19 -0.76,0.28 -1.15,0.28 z"
   id="path1447" />
</g>
<g
   id="g1453"
   transform="translate(-87.37,-179.40307)">
	<path
   class="st2"
   d="m 311.2,406.4 c -0.9,0 -1.77,-0.49 -2.22,-1.34 -0.64,-1.22 -0.17,-2.73 1.05,-3.38 l 0.63,-0.33 c 1.22,-0.64 2.73,-0.17 3.38,1.05 0.64,1.22 0.17,2.73 -1.05,3.38 l -0.63,0.33 c -0.37,0.2 -0.77,0.29 -1.16,0.29 z"
   id="path1451" />
</g>
<g
   id="g1457"
   transform="translate(-87.37,-179.40307)">
	<path
   class="st2"
   d="m 238.23,444.33 c -0.9,0 -1.77,-0.49 -2.22,-1.35 -0.64,-1.23 -0.16,-2.73 1.06,-3.37 l 72.1,-37.48 1.19,2.2 1.14,2.23 c -0.04,0.02 -72.13,37.49 -72.13,37.49 -0.36,0.19 -0.75,0.28 -1.14,0.28 z"
   id="path1455" />
</g>
<g
   id="g1461"
   transform="translate(-87.37,-179.40307)">
	<path
   class="st2"
   d="m 310.39,406.82 c -1.06,0 -2.05,-0.67 -2.39,-1.73 -0.42,-1.29 0.26,-2.67 1.53,-3.12 0.89,-0.33 1.93,-0.14 2.64,0.57 0.98,0.98 0.98,2.55 0,3.53 -0.28,0.28 -0.63,0.5 -1.01,0.62 -0.25,0.09 -0.51,0.13 -0.77,0.13 z"
   id="path1459" />
</g>
<g
   id="g1465"
   transform="translate(-87.37,-179.40307)">
	<path
   class="st2"
   d="m 310.41,406.81 c -0.38,0 -0.74,-0.08 -1.06,-0.23 -0.48,-0.21 -0.9,-0.58 -1.16,-1.07 -0.65,-1.2 -0.2,-2.7 0.98,-3.37 0.06,-0.04 0.12,-0.07 0.19,-0.1 l 0.24,-0.12 c 1.24,-0.62 2.74,-0.12 3.35,1.12 0.62,1.24 0.12,2.74 -1.12,3.35 l -0.21,0.1 c -0.35,0.21 -0.77,0.32 -1.21,0.32 z"
   id="path1463" />
</g>
<g
   id="g1469"
   transform="translate(-87.37,-179.40307)">
	<path
   class="st2"
   d="m 310.72,406.65 c -0.8,0 -1.59,-0.39 -2.08,-1.11 -0.77,-1.15 -0.46,-2.7 0.68,-3.47 0.16,-0.11 0.37,-0.22 0.61,-0.33 1.26,-0.56 2.74,0 3.3,1.27 0.56,1.25 0,2.72 -1.24,3.29 -0.39,0.24 -0.83,0.35 -1.27,0.35 z m 1.39,-0.42 c -0.03,0.02 -0.06,0.04 -0.08,0.05 0.03,-0.02 0.06,-0.04 0.08,-0.05 z"
   id="path1467" />
</g>
<g
   id="g1473"
   transform="translate(-87.37,-179.40307)">
	<path
   class="st2"
   d="m 310.89,406.54 c -0.6,0 -1.06,-0.22 -1.34,-0.4 -0.76,-0.49 -1.19,-1.35 -1.13,-2.25 0.05,-0.86 0.48,-1.41 0.91,-1.76 0.07,-0.06 0.14,-0.12 0.22,-0.17 0.07,-0.05 0.18,-0.11 0.27,-0.16 0.03,-0.02 0.05,-0.03 0.06,-0.03 0.09,-0.05 0.17,-0.09 0.24,-0.12 1.25,-0.6 2.74,-0.08 3.34,1.16 0.6,1.24 0.08,2.74 -1.17,3.34 l -0.07,0.03 c -0.31,0.18 -0.62,0.28 -0.94,0.32 -0.14,0.03 -0.27,0.04 -0.39,0.04 z"
   id="path1471" />
</g>
<g
   id="g1477"
   transform="translate(-87.37,-179.40307)">
	<path
   class="st2"
   d="m 311.2,406.4 c -0.9,0 -1.76,-0.48 -2.21,-1.33 -0.65,-1.22 -0.18,-2.73 1.04,-3.38 l 0.65,-0.34 c 1.22,-0.64 2.73,-0.16 3.37,1.07 0.64,1.22 0.16,2.73 -1.07,3.37 l -0.61,0.32 c -0.37,0.2 -0.77,0.29 -1.17,0.29 z"
   id="path1475" />
</g>
<g
   id="g1481"
   transform="translate(-87.37,-179.40307)">
	<path
   class="st2"
   d="m 311.83,406.07 c -0.9,0 -1.76,-0.48 -2.21,-1.33 -0.65,-1.22 -0.18,-2.73 1.04,-3.38 l 1.32,-0.69 c 12.72,-6.62 21.16,-19.67 24.43,-37.78 0.24,-1.36 1.55,-2.26 2.9,-2.02 1.36,0.25 2.26,1.55 2.02,2.9 -3.55,19.68 -12.89,33.97 -27.01,41.3 -0.14,0.08 -0.3,0.16 -0.46,0.24 l -0.21,0.11 c -0.02,0.01 -0.05,0.02 -0.07,0.04 -0.02,0.01 -0.04,0.02 -0.06,0.03 l -0.52,0.28 c -0.37,0.21 -0.77,0.3 -1.17,0.3 z"
   id="path1479" />
</g>
<g
   id="g1485"
   transform="translate(-87.37,-179.40307)">
	<path
   class="st2"
   d="m 397.65,443.52 c -13.19,0 -21.5,-3.1 -26.95,-10.04 -5.51,-7.01 -7.6,-17.54 -10.25,-30.87 -1.63,-8.19 -3.47,-17.47 -6.44,-27.99 -0.15,-0.54 -0.29,-1.11 -0.41,-1.73 -4.63,-1.57 -10.12,-4.01 -16.02,-7.12 -19.48,-10.31 -56.32,-35.99 -56.32,-59.35 0,-2.86 0.93,-4.7 2.75,-5.47 3.88,-1.64 8.38,2.72 18.23,12.28 10.28,9.97 24.35,23.63 39.29,30.51 6.18,2.85 12.05,4.3 17.44,4.3 3.13,0 5.16,-1.2 7.25,-3 0.65,-0.56 1.27,-1.14 1.91,-1.74 0.35,-0.33 0.71,-0.67 1.08,-1.01 -0.72,-2.39 -1.41,-4.86 -1.61,-7.57 -0.11,-1.51 1.03,-2.83 2.54,-2.94 1.53,-0.11 2.83,1.03 2.94,2.54 0.18,2.46 0.9,4.82 1.67,7.32 l 0.23,0.74 c 0.32,1.05 -0.02,2.19 -0.86,2.9 -0.77,0.65 -1.52,1.35 -2.24,2.03 -0.69,0.65 -1.37,1.28 -2.08,1.89 -2.49,2.14 -5.73,4.34 -10.85,4.34 -6.19,0 -12.83,-1.62 -19.74,-4.8 -15.79,-7.27 -30.26,-21.31 -40.82,-31.56 -4.32,-4.2 -9.13,-8.86 -11.65,-10.48 0.3,17.01 27.65,40.58 53.38,54.21 6.3,3.32 12.07,5.83 16.69,7.25 1.02,0.31 1.76,1.18 1.91,2.24 0.16,1.1 0.33,1.96 0.54,2.72 3.03,10.73 4.89,20.12 6.54,28.41 2.6,13.1 4.48,22.57 9.18,28.55 4.31,5.49 11.29,7.94 22.63,7.94 5.43,0 23.61,-0.67 29.72,-9.36 1.35,-1.92 2.01,-4.08 2.01,-6.61 0,-6.2 -2.19,-9.01 -4.95,-12.57 -2.69,-3.46 -5.74,-7.39 -6.88,-14.68 -7.63,-49.05 -16.78,-57.64 -26.27,-62.7 -1.35,-0.73 -2.54,-1.67 -3.69,-2.58 -1.1,-0.87 -2.14,-1.7 -3.09,-2.14 -2.39,-1.1 -5.04,-2.43 -8.14,-4.64 -1.24,-0.88 -1.53,-2.6 -0.65,-3.83 0.88,-1.24 2.6,-1.53 3.83,-0.65 2.58,1.84 4.77,2.98 7.26,4.12 1.54,0.72 2.89,1.78 4.2,2.81 1.01,0.8 1.96,1.55 2.87,2.04 10.76,5.73 21.09,15.14 29.11,66.7 0.92,5.89 3.28,8.93 5.78,12.16 3,3.87 6.11,7.86 6.11,15.95 0,3.66 -1.01,6.95 -3.02,9.78 -7.36,10.56 -26.34,11.7 -34.16,11.7 z"
   id="path1483" />
</g>
<g
   id="g1489"
   transform="translate(-87.37,-179.40307)">
	<path
   class="st2"
   d="m 365.81,337.6 c -6.18,0 -11.76,-3.77 -13.89,-9.38 -0.65,-1.74 -0.98,-3.6 -0.98,-5.56 0,-1.05 0.1,-2.1 0.3,-3.09 0.3,-1.49 1.76,-2.45 3.24,-2.15 1.49,0.3 2.45,1.75 2.15,3.24 -0.13,0.64 -0.2,1.32 -0.2,2 0,1.29 0.21,2.51 0.62,3.61 1.52,4.01 5.49,5.82 8.75,5.82 0.57,0 1.14,-0.09 1.72,-0.27 1.67,-0.51 3.25,-1.67 4.45,-3.28 1.03,-1.38 2.26,-3.75 2.26,-7.14 0,-0.23 -0.02,-0.46 -0.03,-0.69 -0.05,-0.52 -0.2,-1.11 -0.43,-1.68 -0.56,-1.41 0.12,-3.01 1.53,-3.58 1.41,-0.57 3.01,0.12 3.58,1.53 0.42,1.04 0.69,2.14 0.8,3.25 0.03,0.44 0.05,0.8 0.05,1.16 0,3.88 -1.16,7.49 -3.35,10.43 -1.91,2.55 -4.48,4.41 -7.25,5.25 -1.08,0.36 -2.2,0.53 -3.32,0.53 z"
   id="path1487" />
</g>
<g
   id="g1493"
   transform="translate(-87.37,-179.40307)">
	<path
   class="st2"
   d="m 375.08,351.97 c -0.39,0 -9.61,-0.05 -9.61,-4.62 0,-1.52 1.23,-2.75 2.75,-2.75 0.9,0 1.69,0.43 2.2,1.09 1.01,0.36 3.44,0.78 4.66,0.78 6.22,0 8.83,-5.13 9.06,-6.53 -0.55,-1.11 -3.92,-3.35 -5.75,-4.57 -1.62,-1.07 -3.14,-2.09 -4.26,-3.07 -1.14,-1 -1.26,-2.74 -0.26,-3.88 1,-1.14 2.74,-1.26 3.88,-0.26 0.84,0.74 2.22,1.66 3.68,2.62 4.23,2.81 8.23,5.46 8.23,9.04 -0.01,4.13 -5.15,12.15 -14.58,12.15 z m -4.11,-4.62 c 0,0 0,0 0,0 0,0 0,0 0,0 z"
   id="path1491" />
</g>
<g
   id="g1497"
   transform="translate(-87.37,-179.40307)">
	<path
   class="st2"
   d="m 375.52,327.8 c -0.42,0 -0.84,-0.1 -1.23,-0.29 -1.71,-0.85 -3.41,-2.04 -5.05,-3.18 -2.32,-1.62 -4.95,-3.46 -6.56,-3.46 -0.67,0 -1.58,0.44 -2.54,0.91 -1.94,0.95 -4.32,2.09 -7.26,0.88 -3.1,-1.3 -6.39,-4.72 -6.39,-8.51 0,-2.76 3.93,-5.82 5.13,-6.69 3.54,-2.54 9.79,-5.67 19.48,-6.12 0.04,0 0.08,0 0.13,0 h 0.13 c 5.23,0 7.96,6.36 7.96,12.65 0,1.32 -0.08,2.7 -0.27,4.33 -0.1,0.89 -0.21,1.78 -0.33,2.68 -0.18,1.39 -0.37,2.83 -0.47,4.25 -0.07,0.91 -0.59,1.73 -1.38,2.19 -0.41,0.24 -0.88,0.36 -1.35,0.36 z m -12.84,-12.43 c 3.34,0 6.58,2.26 9.71,4.45 0.29,0.21 0.59,0.41 0.87,0.61 0,-0.04 0.01,-0.08 0.02,-0.12 0.11,-0.86 0.22,-1.72 0.32,-2.58 0.16,-1.44 0.23,-2.62 0.23,-3.73 0,-3.95 -1.49,-7.15 -2.46,-7.15 h -0.06 c -8.75,0.42 -14.07,3.36 -16.46,5.08 -1.6,1.15 -2.45,2.14 -2.79,2.62 0.29,1.15 1.73,2.53 2.95,3.04 0.27,0.11 0.41,0.13 0.41,0.13 0.54,0 1.44,-0.44 2.3,-0.86 1.34,-0.67 3.01,-1.49 4.96,-1.49 z"
   id="path1495" />
</g>
<g
   id="g1501"
   transform="translate(-87.37,-179.40307)">
	<path
   class="st2"
   d="m 422.23,604.77 c -1.07,0 -2.08,-0.63 -2.53,-1.67 -0.89,-2.07 -1.79,-4.16 -2.72,-6.26 -1.9,-4.33 -3.88,-8.74 -5.9,-13.24 -11.58,-25.82 -24.7,-55.09 -32.9,-89.4 -2.92,-12.23 -5.08,-24.56 -6.41,-36.67 -0.94,-8.54 -1.5,-17.18 -1.68,-25.69 -0.03,-1.52 1.17,-2.78 2.69,-2.81 0.02,0 0.04,0 0.06,0 1.49,0 2.72,1.19 2.75,2.69 0.17,8.35 0.72,16.83 1.64,25.21 1.32,12.04 3.38,23.82 6.29,35.99 8.07,33.81 21.09,62.83 32.57,88.43 2.02,4.51 4.01,8.94 5.92,13.28 0.93,2.12 1.85,4.23 2.74,6.32 0.6,1.4 -0.05,3.01 -1.45,3.61 -0.34,0.14 -0.71,0.21 -1.07,0.21 z"
   id="path1499" />
</g>
<g
   id="g1505"
   transform="translate(-87.37,-179.40307)">
	<path
   class="st2"
   d="m 428.79,612.98 c -11.49,0 -18.09,-9.09 -18.56,-14.18 -0.01,-0.08 -0.01,-0.17 -0.01,-0.25 0,-2.9 2.94,-3.62 4.35,-3.96 0.5,-0.12 1.13,-0.28 1.42,-0.42 1.36,-0.68 3.01,-0.12 3.69,1.24 0.68,1.36 0.12,3.01 -1.24,3.69 -0.74,0.37 -1.53,0.58 -2.26,0.76 1.34,3 5.56,7.62 12.62,7.62 1.05,0 2.11,-0.09 3.17,-0.27 0,-0.43 0,-0.92 0,-1.43 v -2.03 c 0,-17.17 -5.42,-37.49 -11.17,-59 -6.16,-23.09 -12.54,-46.97 -14.12,-72.03 -0.25,-3.83 -0.38,-7.62 -0.38,-11.28 0,-4.47 1.06,-5.7 9.38,-14.01 1.07,-1.07 2.81,-1.07 3.89,0 1.07,1.07 1.07,2.81 0,3.89 -7.76,7.76 -7.76,7.99 -7.76,10.13 0,3.54 0.12,7.22 0.36,10.93 1.55,24.53 7.86,48.14 13.95,70.97 5.84,21.87 11.35,42.53 11.35,60.42 v 2.01 c 0.01,3.68 0.02,4.78 -1.07,5.88 -0.59,0.59 -1.38,0.91 -2.23,0.91 -0.22,0 -0.42,-0.02 -0.58,-0.04 -1.6,0.29 -3.21,0.45 -4.8,0.45 z"
   id="path1503" />
</g>
<g
   id="g1509"
   transform="translate(-87.37,-179.40307)">
	<path
   class="st2"
   d="m 411.69,475.14 c -0.62,0 -1.24,-0.21 -1.76,-0.64 -1.17,-0.97 -1.32,-2.71 -0.35,-3.87 14.78,-17.73 15.36,-22.39 17.54,-39.71 l 0.1,-0.79 c 0.19,-1.51 1.55,-2.58 3.07,-2.39 1.51,0.19 2.58,1.56 2.39,3.07 l -0.1,0.79 c -2.27,18.11 -2.96,23.58 -18.77,42.55 -0.55,0.66 -1.33,0.99 -2.12,0.99 z"
   id="path1507" />
</g>
<g
   id="g1513"
   transform="translate(-87.37,-179.40307)">
	<path
   class="st2"
   d="m 342.81,548.87 c -0.52,0 -1.05,-0.15 -1.52,-0.46 -1.03,-0.68 -2.37,-1.49 -3.78,-2.35 -7.08,-4.28 -11.42,-7.08 -11.42,-10.54 0,-2.32 1.2,-3.3 1.91,-3.68 2.13,-1.13 4.22,0.29 6.43,1.78 0.56,0.38 1.31,0.89 2.02,1.31 0.59,-3.46 1.42,-9.42 1.75,-11.78 0.3,-2.19 0.34,-2.46 0.39,-2.67 9.63,-46.54 12.48,-48.27 19.38,-52.43 2.9,-1.75 6.5,-3.92 12.27,-12.17 0.87,-1.24 2.59,-1.55 3.83,-0.68 1.24,0.87 1.55,2.59 0.68,3.83 -6.44,9.2 -10.77,11.82 -13.93,13.73 -5.29,3.19 -7.7,4.65 -16.84,48.86 -0.03,0.18 -0.15,1.06 -0.32,2.29 -0.34,2.46 -0.86,6.18 -1.35,9.34 -0.76,4.88 -1.1,7.06 -2.53,7.75 0.21,0.13 0.41,0.25 0.6,0.36 0.62,0.38 1.24,0.75 1.82,1.1 24.33,-31.48 24.59,-36.75 24.68,-38.5 0.15,-2.97 0.35,-3.13 10.73,-11.32 l 1.57,-1.24 c 1.19,-0.94 2.92,-0.74 3.86,0.46 0.94,1.19 0.74,2.92 -0.46,3.86 l -1.57,1.24 c -5.09,4.02 -8,6.31 -8.63,7.1 0,0.05 0,0.11 -0.01,0.17 -0.16,3.14 -0.45,8.98 -27.36,43.58 -0.57,0.69 -1.38,1.06 -2.2,1.06 z m -11.32,-13.82"
   id="path1511" />
</g>
<g
   id="g1517"
   transform="translate(-87.37,-179.40307)">
	<path
   class="st2"
   d="m 353.12,330.12 c -0.44,0 -0.89,-0.11 -1.3,-0.33 -4.4,-2.37 -8.9,-4.1 -13.66,-5.94 l -1.06,-0.41 c -0.89,-0.34 -1.8,-0.69 -2.71,-1.05 -3.13,-1.23 -10.72,-5.41 -16.92,-9.31 -13.69,-8.63 -13.69,-11.22 -13.69,-12.76 0,-3.3 2.4,-5.6 5.83,-5.6 0.38,0 0.49,0.03 1.29,0.26 10.98,3.11 19.11,5.34 23.99,6.67 5.6,1.52 13.37,3.58 18.57,4.81 1.48,0.35 2.39,1.83 2.05,3.31 -0.35,1.48 -1.83,2.39 -3.31,2.05 -5.27,-1.24 -13.11,-3.32 -18.75,-4.85 -4.88,-1.33 -12.99,-3.55 -23.95,-6.66 2.91,3.73 20.92,14.63 26.91,16.98 0.9,0.36 1.78,0.7 2.66,1.03 l 1.07,0.41 c 4.93,1.9 9.58,3.7 14.29,6.23 1.34,0.72 1.84,2.39 1.12,3.72 -0.5,0.92 -1.45,1.44 -2.43,1.44 z"
   id="path1515" />
</g>
</svg>
