<?xml version="1.0" encoding="UTF-8" standalone="no"?>
<svg
   xmlns:dc="http://purl.org/dc/elements/1.1/"
   xmlns:cc="http://creativecommons.org/ns#"
   xmlns:rdf="http://www.w3.org/1999/02/22-rdf-syntax-ns#"
   xmlns:svg="http://www.w3.org/2000/svg"
   xmlns="http://www.w3.org/2000/svg"
   xmlns:sodipodi="http://sodipodi.sourceforge.net/DTD/sodipodi-0.dtd"
   xmlns:inkscape="http://www.inkscape.org/namespaces/inkscape"
   version="1.1"
   id="Layer_1"
   x="0px"
   y="0px"
   viewBox="0 0 353.57112 257.04"
   xml:space="preserve"
   sodipodi:docname="finance_icons_man.svg"
   width="353.57114"
   height="257.04001"
   inkscape:version="1.0.2 (e86c8708, 2021-01-15)"><metadata
   id="metadata1178"><rdf:RDF><cc:Work
       rdf:about=""><dc:format>image/svg+xml</dc:format><dc:type
         rdf:resource="http://purl.org/dc/dcmitype/StillImage" /><dc:title /></cc:Work></rdf:RDF></metadata><defs
   id="defs1176" /><sodipodi:namedview
   pagecolor="#ffffff"
   bordercolor="#666666"
   borderopacity="1"
   objecttolerance="10"
   gridtolerance="10"
   guidetolerance="10"
   inkscape:pageopacity="0"
   inkscape:pageshadow="2"
   inkscape:window-width="1280"
   inkscape:window-height="747"
   id="namedview1174"
   showgrid="false"
   fit-margin-top="0"
   fit-margin-left="0"
   fit-margin-right="0"
   fit-margin-bottom="0"
   inkscape:zoom="0.762235"
   inkscape:cx="403.48621"
   inkscape:cy="-64.16095"
   inkscape:window-x="0"
   inkscape:window-y="25"
   inkscape:window-maximized="1"
   inkscape:current-layer="Layer_1"
   inkscape:document-rotation="0" />
<style
   type="text/css"
   id="style833">
	.st0{fill:#DBDBE4;}
	.st1{fill:#D7DCE0;}
	.st2{fill:#3A3B3A;}
</style>
<path
   class="st0"
   d="m 316.57115,109.58 -1.08,0.93 c 0.84,0.97 1.83,2.1 2.88,3.29 2.71,3.08 5.77,6.56 7.8,9.19 l 1.13,-0.87 c -2.06,-2.66 -5.14,-6.17 -7.86,-9.26 -1.05,-1.19 -2.04,-2.31 -2.87,-3.28 z"
   id="path835" />
<path
   class="st0"
   d="m 328.39115,114.28 c -1.72,-1.88 -3.49,-3.82 -5.06,-5.85 -0.58,-0.76 -1.23,-1.55 -1.9,-2.36 -0.29,0.02 -0.58,0.04 -0.88,0.08 -0.27,0.03 -0.55,0.07 -0.82,0.12 0.88,1.03 1.73,2.06 2.47,3.03 1.6,2.08 3.4,4.04 5.14,5.94 1.72,1.88 3.49,3.82 5.06,5.85 0.64,0.83 1.2,1.61 1.72,2.4 l 1.19,-0.78 c -0.54,-0.82 -1.12,-1.64 -1.79,-2.49 -1.59,-2.07 -3.39,-4.04 -5.13,-5.94 z"
   id="path837" />
<path
   class="st0"
   d="m 318.46115,121.85 c -0.8,-1.83 -3.5,-4.89 -5.26,-5.95 l -0.74,1.22 c 1.51,0.91 4,3.74 4.69,5.3 z"
   id="path839" />
<path
   class="st0"
   d="m 341.04115,121.59 1.13,-0.87 -9.68,-12.53 c -0.84,-0.38 -1.7,-0.72 -2.57,-1 z"
   id="path841" />
<path
   class="st0"
   d="m 65.961148,256.92 c -3.05,-3.71 -6.05,-7.25 -9,-10.64 l -1.07,0.93 c 2.73,3.13 5.49,6.4 8.31,9.8 0.59,-0.02 1.18,-0.05 1.76,-0.09 z"
   id="path843" />
<path
   class="st0"
   d="m 53.471148,254.81 -1.03,0.98 c 0.36,0.37 0.72,0.76 1.08,1.14 0.68,0.05 1.36,0.08 2.04,0.11 -0.7,-0.76 -1.39,-1.51 -2.09,-2.23 z"
   id="path845" />
<path
   class="st0"
   d="m 29.571148,246.8 c 7,0 10.55,0.13 15.46,0.32 2.23,0.08 4.72,0.18 7.92,0.27 l 0.04,-1.42 c -3.19,-0.09 -5.67,-0.19 -7.9,-0.27 -4.93,-0.19 -8.49,-0.32 -15.51,-0.32 -2.74,0 -5.4,0.02 -8,0.05 0.52,0.49 1.06,0.96 1.61,1.41 2.08,-0.03 4.2,-0.04 6.38,-0.04 z"
   id="path847" />
<path
   class="st0"
   d="m 41.711148,253.1 c -1.44,-0.08 -2.93,-0.17 -4.85,-0.17 -0.99,0 -1.97,-0.01 -2.96,-0.02 1.43,0.55 2.89,1.03 4.38,1.46 1.24,0.03 2.31,0.09 3.35,0.15 2.43,0.14 4.53,0.26 7.88,-0.1 l -0.15,-1.41 c -3.23,0.34 -5.28,0.23 -7.65,0.09 z"
   id="path849" />
<path
   class="st0"
   d="m 19.181148,237.88 c -1.86,-1.94 -3.73,-4.03 -5.69,-6.36 0.18,0.86 0.41,1.7 0.69,2.51 0.1,0.28 0.21,0.56 0.31,0.83 1.24,1.41 2.45,2.74 3.66,3.99 z"
   id="path851" />
<path
   class="st0"
   d="m 37.031148,220.09 c -0.18,-0.12 -0.34,-0.22 -0.48,-0.3 -0.02,-0.02 -0.03,-0.03 -0.05,-0.05 -0.08,-0.11 -0.17,-0.24 -0.27,-0.39 -0.03,-0.05 -0.05,-0.09 -0.07,-0.14 -4.51,-0.04 -10.24,-0.06 -13.67,0.44 l 0.2,1.41 c 3.57,-0.52 9.84,-0.46 14.42,-0.42 0.35,0 0.68,0.01 1,0.01 -0.37,-0.19 -0.72,-0.38 -1.08,-0.56 z"
   id="path853" />
<path
   class="st0"
   d="m 44.041148,241.91 1.3,-0.57 c -0.8,-1.83 -3.5,-4.89 -5.26,-5.95 l -0.74,1.22 c 1.51,0.91 4.01,3.73 4.7,5.3 z"
   id="path855" />
<path
   class="st0"
   d="m 54.181148,241.61 c -2.06,-2.66 -5.14,-6.17 -7.86,-9.26 -1.05,-1.2 -2.04,-2.32 -2.87,-3.28 l -1.08,0.93 c 0.84,0.97 1.83,2.1 2.88,3.29 2.71,3.08 5.77,6.56 7.8,9.19 z"
   id="path857" />
<path
   class="st0"
   d="m 35.491148,207.47 h -13.8 c -0.65,0.43 -1.27,0.9 -1.84,1.42 h 16.5 c -0.22,-0.51 -0.51,-0.99 -0.86,-1.42 z"
   id="path859" />
<path
   class="st0"
   d="m 31.301148,215.18 c 1.25,-0.1 2.53,-0.2 3.81,-0.27 0.08,-0.18 0.42,-1.03 0.62,-1.46 -1.52,0.07 -3.07,0.18 -4.55,0.31 -2.29,0.19 -4.66,0.39 -6.97,0.39 -2.41,0 -4.52,-0.22 -6.46,-0.66 l -0.32,1.39 c 2.04,0.47 4.26,0.7 6.78,0.7 2.37,0 4.77,-0.2 7.09,-0.4 z"
   id="path861" />
<path
   class="st0"
   d="m 54.221148,234.73 c 1.72,1.88 3.49,3.82 5.06,5.85 0.64,0.83 1.2,1.61 1.72,2.4 l 1.19,-0.78 c -0.54,-0.82 -1.12,-1.64 -1.79,-2.49 -1.6,-2.08 -3.4,-4.04 -5.14,-5.94 -1.72,-1.88 -3.49,-3.82 -5.06,-5.85 -1.23,-1.6 -2.73,-3.36 -4.2,-4.99 -0.12,0 -0.24,0 -0.36,0 -0.63,-0.06 -1.04,-0.09 -1.27,-0.1 l -0.21,0.2 c 1.69,1.81 3.48,3.92 4.91,5.77 1.62,2.07 3.41,4.03 5.15,5.93 z"
   id="path863" />
<path
   class="st0"
   d="m 88.231148,237.88 c -3.48,-3.63 -7,-7.78 -11.09,-13.07 -1.22,-1.57 -2.41,-3.16 -3.6,-4.75 -0.5,0.12 -1.01,0.24 -1.51,0.36 1.32,1.76 2.64,3.52 3.98,5.26 4.12,5.33 7.67,9.52 11.19,13.19 z"
   id="path865" />
<path
   class="st0"
   d="m 78.041148,240.05 1.04,-0.97 c -2.35,-2.53 -4.78,-5.42 -7.41,-8.83 -2.14,-2.77 -4.25,-5.66 -6.3,-8.51 -0.34,0.04 -0.98,0.12 -1.61,0.2 2.2,3.06 4.47,6.18 6.78,9.18 2.67,3.45 5.12,6.37 7.5,8.93 z"
   id="path867" />
<path
   class="st0"
   d="m 34.471148,240.42 c 0.8,0.04 1.56,0.02 2.21,-0.17 l -0.39,-1.37 c -0.49,0.14 -1.11,0.14 -1.76,0.12 -0.53,-0.02 -1.07,-0.04 -1.64,0.04 l 0.2,1.41 c 0.48,-0.08 0.93,-0.05 1.38,-0.03 z"
   id="path869" />
<path
   class="st0"
   d="m 37.821148,225.18 c -1.49,0.08 -6.62,0.04 -8.39,0 -0.5,-0.01 -0.97,0.02 -1.48,0.05 -0.66,0.04 -1.41,0.08 -2.43,0.05 l -0.05,1.42 c 0.29,0.01 0.56,0.02 0.82,0.02 0.69,0 1.24,-0.03 1.75,-0.06 0.48,-0.03 0.91,-0.06 1.37,-0.04 1.79,0.04 6.98,0.08 8.5,0 z"
   id="path871" />
<path
   class="st0"
   d="m 99.091148,240.49 c -6.42,-8.83 -11.9,-16.22 -16.99,-22.9 -0.48,0.16 -0.96,0.31 -1.44,0.46 5.17,6.77 10.74,14.28 17.28,23.28 z"
   id="path873" />
<path
   class="st0"
   d="m 33.901148,233.91 c 0.83,-0.03 1.61,-0.06 2.45,0 l 0.09,-1.42 c -0.9,-0.05 -1.72,-0.03 -2.59,0 -0.8,0.03 -1.66,0.04 -2.65,0.02 -0.94,-0.02 -1.91,-0.04 -2.77,0.06 l 0.15,1.41 c 0.77,-0.08 1.7,-0.07 2.59,-0.05 1.03,0.03 1.91,0.01 2.73,-0.02 z"
   id="path875" />
<path
   class="st0"
   d="m 30.041148,240.49 c -6.02,-8.29 -11.22,-15.31 -16.05,-21.67 -0.17,0.58 -0.32,1.17 -0.44,1.77 4.63,6.11 9.62,12.85 15.34,20.73 z"
   id="path877" />
<path
   class="st0"
   d="m 69.041148,240.21 -13.54,-17.53 c -0.13,0.01 -0.25,0.02 -0.38,0.03 -0.45,0.03 -0.89,0.05 -1.34,0.08 l 14.13,18.29 z"
   id="path879" />
<path
   class="st0"
   d="m 88.231148,178.14 c -1.69,-1.76 -3.38,-3.64 -5.15,-5.72 -0.33,0.36 -0.64,0.73 -0.92,1.11 1.73,2.02 3.39,3.87 5.04,5.59 z"
   id="path881" />
<path
   class="st0"
   d="m 99.091148,180.75 c -3.33,-4.59 -6.41,-8.78 -9.32,-12.69 -0.47,0.14 -0.93,0.32 -1.39,0.52 2.98,4.01 6.13,8.3 9.55,13.01 z"
   id="path883" />
<path
   class="st0"
   d="m 344.30115,135.34 c 2.67,-0.29 5.5,-0.48 8.6,-0.59 -0.1,-0.47 -0.22,-0.94 -0.34,-1.41 -3.02,0.11 -5.78,0.31 -8.41,0.59 z"
   id="path885" />
<path
   class="st0"
   d="m 339.98115,126.72 0.08,1.42 c 3.38,-0.2 6.86,-0.36 10.43,-0.49 -0.21,-0.47 -0.43,-0.93 -0.66,-1.4 -3.36,0.13 -6.64,0.29 -9.85,0.47 z"
   id="path887" />
<path
   class="st0"
   d="m 349.63115,141.35 h 0.6 c 1.07,-0.07 2.18,-0.1 3.34,-0.11 0,-0.48 -0.01,-0.95 -0.03,-1.42 -1.38,0.02 -2.69,0.05 -3.95,0.11 z"
   id="path889" />
<path
   class="st0"
   d="m 163.50115,245.39 c 1.17,0.02 2.33,0.02 3.51,-0.01 -0.29,0 -0.58,0 -0.88,0 -0.89,0 -1.75,0 -2.63,0.01 z"
   id="path891" />
<path
   class="st0"
   d="m 98.091148,246.8 c 3.430002,0 6.030002,0.03 8.370002,0.09 1.03,-0.43 2.05,-0.88 3.07,-1.34 -3.22,-0.11 -6.46,-0.17 -11.440002,-0.17 -11.46,0 -21.68,0.27 -31.23,0.83 l 0.08,1.42 c 9.53,-0.56 19.72,-0.83 31.15,-0.83 z"
   id="path893" />
<path
   class="st0"
   d="m 86.651148,252.7 c -6.08,0 -11.05,0.23 -15.62,0.72 l 0.15,1.41 c 3.95,-0.42 8.2,-0.65 13.24,-0.7 1.83,-0.43 3.65,-0.9 5.46,-1.41 -1.08,-0.01 -2.15,-0.02 -3.23,-0.02 z"
   id="path895" />
<path
   class="st0"
   d="m 257.55115,195.06 -1.03,0.98 c 3.48,3.63 7.01,7.79 11.09,13.07 0.5,0.65 0.99,1.31 1.49,1.96 0.44,-0.2 0.88,-0.4 1.33,-0.61 -0.56,-0.74 -1.12,-1.49 -1.69,-2.22 -4.12,-5.32 -7.67,-9.51 -11.19,-13.18 z"
   id="path897" />
<path
   class="st0"
   d="m 291.25115,192.95 c -6.08,0 -11.05,0.23 -15.62,0.72 l 0.15,1.41 c 4.52,-0.48 9.43,-0.71 15.46,-0.71 3.12,0 6.24,0.06 9.35,0.11 0.49,0.01 0.99,0.02 1.48,0.02 0.82,-0.46 1.65,-0.91 2.47,-1.38 -1.31,-0.02 -2.61,-0.04 -3.92,-0.07 -3.12,-0.04 -6.24,-0.1 -9.37,-0.1 z"
   id="path899" />
<path
   class="st0"
   d="m 281.08115,199.67 0.03,1.42 h 0.6 c 1.69,-0.09 3.46,-0.13 5.4,-0.13 0.95,0 1.92,0.03 2.89,0.04 0.88,-0.45 1.76,-0.92 2.64,-1.38 -1.85,-0.05 -3.7,-0.08 -5.53,-0.08 -2.18,0 -4.15,0.04 -6.03,0.13 z"
   id="path901" />
<path
   class="st0"
   d="m 259.97115,187.47 c 5.37,6.17 10.86,12.8 16.64,20.12 0.44,-0.21 0.88,-0.42 1.32,-0.63 -5.87,-7.44 -11.44,-14.17 -16.89,-20.43 z"
   id="path903" />
<path
   class="st0"
   d="m 236.38115,215.18 c 3.23,-0.27 6.73,-0.51 9.64,-0.29 l 0.11,-1.42 c -3.01,-0.23 -6.58,0.02 -9.87,0.29 -2.29,0.19 -4.66,0.39 -6.97,0.39 -2.41,0 -4.52,-0.22 -6.46,-0.66 l -0.32,1.39 c 2.04,0.47 4.26,0.7 6.78,0.7 2.37,0 4.77,-0.2 7.09,-0.4 z"
   id="path905" />
<path
   class="st0"
   d="m 213.67115,201.09 c 1.69,-0.09 3.46,-0.13 5.4,-0.13 3.91,0 7.93,0.14 11.81,0.27 3.92,0.13 7.97,0.28 11.93,0.28 3.94,0 7.38,-0.14 10.53,-0.43 l -0.13,-1.42 c -3.1,0.28 -6.5,0.42 -10.4,0.42 -3.94,0 -7.98,-0.14 -11.88,-0.27 -3.9,-0.13 -7.93,-0.27 -11.86,-0.27 -2.17,0 -4.15,0.04 -6.03,0.13 l 0.03,1.42 z"
   id="path907" />
<rect
   x="217.27115"
   y="207.47"
   class="st0"
   width="31.200001"
   height="1.42"
   id="rect909" />
<path
   class="st0"
   d="m 232.56115,194.49 c 3.12,0.06 6.25,0.11 9.38,0.11 1.89,0 3.35,0.09 4.77,0.17 2.43,0.14 4.53,0.26 7.88,-0.1 l -0.15,-1.41 c -3.23,0.35 -5.28,0.23 -7.65,0.09 -1.44,-0.08 -2.93,-0.17 -4.85,-0.17 -3.12,0 -6.24,-0.06 -9.35,-0.11 -3.12,-0.06 -6.25,-0.11 -9.38,-0.11 -6.08,0 -11.05,0.23 -15.62,0.72 l 0.15,1.41 c 4.52,-0.48 9.43,-0.71 15.46,-0.71 3.13,0 6.24,0.05 9.36,0.11 z"
   id="path911" />
<path
   class="st0"
   d="m 203.45115,186.98 0.05,0.9 c 9.52,-0.56 19.71,-0.83 31.14,-0.83 7,0 10.55,0.13 15.46,0.32 2.23,0.08 4.72,0.18 7.92,0.27 l 0.04,-1.42 c -3.19,-0.09 -5.67,-0.19 -7.9,-0.27 -4.93,-0.19 -8.49,-0.32 -15.51,-0.32 -10.87,0 -20.61,0.25 -29.74,0.75 -0.24,0.1 -0.47,0.19 -0.71,0.29 -0.25,0.11 -0.5,0.21 -0.75,0.31 z"
   id="path913" />
<path
   class="st0"
   d="m 255.98115,203.89 -1.11,0.89 0.41,0.53 c 1.22,1.41 2.45,2.94 3.76,4.64 1.07,1.38 2.12,2.8 3.17,4.22 0.45,-0.2 0.89,-0.39 1.34,-0.59 -1.12,-1.52 -2.24,-3.03 -3.38,-4.5 -1.48,-1.91 -2.85,-3.61 -4.19,-5.19 z"
   id="path915" />
<path
   class="st0"
   d="m 250.88115,213.74 3.08,3.99 c 0.45,-0.19 0.9,-0.38 1.35,-0.57 l -3.31,-4.29 z"
   id="path917" />
<path
   class="st0"
   d="m 234.50115,225.17 c -0.5,-0.01 -0.97,0.02 -1.48,0.05 -0.66,0.04 -1.41,0.08 -2.43,0.05 l -0.05,1.42 c 0.29,0.01 0.56,0.02 0.82,0.02 0.21,0 0.39,-0.01 0.58,-0.01 1.26,-0.49 2.52,-1 3.78,-1.49 -0.48,-0.02 -0.9,-0.03 -1.22,-0.04 z"
   id="path919" />
<path
   class="st0"
   d="m 242.18115,220.64 c 1.08,0.01 2.05,0.02 2.85,0.02 v -1.42 c -0.8,0 -1.77,-0.01 -2.84,-0.02 -4.62,-0.04 -10.96,-0.1 -14.64,0.43 l 0.2,1.41 c 3.58,-0.52 9.85,-0.47 14.43,-0.42 z"
   id="path921" />
<path
   class="st0"
   d="m 271.47115,186.47 0.08,1.42 c 9.52,-0.56 19.71,-0.83 31.14,-0.83 5.17,0 8.46,0.07 11.81,0.19 0.73,-0.45 1.47,-0.89 2.2,-1.35 -4.2,-0.16 -7.72,-0.26 -14.01,-0.26 -11.46,-0.01 -21.67,0.27 -31.22,0.83 z"
   id="path923" />
<path
   class="st0"
   d="m 114.32115,213.74 18.29,23.67 c 0.96,0.53 1.95,1.04 2.96,1.51 l -20.12,-26.05 z"
   id="path925" />
<path
   class="st0"
   d="m 118.31115,204.78 0.41,0.53 c 1.22,1.41 2.45,2.94 3.76,4.64 2.64,3.42 5.24,7.04 7.76,10.54 2.53,3.52 5.15,7.16 7.83,10.64 2.66,3.45 5.11,6.37 7.49,8.93 l 1.04,-0.97 c -2.35,-2.53 -4.77,-5.42 -7.41,-8.83 -2.67,-3.46 -5.28,-7.09 -7.8,-10.6 -2.52,-3.51 -5.12,-7.13 -7.78,-10.58 -1.47,-1.91 -2.84,-3.61 -4.19,-5.19 z"
   id="path927" />
<path
   class="st0"
   d="m 119.96115,196.05 c 3.48,3.63 7.01,7.79 11.09,13.07 2.11,2.74 4.17,5.5 6.23,8.27 2.06,2.77 4.13,5.55 6.24,8.29 4.12,5.33 7.67,9.52 11.19,13.19 l 1.03,-0.98 c -3.48,-3.63 -7,-7.78 -11.09,-13.07 -2.11,-2.74 -4.17,-5.5 -6.23,-8.27 -2.06,-2.77 -4.13,-5.55 -6.24,-8.29 -4.12,-5.33 -7.67,-9.52 -11.19,-13.19 z"
   id="path929" />
<path
   class="st0"
   d="m 165.45115,241.33 1.15,-0.84 c -7.8,-10.74 -14.24,-19.38 -20.26,-27.17 -7.75,-10.03 -14.9,-18.79 -21.86,-26.79 l -1.07,0.93 c 6.94,7.97 14.07,16.71 21.81,26.72 6,7.79 12.43,16.42 20.23,27.15 z"
   id="path931" />
<path
   class="st0"
   d="m 185.99115,193.96 c -0.83,0.31 -1.66,0.62 -2.5,0.91 0.78,-0.03 1.63,-0.09 2.57,-0.2 z"
   id="path933" />
<path
   class="st0"
   d="m 180.73115,223.02 c 1.69,1.81 3.48,3.92 4.91,5.77 1.6,2.08 3.4,4.04 5.14,5.94 1.6,1.75 3.24,3.56 4.73,5.44 0.48,-0.15 0.96,-0.31 1.45,-0.47 -1.6,-2.07 -3.39,-4.03 -5.12,-5.92 -1.72,-1.88 -3.49,-3.82 -5.06,-5.85 -1.46,-1.89 -3.28,-4.02 -5,-5.87 z"
   id="path935" />
<path
   class="st0"
   d="m 183.36115,213.74 18.7,24.21 c 0.47,-0.17 0.94,-0.34 1.41,-0.51 l -18.98,-24.57 z"
   id="path937" />
<path
   class="st0"
   d="M 111.91115,207.47 H 94.271148 c 0.49,0.47 0.98,0.95 1.47,1.42 h 16.170002 z"
   id="path939" />
<path
   class="st0"
   d="m 167.74115,233.94 c 1.02,0.02 1.9,0 2.72,-0.02 0.83,-0.03 1.61,-0.06 2.45,0 l 0.09,-1.42 c -0.9,-0.05 -1.72,-0.03 -2.59,0 -0.8,0.03 -1.66,0.04 -2.65,0.02 -0.94,-0.02 -1.91,-0.04 -2.77,0.06 l 0.15,1.41 c 0.79,-0.08 1.71,-0.07 2.6,-0.05 z"
   id="path941" />
<path
   class="st0"
   d="m 173.66115,220.64 c 1.08,0.01 2.05,0.02 2.85,0.02 v -1.42 c -0.8,0 -1.77,-0.01 -2.84,-0.02 -4.62,-0.04 -10.96,-0.1 -14.64,0.43 l 0.2,1.41 c 3.58,-0.52 9.85,-0.47 14.43,-0.42 z"
   id="path943" />
<path
   class="st0"
   d="m 164.58115,226.64 c 0.48,-0.03 0.91,-0.06 1.37,-0.04 1.79,0.04 6.98,0.08 8.5,0 l -0.08,-1.42 c -1.49,0.08 -6.62,0.04 -8.39,0 -0.5,-0.01 -0.97,0.02 -1.48,0.05 -0.66,0.04 -1.41,0.08 -2.43,0.05 l -0.05,1.42 c 0.29,0.01 0.56,0.02 0.82,0.02 0.68,-0.02 1.24,-0.05 1.74,-0.08 z"
   id="path945" />
<path
   class="st0"
   d="m 208.24115,230.25 c -2.67,-3.46 -5.28,-7.09 -7.8,-10.6 -2.52,-3.51 -5.13,-7.13 -7.79,-10.58 -1.47,-1.91 -2.84,-3.61 -4.19,-5.19 l -1.11,0.89 0.41,0.53 c 1.22,1.41 2.45,2.94 3.76,4.64 2.64,3.42 5.24,7.04 7.76,10.54 2.53,3.52 5.15,7.16 7.83,10.64 1.05,1.36 2.06,2.62 3.06,3.83 0.47,-0.18 0.94,-0.35 1.41,-0.53 -1.08,-1.3 -2.19,-2.68 -3.34,-4.17 z"
   id="path947" />
<path
   class="st0"
   d="m 106.34115,225.18 c -1.49,0.08 -6.620002,0.04 -8.390002,0 -0.5,-0.01 -0.97,0.02 -1.48,0.05 -0.66,0.04 -1.41,0.08 -2.43,0.05 l -0.05,1.42 c 0.29,0.01 0.56,0.02 0.82,0.02 0.69,0 1.24,-0.03 1.75,-0.06 0.48,-0.03 0.91,-0.06 1.37,-0.04 1.79,0.04 6.980002,0.08 8.500002,0 z"
   id="path949" />
<path
   class="st0"
   d="m 108.47115,219.23 c -0.8,0 -1.77,-0.01 -2.84,-0.02 -4.62,-0.04 -10.960002,-0.1 -14.640002,0.43 l 0.2,1.41 c 3.57,-0.52 9.840002,-0.46 14.420002,-0.42 1.08,0.01 2.05,0.02 2.85,0.02 v -1.42 z"
   id="path951" />
<path
   class="st0"
   d="m 167.86115,215.18 c 3.23,-0.27 6.73,-0.51 9.64,-0.29 l 0.11,-1.42 c -3.01,-0.23 -6.58,0.02 -9.87,0.29 -2.29,0.19 -4.66,0.39 -6.97,0.39 -2.41,0 -4.52,-0.22 -6.46,-0.66 l -0.32,1.39 c 2.04,0.47 4.26,0.7 6.78,0.7 2.37,0 4.77,-0.2 7.09,-0.4 z"
   id="path953" />
<path
   class="st0"
   d="m 109.45115,239.8 c 0.47,0.69 1.01,1.47 1.78,2.47 l 1.13,-0.87 c -0.75,-0.97 -1.27,-1.74 -1.73,-2.41 -0.83,-1.22 -1.49,-2.18 -2.9,-3.51 l -0.98,1.03 c 1.29,1.23 1.88,2.09 2.7,3.29 z"
   id="path955" />
<path
   class="st0"
   d="m 207.47115,216.54 c -2.06,-2.77 -4.13,-5.55 -6.24,-8.29 -4.12,-5.33 -7.67,-9.52 -11.19,-13.19 l -1.03,0.98 c 3.48,3.63 7,7.78 11.09,13.07 2.11,2.74 4.17,5.5 6.23,8.27 2.06,2.77 4.13,5.55 6.25,8.29 1.82,2.35 3.52,4.47 5.16,6.43 0.47,-0.18 0.94,-0.35 1.41,-0.53 -1.73,-2.05 -3.53,-4.28 -5.45,-6.77 -2.12,-2.73 -4.17,-5.49 -6.23,-8.26 z"
   id="path957" />
<path
   class="st0"
   d="m 104.96115,232.49 c -0.9,-0.05 -1.72,-0.03 -2.59,0 -0.8,0.03 -1.66,0.04 -2.650002,0.02 -0.94,-0.02 -1.91,-0.04 -2.77,0.06 l 0.15,1.41 c 0.77,-0.08 1.7,-0.07 2.59,-0.05 1.020002,0.02 1.900002,0 2.720002,-0.02 0.83,-0.03 1.62,-0.06 2.45,0 z"
   id="path959" />
<path
   class="st0"
   d="m 102.66115,239 c -0.43,-0.02 -0.87,-0.04 -1.3,0.04 l 0.28,1.39 c 0.31,-0.06 0.63,-0.04 0.94,-0.02 0.19,0.01 0.38,0.02 0.57,0.02 0.3,0 0.75,-0.02 1.23,-0.21 l -0.53,-1.32 c -0.31,0.12 -0.74,0.12 -1.19,0.1 z"
   id="path961" />
<path
   class="st0"
   d="m 176.64115,235.39 -0.74,1.22 c 1.51,0.91 4,3.74 4.69,5.3 l 1.3,-0.57 c -0.79,-1.83 -3.49,-4.89 -5.25,-5.95 z"
   id="path963" />
<path
   class="st0"
   d="m 171.09115,239 c -0.53,-0.02 -1.07,-0.04 -1.64,0.04 l 0.2,1.41 c 0.48,-0.07 0.93,-0.05 1.37,-0.03 0.8,0.04 1.56,0.02 2.21,-0.17 l -0.39,-1.37 c -0.49,0.14 -1.1,0.14 -1.75,0.12 z"
   id="path965" />
<path
   class="st0"
   d="m 111.57115,230.72 -0.84,1.14 c 3.15,2.32 5.88,5.55 8.32,8.67 0.4,-0.26 0.8,-0.52 1.19,-0.78 -2.52,-3.22 -5.34,-6.58 -8.67,-9.03 z"
   id="path967" />
<path
   class="st0"
   d="m 182.88115,232.35 c -1.05,-1.2 -2.04,-2.32 -2.87,-3.28 l -1.08,0.93 c 0.84,0.97 1.83,2.1 2.88,3.29 2.55,2.9 5.42,6.16 7.44,8.72 0.5,-0.13 1,-0.27 1.49,-0.41 -2.05,-2.65 -5.14,-6.16 -7.86,-9.25 z"
   id="path969" />
<path
   class="st0"
   d="m 121.90115,232.71 c -3.51,-4.02 -7.5,-8.58 -8.84,-10.33 l -1.13,0.87 c 1.37,1.79 5.37,6.36 8.9,10.4 1.07,1.22 2.1,2.41 3.02,3.46 0.37,-0.3 0.73,-0.61 1.09,-0.92 -0.91,-1.04 -1.95,-2.23 -3.04,-3.48 z"
   id="path971" />
<path
   class="st0"
   d="m 225.56115,229.15 c 0.46,-0.18 0.92,-0.35 1.38,-0.53 -4.14,-5.59 -7.93,-10.6 -11.56,-15.3 -6.69,-8.66 -12.93,-16.37 -18.98,-23.45 -0.46,0.19 -0.92,0.38 -1.39,0.56 6.13,7.16 12.45,14.97 19.24,23.75 3.56,4.61 7.27,9.52 11.31,14.97 z"
   id="path973" />
<path
   class="st0"
   d="m 105.37115,194.6 c 1.89,0 3.35,0.09 4.77,0.17 2.43,0.14 4.53,0.26 7.88,-0.1 l -0.15,-1.41 c -3.23,0.35 -5.28,0.23 -7.65,0.09 -1.44,-0.08 -2.93,-0.17 -4.85,-0.17 -3.12,0 -6.240002,-0.06 -9.350002,-0.11 -3.12,-0.06 -6.25,-0.11 -9.38,-0.11 -1.44,0 -2.81,0.01 -4.13,0.04 0.15,0.31 0.29,0.62 0.44,0.92 0.09,0.17 0.2,0.33 0.29,0.49 1.09,-0.02 2.22,-0.03 3.39,-0.03 3.12,0 6.24,0.06 9.35,0.11 3.14,0.06 6.260002,0.11 9.390002,0.11 z"
   id="path975" />
<path
   class="st0"
   d="m 141.09115,194.9 c -0.63,-0.23 -1.25,-0.45 -1.88,-0.68 -0.03,-0.01 -0.05,-0.02 -0.08,-0.03 l 0.09,0.89 c 0.62,-0.06 1.24,-0.12 1.87,-0.18 z"
   id="path977" />
<rect
   x="148.75113"
   y="207.47"
   class="st0"
   width="31.200001"
   height="1.42"
   id="rect979" />
<path
   class="st0"
   d="m 106.25115,201.51 c 3.94,0 7.38,-0.14 10.53,-0.43 l -0.13,-1.42 c -3.1,0.28 -6.5,0.42 -10.4,0.42 -3.94,0 -7.980002,-0.14 -11.880002,-0.27 -2.44,-0.08 -4.93,-0.16 -7.42,-0.21 0.39,0.48 0.77,0.97 1.17,1.44 2.08,0.05 4.16,0.12 6.2,0.19 3.91,0.14 7.960002,0.28 11.930002,0.28 z"
   id="path981" />
<path
   class="st0"
   d="m 145.15115,201.09 c 1.69,-0.09 3.46,-0.13 5.4,-0.13 3.91,0 7.93,0.14 11.81,0.27 3.92,0.13 7.97,0.28 11.93,0.28 3.94,0 7.38,-0.14 10.53,-0.43 l -0.13,-1.42 c -3.1,0.28 -6.5,0.42 -10.4,0.42 -3.94,0 -7.98,-0.14 -11.88,-0.27 -1.11,-0.04 -2.25,-0.07 -3.38,-0.11 -0.04,0 -0.08,0 -0.12,0 -0.98,-0.02 -1.95,-0.06 -2.92,-0.09 -1.82,-0.04 -3.64,-0.08 -5.44,-0.08 -2.17,0 -4.15,0.04 -6.03,0.13 l 0.03,1.42 h 0.6 z"
   id="path983" />
<path
   class="st0"
   d="m 98.091148,187.06 c 7.000002,0 10.550002,0.13 15.460002,0.32 2.23,0.08 4.72,0.18 7.92,0.27 l 0.04,-1.42 c -3.19,-0.09 -5.67,-0.19 -7.9,-0.27 -4.93,-0.19 -8.49,-0.32 -15.510002,-0.32 -6.47,0 -12.53,0.09 -18.31,0.27 0.1,0.47 0.23,0.94 0.37,1.41 5.65,-0.18 11.59,-0.26 17.93,-0.26 z"
   id="path985" />
<path
   class="st0"
   d="m 99.821148,215.18 c 3.230002,-0.27 6.730002,-0.51 9.640002,-0.29 l 0.11,-1.42 c -3.01,-0.23 -6.58,0.02 -9.870002,0.29 -2.29,0.19 -4.66,0.39 -6.97,0.39 -0.65,0 -1.27,-0.02 -1.87,-0.05 -0.67,0.33 -1.35,0.66 -2.02,0.99 -0.16,0.08 -0.3,0.15 -0.42,0.21 1.35,0.18 2.77,0.27 4.32,0.27 2.36,0.01 4.76,-0.19 7.08,-0.39 z"
   id="path987" />
<path
   class="st0"
   d="m 239.22115,179.25 c -0.43,-0.02 -0.87,-0.04 -1.3,0.04 l 0.28,1.39 c 0.31,-0.06 0.63,-0.04 0.94,-0.02 0.19,0.01 0.38,0.02 0.57,0.02 0.3,0 0.75,-0.02 1.23,-0.21 l -0.53,-1.32 c -0.31,0.13 -0.74,0.13 -1.19,0.1 z"
   id="path989" />
<path
   class="st0"
   d="m 236.26115,174.19 c 1.02,0.02 1.9,0 2.72,-0.02 0.83,-0.03 1.62,-0.06 2.45,0 l 0.09,-1.42 c -0.91,-0.05 -1.72,-0.03 -2.59,0 -0.31,0.01 -0.63,0.02 -0.96,0.02 -0.02,0.01 -0.04,0.02 -0.06,0.03 -0.15,0.06 -0.41,0.18 -0.71,0.31 -0.41,0.17 -0.9,0.38 -1.08,0.45 -0.52,0.22 -1.04,0.43 -1.56,0.64 0.55,-0.02 1.13,-0.02 1.7,-0.01 z"
   id="path991" />
<path
   class="st0"
   d="m 258.46115,172.96 c -1.98,-2.27 -4.12,-4.71 -5.84,-6.72 -0.45,0.21 -0.9,0.41 -1.34,0.62 1.78,2.08 4.03,4.65 6.11,7.04 2.72,3.11 5.29,6.05 5.97,6.94 0.64,0.83 1.21,1.62 1.72,2.4 l 1.19,-0.78 c -0.54,-0.82 -1.12,-1.63 -1.79,-2.49 -0.71,-0.92 -3.17,-3.74 -6.02,-7.01 z"
   id="path993" />
<path
   class="st0"
   d="m 273.84115,157.64 c 2.06,2.77 4.13,5.55 6.25,8.29 4.12,5.33 7.67,9.52 11.19,13.19 l 1.03,-0.98 c -3.48,-3.63 -7,-7.78 -11.09,-13.07 -2.11,-2.74 -4.17,-5.5 -6.23,-8.27 -0.29,-0.38 -0.57,-0.77 -0.86,-1.15 -0.42,0.22 -0.85,0.45 -1.27,0.68 0.32,0.43 0.65,0.87 0.98,1.31 z"
   id="path995" />
<path
   class="st0"
   d="m 313.21115,175.65 -0.74,1.22 c 1.51,0.91 4,3.74 4.69,5.3 l 1.3,-0.57 c -0.8,-1.84 -3.5,-4.89 -5.25,-5.95 z"
   id="path997" />
<path
   class="st0"
   d="m 319.44115,172.61 c -1.05,-1.2 -2.04,-2.32 -2.87,-3.28 l -1.08,0.93 c 0.84,0.97 1.83,2.1 2.88,3.3 2.09,2.38 4.39,5 6.27,7.28 0.4,-0.26 0.79,-0.53 1.18,-0.8 -1.9,-2.34 -4.25,-5.01 -6.38,-7.43 z"
   id="path999" />
<path
   class="st0"
   d="m 271.99115,181.33 1.13,-0.87 -13.52,-17.51 c -0.44,0.21 -0.88,0.41 -1.32,0.62 z"
   id="path1001" />
<path
   class="st0"
   d="m 266.79115,160.74 c 2.53,3.52 5.15,7.16 7.83,10.64 2.66,3.45 5.11,6.37 7.49,8.93 l 1.04,-0.97 c -2.35,-2.53 -4.77,-5.42 -7.41,-8.83 -2.67,-3.46 -5.28,-7.09 -7.8,-10.6 -0.19,-0.26 -0.38,-0.52 -0.57,-0.79 -0.43,0.22 -0.86,0.43 -1.29,0.65 0.25,0.32 0.48,0.65 0.71,0.97 z"
   id="path1003" />
<path
   class="st0"
   d="m 257.13115,182.74 1.13,-0.87 c -2.88,-3.73 -6.15,-7.96 -10.13,-10.89 l -0.84,1.14 c 3.81,2.81 7.02,6.96 9.84,10.62 z"
   id="path1005" />
<path
   class="st0"
   d="m 244.28115,175.74 -0.98,1.03 c 1.3,1.22 1.89,2.09 2.7,3.28 0.47,0.69 1.01,1.47 1.78,2.47 l 1.13,-0.87 c -0.75,-0.97 -1.27,-1.74 -1.73,-2.41 -0.83,-1.21 -1.49,-2.17 -2.9,-3.5 z"
   id="path1007" />
<path
   class="st0"
   d="m 319.92115,153.99 14.91,19.3 c 0.36,-0.3 0.73,-0.61 1.09,-0.91 l -14.87,-19.25 z"
   id="path1009" />
<path
   class="st0"
   d="m 329.21115,149.33 c -1.47,-1.91 -2.84,-3.61 -4.19,-5.19 l -1.11,0.89 0.41,0.53 c 1.22,1.41 2.45,2.94 3.76,4.64 2.65,3.42 5.24,7.04 7.76,10.54 1.65,2.3 3.35,4.65 5.07,6.98 0.34,-0.34 0.67,-0.69 1,-1.04 -1.67,-2.25 -3.31,-4.53 -4.91,-6.76 -2.52,-3.52 -5.13,-7.14 -7.79,-10.59 z"
   id="path1011" />
<path
   class="st0"
   d="m 310.22115,160.89 c 1.08,0.01 2.05,0.02 2.85,0.02 v -1.42 c -0.8,0 -1.77,-0.01 -2.84,-0.02 -4.62,-0.04 -10.96,-0.1 -14.64,0.43 l 0.2,1.41 c 3.58,-0.52 9.85,-0.46 14.43,-0.42 z"
   id="path1013" />
<path
   class="st0"
   d="m 314.83115,133.61 c -1.44,-0.08 -2.93,-0.17 -4.85,-0.17 -0.43,0 -0.86,-0.01 -1.29,-0.01 -0.48,0.47 -0.96,0.94 -1.45,1.41 0.91,0.01 1.83,0.02 2.74,0.02 1.89,0 3.35,0.09 4.77,0.17 2.43,0.14 4.53,0.26 7.88,-0.1 l -0.15,-1.41 c -3.23,0.34 -5.28,0.23 -7.65,0.09 z"
   id="path1015" />
<path
   class="st0"
   d="m 301.15115,166.9 c 0.48,-0.03 0.91,-0.06 1.37,-0.04 1.79,0.04 6.98,0.08 8.5,0 l -0.08,-1.42 c -1.49,0.08 -6.62,0.04 -8.39,0 -0.5,-0.01 -0.97,0.02 -1.48,0.05 -0.66,0.04 -1.41,0.08 -2.43,0.05 l -0.05,1.42 c 0.29,0.01 0.56,0.02 0.82,0.02 0.67,-0.02 1.23,-0.06 1.74,-0.08 z"
   id="path1017" />
<path
   class="st0"
   d="m 337.78115,148.5 c -4.12,-5.33 -7.67,-9.52 -11.19,-13.19 l -1.03,0.98 c 3.48,3.63 7,7.78 11.09,13.07 2.11,2.74 4.17,5.5 6.23,8.27 1.03,1.38 2.06,2.77 3.09,4.15 0.3,-0.4 0.59,-0.8 0.87,-1.21 -0.94,-1.26 -1.89,-2.52 -2.82,-3.79 -2.05,-2.76 -4.12,-5.53 -6.24,-8.28 z"
   id="path1019" />
<path
   class="st0"
   d="m 304.30115,174.19 c 1.02,0.02 1.9,0 2.72,-0.02 0.83,-0.03 1.61,-0.06 2.45,0 l 0.09,-1.42 c -0.9,-0.05 -1.72,-0.03 -2.59,0 -0.8,0.03 -1.66,0.04 -2.65,0.02 -0.94,-0.02 -1.91,-0.04 -2.77,0.06 l 0.15,1.41 c 0.79,-0.08 1.71,-0.06 2.6,-0.05 z"
   id="path1021" />
<path
   class="st0"
   d="m 307.65115,179.25 c -0.53,-0.02 -1.07,-0.04 -1.64,0.04 l 0.2,1.41 c 0.48,-0.07 0.93,-0.05 1.37,-0.03 0.8,0.04 1.56,0.02 2.21,-0.17 l -0.39,-1.37 c -0.49,0.15 -1.1,0.15 -1.75,0.12 z"
   id="path1023" />
<path
   class="st0"
   d="m 318.15115,127.63 c 2.23,0.08 4.72,0.18 7.92,0.27 l 0.04,-1.42 c -3.19,-0.09 -5.67,-0.19 -7.9,-0.27 -0.99,-0.04 -1.92,-0.07 -2.83,-0.1 -0.42,0.46 -0.85,0.92 -1.27,1.38 1.3,0.04 2.61,0.09 4.04,0.14 z"
   id="path1025" />
<path
   class="st0"
   d="m 281.77115,154.45 c 6.01,7.78 12.44,16.41 20.24,27.14 l 1.15,-0.84 c -7.8,-10.74 -14.24,-19.38 -20.26,-27.17 -0.5,-0.65 -0.99,-1.27 -1.48,-1.91 -0.42,0.23 -0.83,0.48 -1.25,0.71 0.53,0.69 1.06,1.37 1.6,2.07 z"
   id="path1027" />
<path
   class="st0"
   d="m 304.42115,155.44 c 3.23,-0.27 6.73,-0.51 9.64,-0.29 l 0.11,-1.42 c -3.01,-0.23 -6.58,0.02 -9.87,0.29 -2.29,0.19 -4.66,0.39 -6.97,0.39 -2.41,0 -4.52,-0.22 -6.46,-0.66 l -0.32,1.39 c 2.04,0.47 4.26,0.7 6.78,0.7 2.37,-0.01 4.77,-0.21 7.09,-0.4 z"
   id="path1029" />
<path
   class="st0"
   d="m 316.51115,147.73 h -28.29 c -0.79,0.47 -1.57,0.96 -2.37,1.42 h 30.65 v -1.42 z"
   id="path1031" />
<path
   class="st0"
   d="m 329.01115,127.72 c 6.86,7.88 13.92,16.53 21.56,26.41 0.23,-0.49 0.44,-0.99 0.64,-1.49 -7.47,-9.65 -14.4,-18.12 -21.13,-25.86 z"
   id="path1033" />
<path
   class="st0"
   d="m 323.33115,168.18 c -1.46,-1.89 -3.28,-4.02 -5,-5.87 l -1.04,0.97 c 1.69,1.81 3.48,3.92 4.91,5.77 1.6,2.08 3.4,4.04 5.14,5.94 0.73,0.79 1.46,1.6 2.19,2.42 0.38,-0.28 0.77,-0.56 1.15,-0.85 -0.76,-0.86 -1.53,-1.71 -2.29,-2.54 -1.72,-1.87 -3.49,-3.81 -5.06,-5.84 z"
   id="path1035" />
<path
   class="st0"
   d="m 321.25115,139.93 c -3.1,0.28 -6.5,0.42 -10.4,0.42 -3.53,0 -7.13,-0.11 -10.65,-0.24 -0.66,0.45 -1.32,0.92 -1.99,1.36 0.23,0.01 0.47,0.01 0.7,0.02 3.92,0.13 7.97,0.28 11.93,0.28 3.94,0 7.38,-0.14 10.53,-0.43 z"
   id="path1037" />
<path
   class="st0"
   d="m 102.66115,179.25 c -0.43,-0.02 -0.87,-0.04 -1.3,0.04 l 0.28,1.39 c 0.31,-0.06 0.63,-0.04 0.94,-0.02 0.19,0.01 0.38,0.02 0.57,0.02 0.3,0 0.75,-0.02 1.23,-0.21 l -0.53,-1.32 c -0.31,0.13 -0.74,0.13 -1.19,0.1 z"
   id="path1039" />
<path
   class="st0"
   d="m 109.45115,180.05 c 0.47,0.69 1.01,1.47 1.78,2.47 l 1.13,-0.87 c -0.75,-0.97 -1.27,-1.74 -1.73,-2.41 -0.83,-1.22 -1.49,-2.18 -2.9,-3.51 l -0.98,1.03 c 1.29,1.24 1.88,2.1 2.7,3.29 z"
   id="path1041" />
<path
   class="st0"
   d="m 234.50115,181.58 1.15,-0.84 c -1.35,-1.86 -2.65,-3.64 -3.92,-5.38 -0.21,0.09 -0.42,0.17 -0.63,0.26 -0.24,0.1 -0.49,0.2 -0.73,0.3 1.33,1.83 2.7,3.7 4.13,5.66 z"
   id="path1043" />
<path
   class="st0"
   d="m 223.76115,179.12 0.95,-0.92 c -0.12,0.05 -0.23,0.09 -0.35,0.14 -0.15,0.06 -0.48,0.23 -0.91,0.45 0.11,0.12 0.21,0.23 0.31,0.33 z"
   id="path1045" />
<path
   class="st0"
   d="m 104.96115,172.75 c -0.9,-0.05 -1.72,-0.03 -2.59,0 -0.8,0.03 -1.66,0.04 -2.650002,0.02 -0.94,-0.02 -1.91,-0.04 -2.77,0.06 l 0.15,1.41 c 0.77,-0.08 1.7,-0.07 2.59,-0.05 1.020002,0.02 1.900002,0 2.720002,-0.02 0.83,-0.03 1.62,-0.06 2.45,0 z"
   id="path1047" />
<path
   class="st1"
   d="m 141.40115,85.63 c -1.51,-12.7 -6.49,-23.05 -14.57,-32.9 -3.73,-4.55 -8.2,-8.31 -12.84,-11.89 -3.81,-2.94 -8.07,-7.31 -13.1,-7.67 -0.14,-0.01 -0.26,0.13 -0.26,0.26 0.1,3.88 2.61,6.93 4.72,10.01 2.63,3.85 5.24,7.73 7.39,11.87 4.24,8.21 5.17,17.04 5.13,26.16 -0.02,5.34 -0.76,10.91 -2.43,16.07 -2.82,-1.08 -6.16,-0.77 -8.18,1.68 -2.65,3.22 -3.73,7.13 -6.22,10.44 -2.470002,3.29 -5.860002,5.99 -9.290002,8.21 -8.04,5.19 -17.02,8.72 -25.11,13.84 -0.86,0.55 -0.32,2.11 0.73,1.73 3.56,-1.29 7.22,-2.16 10.92,-2.92 -1.99,0.52 -3.85,1.6 -5.29,3.19 -2.05,0.67 -4.07,1.45 -6.04,2.47 -5.72,2.94 -10.65,7.45 -14.6,12.48 -7.89,10.05 -11.42,22.18 -16.86,33.53 -3.22,6.73 -7.34,10.14 -14.39,12.52 -5.23,1.77 -11.2200002,3.1 -14.3800002,7.93 -0.33,0.5 0.09,1.37 0.74,1.29 12.3100002,-1.55 25.7600002,-1.23 34.7600002,-11.14 8.76,-9.65 11.86,-23.04 19.98,-33.24 2.41,-3.02 5.08,-5.83 8.19,-8.03 0.31,3.76 0.71,7.53 0.78,11.18 0.16,7.68 -0.78,15.16 -1.41,22.78 -0.52,6.35 -1.3,12.93 -4,18.78 -1.19,2.58 -2.73,5.02 -4.65,7.12 -0.08,0 -0.16,0 -0.24,0 -3.14,-0.04 -6.27,0.2 -9.41,0.2 0.76,-1.63 1.7,-3.61 1.93,-3.98 1.53,-2.48 2.53,-4.79 3.43,-7.55 0.21,-0.63 -0.36,-1.45 -1.05,-1.38 -5.8,0.56 -12.23,2.26 -17.08,5.66 -6.4,4.48 -8.36,13.58 -4.44,20.31 3.89,6.68 11.28,8.26 18.33,9.28 7.98,1.15 15.99,1.53 24.04,0.88 12.02,-0.97 39.100002,-8.08 34.390002,-25.23 -2.23,-8.13 -11.630002,-9.77 -18.760002,-10.65 -2.59,-0.32 -5.74,-0.69 -8.84,-0.61 0.65,-1.34 1.28,-2.69 1.87,-4.04 3.9,-9.04 5.84,-18.13 7.07,-27.89 0.84,-6.65 1.49,-14.38 0.58,-21.47 1.75,-0.29 3.49,-0.61 5.21,-1.03 5.990002,-1.46 11.450002,-4.24 16.150002,-8.12 0.39,-0.09 0.77,-0.2 1.14,-0.31 7.13,-2.16 12.51,-7.28 16.86,-13.14 7.61,-10.26 10.6,-24.1 9.1,-36.68 z m -54.160002,44.28 c -0.94,0.27 -1.89,0.52 -2.83,0.76 -1.94,-0.62 -4.02,-0.67 -5.98,-0.18 5.42,-1.1 10.9,-1.96 16.22,-3.47 -2.26,1.17 -4.69,2.11 -7.41,2.89 z"
   id="path1049" />
<path
   class="st1"
   d="m 213.59115,97.16 c -0.66,-1.13 -1.46,-2.08 -2.34,-2.87 -0.09,-2.83 -1.11,-5.63 -3.1,-7.85 -4.12,-4.6 -10.02,-6.12 -16,-6.51 -6.35,-0.41 -12.88,0.94 -17.24,5.84 -10.72053,21.65745 13.91191,33.95251 31.38,29.35 7.56,-2.19 11.31,-11.11 7.3,-17.96 z"
   id="path1051"
   style="fill:#484dff;fill-opacity:1;opacity:0.50803859"
   sodipodi:nodetypes="ccccccc" />
<path
   class="st1"
   d="m 113.50115,79.94 c -0.55,-6.64 -11.49,-9.39 -12.63,-1.71 -1.120002,7.62 -3.460002,12.98 -9.590002,17.92 -5.77,4.65 -12.74,8.58 -19.56,11.44 -0.9,0.38 -0.91,1.89 0.25,1.86 9.41,-0.27 18.33,-2.3 26.58,-6.96 8.000002,-4.53 15.760002,-12.7 14.950002,-22.55 z"
   id="path1053" />
<path
   class="st1"
   d="m 71.681148,74.07 c -3.02,-2.81 -8.83,-9.56 -13.38,-6.07 -0.76,0.59 -1.21,1.55 -0.65,2.47 0.52,0.85 0.39,3.22 0.48,4.36 0.22,2.83 0.37,5.67 0.9,8.46 1,5.29 2.45,11.79 7.66,14.49 3.35,1.74 8.12,1.65 10.8,-1.39 7.02,-7.92 0.48,-16.48 -5.81,-22.32 z"
   id="path1055" />
<path
   class="st1"
   d="m 54.601148,96.67 c -0.57,-1.02 -1.14,-2.03 -1.72,-3.05 -0.64,-1.14 -2.29,-1.62 -3.41,-0.89 -1.24,0.8 -1.46,2.13 -0.89,3.41 0.47,1.07 0.95,2.15 1.42,3.22 0.56,1.28 2.53,1.67 3.65,0.96 1.22,-0.79 1.68,-2.35 0.95,-3.65 z"
   id="path1057" />
<path
   class="st1"
   d="m 320.50115,114.62 c -1.89,-6.47 -7.32,-10.05 -13.13,-12.5 -1.32,-0.56 -2.78,-0.63 -4.22,-0.37 V 82.69 c -56.36,32.66 -142.95,82.94 -142.95,82.94 v 29.11 c -6.29,0.75 -12.15,-0.33 -18.21,-2.82 -7.34,-3.01 -14.06,-7.56 -21.78,-9.48 -0.15,-0.04 -0.26,0.12 -0.19,0.25 6.82,13.26 22.78,23.94 36.5,29.04 16.85,6.27 35.23,-0.3 49.68,-9.35 14.74,-9.23 29.59,-19.24 45.54,-25.87 15.78,-6.55 33.91,-10.31 48.03,-20.26 8.92,-6.29 17.62,-14.64 20.7,-25.5 1.47,-5.23 1.56,-10.89 0.03,-16.13 z"
   id="path1059" />
<path
   class="st2"
   d="m 90.831148,16.37 c 0.16,2.56 0.28,5.05 0.78,7.05 -4.59,0.15 -10.56,2.02 -18.49,2.02 -1.72,0 -4.56,-0.23 -7.2,-0.82 -3.33,-0.74 -6.33,-2.04 -6.33,-4.13 0,-3.9 6.88,-17.99 21.44,-17.99 8.61,0 9.36,7.17 9.8,13.87 z"
   id="path1061" />
<path
   class="st1"
   d="m 42.681148,108.42 c -5.58,-1.97 -10.56,-4.89 -15.69,-7.8 -3.65,-2.08 -8.13,-5.58 -12.56,-4.33 -0.73,0.21 -1.14,0.97 -0.96,1.69 1.09,4.4 4.86,9.43 7.51,13.08 3.54,4.86 8.01,9.09 12.69,12.83 4.59,3.67 11.31,3.65 14.54,-1.87 3.14,-5.37 0.04,-11.63 -5.53,-13.6 z"
   id="path1063" />
<g
   id="g1067"
   transform="translate(-120.79885,-292.35)">
	<path
   class="st2"
   d="m 378.97,389.93 c -0.86,0 -1.7,-0.45 -2.17,-1.25 -0.69,-1.19 -0.29,-2.72 0.91,-3.42 3.96,-2.3 10.72,-6.33 16.09,-9.56 l -16.12,-9.32 c -1.2,-0.69 -1.6,-2.22 -0.91,-3.42 0.69,-1.2 2.22,-1.6 3.42,-0.91 l 19.79,11.44 c 0.77,0.44 1.24,1.26 1.25,2.14 0.01,0.89 -0.45,1.71 -1.21,2.16 -7.17,4.31 -15.21,9.12 -19.79,11.78 -0.4,0.25 -0.83,0.36 -1.26,0.36 z"
   id="path1065" />
</g>
<g
   id="g1071"
   transform="translate(-120.79885,-292.35)">
	<path
   class="st2"
   d="m 281.56,443.16 c -0.43,0 -0.86,-0.11 -1.25,-0.33 l -20.1,-11.6 c -1.2,-0.69 -1.61,-2.22 -0.91,-3.41 0.69,-1.2 2.22,-1.61 3.41,-0.92 l 18.85,10.88 c 2.35,-1.35 8.13,-4.69 18.37,-10.61 1.2,-0.69 2.72,-0.28 3.42,0.91 0.69,1.2 0.28,2.72 -0.91,3.42 -13.95,8.06 -19.62,11.33 -19.62,11.33 -0.4,0.22 -0.83,0.33 -1.26,0.33 z"
   id="path1069" />
</g>
<g
   id="g1075"
   transform="translate(-120.79885,-292.35)">
	<path
   class="st2"
   d="m 322.96,357.51 c -0.86,0 -1.7,-0.45 -2.17,-1.25 -0.69,-1.2 -0.28,-2.72 0.91,-3.42 13.95,-8.06 20.08,-11.59 20.08,-11.59 0.77,-0.44 1.73,-0.44 2.5,0 0,0 8.73,5.04 19.1,11.02 1.2,0.69 1.61,2.22 0.92,3.41 -0.69,1.2 -2.22,1.61 -3.42,0.92 -8.03,-4.63 -15.08,-8.7 -17.85,-10.3 -2.43,1.4 -8.47,4.89 -18.83,10.87 -0.38,0.23 -0.81,0.34 -1.24,0.34 z"
   id="path1073" />
</g>
<g
   id="g1079"
   transform="translate(-120.79885,-292.35)">
	<path
   class="st2"
   d="m 246.92,424.04 c -0.42,0 -0.85,-0.11 -1.25,-0.33 -4.23,-2.44 -8.18,-4.73 -11.38,-6.58 -1.2,-0.69 -1.61,-2.22 -0.92,-3.42 0.69,-1.2 2.22,-1.6 3.41,-0.92 3.21,1.85 7.16,4.14 11.39,6.58 1.2,0.69 1.61,2.22 0.92,3.41 -0.47,0.81 -1.31,1.26 -2.17,1.26 z"
   id="path1077" />
</g>
<g
   id="g1083"
   transform="translate(-120.79885,-292.35)">
	<path
   class="st2"
   d="m 243.95,403.7 c -0.86,0 -1.7,-0.45 -2.16,-1.24 -0.7,-1.19 -0.29,-2.72 0.9,-3.42 1.1,-0.64 2.26,-1.31 3.5,-2.02 1.2,-0.69 2.72,-0.28 3.42,0.92 0.69,1.2 0.28,2.72 -0.92,3.42 -1.23,0.71 -2.38,1.38 -3.48,2.02 -0.4,0.21 -0.83,0.32 -1.26,0.32 z"
   id="path1081" />
</g>
<g
   id="g1087"
   transform="translate(-120.79885,-292.35)">
	<path
   class="st2"
   d="m 313.35,412.47 c -7.3,0 -14.61,-1.64 -20.3,-4.93 -5.89,-3.4 -9.14,-8.07 -9.14,-13.16 0,-5.09 3.25,-9.76 9.14,-13.16 11.38,-6.57 29.21,-6.57 40.59,0 5.89,3.4 9.14,8.07 9.14,13.16 0,5.09 -3.25,9.76 -9.14,13.16 -5.69,3.29 -12.99,4.93 -20.29,4.93 z m -17.8,-26.92 c -4.28,2.47 -6.64,5.61 -6.64,8.83 0,3.22 2.36,6.36 6.64,8.83 9.81,5.67 25.78,5.67 35.59,0 4.28,-2.47 6.64,-5.61 6.64,-8.83 0,-3.22 -2.36,-6.36 -6.64,-8.83 -9.81,-5.66 -25.77,-5.66 -35.59,0 z"
   id="path1085" />
</g>
<g
   id="g1091"
   transform="translate(-120.79885,-292.35)">
	<path
   class="st2"
   d="m 281,497.9 c -0.43,0 -0.86,-0.11 -1.25,-0.33 l -79.14,-45.69 c -0.77,-0.45 -1.25,-1.27 -1.25,-2.17 V 423.9 c 0,-1.38 1.12,-2.5 2.5,-2.5 1.38,0 2.5,1.12 2.5,2.5 v 24.37 l 76.63,44.24 140.46,-81.96 v -34.06 c -26.51,-15.19 -68.9,-39.38 -76.69,-43.83 l -99.06,57.2 c -1.19,0.69 -2.72,0.28 -3.42,-0.92 -0.69,-1.2 -0.28,-2.72 0.92,-3.42 L 343.5,327.6 c 0.77,-0.44 1.72,-0.45 2.49,-0.01 0.5,0.28 50.23,28.65 79.2,45.26 0.78,0.45 1.26,1.27 1.26,2.17 v 36.94 c 0,0.89 -0.47,1.71 -1.24,2.16 l -142.95,83.42 c -0.39,0.24 -0.82,0.36 -1.26,0.36 z"
   id="path1089" />
</g>
<g
   id="g1095"
   transform="translate(-120.79885,-292.35)">
	<path
   class="st2"
   d="m 281,497.9 c -1.38,0 -2.5,-1.12 -2.5,-2.5 v -37.42 c 0,-1.38 1.12,-2.5 2.5,-2.5 1.38,0 2.5,1.12 2.5,2.5 v 37.42 c 0,1.38 -1.12,2.5 -2.5,2.5 z"
   id="path1093" />
</g>
<g
   id="g1099"
   transform="translate(-120.79885,-292.35)">
	<path
   class="st2"
   d="m 281,460.48 c -0.43,0 -0.86,-0.11 -1.25,-0.33 L 217,423.91 c -1.2,-0.69 -1.61,-2.22 -0.92,-3.42 0.69,-1.2 2.22,-1.6 3.42,-0.92 l 61.5,35.51 c 10.87,-6.31 89.66,-52.06 141.7,-82.21 1.19,-0.69 2.72,-0.29 3.42,0.91 0.69,1.19 0.29,2.72 -0.91,3.42 -55.71,32.29 -142.08,82.44 -142.95,82.94 -0.39,0.22 -0.83,0.34 -1.26,0.34 z"
   id="path1097" />
</g>
<g
   id="g1103"
   transform="translate(-120.79885,-292.35)">
	<path
   class="st2"
   d="m 198.51,334.69 c -0.46,0 -1.06,-0.11 -1.79,-0.32 -3.77,-1.06 -8.71,-3.98 -11.17,-8.95 -1.08,-2.2 -1.62,-4.64 -1.62,-7.27 0,-0.46 0.01,-0.93 0.05,-1.39 0.12,-1.51 1.44,-2.65 2.96,-2.53 1.51,0.12 2.65,1.44 2.53,2.95 -0.03,0.32 -0.03,0.65 -0.03,0.97 0,1.78 0.36,3.41 1.06,4.84 2.14,4.33 6.84,5.83 7.76,6.09 0.18,0.05 0.31,0.09 0.41,0.11 6.29,-0.08 9.87,-5.34 11.04,-9.84 0.3,-1.19 0.47,-2.43 0.49,-3.65 0,-0.04 0,-0.09 0.01,-0.13 0,-0.08 0,-0.15 0,-0.23 0,-2.05 -0.36,-3.9 -1.07,-5.49 -0.62,-1.39 0,-3.01 1.39,-3.63 1.39,-0.62 3.01,0 3.63,1.39 1.03,2.3 1.55,4.9 1.55,7.73 0,0.18 0,0.36 -0.01,0.53 -0.04,1.62 -0.26,3.25 -0.66,4.84 -2.18,8.36 -8.81,13.98 -16.53,13.98 z m 0.21,-5.49 h 0.01 z"
   id="path1101" />
</g>
<g
   id="g1107"
   transform="translate(-120.79885,-292.35)">
	<path
   class="st2"
   d="m 131.26,493.47 c -4.44,0 -6.14,-0.07 -7.27,-0.3 -1.45,-0.29 -3.18,-1.18 -3.18,-3.78 0,-0.56 0.07,-1.06 0.13,-1.41 0.01,-0.08 0.03,-0.16 0.03,-0.23 0.05,-3.02 3.03,-4.26 6.47,-5.7 3.26,-1.36 7.31,-3.05 8.86,-6 0.69,-1.3 1.35,-2.66 2.04,-4.19 3.34,-7.34 5.76,-15.25 8.11,-22.89 5.68,-18.53 11.04,-36.03 28.27,-44.65 1.36,-0.68 3.01,-0.13 3.69,1.23 0.68,1.36 0.13,3.01 -1.23,3.69 -15.12,7.56 -20.15,23.97 -25.47,41.34 -2.4,7.82 -4.87,15.9 -8.36,23.56 -0.73,1.62 -1.45,3.09 -2.18,4.48 -2.47,4.7 -7.75,6.91 -11.61,8.52 -0.59,0.25 -1.28,0.53 -1.89,0.81 1.3,0.03 2.74,0.03 3.59,0.03 15.38,0 17.04,-2.37 20.99,-11.45 0.61,-1.39 2.23,-2.03 3.62,-1.43 1.39,0.61 2.03,2.23 1.42,3.62 -4.97,11.42 -8.99,14.75 -26.03,14.75 z m -4.79,-5.64 c 0,0 0,0 0,0 0,0 0,0 0,0 z m -5.5,-0.03 c 0,0.01 0,0.02 0,0.02 0,0 0,-0.01 0,-0.02 z"
   id="path1105" />
</g>
<g
   id="g1111"
   transform="translate(-120.79885,-292.35)">
	<path
   class="st2"
   d="m 154.78,480.37 c -0.37,0 -0.74,-0.07 -1.09,-0.23 -1.39,-0.6 -2.03,-2.22 -1.43,-3.62 0.54,-1.25 1.1,-2.6 1.72,-4.07 3.19,-7.66 7.55,-18.16 16.6,-32.97 2.37,-3.86 4.94,-7.84 7.65,-11.82 2.53,-3.71 8.15,-4.96 17.63,-5.97 1.22,-0.13 2.48,-0.26 3.78,-0.39 l 1.93,-0.19 c 5.5,-0.54 10.87,-1.12 16.07,-2.22 16.68,-3.48 24.12,-10.93 24.12,-24.16 v -1.24 c -0.01,-1.97 -0.03,-3.89 -0.07,-5.73 -0.93,-40.5 -10.25,-48.2 -19.27,-55.65 l -0.8,-0.66 c -3.26,-2.67 -6.63,-5.43 -9.93,-9.28 -0.99,-1.15 -0.85,-2.89 0.3,-3.88 1.15,-0.99 2.89,-0.85 3.88,0.3 2.98,3.48 6.16,6.09 9.23,8.61 l 0.81,0.67 c 11.88,9.81 20.36,19.84 21.27,59.77 0.04,1.88 0.06,3.82 0.07,5.84 v 1.25 c 0,15.87 -9.32,25.54 -28.49,29.54 -5.47,1.15 -11,1.75 -16.65,2.3 l -1.94,0.19 c -1.28,0.13 -2.53,0.25 -3.73,0.38 -3.94,0.42 -12.11,1.29 -13.68,3.6 -2.66,3.91 -5.19,7.81 -7.51,11.6 -8.83,14.45 -13.09,24.72 -16.21,32.22 -0.62,1.5 -1.2,2.88 -1.75,4.15 -0.44,1.04 -1.45,1.66 -2.51,1.66 z"
   id="path1109" />
</g>
<g
   id="g1115"
   transform="translate(-120.79885,-292.35)">
	<path
   class="st2"
   d="m 162.42,403.55 c -0.3,0 -0.6,-0.05 -0.89,-0.16 -2.06,-0.78 -4.09,-1.6 -6.22,-2.49 -7.8,-3.29 -15.11,-6.95 -23.7,-11.45 -0.61,-0.32 -1.06,-0.87 -1.25,-1.53 -1.35,-4.77 -2.73,-8.83 -4.06,-12.75 -1.97,-5.81 -3.84,-11.3 -5.44,-18.46 -0.21,-0.93 0.13,-1.9 0.88,-2.5 0.75,-0.6 1.77,-0.71 2.63,-0.3 6.5,3.09 13.49,6.51 19.66,9.53 5.53,2.7 10.75,5.26 14.83,7.19 0.83,0.39 1.38,1.21 1.43,2.13 0.19,3.68 0.58,7.49 1.15,11.33 0.77,5.31 1.91,10.8 3.39,16.33 0.24,0.91 -0.04,1.87 -0.74,2.5 -0.46,0.4 -1.06,0.63 -1.67,0.63 z m -5.17,-7.27 c 0.52,0.22 1.04,0.44 1.56,0.65 -0.96,-4.1 -1.74,-8.17 -2.31,-12.13 -0.52,-3.47 -0.89,-6.94 -1.11,-10.31 -3.88,-1.85 -8.59,-4.16 -13.55,-6.58 -4.67,-2.28 -9.81,-4.8 -14.85,-7.22 1.24,4.62 2.61,8.65 4.04,12.86 1.26,3.7 2.56,7.52 3.84,11.96 8.08,4.21 15.03,7.67 22.38,10.77 z"
   id="path1113" />
</g>
<g
   id="g1119"
   transform="translate(-120.79885,-292.35)">
	<path
   class="st2"
   d="m 162.86,405.13 c -0.81,0 -1.6,-0.39 -2.08,-1.12 -0.76,-1.15 -0.45,-2.7 0.7,-3.47 0.26,-0.17 0.52,-0.34 0.78,-0.5 4.18,-2.57 8.61,-3.72 13.31,-4.94 3.93,-1.02 7.99,-2.07 12.2,-4.05 7.9,-3.7 14.59,-9.91 21.04,-19.52 4.02,-5.96 8,-13.41 11.83,-22.15 0.55,-1.26 2.03,-1.84 3.29,-1.29 1.26,0.55 1.84,2.03 1.29,3.29 -4,9.14 -8.01,16.64 -12.26,22.94 -6.97,10.39 -14.3,17.15 -23.06,21.26 -4.64,2.17 -9.12,3.33 -13.07,4.36 -4.51,1.17 -8.4,2.17 -11.93,4.35 -0.21,0.13 -0.43,0.27 -0.65,0.41 -0.43,0.29 -0.91,0.43 -1.39,0.43 z"
   id="path1117" />
</g>
<g
   id="g1123"
   transform="translate(-120.79885,-292.35)">
	<path
   class="st2"
   d="m 169.71,409.76 c -6.5,0 -12.67,-3.2 -16.11,-8.35 -0.77,-1.15 -0.46,-2.7 0.69,-3.47 1.15,-0.76 2.7,-0.46 3.47,0.69 2.52,3.78 7.1,6.13 11.95,6.13 0.08,-0.01 0.97,-0.1 5.59,-1.06 10.56,-2.19 30.64,-6.89 35.69,-8.66 2.85,-0.99 5.4,-2.63 7.59,-4.87 2.48,-2.54 4.54,-5.84 6.31,-10.1 2.19,-5.32 3.56,-11.37 4.72,-17.11 0.27,-1.35 1.6,-2.23 2.94,-1.96 1.35,0.27 2.23,1.59 1.96,2.94 -1.2,5.99 -2.64,12.31 -5,18.03 -2.02,4.86 -4.42,8.68 -7.35,11.68 -2.74,2.8 -5.94,4.84 -9.51,6.09 -5.23,1.83 -25.64,6.62 -36.33,8.84 -5.59,1.18 -6.23,1.18 -6.61,1.18 z"
   id="path1121" />
</g>
<g
   id="g1127"
   transform="translate(-120.79885,-292.35)">
	<path
   class="st2"
   d="m 167.43,382.28 c -0.04,0 -0.09,0 -0.13,0 -1.38,-0.07 -2.44,-1.25 -2.37,-2.63 0.34,-6.5 0.74,-11.81 1.26,-16.71 1.7,-16.03 5.66,-37.72 20.25,-41.09 1.34,-0.31 2.69,0.53 3,1.87 0.31,1.35 -0.53,2.69 -1.88,3 -8.62,1.99 -13.99,14.01 -16.41,36.75 -0.51,4.81 -0.91,10.03 -1.24,16.44 -0.05,1.33 -1.16,2.37 -2.48,2.37 z"
   id="path1125" />
</g>
<g
   id="g1131"
   transform="translate(-120.79885,-292.35)">
	<path
   class="st2"
   d="m 188.32,394.03 c -0.34,0 -0.69,-0.07 -1.03,-0.22 -1.39,-0.63 -3.38,-1.65 -5.68,-2.84 -1.08,-0.56 -2.22,-1.14 -3.38,-1.73 -6.69,-3.38 -10.81,-5.1 -12.23,-5.1 -0.77,0 -2.49,0.6 -5.01,2.29 -1.15,0.77 -2.7,0.46 -3.47,-0.69 -0.77,-1.15 -0.46,-2.7 0.69,-3.47 3.11,-2.08 5.73,-3.13 7.79,-3.13 2.4,0 6.46,1.58 14.49,5.64 1.17,0.59 2.33,1.19 3.41,1.75 2.24,1.15 4.18,2.15 5.45,2.72 1.26,0.57 1.82,2.05 1.25,3.31 -0.42,0.92 -1.33,1.47 -2.28,1.47 z"
   id="path1129" />
</g>
<g
   id="g1135"
   transform="translate(-120.79885,-292.35)">
	<path
   class="st2"
   d="m 181.14,389.46 c -1.38,0 -2.5,-1.12 -2.5,-2.5 0,-7.1 0,-14.44 0.65,-21.52 0.31,-3.49 0.75,-6.65 1.36,-9.66 0.27,-1.35 1.59,-2.23 2.95,-1.96 1.35,0.27 2.23,1.59 1.96,2.95 -0.57,2.82 -0.99,5.8 -1.28,9.11 -0.63,6.86 -0.63,14.08 -0.63,21.07 -0.01,1.39 -1.13,2.51 -2.51,2.51 z"
   id="path1133" />
</g>
<g
   id="g1139"
   transform="translate(-120.79885,-292.35)">
	<path
   class="st2"
   d="m 227.19,383.53 c -0.29,0 -0.58,-0.05 -0.86,-0.15 -6.57,-2.42 -12.07,-5.15 -16.83,-8.35 -1.15,-0.77 -1.45,-2.32 -0.68,-3.47 0.77,-1.15 2.32,-1.45 3.47,-0.68 4.42,2.98 9.58,5.53 15.77,7.81 1.3,0.48 1.96,1.91 1.48,3.21 -0.38,1 -1.33,1.63 -2.35,1.63 z"
   id="path1137" />
</g>
<g
   id="g1143"
   transform="translate(-120.79885,-292.35)">
	<path
   class="st2"
   d="m 181.77,368.17 c -0.09,0 -0.19,0 -0.28,-0.02 -4.62,-0.52 -9.16,-1.51 -13.39,-2.51 -1.34,-0.32 -2.18,-1.66 -1.86,-3.01 0.32,-1.34 1.66,-2.18 3.01,-1.86 4.07,0.96 8.44,1.92 12.79,2.41 1.37,0.15 2.36,1.39 2.21,2.76 -0.14,1.28 -1.22,2.23 -2.48,2.23 z"
   id="path1141" />
</g>
<g
   id="g1147"
   transform="translate(-120.79885,-292.35)">
	<path
   class="st2"
   d="m 193.92,320.29 c -1.84,0 -4.84,-0.23 -7.75,-0.88 -5.5,-1.22 -8.29,-3.43 -8.29,-6.57 0,-4.77 7.46,-20.49 23.94,-20.49 11.23,0 11.9,10.15 12.29,16.21 l 0.04,0.62 c 0.1,1.69 0.2,3.3 0.42,4.69 0.52,0.46 0.85,1.13 0.85,1.88 0,1.37 -1.1,2.48 -2.47,2.5 -0.29,0.06 -0.6,0.08 -0.89,0.04 -1.6,0.09 -3.45,0.39 -5.56,0.74 -3.4,0.56 -7.66,1.26 -12.58,1.26 z m -11.03,-7.56 c 0.17,0.2 1.07,1.06 4.37,1.79 2.51,0.56 5.16,0.76 6.66,0.76 4.51,0 8.38,-0.64 11.79,-1.2 1.35,-0.22 2.6,-0.43 3.78,-0.58 -0.15,-1.28 -0.23,-2.63 -0.32,-4.03 l -0.04,-0.61 c -0.53,-8.13 -1.67,-11.53 -7.3,-11.53 -13.29,0.02 -18.78,12.92 -18.94,15.4 z"
   id="path1145" />
</g>
<g
   id="g1151"
   transform="translate(-120.79885,-292.35)">
	<path
   class="st2"
   d="m 154.78,480.37 c -0.2,0 -0.41,-0.02 -0.61,-0.07 -5.4,-1.21 -10.28,-2.83 -14.49,-4.82 -1.37,-0.65 -1.96,-2.29 -1.31,-3.66 0.65,-1.37 2.29,-1.96 3.66,-1.32 3.83,1.81 8.31,3.29 13.29,4.41 1.26,0.25 2.21,1.36 2.21,2.7 -0.01,1.53 -1.23,2.76 -2.75,2.76 z"
   id="path1149" />
</g>
<g
   id="g1155"
   transform="translate(-120.79885,-292.35)">
	<path
   class="st2"
   d="m 180.49,511.13 c -1.52,0 -2.75,-1.23 -2.75,-2.75 0,-1.52 1.23,-2.75 2.75,-2.75 4.45,0 10.68,-1.48 13.4,-14.31 1.29,-6.07 1.45,-13.02 1.45,-18.4 0,-7.3 -0.5,-14.81 -0.99,-22.07 -0.49,-7.37 -1,-14.99 -1,-22.5 0,-1.33 0.02,-2.66 0.05,-3.99 v -0.19 c 0,-1.52 1.23,-2.75 2.75,-2.75 1.52,0 2.75,1.23 2.75,2.75 v 0.25 c -0.03,1.35 -0.05,2.64 -0.05,3.93 0,7.33 0.5,14.85 0.99,22.13 0.49,7.35 1,14.96 1,22.44 0,5.65 -0.18,12.97 -1.57,19.54 -2.62,12.39 -8.94,18.67 -18.78,18.67 z"
   id="path1153" />
</g>
<g
   id="g1159"
   transform="translate(-120.79885,-292.35)">
	<path
   class="st2"
   d="m 180.49,511.13 c -1.36,0 -2.51,-0.7 -3.06,-1.88 -0.16,-0.34 -0.25,-0.67 -0.29,-0.96 -0.75,-1.18 -0.67,-3.13 -0.12,-11.03 0.12,-1.67 0.23,-3.32 0.31,-4.75 0.05,-0.95 0.08,-1.79 0.08,-2.45 0,-3.5 -1.06,-8.34 -2.28,-13.94 -2.03,-9.28 -4.56,-20.83 -4.56,-34.99 0,-1.52 1.23,-2.75 2.75,-2.75 1.52,0 2.75,1.23 2.75,2.75 0,13.57 2.46,24.79 4.43,33.82 1.35,6.15 2.41,11.02 2.41,15.11 0,0.72 -0.03,1.61 -0.08,2.74 -0.08,1.46 -0.19,3.15 -0.31,4.84 -0.18,2.59 -0.44,6.33 -0.41,7.91 0.15,0.23 0.26,0.48 0.35,0.76 0.02,0.06 0.03,0.12 0.05,0.18 0.46,0.49 0.75,1.16 0.75,1.89 -0.02,1.52 -1.25,2.75 -2.77,2.75 z m -1.21,-1.46 c 0.1,0.01 0.21,0.02 0.32,0.02 -0.11,0 -0.22,-0.01 -0.32,-0.02 z m 2.85,-3.56 h 0.01 z m -2.52,-1.92 z m -0.01,0 c 0,0 0,0 0,0 0,0 0,0 0,0 z"
   id="path1157" />
</g>
<g
   id="g1163"
   transform="translate(-120.79885,-292.35)">
	<path
   class="st2"
   d="m 181.55,495.46 c -0.56,0 -1.1,-0.01 -1.65,-0.05 -1.52,-0.09 -2.67,-1.4 -2.58,-2.91 0.09,-1.52 1.43,-2.67 2.91,-2.57 2.22,0.14 4.62,-0.09 6.93,-0.29 1.89,-0.16 3.84,-0.33 5.72,-0.33 1.22,0 2.34,-0.05 3.42,-0.16 1.52,-0.16 2.86,0.96 3,2.47 0.15,1.51 -0.96,2.86 -2.47,3 -1.26,0.12 -2.56,0.18 -3.96,0.18 -1.65,0 -3.4,0.15 -5.25,0.31 -1.96,0.17 -4.01,0.35 -6.07,0.35 z"
   id="path1161" />
</g>
<g
   id="g1167"
   transform="translate(-120.79885,-292.35)">
	<path
   class="st2"
   d="m 203.99,345.32 h -0.13 c -6.38,0 -8.46,-9.11 -9.07,-13.11 -0.03,-0.13 -0.04,-0.26 -0.06,-0.38 -0.18,-1.51 0.89,-2.89 2.4,-3.07 1.51,-0.18 2.88,0.88 3.06,2.39 0.02,0.1 0.02,0.12 0.03,0.19 0.81,5.47 2.67,8.49 3.64,8.49 h 0.08 c 6.31,-0.26 12.06,-3.93 18.08,-11.54 0.94,-1.19 2.67,-1.39 3.86,-0.45 1.19,0.94 1.39,2.67 0.45,3.86 -7.01,8.86 -14.28,13.32 -22.23,13.62 -0.04,0 -0.07,0 -0.11,0 z"
   id="path1165" />
</g>
<g
   id="g1171"
   transform="translate(-120.79885,-292.35)">
	<path
   class="st2"
   d="m 234.77,397.1 c -5.09,0 -9.83,-0.79 -14.1,-2.33 -1.43,-0.52 -2.16,-2.1 -1.65,-3.52 0.52,-1.43 2.09,-2.16 3.52,-1.65 3.66,1.33 7.77,2 12.22,2 2.89,0 5.91,-0.27 9.24,-0.82 1.51,-0.25 2.92,0.76 3.16,2.26 0.25,1.5 -0.76,2.91 -2.26,3.16 -3.62,0.6 -6.94,0.9 -10.13,0.9 z"
   id="path1169" />
</g>
</svg>
